<svg width="30" height="30" viewBox="0 0 30 30" fill="none" xmlns="http://www.w3.org/2000/svg">
<path d="M15 0C6.72938 0 0 6.72938 0 15C0 23.2706 6.72938 30 15 30C23.2706 30 30 23.2706 30 15C30 6.72938 23.2706 0 15 0ZM15 28.125C7.7625 28.125 1.875 22.2375 1.875 15C1.875 7.7625 7.7625 1.875 15 1.875C22.2375 1.875 28.125 7.7625 28.125 15C28.125 22.2375 22.2375 28.125 15 28.125Z" fill="white"/>
<path d="M15 14.0625C13.4756 14.0625 12.1875 13.2038 12.1875 12.1875C12.1875 11.1712 13.4756 10.3125 15 10.3125C15.8625 10.3125 16.6613 10.5825 17.19 11.0512C17.5763 11.3944 18.1669 11.3625 18.5137 10.9725C18.8587 10.5863 18.8231 9.99375 18.435 9.64875C17.7787 9.06562 16.8975 8.67187 15.9375 8.51625V7.5C15.9375 6.9825 15.5175 6.5625 15 6.5625C14.4825 6.5625 14.0625 6.9825 14.0625 7.5V8.5125C11.925 8.86125 10.3125 10.3763 10.3125 12.1875C10.3125 14.2556 12.4162 15.9375 15 15.9375C16.5244 15.9375 17.8125 16.7963 17.8125 17.8125C17.8125 18.8287 16.5244 19.6875 15 19.6875C14.1375 19.6875 13.3387 19.4175 12.81 18.9487C12.4237 18.6038 11.8312 18.6375 11.4862 19.0275C11.1412 19.4137 11.1769 20.0063 11.565 20.3512C12.2213 20.9362 13.1025 21.3281 14.0625 21.4856V22.5C14.0625 23.0175 14.4825 23.4375 15 23.4375C15.5175 23.4375 15.9375 23.0175 15.9375 22.5V21.4875C18.075 21.1388 19.6875 19.6237 19.6875 17.8125C19.6875 15.7444 17.5838 14.0625 15 14.0625Z" fill="white"/>
</svg>
