<svg width="22" height="29" viewBox="0 0 22 29" fill="none" xmlns="http://www.w3.org/2000/svg">
<path d="M10.7959 16.4331C9.63845 16.4331 8.7002 17.3714 8.7002 18.5288C8.7002 19.2679 9.08309 19.9171 9.66099 20.2902V22.7769C9.66099 23.4025 10.1682 23.9097 10.7938 23.9097C11.4194 23.9097 11.9266 23.4025 11.9266 22.7769V20.2929C12.5068 19.9202 12.8916 19.2697 12.8916 18.5288C12.8916 17.3714 11.9533 16.4331 10.7959 16.4331Z" fill="white"/>
<path d="M19.0312 29H2.71875C1.22042 29 0 27.7808 0 26.2813V13.5938C0 12.0942 1.22042 10.875 2.71875 10.875H19.0312C20.5296 10.875 21.75 12.0942 21.75 13.5938V26.2813C21.75 27.7808 20.5296 29 19.0312 29ZM2.71875 12.6875C2.21971 12.6875 1.8125 13.0935 1.8125 13.5938V26.2813C1.8125 26.7815 2.21971 27.1875 2.71875 27.1875H19.0312C19.5303 27.1875 19.9375 26.7815 19.9375 26.2813V13.5938C19.9375 13.0935 19.5303 12.6875 19.0312 12.6875H2.71875Z" fill="white"/>
<path d="M17.2188 12.6875C16.7185 12.6875 16.3125 12.2815 16.3125 11.7812V7.25C16.3125 4.25213 13.8729 1.8125 10.875 1.8125C7.87713 1.8125 5.4375 4.25213 5.4375 7.25V11.7812C5.4375 12.2815 5.0315 12.6875 4.53125 12.6875C4.031 12.6875 3.625 12.2815 3.625 11.7812V7.25C3.625 3.25163 6.87663 0 10.875 0C14.8734 0 18.125 3.25163 18.125 7.25V11.7812C18.125 12.2815 17.719 12.6875 17.2188 12.6875Z" fill="white"/>
</svg>
