<svg width="23" height="30" viewBox="0 0 23 30" fill="none" xmlns="http://www.w3.org/2000/svg">
<path d="M11.2502 30C11.1101 30 10.9691 29.9689 10.84 29.9048C4.90911 27.0172 0 23.9007 0 14.9998V4.68714C0 4.29255 0.246261 3.94095 0.617068 3.80639L10.9297 0.0562988C11.1366 -0.0187663 11.3637 -0.0187663 11.5706 0.0562988L21.8832 3.80634C22.254 3.9409 22.5003 4.29249 22.5003 4.68709V14.9997C22.5003 23.9006 17.5912 27.0171 11.6603 29.9047C11.5312 29.9689 11.3902 30 11.2502 30ZM1.87505 5.34356V14.9998C1.87505 21.9936 5.03181 24.9316 11.2502 28.017C17.4685 24.9316 20.6253 21.9936 20.6253 14.9998V5.34356L11.2502 1.93499L1.87505 5.34356Z" fill="white"/>
<path d="M10.5872 18.7499L6.17432 14.337L7.50001 13.0113L10.5872 16.0985L16.4869 10.1987L17.8126 11.5244L10.5872 18.7499Z" fill="white"/>
</svg>
