<svg width="309" height="309" viewBox="0 0 309 309" fill="none" xmlns="http://www.w3.org/2000/svg">
<path d="M264.3 251.597C256.63 259.501 249.776 264.14 244.522 267.651C193.315 301.837 134.773 291.988 116.683 288.612C87.4796 283.179 62.8377 279.344 41.6618 260.216C-6.4593 216.751 -4.12256 126.064 32.6503 69.887C37.0107 63.2353 73.7164 8.81391 132.381 1.14483C133.812 0.954783 134.885 0.854168 135.824 0.753554C144.903 -0.207876 201.141 -5.28333 246.993 33.1403C253.555 38.6406 264.121 48.5567 273.915 63.6825C309.738 118.987 309.85 204.655 264.3 251.597Z" fill="url(#paint0_linear)"/>
<path d="M236.527 106.746L262.645 100.665C262.645 100.665 280.109 99.0996 282.468 114.617C284.827 130.134 284.145 222.084 283.407 241.056C283.161 247.305 283.195 253.085 283.72 258.116C284.827 268.602 276.643 277.769 266.1 277.948L217.476 278.786L236.527 106.746Z" fill="url(#paint1_linear)"/>
<path d="M222.63 286.265C222.63 286.265 227.851 213.107 264.959 168.512C265.44 167.931 266.279 168.076 266.536 168.791C270.583 180.083 293.313 252.738 222.63 286.265Z" fill="#BDD0FB"/>
<path d="M263.361 189.742C263.048 194.012 262.433 198.227 261.717 202.43C260.979 206.623 260.107 210.804 259.079 214.94C257.033 223.224 254.483 231.385 251.342 239.334C249.754 243.302 248.077 247.237 246.199 251.072C245.282 253.006 244.264 254.884 243.292 256.785C242.252 258.652 241.246 260.541 240.128 262.363C235.778 269.73 230.691 276.662 224.888 282.911C224.721 283.101 224.419 283.112 224.24 282.933C224.061 282.766 224.05 282.497 224.184 282.318V282.307C229.349 275.611 234.012 268.568 238.048 261.178C239.088 259.345 240.016 257.455 241.011 255.6C241.928 253.71 242.889 251.832 243.75 249.909C244.175 248.948 244.644 248.009 245.069 247.036L246.344 244.141C246.758 243.179 247.149 242.196 247.563 241.223C247.976 240.25 248.356 239.278 248.737 238.294C249.519 236.338 250.246 234.359 250.984 232.391C251.688 230.401 252.393 228.423 253.041 226.41C254.394 222.419 255.601 218.372 256.764 214.314C257.905 210.245 258.956 206.164 259.906 202.039C260.879 197.925 261.728 193.778 262.466 189.63V189.619C262.511 189.373 262.746 189.205 263.003 189.25C263.215 189.295 263.383 189.507 263.361 189.742Z" fill="url(#paint2_linear)"/>
<path d="M227.237 278.259C227.237 278.259 265.497 213.91 307.122 212.904C307.86 212.882 308.419 213.564 308.274 214.291C306.496 222.698 294.097 266.722 227.237 278.259Z" fill="#91B3FA"/>
<path d="M298.3 223.11C295.773 225.759 293.179 228.308 290.552 230.824C289.221 232.065 287.891 233.317 286.549 234.546C285.196 235.765 283.855 236.995 282.479 238.202C277.012 243.02 271.388 247.66 265.608 252.098C262.734 254.345 259.772 256.458 256.831 258.627L252.348 261.757C251.599 262.271 250.85 262.797 250.1 263.311L247.808 264.809C241.76 268.878 235.443 272.534 229.07 276.078C228.846 276.201 228.567 276.123 228.444 275.899C228.321 275.675 228.399 275.407 228.611 275.284L228.623 275.273L233.318 272.523L235.666 271.148C236.438 270.678 237.209 270.186 237.97 269.706L242.587 266.821C244.108 265.826 245.606 264.809 247.126 263.814L249.396 262.305L251.621 260.74L256.082 257.61C259 255.441 261.952 253.328 264.803 251.081C267.687 248.878 270.516 246.598 273.345 244.328L277.526 240.852L281.663 237.308C283.038 236.123 284.391 234.904 285.755 233.708C287.108 232.501 288.45 231.271 289.78 230.041C292.441 227.582 295.091 225.089 297.64 222.517L297.651 222.506C297.83 222.327 298.121 222.327 298.3 222.506C298.467 222.64 298.479 222.931 298.3 223.11Z" fill="#BDD0FB"/>
<path d="M183.43 108.009C183.43 108.009 230.993 110.625 262.656 100.664C262.656 100.664 241.614 99.2216 241.614 147.807C241.614 184.956 247.126 255.856 242.318 269.316C237.511 282.776 219.521 300.865 193.728 285.325C167.923 269.775 183.43 108.009 183.43 108.009Z" fill="#7D97F4"/>
<path d="M170.785 35.1634C170.785 35.1634 223.255 40.887 230.02 31.9886C230.02 31.9886 224.642 15.9804 208.676 17.0536C192.71 18.1268 170.785 35.1634 170.785 35.1634Z" fill="url(#paint3_linear)"/>
<path d="M0.114798 53.1728C4.69882 104.587 14.3029 213.351 18.4844 266.331C19.4124 278.147 28.8823 287.471 40.7114 288.231C82.8285 290.936 177.628 296.18 214.01 291.294C205.68 287.191 200.425 278.673 200.504 269.383L202.438 31.6412C202.505 23.2455 210.879 17.2086 218.739 20.1488C223.692 22.0046 227.449 25.9621 230.02 31.9766C226.588 21.971 221.188 14.6485 208.677 17.0409C208.677 17.0409 86.3168 18.2595 26.9481 21.9487C10.8034 22.9436 -1.31631 37.0632 0.114798 53.1728Z" fill="#91B3FA"/>
<mask id="mask0" mask-type="alpha" maskUnits="userSpaceOnUse" x="4" y="22" width="199" height="268">
<path d="M30.3814 28.7582L194.791 22.4307C188.005 72.6262 190.867 174.851 193.461 275.588C193.617 281.558 197.117 286.935 202.517 289.484C202.517 289.484 92.8583 290.748 45.7323 287.405C34.6412 286.622 25.585 278.227 23.9414 267.226C17.4791 224.074 2.00518 112.57 5.22518 53.5318C5.9631 40.0159 16.8529 29.2725 30.3814 28.7582Z" fill="url(#paint4_linear)"/>
</mask>
<g mask="url(#mask0)">
<path opacity="0.53" d="M30.3814 28.7582L194.791 22.4307C188.005 72.6262 190.867 174.851 193.461 275.588C193.617 281.558 197.117 286.935 202.517 289.484C202.517 289.484 92.8583 290.748 45.7323 287.405C34.6412 286.622 25.585 278.227 23.9414 267.226C17.4791 224.074 2.00518 112.57 5.22518 53.5318C5.9631 40.0159 16.8529 29.2725 30.3814 28.7582Z" fill="url(#paint5_linear)"/>
<path d="M28.2121 106.61L30.1352 125.022C30.4818 128.398 33.2657 131.003 36.6534 131.126L47.3756 131.54C51.2441 131.685 54.4641 128.588 54.4641 124.72V104.866C54.4641 100.875 51.054 97.7443 47.0849 98.0685L34.4397 99.1082C30.6271 99.4212 27.8096 102.809 28.2121 106.61Z" fill="url(#paint6_linear)"/>
<path d="M65.9123 100.942C83.7564 100.383 152.26 98.1585 169.556 97.5995C171.736 97.5325 173.536 99.2764 173.536 101.456C173.536 103.536 171.893 105.235 169.813 105.313L66.2253 109.159C64.2352 109.237 62.5022 107.772 62.2451 105.794L62.178 105.291C61.9096 103.032 63.6315 101.009 65.9123 100.942Z" fill="url(#paint7_linear)"/>
<path d="M64.7945 125.212C65.0963 125.715 65.6554 126.028 66.2367 126.017L137.367 124.475C138.262 124.452 138.977 123.726 138.977 122.831V118.147C138.977 117.219 138.206 116.47 137.278 116.504L68.1374 119.086C65.0516 119.198 63.218 122.563 64.7945 125.212Z" fill="url(#paint8_linear)"/>
<path d="M28.2121 157.723L30.1352 176.135C30.4818 179.511 33.2657 182.116 36.6534 182.239L47.3756 182.653C51.2441 182.798 54.4641 179.702 54.4641 175.833V155.968C54.4641 151.977 51.054 148.846 47.0849 149.171L34.4397 150.21C30.6271 150.534 27.8096 153.922 28.2121 157.723Z" fill="url(#paint9_linear)"/>
<path d="M65.9123 152.044C83.7564 151.485 152.26 149.261 169.556 148.702C171.736 148.635 173.536 150.378 173.536 152.558C173.536 154.638 171.893 156.337 169.813 156.415L66.2253 160.261C64.2352 160.339 62.5022 158.874 62.2451 156.896L62.178 156.393C61.9096 154.135 63.6315 152.111 65.9123 152.044Z" fill="url(#paint10_linear)"/>
<path opacity="0.78" d="M64.7945 176.326C65.0963 176.829 65.6554 177.142 66.2367 177.131L137.367 175.588C138.262 175.566 138.977 174.839 138.977 173.945V169.261C138.977 168.333 138.206 167.584 137.278 167.618L68.1374 170.2C65.0516 170.301 63.218 173.677 64.7945 176.326Z" fill="white"/>
<path d="M28.2121 208.823L30.1352 227.236C30.4818 230.612 33.2657 233.217 36.6534 233.34L47.3756 233.753C51.2441 233.899 54.4641 230.802 54.4641 226.934V207.068C54.4641 203.077 51.054 199.947 47.0849 200.271L34.4397 201.311C30.6271 201.635 27.8096 205.022 28.2121 208.823Z" fill="url(#paint11_linear)"/>
<path d="M65.9123 203.157C83.7564 202.598 152.26 200.373 169.556 199.814C171.736 199.747 173.536 201.491 173.536 203.671C173.536 205.75 171.893 207.45 169.813 207.528L66.2253 211.373C64.2352 211.452 62.5022 209.987 62.2451 208.009L62.178 207.505C61.9096 205.247 63.6315 203.224 65.9123 203.157Z" fill="url(#paint12_linear)"/>
<path d="M64.7945 227.427C65.0963 227.93 65.6554 228.243 66.2367 228.232L137.367 226.689C138.262 226.667 138.977 225.94 138.977 225.046V220.351C138.977 219.423 138.206 218.674 137.278 218.708L68.1374 221.29C65.0516 221.413 63.218 224.778 64.7945 227.427Z" fill="url(#paint13_linear)"/>
<path d="M118.852 279.367C118.036 279.367 117.231 278.986 116.37 278.193C113.217 275.297 112.401 270.848 112.177 266.611C110.724 268.243 109.237 269.819 107.761 271.396L106.945 270.635C108.678 268.791 110.422 266.924 112.11 265.001C111.965 259.199 112.233 253.341 112.904 247.584C113.318 244.051 113.899 240.306 115.431 236.896C115.923 235.812 116.728 234.247 118.125 233.274C119.579 232.257 121.491 232.145 122.765 233.006C124.196 233.967 124.588 235.8 124.755 237.086C125.728 244.666 122.776 251.619 120.116 256.113C118.148 259.445 115.766 262.508 113.239 265.404C113.374 269.741 113.966 274.481 117.119 277.377C117.779 277.98 118.36 278.271 118.897 278.249C119.78 278.215 120.496 277.354 121.088 276.516C123.749 272.704 125.818 268.578 127.26 264.207C127.428 262.888 127.797 261.603 128.356 260.395L129.407 260.764C129.105 262.016 128.747 263.246 128.356 264.453C128.21 265.694 128.255 266.957 128.501 268.176C128.635 268.824 129.183 270.982 130.771 271.284C131.956 271.507 133.186 270.613 134.55 268.534L140.14 260.037L139.435 263.078C139.19 264.151 138.765 266.712 140.263 267.338C141.113 267.684 142.018 267.181 143.058 266.589C144.098 266.007 145.171 265.392 146.39 265.56L146.96 265.638L146.859 266.208C146.803 266.533 146.356 269.417 147.843 269.741C148.525 269.898 149.095 269.417 149.956 268.623C150.638 267.997 151.332 267.349 152.248 267.125L152.506 268.21C151.868 268.366 151.298 268.892 150.705 269.439C149.856 270.222 148.894 271.116 147.586 270.826C145.887 270.445 145.473 268.534 145.652 266.667C144.981 266.767 144.299 267.147 143.583 267.55C142.454 268.187 141.168 268.914 139.816 268.355C138.698 267.897 138.094 266.79 138.049 265.202L135.455 269.137C134.404 270.725 132.761 272.793 130.525 272.368C128.993 272.078 127.808 270.591 127.372 268.388C127.316 268.087 127.26 267.774 127.226 267.461C125.851 270.859 124.096 274.101 121.983 277.142C121.289 278.148 120.306 279.3 118.919 279.344C118.908 279.367 118.886 279.367 118.852 279.367ZM120.798 233.542C120.06 233.542 119.322 233.822 118.785 234.191C117.622 235.007 116.907 236.382 116.471 237.354C115.006 240.63 114.425 244.263 114.033 247.706C113.418 253.006 113.15 258.394 113.217 263.727C115.408 261.144 117.455 258.45 119.165 255.543C121.726 251.194 124.588 244.498 123.66 237.231C123.436 235.521 122.967 234.481 122.162 233.933C121.748 233.654 121.267 233.542 120.798 233.542Z" fill="url(#paint14_linear)"/>
<path opacity="0.78" d="M167.856 77.9362L36.8757 81.8154C32.1687 81.9496 28.222 78.3051 27.9872 73.5986L27.5064 63.8054C27.2716 58.9647 31.0619 54.8731 35.903 54.7501L167.532 51.2733C172.451 51.1391 176.487 55.1414 176.398 60.0715L176.23 69.4622C176.152 74.0569 172.462 77.7909 167.856 77.9362Z" fill="white"/>
</g>
<path d="M126.6 181.111C126.6 181.111 122.228 178.249 121.624 178.909C121.412 179.144 120.909 179.937 120.439 180.809C120.104 181.424 120.215 182.184 120.696 182.687L121.826 183.85C122.899 184.957 124.711 184.878 125.661 183.66C126.131 183.045 126.511 182.218 126.6 181.111Z" fill="url(#paint15_linear)"/>
<path d="M131.05 175.665C131.05 175.665 129.552 171.719 127.796 172.077C126.041 172.435 124.129 173.787 124.129 173.787L121.312 177.588C121.312 177.588 129.205 180.696 131.989 178.918C131.989 178.918 140.05 180.316 150.236 178.639C148.76 175.531 147.888 172.412 147.362 169.986C142.219 172.915 136.662 175.095 131.05 175.665Z" fill="url(#paint16_linear)"/>
<path d="M173.782 147.048C173.782 147.048 162.233 161.593 147.385 170C147.899 172.414 148.782 175.533 150.258 178.653C157.962 177.389 166.884 174.371 174.442 167.663L173.782 147.048Z" fill="url(#paint17_linear)"/>
<path d="M188.181 211.508C185.922 200.776 183.664 194.571 176.106 174.236C173.725 167.841 171.567 161.369 172.606 154.616L173.78 147.037C173.78 147.037 188.472 142.062 204.773 146.824C204.773 146.824 227 156.483 211.906 204.163C205.086 211.788 197.125 213.957 188.181 211.508Z" fill="url(#paint18_linear)"/>
<path d="M176.275 137.377L180.088 146.532C180.334 147.114 180.848 147.527 181.463 147.628C183.666 148.008 188.976 148.589 192.465 146.298C192.879 146.029 192.99 145.459 192.7 145.046L185.656 134.94L176.275 137.377Z" fill="url(#paint19_linear)"/>
<path d="M180.222 123.368C180.066 123.513 173.469 136.47 173.469 136.47L180.949 140.08L189.021 128.734C189.01 128.734 182.906 120.853 180.222 123.368Z" fill="url(#paint20_linear)"/>
<path d="M185.623 130.099L181.9 136.315C181.844 136.404 181.777 136.494 181.699 136.572C181.251 136.985 179.742 138.182 178.568 136.549C177.573 135.152 176.634 133.889 175.628 133.363C175.035 133.061 174.319 133.296 174.018 133.889C173.403 135.107 172.217 137.589 171.468 139.937C171.278 140.529 171.58 141.155 172.162 141.39C173.671 142.005 176.667 143.112 179.317 143.481C179.753 143.537 180.189 143.358 180.446 143C181.587 141.435 184.807 137.064 185.902 135.968C186.92 134.951 188.809 135.331 189.659 135.577C189.983 135.666 190.33 135.622 190.609 135.454C191.47 134.94 192.969 133.643 191.593 131.452C191.247 130.904 191.426 130.188 191.962 129.831C192.924 129.193 193.964 128.008 192.969 126.086C191.962 124.14 190.162 123.961 188.944 124.118C188.407 124.185 187.848 123.906 187.647 123.391C187.557 123.168 187.367 122.978 187.032 122.911C186.394 122.776 185.97 122.195 186.093 121.547C186.305 120.451 186.148 119.02 184.382 118.048C181.162 116.27 178.333 119.165 177.618 121.603C176.902 124.04 180.502 125.761 182.772 126.052C184.438 126.264 185.355 128.087 185.724 129.037C185.847 129.395 185.813 129.775 185.623 130.099Z" fill="url(#paint21_linear)"/>
<path d="M184.314 137.835C184.314 137.835 185.913 134.057 187.758 134.213C189.592 134.37 191.034 136.192 188.764 138.249C185.924 140.809 184.314 137.835 184.314 137.835Z" fill="url(#paint22_linear)"/>
<path d="M186.73 306.052C190.274 306.354 196.435 306.857 201.298 307.069C204.216 307.192 205.893 306.913 206.866 306.521C206.866 306.633 206.866 306.734 206.855 306.834C206.832 307.348 206.419 307.751 205.904 307.784C196.725 308.299 189.424 307.963 186.83 307.807C186.294 307.773 185.97 307.192 186.249 306.734C186.383 306.499 186.551 306.264 186.73 306.052Z" fill="url(#paint23_linear)"/>
<path d="M201.298 307.068C196.446 306.855 190.285 306.352 186.73 306.05C190.218 301.769 201.298 298.885 201.298 298.885H204.429C206.575 301.981 206.889 304.944 206.866 306.52C205.905 306.911 204.216 307.191 201.298 307.068Z" fill="url(#paint24_linear)"/>
<path d="M204.956 293.776L204.666 299.567C204.632 300.193 204.163 300.718 203.536 300.808C202.91 300.897 202.072 300.908 201.188 300.618C200.64 300.439 200.238 299.981 200.137 299.411L199.131 293.776H204.956Z" fill="url(#paint25_linear)"/>
<path d="M245.584 307.023C247.127 306.811 247.82 306.006 248.111 305.156C248.111 305.167 248.111 305.167 248.122 305.179C248.345 306.084 247.82 307.012 246.769 307.459C245.505 307.996 244.108 308.085 243.034 308.04C241.882 307.996 240.82 307.515 240.239 306.755L240.228 306.744C241.39 307.314 243.023 307.381 245.584 307.023Z" fill="url(#paint26_linear)"/>
<path d="M238.328 293.732H240.911C244.835 293.653 247.306 301.937 248.111 305.145C247.82 305.995 247.127 306.8 245.584 307.012C243.013 307.37 241.391 307.303 240.229 306.733C238.104 303.938 237.053 299.846 236.55 297.465C235.98 294.749 238.328 293.732 238.328 293.732Z" fill="url(#paint27_linear)"/>
<path d="M240.575 288.365L242.006 294.066C242.185 294.76 241.849 295.486 241.201 295.822C240.396 296.235 239.266 296.66 238.238 296.537C237.746 296.481 237.343 296.135 237.187 295.676L235.084 289.684L240.575 288.365Z" fill="url(#paint28_linear)"/>
<path d="M242.284 290.01C240.506 291.587 234.704 291.799 234.704 291.799C213.818 241.682 205.109 227.886 205.109 227.886C208.128 246.802 205.757 295.354 205.757 295.354C202.314 296.875 197.864 295.354 197.864 295.354C197.584 264.387 193.224 231.106 187.6 209.82C201.71 209.507 209.38 206.422 211.839 204.488C223.613 223.448 242.284 290.01 242.284 290.01Z" fill="url(#paint29_linear)"/>
<path d="M184.057 223.826L186.651 239.981C187.109 242.798 189.714 244.754 192.554 244.408L231.429 239.668C233.33 239.433 234.772 237.845 234.806 235.945C234.884 231.775 234.727 224.341 232.972 217.577L184.057 223.826Z" fill="url(#paint30_linear)"/>
<path d="M193.872 243.313C193.805 243.313 193.749 243.268 193.749 243.201C193.738 243.134 193.794 243.067 193.861 243.056L194.879 242.933C194.957 242.921 195.013 242.977 195.024 243.044C195.035 243.111 194.979 243.179 194.912 243.19L193.895 243.313C193.884 243.313 193.884 243.313 193.872 243.313ZM191.502 243.268C191.491 243.268 191.48 243.268 191.469 243.268C191.133 243.19 190.798 243.067 190.485 242.921C190.418 242.888 190.395 242.81 190.429 242.754C190.462 242.687 190.541 242.664 190.597 242.698C190.898 242.843 191.212 242.955 191.536 243.033C191.603 243.044 191.648 243.123 191.625 243.19C191.614 243.234 191.558 243.268 191.502 243.268ZM197.26 242.899C197.193 242.899 197.137 242.854 197.137 242.787C197.126 242.72 197.182 242.653 197.249 242.642L198.266 242.519C198.334 242.508 198.401 242.564 198.412 242.631C198.423 242.698 198.367 242.765 198.3 242.776L197.283 242.899C197.271 242.899 197.26 242.899 197.26 242.899ZM200.648 242.485C200.581 242.485 200.525 242.441 200.525 242.374C200.514 242.307 200.57 242.239 200.637 242.228L201.654 242.105C201.732 242.094 201.788 242.15 201.799 242.217C201.811 242.284 201.755 242.351 201.688 242.362L200.67 242.485C200.659 242.485 200.648 242.485 200.648 242.485ZM204.024 242.072C203.957 242.072 203.901 242.027 203.901 241.96C203.89 241.893 203.946 241.826 204.013 241.815L205.031 241.692C205.109 241.681 205.165 241.736 205.176 241.803C205.187 241.871 205.131 241.938 205.064 241.949L204.047 242.072C204.036 242.072 204.036 242.072 204.024 242.072ZM207.412 241.658C207.345 241.658 207.289 241.613 207.289 241.546C207.278 241.479 207.334 241.412 207.401 241.401L208.418 241.278C208.497 241.267 208.553 241.323 208.564 241.39C208.575 241.457 208.519 241.524 208.452 241.535L207.434 241.658C207.423 241.658 207.423 241.658 207.412 241.658ZM188.707 241.446C188.674 241.446 188.629 241.423 188.606 241.401C188.394 241.122 188.204 240.831 188.059 240.507C188.025 240.44 188.059 240.361 188.115 240.339C188.182 240.305 188.26 240.339 188.282 240.395C188.428 240.697 188.606 240.976 188.808 241.245C188.852 241.3 188.841 241.379 188.785 241.423C188.763 241.435 188.729 241.446 188.707 241.446ZM210.8 241.256C210.733 241.256 210.677 241.211 210.677 241.144C210.666 241.077 210.722 241.01 210.789 240.999L211.806 240.876C211.884 240.864 211.94 240.92 211.951 240.987C211.963 241.054 211.907 241.122 211.84 241.133L210.822 241.256C210.811 241.245 210.8 241.256 210.8 241.256ZM214.188 240.842C214.12 240.842 214.065 240.797 214.065 240.73C214.053 240.663 214.109 240.596 214.176 240.585L215.194 240.462C215.261 240.451 215.328 240.507 215.339 240.574C215.35 240.641 215.294 240.708 215.227 240.719L214.21 240.842C214.188 240.842 214.188 240.842 214.188 240.842ZM217.564 240.428C217.497 240.428 217.441 240.384 217.441 240.317C217.43 240.25 217.486 240.182 217.553 240.171L218.57 240.048C218.649 240.037 218.704 240.093 218.716 240.16C218.727 240.227 218.671 240.294 218.604 240.305L217.586 240.428C217.575 240.428 217.575 240.428 217.564 240.428ZM220.952 240.015C220.885 240.015 220.829 239.97 220.829 239.903C220.818 239.836 220.873 239.769 220.941 239.758L221.958 239.635C222.036 239.623 222.092 239.679 222.103 239.746C222.115 239.814 222.059 239.881 221.992 239.892L220.974 240.015C220.963 240.015 220.952 240.015 220.952 240.015ZM224.339 239.601C224.272 239.601 224.216 239.556 224.216 239.489C224.205 239.422 224.261 239.355 224.328 239.344L225.346 239.221C225.424 239.21 225.48 239.266 225.491 239.333C225.502 239.4 225.446 239.467 225.379 239.478L224.362 239.601C224.351 239.601 224.339 239.601 224.339 239.601ZM227.716 239.188C227.649 239.188 227.593 239.143 227.593 239.076C227.582 239.009 227.638 238.942 227.705 238.93L228.722 238.807C228.8 238.796 228.856 238.852 228.868 238.919C228.879 238.986 228.823 239.053 228.756 239.065L227.738 239.188C227.727 239.188 227.727 239.188 227.716 239.188ZM231.092 238.696C231.037 238.696 230.992 238.662 230.97 238.606C230.947 238.539 230.981 238.472 231.048 238.438C231.361 238.327 231.652 238.181 231.92 237.991C231.976 237.947 232.054 237.969 232.099 238.025C232.143 238.081 232.121 238.159 232.065 238.204C231.775 238.405 231.461 238.573 231.126 238.684C231.115 238.696 231.104 238.696 231.092 238.696ZM187.578 238.271C187.511 238.271 187.466 238.226 187.455 238.159L187.287 237.153C187.276 237.086 187.321 237.019 187.388 237.008C187.455 236.996 187.522 237.041 187.533 237.108L187.701 238.114C187.712 238.181 187.667 238.248 187.6 238.26C187.589 238.271 187.589 238.271 187.578 238.271ZM233.384 236.348C233.373 236.348 233.362 236.348 233.351 236.337C233.284 236.314 233.25 236.247 233.273 236.18C233.373 235.867 233.429 235.543 233.429 235.208C233.429 235.141 233.485 235.085 233.552 235.085C233.619 235.085 233.675 235.141 233.675 235.219C233.664 235.577 233.608 235.923 233.496 236.259C233.496 236.314 233.44 236.348 233.384 236.348ZM187.041 234.906C186.974 234.906 186.929 234.861 186.918 234.794L186.75 233.788C186.739 233.721 186.784 233.654 186.851 233.643C186.918 233.631 186.985 233.676 186.996 233.743L187.164 234.749C187.175 234.816 187.131 234.883 187.064 234.895C187.052 234.906 187.041 234.906 187.041 234.906ZM233.563 232.949C233.496 232.949 233.44 232.894 233.44 232.826C233.44 232.491 233.429 232.156 233.429 231.809C233.429 231.742 233.485 231.675 233.552 231.675C233.63 231.664 233.686 231.731 233.686 231.798C233.698 232.144 233.698 232.491 233.698 232.826C233.698 232.894 233.642 232.949 233.563 232.949ZM186.493 231.541C186.426 231.541 186.382 231.496 186.37 231.429L186.203 230.423C186.191 230.356 186.236 230.289 186.303 230.278C186.37 230.266 186.437 230.311 186.449 230.378L186.616 231.384C186.627 231.451 186.583 231.518 186.516 231.53C186.504 231.541 186.505 231.541 186.493 231.541ZM233.463 229.54C233.396 229.54 233.34 229.484 233.34 229.417C233.317 229.081 233.306 228.746 233.284 228.399C233.284 228.332 233.329 228.265 233.407 228.265C233.496 228.265 233.541 228.31 233.541 228.388C233.563 228.735 233.586 229.081 233.597 229.417C233.597 229.484 233.541 229.54 233.463 229.54C233.474 229.54 233.474 229.54 233.463 229.54ZM185.957 228.176C185.89 228.176 185.845 228.131 185.834 228.064L185.666 227.058C185.655 226.991 185.7 226.924 185.767 226.912C185.834 226.901 185.901 226.946 185.912 227.013L186.08 228.019C186.091 228.086 186.046 228.153 185.979 228.165C185.968 228.176 185.957 228.176 185.957 228.176ZM233.217 226.141C233.15 226.141 233.094 226.096 233.094 226.029C233.06 225.694 233.027 225.359 232.993 225.012C232.982 224.945 233.038 224.878 233.105 224.867C233.172 224.855 233.239 224.911 233.25 224.978C233.284 225.325 233.329 225.66 233.362 225.996C233.373 226.063 233.317 226.13 233.25 226.13C233.228 226.141 233.228 226.141 233.217 226.141ZM185.409 224.811C185.342 224.811 185.297 224.766 185.286 224.699L185.107 223.559L186.046 223.436C186.113 223.425 186.18 223.48 186.191 223.547C186.203 223.615 186.147 223.682 186.08 223.693L185.409 223.782L185.554 224.665C185.565 224.733 185.521 224.8 185.454 224.811C185.431 224.811 185.42 224.811 185.409 224.811ZM188.428 223.391C188.36 223.391 188.305 223.346 188.305 223.279C188.293 223.212 188.349 223.145 188.416 223.134L189.434 223C189.512 222.989 189.568 223.044 189.579 223.111C189.59 223.179 189.534 223.246 189.467 223.257L188.45 223.391C188.439 223.391 188.428 223.391 188.428 223.391ZM191.804 222.955C191.737 222.955 191.681 222.91 191.681 222.843C191.67 222.776 191.726 222.709 191.793 222.698L192.81 222.564C192.889 222.553 192.944 222.608 192.956 222.676C192.967 222.743 192.911 222.81 192.844 222.821L191.826 222.955C191.815 222.955 191.815 222.955 191.804 222.955ZM232.803 222.754C232.736 222.754 232.691 222.709 232.68 222.642C232.624 222.307 232.58 221.971 232.524 221.636C232.512 221.569 232.557 221.502 232.624 221.49C232.703 221.479 232.758 221.524 232.77 221.591C232.825 221.926 232.881 222.262 232.937 222.608C232.948 222.676 232.904 222.743 232.825 222.754C232.814 222.754 232.803 222.754 232.803 222.754ZM195.192 222.53C195.125 222.53 195.069 222.485 195.069 222.418C195.058 222.351 195.114 222.284 195.181 222.273L196.198 222.139C196.276 222.128 196.332 222.184 196.343 222.251C196.355 222.318 196.299 222.385 196.232 222.396L195.214 222.53C195.203 222.53 195.192 222.53 195.192 222.53ZM198.568 222.094C198.501 222.094 198.445 222.049 198.445 221.982C198.434 221.915 198.49 221.848 198.557 221.837L199.575 221.703C199.653 221.692 199.709 221.748 199.72 221.815C199.731 221.882 199.675 221.949 199.608 221.96L198.591 222.094C198.579 222.094 198.579 222.094 198.568 222.094ZM201.956 221.658C201.889 221.658 201.833 221.613 201.833 221.546C201.822 221.479 201.878 221.412 201.945 221.401L202.962 221.267C203.041 221.256 203.096 221.312 203.108 221.379C203.119 221.446 203.063 221.513 202.996 221.524L201.978 221.658C201.967 221.658 201.956 221.658 201.956 221.658ZM205.333 221.233C205.265 221.233 205.21 221.189 205.21 221.122C205.198 221.054 205.254 220.987 205.321 220.976L206.339 220.842C206.417 220.831 206.473 220.887 206.484 220.954C206.495 221.021 206.439 221.088 206.372 221.099L205.355 221.233C205.344 221.233 205.344 221.233 205.333 221.233ZM208.72 220.797C208.653 220.797 208.597 220.753 208.597 220.686C208.586 220.618 208.642 220.551 208.709 220.54L209.726 220.406C209.805 220.395 209.861 220.451 209.872 220.518C209.883 220.585 209.827 220.652 209.76 220.663L208.743 220.797C208.731 220.797 208.72 220.797 208.72 220.797ZM212.097 220.361C212.03 220.361 211.974 220.317 211.974 220.25C211.963 220.182 212.018 220.115 212.086 220.104L213.103 219.97C213.181 219.959 213.237 220.015 213.248 220.082C213.26 220.149 213.204 220.216 213.137 220.227L212.119 220.361C212.108 220.361 212.108 220.361 212.097 220.361ZM215.484 219.925C215.417 219.925 215.361 219.881 215.361 219.814C215.35 219.746 215.406 219.679 215.473 219.668L216.491 219.534C216.569 219.523 216.625 219.579 216.636 219.646C216.647 219.713 216.591 219.78 216.524 219.791L215.507 219.925C215.496 219.925 215.484 219.925 215.484 219.925ZM218.861 219.501C218.794 219.501 218.738 219.456 218.738 219.389C218.727 219.322 218.783 219.255 218.85 219.243L219.867 219.109C219.945 219.098 220.001 219.154 220.013 219.221C220.024 219.288 219.968 219.355 219.901 219.366L218.883 219.501C218.872 219.501 218.872 219.501 218.861 219.501ZM232.188 219.411C232.132 219.411 232.076 219.366 232.065 219.31C231.987 218.975 231.92 218.651 231.83 218.316C231.819 218.248 231.853 218.181 231.92 218.159C231.987 218.137 232.054 218.181 232.076 218.248C232.155 218.584 232.233 218.919 232.311 219.243C232.322 219.311 232.278 219.378 232.211 219.4C232.199 219.4 232.199 219.411 232.188 219.411ZM222.249 219.065C222.182 219.065 222.126 219.02 222.126 218.953C222.115 218.886 222.17 218.819 222.238 218.807L223.255 218.673C223.333 218.662 223.389 218.718 223.4 218.785C223.411 218.852 223.356 218.919 223.288 218.93L222.271 219.065C222.26 219.065 222.249 219.065 222.249 219.065ZM225.625 218.629C225.558 218.629 225.502 218.584 225.502 218.517C225.491 218.45 225.547 218.383 225.614 218.371L226.631 218.237C226.71 218.226 226.766 218.282 226.777 218.349C226.788 218.416 226.732 218.483 226.665 218.494L225.648 218.629C225.636 218.629 225.636 218.629 225.625 218.629ZM229.013 218.204C228.946 218.204 228.89 218.159 228.89 218.092C228.879 218.025 228.935 217.958 229.002 217.947L230.019 217.812C230.097 217.801 230.153 217.857 230.165 217.924C230.176 217.991 230.12 218.058 230.053 218.07L229.035 218.204C229.024 218.204 229.013 218.204 229.013 218.204Z" fill="white"/>
<path d="M193.94 210.59L193.895 209.327C193.984 209.014 194.23 208.768 194.555 208.668C195.74 208.321 198.703 207.594 200.28 208.489L200.682 209.92L193.94 210.59Z" fill="url(#paint31_linear)"/>
<path d="M197.563 208.902C197.295 209.003 197.016 209.036 196.725 209.003C196.378 208.958 196.099 208.69 196.054 208.343L195.551 204.43L197.541 204.173L198.044 208.086C198.089 208.444 197.888 208.779 197.563 208.902Z" fill="url(#paint32_linear)"/>
<path d="M213.25 208.12L213.205 206.857C213.295 206.544 213.541 206.298 213.865 206.197C215.05 205.851 218.013 205.124 219.59 206.019L219.992 207.449L213.25 208.12Z" fill="url(#paint33_linear)"/>
<path d="M216.872 206.433C216.603 206.533 216.324 206.567 216.033 206.533C215.687 206.489 215.407 206.22 215.362 205.874L214.803 201.548L216.794 201.291L217.353 205.617C217.397 205.974 217.196 206.31 216.872 206.433Z" fill="url(#paint34_linear)"/>
<path d="M195.473 205.426L216.817 201.972C217.309 201.893 217.678 201.491 217.7 200.999C217.734 200.317 217.711 199.3 217.421 198.272C217.097 197.109 215.967 196.36 214.76 196.483C210.746 196.897 200.572 198.204 195.239 201.144C194.679 201.458 194.299 202.016 194.232 202.654C194.165 203.257 194.165 204.062 194.456 204.834C194.601 205.247 195.037 205.493 195.473 205.426Z" fill="url(#paint35_linear)"/>
<path d="M194.948 204.598C194.791 204.598 194.657 204.487 194.612 204.33C194.601 204.297 194.411 203.458 194.534 202.609C194.635 201.915 195.093 201.312 195.742 201.021C196.904 200.518 199.13 199.613 201.019 199.322C201.209 199.3 201.377 199.423 201.411 199.601C201.444 199.791 201.31 199.959 201.131 199.993C199.253 200.283 196.938 201.245 196.021 201.647C195.585 201.837 195.283 202.24 195.216 202.698C195.115 203.413 195.283 204.162 195.283 204.174C195.328 204.352 195.216 204.543 195.026 204.587C195.004 204.598 194.97 204.598 194.948 204.598Z" fill="url(#paint36_linear)"/>
<path d="M183.922 211.373C190.832 210.4 220.762 206.253 229.595 206.186C230.355 206.186 231.037 206.655 231.294 207.359C232.11 209.618 233.832 214.883 234.391 220.249C234.47 220.976 234.011 221.658 233.307 221.893L213.92 228.198L206.865 229.103L185.163 227.605C184.403 227.549 183.766 226.99 183.632 226.241C183.151 223.57 182.122 217.276 182.335 213.117C182.379 212.234 183.05 211.507 183.922 211.373Z" fill="url(#paint37_linear)"/>
<path d="M206.843 227.505L205.792 227.438C205.725 227.438 205.669 227.371 205.669 227.304C205.669 227.237 205.736 227.181 205.803 227.181L206.821 227.248L207.368 227.181C207.447 227.169 207.503 227.225 207.514 227.292C207.525 227.359 207.469 227.427 207.402 227.438L206.843 227.505ZM203.422 227.27L202.393 227.203C202.326 227.203 202.27 227.136 202.27 227.069C202.27 227.002 202.337 226.946 202.404 226.946L203.422 227.013C203.489 227.013 203.545 227.08 203.545 227.147C203.545 227.214 203.489 227.27 203.422 227.27ZM209.761 227.125C209.694 227.125 209.638 227.08 209.638 227.013C209.627 226.946 209.683 226.879 209.75 226.868L210.767 226.733C210.846 226.722 210.902 226.778 210.913 226.845C210.924 226.912 210.868 226.979 210.801 226.991L209.783 227.125C209.772 227.125 209.772 227.125 209.761 227.125ZM200.023 227.035C200.023 227.035 200.012 227.035 200.023 227.035L198.994 226.968C198.927 226.968 198.871 226.901 198.871 226.834C198.871 226.767 198.938 226.711 199.005 226.711L200.023 226.778C200.09 226.778 200.146 226.845 200.146 226.912C200.146 226.979 200.09 227.035 200.023 227.035ZM196.624 226.801C196.613 226.801 196.613 226.801 196.624 226.801L195.595 226.733C195.528 226.733 195.472 226.666 195.472 226.599C195.472 226.532 195.539 226.476 195.607 226.476L196.624 226.543C196.691 226.543 196.747 226.61 196.747 226.678C196.747 226.745 196.691 226.801 196.624 226.801ZM213.149 226.689C213.082 226.689 213.026 226.644 213.026 226.577C213.015 226.51 213.071 226.443 213.138 226.432L213.54 226.376L214.099 226.197C214.166 226.175 214.233 226.208 214.256 226.275C214.278 226.342 214.245 226.409 214.177 226.432L213.596 226.622L213.171 226.678C213.16 226.689 213.149 226.689 213.149 226.689ZM193.225 226.566C193.214 226.566 193.214 226.566 193.225 226.566L192.196 226.499C192.129 226.499 192.073 226.432 192.073 226.365C192.073 226.297 192.141 226.253 192.208 226.242L193.225 226.309C193.292 226.309 193.348 226.376 193.348 226.443C193.337 226.51 193.281 226.566 193.225 226.566ZM189.815 226.331L188.786 226.264C188.719 226.264 188.663 226.197 188.663 226.13C188.663 226.063 188.73 226.018 188.798 226.007L189.815 226.074C189.882 226.074 189.938 226.141 189.938 226.208C189.938 226.275 189.882 226.331 189.815 226.331ZM186.416 226.096C186.416 226.096 186.405 226.096 186.416 226.096L185.388 226.029C185.32 226.029 185.265 225.962 185.265 225.895C185.265 225.828 185.343 225.783 185.399 225.772L186.416 225.839C186.483 225.839 186.539 225.906 186.539 225.973C186.539 226.04 186.483 226.096 186.416 226.096ZM216.402 225.716C216.346 225.716 216.302 225.683 216.279 225.627C216.257 225.56 216.291 225.493 216.358 225.47L217.33 225.157C217.397 225.135 217.465 225.168 217.487 225.235C217.509 225.303 217.476 225.37 217.409 225.392L216.436 225.705C216.436 225.716 216.425 225.716 216.402 225.716ZM219.645 224.665C219.589 224.665 219.544 224.632 219.522 224.576C219.499 224.509 219.533 224.442 219.6 224.419L220.573 224.106C220.64 224.084 220.707 224.118 220.729 224.185C220.752 224.252 220.718 224.319 220.651 224.341L219.678 224.654C219.678 224.654 219.667 224.665 219.645 224.665ZM184.94 223.726C184.873 223.726 184.828 223.682 184.817 223.615C184.761 223.29 184.717 222.955 184.661 222.597C184.65 222.53 184.694 222.463 184.773 222.452C184.84 222.441 184.907 222.485 184.918 222.564C184.974 222.91 185.019 223.257 185.074 223.57C185.086 223.637 185.041 223.704 184.974 223.715C184.951 223.726 184.951 223.726 184.94 223.726ZM222.887 223.603C222.831 223.603 222.786 223.57 222.764 223.514C222.742 223.447 222.775 223.38 222.842 223.357L223.815 223.044C223.882 223.022 223.949 223.056 223.972 223.123C223.994 223.19 223.96 223.257 223.893 223.279L222.921 223.592C222.921 223.603 222.909 223.603 222.887 223.603ZM226.141 222.553C226.085 222.553 226.04 222.519 226.018 222.463C225.995 222.396 226.029 222.329 226.096 222.307L227.069 221.994C227.136 221.971 227.203 222.005 227.225 222.072C227.247 222.139 227.214 222.206 227.147 222.228L226.174 222.541C226.163 222.553 226.152 222.553 226.141 222.553ZM229.383 221.502C229.327 221.502 229.282 221.468 229.26 221.412C229.238 221.345 229.271 221.278 229.338 221.256L230.311 220.943C230.378 220.92 230.445 220.954 230.467 221.021C230.49 221.088 230.456 221.155 230.389 221.178L229.416 221.491C229.405 221.502 229.394 221.502 229.383 221.502ZM232.625 220.451C232.569 220.451 232.525 220.417 232.502 220.361C232.491 220.317 232.502 220.261 232.536 220.227C232.502 219.937 232.469 219.646 232.424 219.355C232.413 219.288 232.469 219.221 232.536 219.21C232.603 219.199 232.67 219.255 232.681 219.322C232.726 219.646 232.759 219.97 232.804 220.294L232.815 220.395L232.67 220.44C232.648 220.44 232.637 220.451 232.625 220.451ZM184.471 220.35C184.404 220.35 184.348 220.306 184.348 220.239C184.303 219.903 184.269 219.568 184.225 219.221C184.214 219.154 184.269 219.087 184.337 219.076C184.415 219.076 184.471 219.121 184.482 219.188C184.515 219.523 184.56 219.87 184.594 220.205C184.605 220.272 184.549 220.339 184.482 220.35H184.471ZM232.167 217.108C232.111 217.108 232.055 217.064 232.044 217.008C231.977 216.672 231.91 216.337 231.843 216.013C231.832 215.946 231.876 215.879 231.943 215.856C232.01 215.845 232.077 215.89 232.1 215.957C232.167 216.292 232.234 216.628 232.301 216.963C232.312 217.03 232.268 217.097 232.2 217.108C232.178 217.108 232.167 217.108 232.167 217.108ZM184.135 216.952C184.068 216.952 184.012 216.896 184.012 216.829C183.99 216.482 183.968 216.136 183.956 215.8C183.956 215.733 184.012 215.666 184.079 215.666C184.158 215.655 184.214 215.722 184.214 215.789C184.225 216.125 184.247 216.46 184.269 216.807C184.269 216.896 184.214 216.952 184.135 216.952ZM231.418 213.777C231.362 213.777 231.306 213.744 231.295 213.677C231.205 213.341 231.116 213.006 231.038 212.693C231.015 212.626 231.06 212.559 231.127 212.536C231.194 212.514 231.261 212.559 231.284 212.626C231.373 212.95 231.463 213.274 231.552 213.621C231.574 213.688 231.53 213.755 231.463 213.777C231.44 213.777 231.429 213.777 231.418 213.777ZM184.057 213.554C183.979 213.554 183.923 213.486 183.934 213.419L183.945 213.196C183.956 213.073 184.046 212.972 184.158 212.961L184.784 212.872C184.851 212.86 184.918 212.905 184.929 212.983C184.94 213.05 184.896 213.118 184.817 213.129L184.191 213.218V213.431C184.18 213.498 184.124 213.554 184.057 213.554ZM187.165 212.793C187.098 212.793 187.042 212.749 187.042 212.682C187.031 212.615 187.076 212.547 187.154 212.536L188.171 212.391C188.25 212.38 188.306 212.436 188.317 212.503C188.328 212.57 188.272 212.637 188.205 212.648L187.188 212.793C187.176 212.793 187.165 212.793 187.165 212.793ZM190.542 212.335C190.475 212.335 190.419 212.29 190.419 212.223C190.408 212.156 190.463 212.089 190.531 212.078L191.548 211.944C191.615 211.933 191.682 211.988 191.693 212.056C191.705 212.123 191.649 212.19 191.582 212.201L190.564 212.335C190.553 212.335 190.553 212.335 190.542 212.335ZM193.918 211.877C193.851 211.877 193.795 211.832 193.795 211.765C193.784 211.698 193.84 211.631 193.907 211.62L194.925 211.485C194.992 211.474 195.059 211.53 195.07 211.597C195.081 211.664 195.025 211.731 194.958 211.743L193.941 211.877C193.929 211.877 193.929 211.877 193.918 211.877ZM197.306 211.43C197.239 211.43 197.183 211.385 197.183 211.318C197.172 211.251 197.228 211.184 197.295 211.172L198.312 211.038C198.379 211.027 198.446 211.083 198.458 211.15C198.469 211.217 198.413 211.284 198.346 211.295L197.328 211.43C197.317 211.43 197.306 211.43 197.306 211.43ZM200.683 210.982C200.615 210.982 200.56 210.938 200.56 210.871C200.548 210.804 200.604 210.736 200.671 210.725L201.689 210.591C201.767 210.58 201.823 210.636 201.834 210.703C201.845 210.77 201.789 210.837 201.722 210.848L200.705 210.982C200.694 210.982 200.694 210.982 200.683 210.982ZM204.093 210.558L204.059 210.3L205.065 210.177C205.132 210.166 205.199 210.222 205.211 210.289C205.222 210.356 205.166 210.423 205.099 210.435L204.093 210.558ZM230.49 210.502C230.434 210.502 230.389 210.468 230.367 210.412C230.255 210.066 230.154 209.742 230.054 209.44C230.031 209.373 230.065 209.306 230.132 209.283C230.199 209.261 230.266 209.294 230.289 209.361C230.389 209.663 230.49 209.987 230.602 210.334C230.624 210.401 230.59 210.468 230.512 210.491C230.512 210.502 230.501 210.502 230.49 210.502ZM207.458 210.133C207.391 210.133 207.335 210.088 207.335 210.021C207.324 209.954 207.38 209.887 207.447 209.876L208.464 209.753C208.531 209.742 208.598 209.797 208.61 209.864C208.621 209.932 208.565 209.999 208.498 210.01L207.48 210.133C207.469 210.133 207.458 210.133 207.458 210.133ZM210.834 209.73C210.767 209.73 210.711 209.686 210.711 209.619C210.7 209.551 210.756 209.484 210.823 209.473L211.841 209.35C211.919 209.339 211.975 209.395 211.986 209.462C211.997 209.529 211.941 209.596 211.874 209.607L210.857 209.73C210.846 209.73 210.846 209.73 210.834 209.73ZM214.222 209.339C214.155 209.339 214.099 209.294 214.099 209.227C214.088 209.16 214.144 209.093 214.211 209.082L215.228 208.97C215.295 208.959 215.363 209.015 215.374 209.082C215.385 209.149 215.329 209.216 215.262 209.227L214.245 209.339C214.233 209.339 214.233 209.339 214.222 209.339ZM217.621 208.97C217.554 208.97 217.498 208.925 217.498 208.858C217.487 208.791 217.543 208.724 217.61 208.713L218.627 208.612C218.694 208.601 218.761 208.657 218.773 208.724C218.784 208.791 218.728 208.858 218.661 208.87L217.643 208.97C217.621 208.97 217.621 208.97 217.621 208.97ZM221.009 208.624C220.942 208.624 220.886 208.579 220.886 208.512C220.875 208.445 220.93 208.378 220.998 208.378C221.344 208.344 221.68 208.311 222.015 208.277C222.093 208.266 222.149 208.322 222.149 208.389C222.16 208.456 222.104 208.523 222.037 208.523C221.702 208.557 221.367 208.59 221.02 208.624H221.009ZM224.408 208.322C224.341 208.322 224.285 208.266 224.285 208.199C224.285 208.132 224.329 208.065 224.408 208.065C224.765 208.031 225.101 208.009 225.425 207.986C225.503 207.986 225.559 208.031 225.559 208.109C225.559 208.176 225.515 208.244 225.436 208.244C225.112 208.277 224.765 208.299 224.408 208.322ZM227.807 208.098C227.739 208.098 227.684 208.042 227.684 207.975C227.684 207.908 227.739 207.841 227.807 207.841C228.175 207.819 228.511 207.808 228.835 207.796C228.902 207.796 228.958 207.852 228.958 207.919C228.958 207.986 228.902 208.054 228.835 208.054C228.522 208.065 228.175 208.087 227.807 208.098C227.818 208.098 227.807 208.098 227.807 208.098Z" fill="white"/>
<path d="M213.65 231.249L207.467 232.042C206.662 232.143 205.902 231.629 205.701 230.846L204.225 224.989C203.99 224.061 204.628 223.122 205.589 222.999L213.013 222.048C213.952 221.925 214.791 222.641 214.824 223.58L215.059 229.594C215.081 230.433 214.478 231.148 213.65 231.249Z" fill="url(#paint38_linear)"/>
<path d="M212.747 230.255L208.039 230.859C207.424 230.937 206.843 230.546 206.698 229.942L205.579 225.482C205.401 224.766 205.881 224.062 206.619 223.973L212.277 223.246C212.993 223.157 213.63 223.693 213.664 224.409L213.843 228.992C213.843 229.629 213.384 230.177 212.747 230.255Z" fill="url(#paint39_linear)"/>
<path d="M209.068 182.855C210.521 188.88 210.566 194.772 210.342 196.918C210.264 197.723 209.604 198.36 208.799 198.416C207.883 198.483 206.619 198.562 205.501 198.629C204.271 198.696 202.896 197.924 201.991 197.265C201.521 196.929 200.917 197.455 201.186 197.958C201.633 198.841 202.415 199.534 203.187 200.116C203.656 200.473 205.199 201.099 205.099 201.792C205.065 202.016 204.931 202.206 204.786 202.374C203.925 203.402 202.628 203.961 201.342 204.353C201.186 204.397 201.007 204.453 200.895 204.576C200.861 205.403 203.422 206.331 204.081 206.555C205.065 206.879 206.116 207.024 207.156 206.913C209.727 206.644 212.109 204.867 213.495 202.72C217.196 196.996 219.119 190.088 219.812 184.8C216.358 181.379 211.147 182.251 209.068 182.855Z" fill="url(#paint40_linear)"/>
<path d="M219.799 185.36C222.55 164.599 206.55 148.635 206.55 148.635L197.036 159.736C204.258 168.747 207.702 176.997 209.267 183.481C211.336 182.878 216.356 181.916 219.799 185.36Z" fill="url(#paint41_linear)"/>
<path d="M209.033 183.381C208.764 183.381 208.529 183.202 208.462 182.934C206.528 174.941 202.447 167.037 196.343 159.424C196.141 159.167 196.175 158.798 196.432 158.597C196.689 158.395 197.058 158.429 197.259 158.686C203.476 166.433 207.624 174.494 209.603 182.655C209.681 182.968 209.48 183.292 209.167 183.37C209.122 183.381 209.077 183.381 209.033 183.381Z" fill="url(#paint42_linear)"/>
<path d="M80.1238 306.442C80.1238 306.342 80.1238 306.241 80.0903 306.141C78.5586 300.07 70.9558 296.292 70.9558 296.292L67.9482 296.527C66.2152 301.87 66.4389 305.157 66.7184 306.621C66.7295 306.666 66.7407 306.7 66.7519 306.744C69.234 306.945 74.3435 307.091 80.1238 306.442Z" fill="url(#paint43_linear)"/>
<path d="M66.75 306.734C66.8842 307.226 67.2419 307.606 67.7003 307.695C71.2334 308.433 76.846 307.841 79.2051 307.528C79.7306 307.461 80.1108 306.98 80.1108 306.432C74.3416 307.092 69.2321 306.946 66.75 306.734Z" fill="url(#paint44_linear)"/>
<path d="M66.7407 292.032L68.0154 298.169C68.1049 298.617 68.4515 298.952 68.8764 298.997C69.3908 299.041 70.1176 299.075 70.8556 298.963C71.5153 298.862 71.9737 298.203 71.8507 297.476L70.9674 292.021H66.7407V292.032Z" fill="url(#paint45_linear)"/>
<path d="M93.159 306.656C89.8384 306.566 88.1166 306.175 87.2222 305.806C87.2222 306.142 87.2222 306.477 87.2334 306.823C87.2445 307.192 87.524 307.494 87.8595 307.494L106.117 307.371C106.699 307.371 107.045 306.689 106.788 306.153C104.395 306.354 98.3021 306.801 93.159 306.656Z" fill="url(#paint46_linear)"/>
<path d="M106.789 306.153C106.767 306.108 106.744 306.063 106.722 306.018C105.112 303.76 100.998 299.278 92.8917 297.332L89.0009 297.209C89.0009 297.209 87.2679 300.217 87.2344 305.806C88.1288 306.175 89.8394 306.566 93.1712 306.656C98.3031 306.801 104.397 306.354 106.789 306.153Z" fill="url(#paint47_linear)"/>
<path d="M88.0942 291.498C88.1501 291.788 88.9664 296.148 89.2795 297.847C89.3578 298.25 89.6708 298.54 90.0398 298.563C90.7107 298.596 91.7842 298.607 92.701 298.35C93.2042 298.216 93.5397 297.702 93.4949 297.143L93.0589 290.234L88.0942 291.498Z" fill="url(#paint48_linear)"/>
<path d="M85.1426 210.848C85.1426 210.848 90.4981 247.64 94.3666 291.429C94.4337 292.245 93.7852 292.95 92.9914 293.129C91.8063 293.375 90.0733 293.676 88.6422 293.632C87.8707 293.609 87.2334 293.039 87.1104 292.29C85.7911 284.565 76.3995 243.134 73.9286 234.023C73.9286 234.023 71.0999 272.76 72.0055 292.849C72.0279 293.352 71.6589 293.777 71.167 293.844C70.4179 293.934 69.2104 294.001 67.6675 293.833C67.0861 293.766 66.6165 293.33 66.527 292.749C65.5879 286.22 60.1877 247.327 60.4225 219.311C60.4337 217.735 62.2784 204.755 62.2784 204.755L85.1426 210.848Z" fill="url(#paint49_linear)"/>
<path d="M61.4618 212.971C60.9139 212.769 60.5226 212.278 60.4667 211.696C59.7511 204.787 56.3075 161.948 78.076 144.329C78.076 144.329 79.3283 141.065 89.5808 149.092C99.8446 157.118 94.3437 165.536 91.8952 177.141C88.9212 191.182 83.711 202.663 86.0142 211.305C86.1707 211.897 85.8577 212.523 85.2763 212.736C77.3158 215.676 69.3776 215.777 61.4618 212.971Z" fill="url(#paint50_linear)"/>
<path d="M86.5735 131.498C86.5623 132.112 77.875 144.454 77.875 144.454C77.875 144.454 79.4403 147.528 86.8865 150.021L93.3153 136.808L86.5735 131.498Z" fill="url(#paint51_linear)"/>
<path d="M93.4156 124.421C93.4156 124.421 96.5126 131.52 96.7139 135.253C96.9263 138.987 97.7201 141.402 93.4156 142.151C89.0999 142.9 85.4663 140.753 83.4985 137.042C83.4985 137.042 80.4127 131.318 81.1059 128.971C81.799 126.634 93.4156 124.421 93.4156 124.421Z" fill="url(#paint52_linear)"/>
<path d="M84.9743 134.371L85.2202 134.259C85.5333 134.125 85.6675 133.744 85.5109 133.443C84.9072 132.269 83.722 129.575 85.2538 128.948C87.2327 128.144 95.0479 126.545 96.7362 123.772C98.3574 121.112 96.9263 117.668 94.7572 116.685C94.6119 116.618 94.4442 116.674 94.3659 116.808L94.187 117.143C94.064 117.378 93.7174 117.344 93.6504 117.087C93.5833 116.841 93.259 116.796 93.1249 117.009C92.6106 117.836 91.2018 119.189 87.4675 119.871C82.1456 120.855 78.6349 123.001 78.5454 126.679C78.5454 126.914 78.2883 127.037 78.087 126.925C77.6957 126.69 77.0696 126.578 76.2311 127.283C74.7664 128.512 75.3702 131.699 78.5678 134.315C78.7243 134.438 78.7131 134.672 78.5566 134.784C77.9752 135.164 77.1143 136.059 79.3504 137.255C81.6648 138.496 83.3978 138.395 84.0686 138.283C84.2363 138.261 84.337 138.093 84.3034 137.926L83.5879 134.695C83.5431 134.516 83.6885 134.337 83.8786 134.337H84.9743V134.371Z" fill="url(#paint53_linear)"/>
<path d="M85.11 135.052C85.11 135.052 83.9248 130.514 81.8897 131.788C79.8547 133.063 82.9408 136.875 84.5845 137.042L85.11 135.052Z" fill="url(#paint54_linear)"/>
<path d="M92.8892 152.816L93.4929 168.914C95.1924 169.495 96.8135 169.953 98.3565 170.3C99.318 167.192 101.442 163.38 103.186 160.541C96.7912 158.271 92.8892 152.816 92.8892 152.816Z" fill="url(#paint55_linear)"/>
<path d="M124.821 152.548C116.045 162.016 108.945 162.575 103.187 160.541C101.443 163.38 99.3185 167.192 98.3569 170.3C121.78 175.465 127.303 153.934 127.303 153.934L124.821 152.548Z" fill="url(#paint56_linear)"/>
<path d="M126.599 151.542C126.599 151.542 127.605 150.457 129.484 150.793C131.362 151.128 133.017 151.788 134.18 150.793C135.343 149.798 135.757 151.128 135.757 151.128L132.268 153.777L126.599 151.542Z" fill="url(#paint57_linear)"/>
<path d="M124.508 153.396C124.508 153.396 125.201 150.501 127.292 150.903C129.383 151.294 134.112 153.877 135.331 153.396C136.55 152.927 138.115 151.786 138.909 152.189L137.5 153.944C137.5 153.944 141.123 151.853 141.749 153.139L135.711 156.537C135.722 156.526 126.89 155.643 124.508 153.396Z" fill="url(#paint58_linear)"/>
<path d="M83.1509 173.878C83.1509 173.878 99.6422 187.685 117.453 181.659C118.56 181.29 119.767 181.368 120.796 181.916L125.916 184.622C128.063 185.751 130.724 185.013 131.976 182.922C132.692 181.737 133.296 180.373 133.419 179.077L123.401 175.019L124.139 173.789C124.139 173.789 119.253 173.375 117.967 176.874C117.967 176.874 108.654 180.754 92.9339 163.47C92.9339 163.481 85.8007 169.541 83.1509 173.878Z" fill="url(#paint59_linear)"/>
<path d="M82.2687 173.744C82.2128 173.744 82.1569 173.733 82.1122 173.699C75.1691 169.004 71.9044 161.436 71.8708 161.358C71.8149 161.212 71.882 161.045 72.0162 160.989C72.1615 160.933 72.3293 160.989 72.3852 161.134C72.4187 161.212 75.6275 168.635 82.4253 173.229C82.5594 173.319 82.593 173.487 82.5035 173.621C82.4476 173.699 82.3582 173.744 82.2687 173.744Z" fill="url(#paint60_linear)"/>
<path d="M92.6095 163.244C92.5201 163.244 92.4306 163.2 92.3747 163.11C92.3523 163.077 90.228 159.779 86.1919 152.546C84.9508 150.322 83.3185 148.913 81.3395 148.354C78.0636 147.437 74.9107 149.193 74.8771 149.215C74.743 149.293 74.5641 149.248 74.497 149.114C74.4187 148.98 74.4635 148.801 74.5976 148.734C74.7318 148.656 77.9853 146.845 81.4848 147.818C83.6203 148.41 85.3645 149.908 86.6838 152.278C90.7088 159.499 92.8331 162.786 92.8443 162.82C92.9337 162.954 92.889 163.121 92.7548 163.211C92.7101 163.222 92.6542 163.244 92.6095 163.244Z" fill="url(#paint61_linear)"/>
<defs>
<linearGradient id="paint0_linear" x1="326.635" y1="340.262" x2="119.038" y2="119.25" gradientUnits="userSpaceOnUse">
<stop stop-color="#DAE3FE"/>
<stop offset="1" stop-color="#E9EFFD"/>
</linearGradient>
<linearGradient id="paint1_linear" x1="217.479" y1="189.705" x2="284.108" y2="189.705" gradientUnits="userSpaceOnUse">
<stop stop-color="#4F52FF"/>
<stop offset="1" stop-color="#4042E2"/>
</linearGradient>
<linearGradient id="paint2_linear" x1="224.085" y1="236.152" x2="263.363" y2="236.152" gradientUnits="userSpaceOnUse">
<stop stop-color="#DAE3FE"/>
<stop offset="1" stop-color="#E9EFFD"/>
</linearGradient>
<linearGradient id="paint3_linear" x1="226.685" y1="88.0843" x2="131.716" y2="-109.352" gradientUnits="userSpaceOnUse">
<stop stop-color="#4042E2"/>
<stop offset="1" stop-color="#4F52FF"/>
</linearGradient>
<linearGradient id="paint4_linear" x1="177.995" y1="72.8411" x2="-75.1411" y2="396.81" gradientUnits="userSpaceOnUse">
<stop stop-color="white"/>
<stop offset="1"/>
</linearGradient>
<linearGradient id="paint5_linear" x1="177.995" y1="72.8411" x2="-75.1411" y2="396.81" gradientUnits="userSpaceOnUse">
<stop stop-color="white"/>
<stop offset="1" stop-color="white"/>
</linearGradient>
<linearGradient id="paint6_linear" x1="28.1735" y1="114.8" x2="54.4578" y2="114.8" gradientUnits="userSpaceOnUse">
<stop stop-color="#DAE3FE"/>
<stop offset="1" stop-color="#E9EFFD"/>
</linearGradient>
<linearGradient id="paint7_linear" x1="62.1737" y1="103.378" x2="173.549" y2="103.378" gradientUnits="userSpaceOnUse">
<stop stop-color="#DAE3FE"/>
<stop offset="1" stop-color="#E9EFFD"/>
</linearGradient>
<linearGradient id="paint8_linear" x1="64.2157" y1="121.256" x2="138.974" y2="121.256" gradientUnits="userSpaceOnUse">
<stop stop-color="#DAE3FE"/>
<stop offset="1" stop-color="#E9EFFD"/>
</linearGradient>
<linearGradient id="paint9_linear" x1="28.1735" y1="165.907" x2="54.4578" y2="165.907" gradientUnits="userSpaceOnUse">
<stop stop-color="#DAE3FE"/>
<stop offset="1" stop-color="#E9EFFD"/>
</linearGradient>
<linearGradient id="paint10_linear" x1="62.1737" y1="154.485" x2="173.549" y2="154.485" gradientUnits="userSpaceOnUse">
<stop stop-color="#DAE3FE"/>
<stop offset="1" stop-color="#E9EFFD"/>
</linearGradient>
<linearGradient id="paint11_linear" x1="28.1735" y1="217.013" x2="54.4578" y2="217.013" gradientUnits="userSpaceOnUse">
<stop stop-color="#DAE3FE"/>
<stop offset="1" stop-color="#E9EFFD"/>
</linearGradient>
<linearGradient id="paint12_linear" x1="62.1737" y1="205.591" x2="173.549" y2="205.591" gradientUnits="userSpaceOnUse">
<stop stop-color="#DAE3FE"/>
<stop offset="1" stop-color="#E9EFFD"/>
</linearGradient>
<linearGradient id="paint13_linear" x1="64.2157" y1="223.469" x2="138.974" y2="223.469" gradientUnits="userSpaceOnUse">
<stop stop-color="#DAE3FE"/>
<stop offset="1" stop-color="#E9EFFD"/>
</linearGradient>
<linearGradient id="paint14_linear" x1="152.168" y1="205.996" x2="117.181" y2="295.582" gradientUnits="userSpaceOnUse">
<stop stop-color="#09005D"/>
<stop offset="1" stop-color="#1A0F91"/>
</linearGradient>
<linearGradient id="paint15_linear" x1="126.574" y1="180.998" x2="120.34" y2="182.222" gradientUnits="userSpaceOnUse">
<stop stop-color="#FEBBBA"/>
<stop offset="1" stop-color="#FF928E"/>
</linearGradient>
<linearGradient id="paint16_linear" x1="121.32" y1="174.736" x2="150.247" y2="174.736" gradientUnits="userSpaceOnUse">
<stop stop-color="#FEBBBA"/>
<stop offset="1" stop-color="#FF928E"/>
</linearGradient>
<linearGradient id="paint17_linear" x1="207.146" y1="77.6567" x2="189.528" y2="112.4" gradientUnits="userSpaceOnUse">
<stop stop-color="#09005D"/>
<stop offset="1" stop-color="#1A0F91"/>
</linearGradient>
<linearGradient id="paint18_linear" x1="235.28" y1="91.9238" x2="217.662" y2="126.667" gradientUnits="userSpaceOnUse">
<stop stop-color="#09005D"/>
<stop offset="1" stop-color="#1A0F91"/>
</linearGradient>
<linearGradient id="paint19_linear" x1="186.043" y1="145.807" x2="181.406" y2="131.893" gradientUnits="userSpaceOnUse">
<stop stop-color="#FEBBBA"/>
<stop offset="1" stop-color="#FF928E"/>
</linearGradient>
<linearGradient id="paint20_linear" x1="175.209" y1="128.731" x2="191.88" y2="135.98" gradientUnits="userSpaceOnUse">
<stop stop-color="#FEBBBA"/>
<stop offset="1" stop-color="#FF928E"/>
</linearGradient>
<linearGradient id="paint21_linear" x1="187.264" y1="138.72" x2="173.616" y2="124.22" gradientUnits="userSpaceOnUse">
<stop stop-color="#09005D"/>
<stop offset="1" stop-color="#1A0F91"/>
</linearGradient>
<linearGradient id="paint22_linear" x1="174.168" y1="131.122" x2="190.841" y2="138.372" gradientUnits="userSpaceOnUse">
<stop stop-color="#FEBBBA"/>
<stop offset="1" stop-color="#FF928E"/>
</linearGradient>
<linearGradient id="paint23_linear" x1="206.869" y1="307.05" x2="186.149" y2="307.05" gradientUnits="userSpaceOnUse">
<stop stop-color="#4042E2"/>
<stop offset="1" stop-color="#4F52FF"/>
</linearGradient>
<linearGradient id="paint24_linear" x1="256.879" y1="287.666" x2="181.858" y2="309.052" gradientUnits="userSpaceOnUse">
<stop stop-color="#09005D"/>
<stop offset="1" stop-color="#1A0F91"/>
</linearGradient>
<linearGradient id="paint25_linear" x1="204.958" y1="297.32" x2="199.121" y2="297.32" gradientUnits="userSpaceOnUse">
<stop stop-color="#FEBBBA"/>
<stop offset="1" stop-color="#FF928E"/>
</linearGradient>
<linearGradient id="paint26_linear" x1="248.174" y1="306.602" x2="240.233" y2="306.602" gradientUnits="userSpaceOnUse">
<stop stop-color="#4042E2"/>
<stop offset="1" stop-color="#4F52FF"/>
</linearGradient>
<linearGradient id="paint27_linear" x1="215.055" y1="283.321" x2="261.804" y2="313.767" gradientUnits="userSpaceOnUse">
<stop stop-color="#09005D"/>
<stop offset="1" stop-color="#1A0F91"/>
</linearGradient>
<linearGradient id="paint28_linear" x1="242.059" y1="292.455" x2="235.083" y2="292.455" gradientUnits="userSpaceOnUse">
<stop stop-color="#FEBBBA"/>
<stop offset="1" stop-color="#FF928E"/>
</linearGradient>
<linearGradient id="paint29_linear" x1="243.041" y1="302.697" x2="136.625" y2="155.556" gradientUnits="userSpaceOnUse">
<stop stop-color="#09005D"/>
<stop offset="1" stop-color="#1A0F91"/>
</linearGradient>
<linearGradient id="paint30_linear" x1="217.427" y1="283.54" x2="209.197" y2="224.348" gradientUnits="userSpaceOnUse">
<stop stop-color="#FF928E"/>
<stop offset="1" stop-color="#FE7062"/>
</linearGradient>
<linearGradient id="paint31_linear" x1="197.841" y1="213.39" x2="196.67" y2="206.508" gradientUnits="userSpaceOnUse">
<stop stop-color="#E1473D"/>
<stop offset="1" stop-color="#E9605A"/>
</linearGradient>
<linearGradient id="paint32_linear" x1="196.15" y1="203.049" x2="200.114" y2="222.693" gradientUnits="userSpaceOnUse">
<stop stop-color="#E1473D"/>
<stop offset="1" stop-color="#E9605A"/>
</linearGradient>
<linearGradient id="paint33_linear" x1="217.015" y1="210.129" x2="215.844" y2="203.247" gradientUnits="userSpaceOnUse">
<stop stop-color="#E1473D"/>
<stop offset="1" stop-color="#E9605A"/>
</linearGradient>
<linearGradient id="paint34_linear" x1="215.196" y1="199.209" x2="219.16" y2="218.852" gradientUnits="userSpaceOnUse">
<stop stop-color="#E1473D"/>
<stop offset="1" stop-color="#E9605A"/>
</linearGradient>
<linearGradient id="paint35_linear" x1="206.043" y1="190.568" x2="205.926" y2="204.933" gradientUnits="userSpaceOnUse">
<stop stop-color="#E1473D"/>
<stop offset="1" stop-color="#E9605A"/>
</linearGradient>
<linearGradient id="paint36_linear" x1="197.758" y1="200.561" x2="191.184" y2="163.215" gradientUnits="userSpaceOnUse">
<stop stop-color="#FEBBBA"/>
<stop offset="1" stop-color="#FF928E"/>
</linearGradient>
<linearGradient id="paint37_linear" x1="208.03" y1="201.49" x2="209.407" y2="268.286" gradientUnits="userSpaceOnUse">
<stop stop-color="#FF928E"/>
<stop offset="1" stop-color="#FE7062"/>
</linearGradient>
<linearGradient id="paint38_linear" x1="209.582" y1="209.556" x2="209.622" y2="231.947" gradientUnits="userSpaceOnUse">
<stop stop-color="#E1473D"/>
<stop offset="1" stop-color="#E9605A"/>
</linearGradient>
<linearGradient id="paint39_linear" x1="205.836" y1="227.609" x2="213.925" y2="226.573" gradientUnits="userSpaceOnUse">
<stop stop-color="#FF928E"/>
<stop offset="1" stop-color="#FE7062"/>
</linearGradient>
<linearGradient id="paint40_linear" x1="214.634" y1="186.222" x2="198.842" y2="216.594" gradientUnits="userSpaceOnUse">
<stop stop-color="#FEBBBA"/>
<stop offset="1" stop-color="#FF928E"/>
</linearGradient>
<linearGradient id="paint41_linear" x1="246.438" y1="97.5819" x2="228.82" y2="132.325" gradientUnits="userSpaceOnUse">
<stop stop-color="#09005D"/>
<stop offset="1" stop-color="#1A0F91"/>
</linearGradient>
<linearGradient id="paint42_linear" x1="252.084" y1="115.32" x2="152.053" y2="228.467" gradientUnits="userSpaceOnUse">
<stop stop-color="#4042E2"/>
<stop offset="1" stop-color="#4F52FF"/>
</linearGradient>
<linearGradient id="paint43_linear" x1="66.5296" y1="301.6" x2="80.1218" y2="301.6" gradientUnits="userSpaceOnUse">
<stop stop-color="#09005D"/>
<stop offset="1" stop-color="#1A0F91"/>
</linearGradient>
<linearGradient id="paint44_linear" x1="100.555" y1="285.569" x2="51.1127" y2="324.397" gradientUnits="userSpaceOnUse">
<stop stop-color="#4042E2"/>
<stop offset="1" stop-color="#4F52FF"/>
</linearGradient>
<linearGradient id="paint45_linear" x1="70.3098" y1="286.127" x2="67.7145" y2="308.783" gradientUnits="userSpaceOnUse">
<stop stop-color="#A22B25"/>
<stop offset="1" stop-color="#C0423C"/>
</linearGradient>
<linearGradient id="paint46_linear" x1="109.34" y1="296.737" x2="59.896" y2="335.566" gradientUnits="userSpaceOnUse">
<stop stop-color="#4042E2"/>
<stop offset="1" stop-color="#4F52FF"/>
</linearGradient>
<linearGradient id="paint47_linear" x1="87.2265" y1="301.946" x2="106.792" y2="301.946" gradientUnits="userSpaceOnUse">
<stop stop-color="#09005D"/>
<stop offset="1" stop-color="#1A0F91"/>
</linearGradient>
<linearGradient id="paint48_linear" x1="91.1032" y1="288.522" x2="89.9377" y2="311.296" gradientUnits="userSpaceOnUse">
<stop stop-color="#A22B25"/>
<stop offset="1" stop-color="#C0423C"/>
</linearGradient>
<linearGradient id="paint49_linear" x1="69.5914" y1="312.036" x2="88.8096" y2="171.38" gradientUnits="userSpaceOnUse">
<stop stop-color="#4F52FF"/>
<stop offset="1" stop-color="#4042E2"/>
</linearGradient>
<linearGradient id="paint50_linear" x1="344.477" y1="-172.471" x2="274.244" y2="-78.8366" gradientUnits="userSpaceOnUse">
<stop stop-color="#FF928E"/>
<stop offset="1" stop-color="#FE7062"/>
</linearGradient>
<linearGradient id="paint51_linear" x1="78.1828" y1="157.292" x2="92.159" y2="125.841" gradientUnits="userSpaceOnUse">
<stop stop-color="#A22B25"/>
<stop offset="1" stop-color="#C0423C"/>
</linearGradient>
<linearGradient id="paint52_linear" x1="73.5548" y1="108.054" x2="93.4052" y2="138.33" gradientUnits="userSpaceOnUse">
<stop stop-color="#A22B25"/>
<stop offset="1" stop-color="#C0423C"/>
</linearGradient>
<linearGradient id="paint53_linear" x1="75.4135" y1="113.347" x2="90.3206" y2="130.809" gradientUnits="userSpaceOnUse">
<stop stop-color="#09005D"/>
<stop offset="1" stop-color="#1A0F91"/>
</linearGradient>
<linearGradient id="paint54_linear" x1="68.3632" y1="111.458" x2="88.2127" y2="141.736" gradientUnits="userSpaceOnUse">
<stop stop-color="#A22B25"/>
<stop offset="1" stop-color="#C0423C"/>
</linearGradient>
<linearGradient id="paint55_linear" x1="185.95" y1="69.876" x2="103.815" y2="153.264" gradientUnits="userSpaceOnUse">
<stop stop-color="#FF928E"/>
<stop offset="1" stop-color="#FE7062"/>
</linearGradient>
<linearGradient id="paint56_linear" x1="136.398" y1="151.192" x2="98.4673" y2="170.063" gradientUnits="userSpaceOnUse">
<stop stop-color="#A22B25"/>
<stop offset="1" stop-color="#C0423C"/>
</linearGradient>
<linearGradient id="paint57_linear" x1="135.843" y1="146.46" x2="122.871" y2="160.013" gradientUnits="userSpaceOnUse">
<stop stop-color="#A22B25"/>
<stop offset="1" stop-color="#C0423C"/>
</linearGradient>
<linearGradient id="paint58_linear" x1="136.578" y1="150.967" x2="98.6478" y2="169.838" gradientUnits="userSpaceOnUse">
<stop stop-color="#A22B25"/>
<stop offset="1" stop-color="#C0423C"/>
</linearGradient>
<linearGradient id="paint59_linear" x1="152.429" y1="182.981" x2="42.3459" y2="163.073" gradientUnits="userSpaceOnUse">
<stop stop-color="#A22B25"/>
<stop offset="1" stop-color="#C0423C"/>
</linearGradient>
<linearGradient id="paint60_linear" x1="113.348" y1="99.114" x2="13.9804" y2="286.713" gradientUnits="userSpaceOnUse">
<stop stop-color="#E1473D"/>
<stop offset="1" stop-color="#E9605A"/>
</linearGradient>
<linearGradient id="paint61_linear" x1="113.694" y1="99.2957" x2="14.3257" y2="286.895" gradientUnits="userSpaceOnUse">
<stop stop-color="#E1473D"/>
<stop offset="1" stop-color="#E9605A"/>
</linearGradient>
</defs>
</svg>
