<svg width="28" height="33" viewBox="0 0 28 33" fill="none" xmlns="http://www.w3.org/2000/svg">
<path d="M26.3505 5.64229L14.1025 0.54786C13.7957 0.420276 13.4508 0.420213 13.144 0.54786L0.89605 5.64229C0.429564 5.83636 0.125488 6.29261 0.125488 6.79863V12.9916C0.125488 21.5189 5.27021 29.1895 13.151 32.412C13.4537 32.5357 13.7928 32.5357 14.0956 32.412C21.9762 29.1895 27.1211 21.519 27.1211 12.9916V6.79863C27.1211 6.29261 26.8171 5.83636 26.3505 5.64229ZM24.6215 12.9916C24.6215 20.2407 20.3722 26.914 13.6233 29.8928C7.05473 26.9936 2.62508 20.4372 2.62508 12.9916V7.6345L13.6233 3.05986L24.6215 7.6345V12.9916ZM12.2419 17.2119L17.6138 11.8304C18.1018 11.3415 18.8931 11.3414 19.3812 11.8304C19.8693 12.3194 19.8693 13.1121 19.3812 13.6011L13.1256 19.8679C12.6374 20.357 11.8461 20.3568 11.3582 19.8679L7.86535 16.3688C7.37724 15.8798 7.37724 15.0871 7.86535 14.5981C8.35345 14.1092 9.14476 14.1091 9.63281 14.5981L12.2419 17.2119Z" fill="white"/>
</svg>
