<svg width="28" height="27" viewBox="0 0 28 27" fill="none" xmlns="http://www.w3.org/2000/svg">
<path d="M26.7214 12.068C27.2645 11.5376 27.4562 10.7592 27.2219 10.0366C26.9875 9.31393 26.3757 8.79716 25.6251 8.68794L19.0619 7.73252C18.9331 7.7138 18.8217 7.63275 18.764 7.51572L15.8289 1.55779C15.4933 0.876399 14.8136 0.453125 14.0551 0.453125C13.2966 0.453125 12.6169 0.876399 12.2813 1.55779L9.34617 7.51578C9.28846 7.63275 9.17715 7.7138 9.04827 7.73258L2.4852 8.68794C1.73462 8.79716 1.12283 9.31393 0.888373 10.0366C0.653919 10.7592 0.845723 11.5376 1.38892 12.068L6.13804 16.7057C6.23125 16.7968 6.27384 16.9279 6.25181 17.0565L5.13069 23.6049C5.0025 24.3539 5.30398 25.0965 5.91759 25.5431C6.5312 25.9899 7.32958 26.0476 8.00084 25.6941L13.871 22.6023C13.9863 22.5416 14.1239 22.5416 14.2393 22.6023L20.1095 25.6941C20.4015 25.8478 20.7175 25.9238 21.0319 25.9238C21.4402 25.9238 21.846 25.7956 22.1926 25.5431C22.8062 25.0964 23.1078 24.3537 22.9795 23.6049L21.8584 17.0565C21.8364 16.9279 21.879 16.7967 21.9722 16.7056L26.7214 12.068ZM20.2988 17.3246L21.42 23.8731C21.4575 24.0922 21.3224 24.2172 21.2626 24.2607C21.2027 24.3041 21.0423 24.3943 20.8459 24.2908L14.9757 21.199C14.6875 21.0473 14.3714 20.9714 14.0552 20.9714C13.739 20.9714 13.4229 21.0473 13.1347 21.199L7.26456 24.2907C7.06807 24.3941 6.90772 24.304 6.84791 24.2606C6.78809 24.2171 6.653 24.0921 6.69055 23.873L7.81167 17.3246C7.92175 16.6816 7.70915 16.0259 7.24276 15.5705L2.49364 10.9329C2.3347 10.7776 2.37067 10.597 2.39358 10.5266C2.41637 10.4561 2.49329 10.2888 2.71292 10.2568L9.27593 9.30143C9.92029 9.20764 10.4771 8.80245 10.7654 8.21736L13.7005 2.25937C13.7987 2.06 13.9813 2.03846 14.0553 2.03846C14.1292 2.03846 14.3117 2.05994 14.41 2.25937V2.25943L17.3451 8.21742C17.6333 8.80251 18.1901 9.2077 18.8345 9.30149L25.3976 10.2569C25.6172 10.2888 25.6941 10.4562 25.7169 10.5266C25.7398 10.5971 25.7758 10.7778 25.6168 10.933L20.8677 15.5706C20.4014 16.0259 20.1888 16.6816 20.2988 17.3246Z" fill="white" stroke="white" stroke-width="0.8"/>
</svg>
