<svg width="31" height="31" viewBox="0 0 31 31" fill="none" xmlns="http://www.w3.org/2000/svg">
<path d="M15.1919 0.775391C6.92261 0.775391 0.194336 7.51584 0.194336 15.8001C0.194336 24.0843 6.92261 30.8248 15.1919 30.8248C23.4612 30.8248 30.1894 24.0843 30.1894 15.8001C30.1894 7.51584 23.4612 0.775391 15.1919 0.775391ZM15.1919 28.9467C7.95557 28.9467 2.06903 23.0495 2.06903 15.8001C2.06903 8.55066 7.95557 2.65348 15.1919 2.65348C22.4282 2.65348 28.3147 8.55066 28.3147 15.8001C28.3147 23.0495 22.4282 28.9467 15.1919 28.9467Z" fill="white"/>
<path d="M15.1921 14.861C13.668 14.861 12.3801 14.0008 12.3801 12.9829C12.3801 11.965 13.668 11.1048 15.1921 11.1048C16.0545 11.1048 16.8531 11.3752 17.3817 11.8448C17.7679 12.1885 18.3585 12.1565 18.7053 11.7659C19.0502 11.379 19.0146 10.7855 18.6265 10.44C17.9704 9.85588 17.0893 9.46148 16.1295 9.3056V8.28768C16.1295 7.76932 15.7095 7.34863 15.1921 7.34863C14.6747 7.34863 14.2548 7.76932 14.2548 8.28768V9.30184C12.1176 9.65117 10.5054 11.1687 10.5054 12.9829C10.5054 15.0544 12.6088 16.7391 15.1921 16.7391C16.7162 16.7391 18.0041 17.5992 18.0041 18.6171C18.0041 19.6351 16.7162 20.4952 15.1921 20.4952C14.3297 20.4952 13.5311 20.2248 13.0025 19.7553C12.6163 19.4097 12.0239 19.4435 11.6789 19.8341C11.334 20.221 11.3696 20.8145 11.7577 21.1601C12.4138 21.746 13.2949 22.1386 14.2548 22.2963V23.3124C14.2548 23.8307 14.6747 24.2514 15.1921 24.2514C15.7095 24.2514 16.1295 23.8307 16.1295 23.3124V22.2982C18.2666 21.9489 19.8788 20.4314 19.8788 18.6171C19.8788 16.5456 17.7754 14.861 15.1921 14.861Z" fill="white"/>
</svg>
