<svg width="28" height="26" viewBox="0 0 28 26" fill="none" xmlns="http://www.w3.org/2000/svg">
<path d="M26.209 0.780273H1.03752C0.533876 0.780273 0.125488 1.1894 0.125488 1.69396V20.6068C0.125488 21.1113 0.533876 21.5204 1.03752 21.5204H15.1427V24.547C15.1427 24.8637 15.3064 25.1577 15.5752 25.3242C15.8441 25.4906 16.1798 25.5059 16.4625 25.3642L18.6766 24.2551L20.8908 25.3642C21.0195 25.4287 21.1591 25.4606 21.2987 25.4606C21.4654 25.4606 21.6317 25.4148 21.7781 25.3242C22.047 25.1578 22.2107 24.8637 22.2107 24.547V21.5204H26.209C26.7127 21.5204 27.1211 21.1113 27.1211 20.6068V1.69396C27.1211 1.1894 26.7127 0.780273 26.209 0.780273ZM18.6766 17.4484C16.7611 17.4484 15.2027 15.8871 15.2027 13.9682C15.2027 12.0493 16.7611 10.4879 18.6766 10.4879C20.5921 10.4879 22.1505 12.0492 22.1505 13.9682C22.1505 15.8872 20.5921 17.4484 18.6766 17.4484ZM19.0845 22.4164C18.9561 22.3521 18.8164 22.3199 18.6766 22.3199C18.5368 22.3199 18.3971 22.3521 18.2688 22.4164L16.9666 23.0686V18.9905C17.5035 19.1744 18.0783 19.2757 18.6765 19.2757C19.2749 19.2757 19.8497 19.1744 20.3865 18.9905V23.0686L19.0845 22.4164ZM25.297 19.6931H22.2107V17.9181C23.2925 16.9456 23.9746 15.5354 23.9746 13.9681C23.9746 11.0416 21.5979 8.66058 18.6766 8.66058C15.7554 8.66058 13.3787 11.0416 13.3787 13.9681C13.3787 15.5354 14.0608 16.9456 15.1426 17.9181V19.6931H1.94955V2.60764H25.2971V19.6931H25.297Z" fill="white"/>
<path d="M4.18449 7.33615H15.1971C15.7007 7.33615 16.1091 6.92703 16.1091 6.42247C16.1091 5.91792 15.7007 5.50879 15.1971 5.50879H4.18449C3.68085 5.50879 3.27246 5.91792 3.27246 6.42247C3.27246 6.92703 3.68085 7.33615 4.18449 7.33615Z" fill="white"/>
<path d="M4.18449 12.0637H10.4774C10.981 12.0637 11.3894 11.6546 11.3894 11.15C11.3894 10.6455 10.981 10.2363 10.4774 10.2363H4.18449C3.68085 10.2363 3.27246 10.6455 3.27246 11.15C3.27255 11.6547 3.68085 12.0637 4.18449 12.0637Z" fill="white"/>
<path d="M4.18449 16.7917H8.90418C9.40782 16.7917 9.81621 16.3826 9.81621 15.878C9.81621 15.3735 9.40782 14.9644 8.90418 14.9644H4.18449C3.68085 14.9644 3.27246 15.3735 3.27246 15.878C3.27246 16.3826 3.68085 16.7917 4.18449 16.7917Z" fill="white"/>
</svg>
