<svg width="31" height="31" viewBox="0 0 31 31" fill="none" xmlns="http://www.w3.org/2000/svg">
<path d="M15.0821 0.775391C6.81019 0.775391 0.0566406 7.54116 0.0566406 15.8281C0.0566406 24.1056 6.81019 30.8248 15.0821 30.8248C23.3448 30.8248 30.0517 24.1056 30.0517 15.8281C30.0517 7.54116 23.3448 0.775391 15.0821 0.775391ZM15.0821 28.2211C8.17954 28.2211 2.65559 22.6778 2.65559 15.8187C2.64628 8.91298 8.17954 3.36971 15.0821 3.36971C21.9288 3.36971 27.4621 8.91298 27.4621 15.8187C27.4621 22.6778 21.9288 28.2211 15.0821 28.2211Z" fill="white"/>
<path d="M22.0326 9.10938C21.6413 9.10938 21.2501 9.30535 21.0079 9.60398L12.6335 19.2534L9.06575 15.6792C7.84545 14.4567 5.9824 16.3138 7.2027 17.5456L11.7579 22.109C12.2981 22.6503 13.1738 22.6036 13.6675 22.0623L23.0107 11.3304C23.7373 10.4812 23.1504 9.10938 22.0326 9.10938Z" fill="white"/>
</svg>
