<svg width="367" height="366" viewBox="0 0 367 366" fill="none" xmlns="http://www.w3.org/2000/svg">
<path d="M320.956 312.922C313.52 320.735 306.488 325.766 300.941 329.744C235.634 376.518 158.36 362.881 141.939 359.553C117.692 354.639 70.8118 345.136 36.915 305.343C-14.3535 245.153 -6.37092 150.318 33.399 87.7101C40.6784 76.2571 79.107 12.7001 157.214 2.50809C204.485 -3.65391 259.582 8.7741 299.482 42.1581C383.241 112.215 377.277 253.746 320.956 312.922Z" fill="url(#paint0_linear)"/>
<path d="M7.43284 124.188C7.08125 124.019 6.83382 123.668 6.8208 123.252C6.8208 121.9 6.83382 120.522 6.88591 119.17C6.91196 118.611 7.38076 118.182 7.95373 118.208C9.33409 118.273 8.86529 119.612 8.87831 123.278C8.87831 123.837 8.42253 124.279 7.84956 124.279C7.70631 124.279 7.56307 124.24 7.43284 124.188Z" fill="#91B3FA"/>
<path d="M8.20094 106.508C8.63068 103.947 9.17761 101.373 9.8157 98.8512C9.95894 98.3052 10.5059 97.9932 11.0658 98.1362C12.5634 98.5392 11.5086 99.3192 10.2324 106.872C10.1413 107.418 9.60734 107.782 9.04739 107.678C8.47441 107.587 8.10979 107.054 8.20094 106.508ZM13.7224 86.7742C14.686 84.3432 15.7538 81.9122 16.8737 79.6242C17.4728 78.3892 19.3089 79.3512 18.7359 80.5342C17.616 82.8222 16.5873 85.1622 15.6366 87.5412C15.4283 88.0612 14.8293 88.3082 14.3084 88.1002C13.7745 87.8792 13.514 87.2942 13.7224 86.7742ZM23.1895 68.6132C24.622 66.4552 26.1716 64.3232 27.7733 62.2692C28.6068 61.2162 30.2345 62.4772 29.4141 63.5302C27.8385 65.5322 26.3279 67.6252 24.9215 69.7442C24.1792 70.8492 22.4603 69.7182 23.1895 68.6132ZM36.2899 54.2222C35.8862 53.8192 35.8862 53.1822 36.2769 52.7922C38.139 50.9722 40.0924 49.2042 42.0978 47.5272C43.1266 46.6692 44.4809 48.2292 43.4391 49.0872C41.4727 50.7252 39.5585 52.4542 37.7354 54.2482C37.3447 54.6382 36.6936 54.6252 36.2899 54.2222ZM52.1379 41.4042C51.8254 40.9362 51.9556 40.3122 52.4244 40.0002C54.6382 38.5962 56.9171 37.2572 59.235 36.0352C60.4201 35.4112 61.4228 37.1922 60.2378 37.8162C57.9719 39.0252 55.7321 40.3252 53.5574 41.7032C53.0886 42.0022 52.4505 41.8722 52.1379 41.4042ZM70.8899 32.6032C70.6555 32.4992 70.4602 32.3042 70.356 32.0442C70.1477 31.5242 70.3951 30.9392 70.929 30.7312C73.3902 29.7952 75.9165 28.9502 78.4428 28.2222C78.9898 28.0662 79.5627 28.3652 79.732 28.9112C79.9013 29.4442 79.6018 30.0162 79.0549 30.1722C76.5807 30.9002 74.1064 31.7192 71.6973 32.6422C71.4239 32.7332 71.1374 32.7202 70.8899 32.6032ZM90.7619 27.3122C90.4623 27.1692 90.2279 26.8962 90.1759 26.5582C90.0717 26.0122 90.4493 25.4922 91.0093 25.4012C93.6137 24.9852 96.2703 24.6602 98.9007 24.4522C99.4607 24.4002 99.9686 24.8162 100.034 25.3752C100.086 25.9342 99.6821 26.4152 99.1091 26.4672C96.5307 26.6752 93.9263 26.9872 91.3739 27.4032C91.1525 27.4292 90.9442 27.3902 90.7619 27.3122ZM110.79 25.1672C110.803 24.6082 111.285 24.1792 111.845 24.2052C114.488 24.3222 117.171 24.5432 119.801 24.8682C121.156 25.0372 120.934 27.0392 119.58 26.8832C117.002 26.5712 114.371 26.3502 111.78 26.2332C111.22 26.2072 110.777 25.7262 110.79 25.1672ZM175.107 51.7392C169.286 46.6042 167.893 46.5912 168.83 45.3692C169.169 44.9272 169.82 44.8492 170.276 45.1872C172.398 46.7862 174.482 48.4762 176.474 50.2312C177.477 51.1412 176.123 52.6362 175.107 51.7392ZM131.326 27.9622C131.456 27.4162 132.016 27.0912 132.563 27.2342C135.142 27.8842 137.72 28.6382 140.246 29.4702C141.549 29.8992 140.91 31.8232 139.621 31.3812C137.147 30.5622 134.621 29.8212 132.094 29.1842C131.534 29.0542 131.196 28.5082 131.326 27.9622ZM158.399 39.7922C151.667 35.9312 150.286 36.1912 150.951 34.8002C151.367 33.9162 152.448 34.3322 152.318 34.3322C154.727 35.4762 157.11 36.7242 159.415 38.0372C159.91 38.3232 160.079 38.9472 159.806 39.4282C159.532 39.8962 158.92 40.0912 158.399 39.7922Z" fill="#91B3FA"/>
<path d="M186.762 63.8682C184.574 61.1772 183.181 60.2282 184.222 59.3312C184.652 58.9672 185.303 59.0192 185.681 59.4482C188.051 62.1392 189.262 63.2182 188.207 64.0372C187.895 64.2842 187.113 64.2972 186.762 63.8682Z" fill="#91B3FA"/>
<path d="M209.043 139.333C208.639 139.151 208.392 138.722 208.444 138.28C208.613 136.954 208.743 135.615 208.861 134.302C208.913 133.743 209.408 133.34 209.968 133.392C210.528 133.444 210.957 133.938 210.905 134.497C210.788 135.849 210.645 137.214 210.475 138.553C210.41 139.112 209.889 139.489 209.329 139.411C209.238 139.411 209.134 139.385 209.043 139.333Z" fill="#91B3FA"/>
<path d="M64.3794 214.265C61.814 213.004 59.2617 211.613 56.8135 210.144C56.3186 209.845 56.1624 209.221 56.4488 208.753C57.2692 207.414 57.7511 208.753 65.2779 212.471C65.7858 212.718 66.0072 213.329 65.7597 213.836C65.33 214.694 64.2622 214.265 64.3794 214.265ZM76.6593 218.334C77.1542 216.852 77.9746 218.074 86.0484 220.089C86.6083 220.219 86.9469 220.778 86.8167 221.324C86.6865 221.87 86.1265 222.195 85.5796 222.052C82.8189 221.363 80.0321 220.544 77.3235 219.621C76.7765 219.439 76.477 218.854 76.6593 218.334ZM45.3409 202.149C43.1141 200.368 40.9264 198.47 38.8558 196.494C38.4391 196.104 38.4261 195.467 38.8168 195.064C39.9236 193.933 40.0929 195.35 46.6301 200.589C47.0728 200.94 47.151 201.577 46.7994 202.019C46.4217 202.448 45.7836 202.513 45.3409 202.149ZM99.0055 224.444C98.6148 224.262 98.3544 223.859 98.4065 223.417C98.4586 222.858 98.9664 222.468 99.5264 222.52C102.313 222.832 105.139 223.027 107.926 223.105C108.499 223.118 108.954 223.586 108.941 224.145C108.941 224.704 108.473 225.146 107.9 225.133C105.048 225.055 102.17 224.847 99.331 224.535C99.2138 224.522 99.1097 224.483 99.0055 224.444ZM121.273 224.483C120.961 224.34 120.727 224.041 120.674 223.677C120.609 223.118 121 222.624 121.573 222.559C124.347 222.26 127.133 221.844 129.868 221.311C130.428 221.207 130.975 221.558 131.092 222.117C131.209 222.663 130.858 223.196 130.298 223.3C127.511 223.833 124.659 224.262 121.833 224.574C121.625 224.6 121.43 224.561 121.273 224.483ZM142.916 219.725C142.669 219.608 142.474 219.413 142.369 219.14C142.174 218.607 142.448 218.035 142.995 217.853C145.625 216.969 148.243 215.955 150.782 214.85C151.303 214.629 151.915 214.863 152.149 215.37C152.384 215.877 152.162 216.475 151.641 216.709C149.05 217.84 146.38 218.867 143.698 219.764C143.424 219.855 143.151 219.829 142.916 219.725ZM162.906 210.417C162.723 210.339 162.567 210.209 162.463 210.027C162.163 209.546 162.307 208.922 162.775 208.636C165.132 207.206 167.463 205.659 169.677 204.034C170.133 203.709 170.771 203.8 171.123 204.255C171.461 204.71 171.383 205.334 170.927 205.672C168.661 207.336 166.278 208.909 163.882 210.378C163.583 210.547 163.218 210.56 162.906 210.417ZM179.991 196.793C178.858 195.662 180.29 195.558 185.681 189.357C186.554 188.343 188.13 189.682 187.257 190.683C185.421 192.802 183.468 194.856 181.449 196.806C181.046 197.209 180.394 197.196 179.991 196.793ZM194.055 180.036C192.7 179.178 194.068 178.762 197.909 171.521C198.534 170.351 200.371 171.3 199.732 172.483C198.417 174.953 196.985 177.397 195.474 179.737C195.175 180.218 194.524 180.335 194.055 180.036ZM203.9 160.562C203.418 160.341 203.17 159.782 203.353 159.288C204.29 156.701 205.137 154.062 205.853 151.423C205.996 150.89 206.556 150.578 207.116 150.721C207.663 150.877 207.989 151.436 207.845 151.969C207.116 154.66 206.257 157.351 205.293 159.99C205.098 160.51 204.512 160.783 203.978 160.575C203.952 160.588 203.926 160.575 203.9 160.562Z" fill="#91B3FA"/>
<path d="M29.3492 186.198C27.1094 183.403 25.9504 182.272 27.0313 181.505C28.1512 180.712 28.6591 182.103 30.951 184.963C31.3026 185.405 31.2375 186.042 30.7947 186.38C30.3519 186.731 29.7139 186.64 29.3492 186.198Z" fill="#91B3FA"/>
<path d="M42.3977 161.498L57.1389 160.718C61.2149 166.256 66.2154 171.222 72.0233 175.33C71.5936 189.435 70.5648 190.397 72.0363 191.008L88.4834 197.794C88.9652 197.989 89.5122 197.872 89.8507 197.495L99.5263 186.692C106.545 187.875 113.577 187.888 120.375 186.835L130.285 197.781C130.636 198.171 131.183 198.288 131.665 198.106L147.969 191.554C148.451 191.359 148.737 190.891 148.698 190.384L147.656 175.876C153.217 171.963 158.178 167.127 162.254 161.485L177.009 162.473C177.529 162.512 177.998 162.213 178.194 161.745L184.809 145.69C185.004 145.222 184.874 144.676 184.483 144.338L173.336 134.627C174.417 127.737 174.3 120.821 173.115 114.113C183.624 104.558 185.004 104.649 184.379 103.206C177.282 87.4762 177.842 86.2282 176.227 86.3062L161.486 87.0862C157.41 81.5482 152.41 76.5822 146.602 72.4742C147.031 58.3822 148.06 57.4072 146.589 56.7962C130.142 50.3352 129.816 49.1522 128.774 50.3092L119.112 61.1122C112.093 59.9292 105.061 59.9162 98.2631 60.9692C88.4834 50.5952 88.4443 49.1002 86.9859 49.6982C70.9685 56.4712 69.8356 55.8472 69.9398 57.4202L70.9815 71.9282C65.4211 75.8412 60.4596 80.6772 56.3836 86.3192C42.2805 85.6692 41.0565 84.5902 40.4444 86.0592C34.1807 102.062 32.9436 102.413 34.1547 103.466L45.3017 113.177C44.2209 120.067 44.3381 126.983 45.5231 133.691C35.0532 143.22 33.6338 143.155 34.2589 144.598C41.3429 160.328 40.783 161.576 42.3977 161.498Z" fill="#91B3FA"/>
<path d="M92.1949 121.315C93.4841 112.046 102.209 105.676 111.65 107.106C121.091 108.536 127.733 117.233 126.443 126.489C125.154 135.758 116.429 142.128 106.988 140.698C97.5471 139.281 90.9187 130.584 92.1949 121.315ZM111.233 110.109C103.563 108.952 96.323 114.061 95.2551 121.783C94.2003 129.388 99.6436 136.538 107.405 137.708C115.166 138.878 122.328 133.639 123.383 126.034C124.451 118.403 118.982 111.279 111.233 110.109Z" fill="#BDD0FB"/>
<path d="M91.4396 163.149C89.1086 162.083 86.8818 160.809 84.7722 159.379C84.1472 158.95 83.9258 158.144 84.2253 157.494C84.2644 157.416 84.3034 157.338 84.3555 157.273C84.8373 156.584 85.801 156.428 86.5042 156.909C88.9133 158.56 91.5308 159.964 94.2524 161.095C114.815 169.584 138.202 160.601 147.227 141.062C147.461 140.568 147.683 140.061 147.891 139.541C156.434 118.819 146.094 95.1072 125.037 86.3972C104.019 77.7132 79.928 87.2942 71.3984 107.951C66.3328 120.249 69.38 128.959 68.794 130.22C68.1689 131.585 66.0984 131.273 65.864 129.791C64.5618 121.666 65.5905 113.073 69.2497 105.143C85.0457 70.9142 135.338 72.3182 150.417 107.366C155.053 118.156 155.183 129.999 150.756 140.724C150.521 141.283 150.287 141.829 150.04 142.375C145.456 152.307 137.343 159.99 127.016 164.137C116.13 168.518 104.084 168.427 93.1065 163.89C92.5465 163.643 91.9866 163.409 91.4396 163.149Z" fill="#BDD0FB"/>
<path d="M219.786 98.8252C222.274 101.763 225.256 104.311 228.655 106.352L228.824 114.581C228.837 115.491 229.618 115.14 238.708 118.247C239.554 118.52 239.45 117.74 244.411 111.435C248.357 111.76 252.277 111.422 256.014 110.499L261.965 116.206C262.63 116.843 262.929 116.037 271.55 111.812C271.81 111.682 271.954 111.396 271.914 111.11L270.756 102.959C273.699 100.476 276.251 97.4992 278.295 94.1062C286.161 93.7812 286.89 94.3272 287.164 93.4692C290.002 84.1092 290.68 83.8622 289.963 83.3292L283.374 78.3892C283.7 74.4502 283.361 70.5372 282.436 66.8062L288.153 60.8652C288.791 60.2022 287.984 59.9032 283.752 51.2972C283.348 50.5172 282.892 51.1282 274.884 52.0902C272.396 49.1522 269.414 46.6042 266.015 44.5632L265.846 36.3342C265.833 35.4242 265.052 35.7752 255.962 32.6682C255.129 32.3952 255.233 33.1492 250.258 39.4802C246.313 39.1552 242.393 39.4932 238.656 40.4162L232.705 34.7092C232.496 34.5142 232.184 34.4622 231.923 34.5922L223.12 39.0902C222.86 39.2202 222.716 39.5062 222.756 39.7922L223.914 47.9432C220.971 50.4262 218.419 53.4032 216.375 56.7962C208.509 57.1212 207.78 56.5752 207.506 57.4332C204.668 66.7932 203.99 67.0402 204.707 67.5732L211.296 72.5132C210.97 76.4522 211.309 80.3652 212.234 84.0962C206.894 89.8812 205.996 90.0112 206.413 90.8042L210.918 99.5922C211.335 100.411 211.83 99.7872 219.786 98.8252Z" fill="#91B3FA"/>
<path d="M237.028 74.7882C237.392 69.1072 242.302 64.8042 247.993 65.1682C253.683 65.5322 257.994 70.4332 257.629 76.1142C257.264 81.7822 252.342 86.0982 246.664 85.7342C240.974 85.3702 236.663 80.4692 237.028 74.7882ZM240.101 74.9962C239.841 78.9742 242.875 82.4192 246.86 82.6792C253.267 83.0952 257.017 75.5162 252.772 70.6932C248.54 65.8832 240.518 68.5612 240.101 74.9962Z" fill="#BDD0FB"/>
<path d="M195.526 90.8692C195.136 89.5432 194.784 88.1782 194.484 86.8262C194.367 86.2672 194.719 85.7342 195.266 85.6042C196.659 85.3052 196.464 86.8522 197.48 90.2712C197.636 90.8172 197.336 91.3892 196.789 91.5452C196.255 91.7272 195.683 91.4152 195.526 90.8692Z" fill="#91B3FA"/>
<path d="M193.325 73.1892C193.443 70.4722 193.768 67.6512 194.328 64.8172C194.588 63.4912 196.607 63.8942 196.333 65.2202C194.862 72.5522 196.008 74.3332 194.302 74.2552C193.742 74.2292 193.299 73.7612 193.325 73.1892ZM199.185 53.2212C198.677 52.9742 198.469 52.3632 198.717 51.8562C199.941 49.3342 201.386 46.8902 203.001 44.5892C203.782 43.4842 205.462 44.6542 204.681 45.7592C203.131 47.9692 201.738 50.3222 200.566 52.7532C200.123 53.6372 199.055 53.2212 199.185 53.2212ZM212.429 36.1522C212.299 36.0872 212.181 36.0092 212.077 35.8922C211.713 35.4632 211.765 34.8132 212.195 34.4492C214.33 32.6292 216.622 30.9522 219.018 29.4832C219.5 29.1842 220.138 29.3402 220.425 29.8212C220.724 30.3022 220.568 30.9392 220.086 31.2252C217.781 32.6422 215.58 34.2542 213.523 36.0092C213.21 36.2692 212.781 36.3212 212.429 36.1522ZM231.376 25.7522C231.116 25.6352 230.907 25.4142 230.829 25.1282C230.66 24.5822 230.973 24.0102 231.506 23.8542C234.189 23.0352 236.963 22.4112 239.75 22.0212C240.309 21.9432 240.83 22.3332 240.909 22.8922C240.987 23.4512 240.596 23.9712 240.036 24.0492C237.353 24.4262 234.684 25.0112 232.105 25.8042C231.858 25.8822 231.598 25.8562 231.376 25.7522ZM252.316 22.7362C252.381 22.1772 252.889 21.7742 253.449 21.8392C256.249 22.1512 259.035 22.6972 261.744 23.4382C263.046 23.7892 262.512 25.7782 261.197 25.4142C258.593 24.6992 255.91 24.1792 253.215 23.8802C252.642 23.8022 252.251 23.2952 252.316 22.7362Z" fill="#91B3FA"/>
<path d="M276.798 32.6682C273.698 30.5362 272.331 30.3152 273.034 29.1193C273.321 28.6253 273.933 28.4563 274.441 28.7423C275.639 29.4312 276.824 30.1852 277.97 30.9782C278.439 31.3032 278.556 31.9402 278.23 32.4082C277.905 32.8632 277.28 32.9932 276.798 32.6682Z" fill="#91B3FA"/>
<path d="M298.922 68.8342C298.44 65.0902 297.698 63.9462 299.052 63.6602C299.612 63.5432 300.146 63.9072 300.263 64.4532C300.55 65.8052 300.771 67.1832 300.954 68.5742C301.032 69.1332 300.628 69.6532 300.068 69.7182C299.508 69.7832 298.987 69.3932 298.922 68.8342Z" fill="#91B3FA"/>
<path d="M229.644 125.384C230.178 123.772 231.389 125.436 238.695 126.645C240.023 126.866 239.697 128.894 238.356 128.66C235.621 128.205 232.913 127.529 230.295 126.671C229.774 126.502 229.462 125.93 229.644 125.384ZM250.727 128.296C250.675 127.737 251.105 127.243 251.665 127.191C259.113 126.58 260.39 125.02 260.793 126.684C260.924 127.23 260.585 127.789 260.038 127.919C257.355 128.569 254.595 129.011 251.834 129.232C251.261 129.271 250.766 128.855 250.727 128.296ZM271.25 122.719C270.456 121.211 272.474 121.497 278.425 117.064C279.506 116.258 280.743 117.896 279.65 118.702C277.436 120.353 275.066 121.848 272.631 123.135C272.136 123.408 271.511 123.213 271.25 122.719ZM287.919 109.537C286.59 108.458 288.57 107.938 292.307 101.529C292.984 100.359 294.768 101.386 294.078 102.556C292.685 104.935 291.096 107.236 289.364 109.381C289.012 109.823 288.361 109.888 287.919 109.537ZM297.373 89.6082C299.404 82.4322 298.389 80.6902 300.081 80.8982C300.641 80.9632 301.045 81.4832 300.98 82.0422C300.641 84.7852 300.094 87.5282 299.339 90.1802C299.183 90.7262 298.623 91.0382 298.076 90.8822C297.542 90.7132 297.216 90.1542 297.373 89.6082Z" fill="#91B3FA"/>
<path d="M218.093 120.847C216.921 120.093 215.775 119.287 214.669 118.455C214.213 118.117 214.135 117.467 214.473 117.025C215.333 115.894 216.192 117.194 219.2 119.131C219.682 119.443 219.812 120.067 219.513 120.548C219.2 121.016 218.562 121.146 218.093 120.847Z" fill="#91B3FA"/>
<path d="M234.814 97.3302C233.968 96.8492 233.798 95.9002 234.202 95.1982C234.632 94.4702 235.582 94.2102 236.299 94.6392C237.666 95.4322 239.124 96.0692 240.648 96.5632C240.987 96.6022 248.8 99.7222 257.681 95.1852C275.3 86.1762 273.217 60.2022 254.36 54.1312C243.5 50.6342 231.884 55.9122 227.235 66.0002C222.547 76.1662 227.847 81.4572 224.605 82.1982C223.771 82.3932 222.951 81.8732 222.756 81.0542C221.714 76.5952 221.922 71.9282 223.328 67.5602C227.613 54.2742 241.95 46.9032 255.311 51.2062C269.675 55.8342 277.006 72.0452 270.573 86.0072C265.377 97.2652 252.303 103.531 239.723 99.4882C238.005 98.9422 236.351 98.2142 234.814 97.3302Z" fill="#BDD0FB"/>
<path d="M230.608 134.042C230.569 133.561 230.074 133.145 229.254 132.82C230.152 132.326 230.66 131.793 230.608 131.273C230.478 129.687 225.464 128.803 219.396 129.297C213.341 129.791 208.522 131.468 208.653 133.041C208.692 133.522 209.186 133.938 210.007 134.263C209.108 134.757 208.6 135.29 208.653 135.81C208.692 136.291 209.186 136.707 210.007 137.032C209.108 137.526 208.6 138.059 208.653 138.579C208.692 139.06 209.186 139.476 210.007 139.801C209.108 140.295 208.6 140.828 208.653 141.348C208.705 142.05 209.72 142.609 211.361 142.986C211.335 143.506 211.348 144.065 211.4 144.689C211.635 147.601 214.916 149.889 219.266 149.889C223.615 149.889 227.365 146.769 227.405 143.844C227.418 143.129 227.379 142.492 227.313 141.933C229.397 141.244 230.66 140.399 230.595 139.567C230.556 139.086 230.061 138.67 229.241 138.345C230.139 137.851 230.647 137.318 230.595 136.798C230.556 136.317 230.061 135.901 229.241 135.576C230.152 135.095 230.647 134.562 230.608 134.042Z" fill="url(#paint1_linear)"/>
<path d="M216.596 143.636C214.799 143.636 213.145 143.506 211.791 143.246C211.712 143.233 211.66 143.155 211.673 143.077C211.686 142.999 211.765 142.947 211.843 142.96C213.978 143.363 216.817 143.454 219.851 143.207C222.339 143.012 224.657 142.609 226.571 142.05C226.649 142.024 226.727 142.076 226.753 142.154C226.779 142.232 226.727 142.31 226.649 142.336C224.722 142.895 222.378 143.298 219.877 143.506C218.744 143.584 217.651 143.636 216.596 143.636Z" fill="url(#paint2_linear)"/>
<path d="M216.622 140.841C214.278 140.841 212.194 140.62 210.723 140.204C210.645 140.178 210.606 140.1 210.619 140.022C210.645 139.944 210.723 139.905 210.801 139.918C212.898 140.516 216.283 140.698 219.851 140.412C223.38 140.126 226.662 139.411 228.654 138.501C228.733 138.462 228.811 138.501 228.85 138.566C228.889 138.644 228.85 138.722 228.785 138.761C226.766 139.684 223.446 140.412 219.891 140.698C218.771 140.802 217.677 140.841 216.622 140.841Z" fill="url(#paint3_linear)"/>
<path d="M216.596 138.072C214.069 138.072 211.856 137.812 210.371 137.318C210.293 137.292 210.254 137.214 210.28 137.136C210.306 137.058 210.384 137.019 210.462 137.045C212.533 137.721 216.036 137.955 219.851 137.643C223.38 137.357 226.662 136.642 228.654 135.732C228.732 135.693 228.811 135.732 228.85 135.797C228.889 135.875 228.85 135.953 228.785 135.992C226.766 136.915 223.445 137.643 219.89 137.929C218.744 138.02 217.651 138.072 216.596 138.072Z" fill="url(#paint4_linear)"/>
<path d="M216.622 135.29C214.617 135.29 212.794 135.134 211.374 134.809C211.296 134.796 211.244 134.718 211.27 134.64C211.283 134.562 211.361 134.51 211.439 134.536C213.575 135.004 216.635 135.134 219.852 134.874C223.342 134.588 226.623 133.886 228.602 132.989C228.681 132.95 228.759 132.989 228.798 133.067C228.837 133.145 228.798 133.223 228.72 133.262C226.701 134.172 223.394 134.9 219.865 135.173C218.758 135.238 217.664 135.29 216.622 135.29Z" fill="url(#paint5_linear)"/>
<path d="M204.589 120.002C203.847 117.402 202.597 114.971 200.917 112.852C197.31 108.315 191.424 99.0853 190.695 86.4753C189.64 68.1453 205.931 58.9673 220.789 60.2153C235.647 61.4633 250.31 72.5003 248.709 89.5563C247.719 100.047 241.833 108.003 237.457 112.579C234.671 115.478 232.691 119.04 231.623 122.901C230.308 127.633 227.183 133.548 219.747 133.899C210.124 134.367 206.126 125.423 204.589 120.002Z" fill="url(#paint6_linear)"/>
<path d="M222.195 130.246L227.391 96.4853C227.495 95.7833 227.847 95.3153 228.159 95.4453C228.472 95.5623 228.641 96.2253 228.537 96.9273C228.537 96.9403 228.524 96.9663 228.524 96.9923L222.599 130.441C222.56 130.688 222.43 130.857 222.312 130.792C222.208 130.727 222.156 130.493 222.195 130.246Z" fill="url(#paint7_linear)"/>
<path d="M216.804 130.519L211.608 96.7582C211.504 96.0562 211.153 95.5882 210.84 95.7182C210.527 95.8352 210.358 96.4982 210.462 97.2002C210.462 97.2132 210.475 97.2392 210.475 97.2652L216.4 130.714C216.44 130.961 216.57 131.13 216.687 131.065C216.778 131 216.83 130.766 216.804 130.519Z" fill="url(#paint8_linear)"/>
<path d="M227.352 93.5993C227.222 93.3913 226.909 93.3133 226.675 93.4173L223.784 94.7693L222.781 91.9093C222.729 91.7663 222.599 91.6233 222.43 91.5583C222.091 91.4153 221.7 91.5453 221.544 91.8313V91.8443L219.161 96.1733L216.947 89.9983V89.9853C216.895 89.8293 216.778 89.6993 216.609 89.6083C216.244 89.4003 215.749 89.5043 215.515 89.8293L212.181 94.4053C212.051 94.5873 212.09 94.8473 212.298 94.9773C212.52 95.1203 212.832 95.0943 213.001 94.8993L215.931 91.6363L218.575 97.4993C218.614 97.5903 218.692 97.6813 218.809 97.7203C219.057 97.8373 219.369 97.7593 219.5 97.5383L222.052 93.4563L223.016 95.5233L223.029 95.5363C223.042 95.5493 223.042 95.5623 223.055 95.5753C223.185 95.7833 223.497 95.8613 223.732 95.7573L227.17 94.1583C227.404 94.0673 227.495 93.8073 227.352 93.5993Z" fill="white"/>
<path d="M237.575 108.224C237.431 108.224 237.301 108.185 237.184 108.094C236.897 107.873 236.832 107.47 237.054 107.171C237.939 105.975 238.747 104.753 239.463 103.518C239.645 103.206 240.049 103.089 240.361 103.271C240.674 103.453 240.791 103.856 240.609 104.168C239.866 105.442 239.033 106.716 238.109 107.951C237.965 108.133 237.77 108.224 237.575 108.224Z" fill="white"/>
<path d="M241.846 100.892C241.754 100.892 241.663 100.879 241.585 100.84C241.247 100.697 241.103 100.307 241.247 99.9692C246.742 87.3332 242.002 76.7382 241.95 76.6342C241.794 76.3092 241.937 75.9062 242.275 75.7632C242.614 75.6072 243.005 75.7632 243.148 76.0882C243.356 76.5432 248.174 87.3332 242.458 100.502C242.34 100.749 242.106 100.892 241.846 100.892Z" fill="white"/>
<path d="M131.925 341.054C131.925 341.054 131.065 345.643 130.623 350.193C130.453 351.974 131.808 353.534 133.592 353.625C139.66 353.937 152.643 354.548 157.305 354.392C158.008 354.366 158.477 353.651 158.217 353.001C158.008 352.455 157.592 352.013 157.058 351.753L135.688 341.704L131.925 341.054Z" fill="url(#paint9_linear)"/>
<path d="M131.287 338.35L131.886 343.862C131.886 343.862 135.623 345.643 138.214 343.706L136.717 337.557L131.287 338.35Z" fill="url(#paint10_linear)"/>
<path d="M132.771 234.935C132.471 236.365 130.57 306.604 137.798 338.155C137.915 338.675 137.654 339.195 137.159 339.39C136.001 339.845 133.735 340.508 131.026 340.573C130.193 340.599 129.437 340.04 129.216 339.234C127.132 331.915 117.183 295.216 116.168 260.246C115.035 221.168 116.181 258.92 116.181 258.92L117.288 234.779L132.771 234.935Z" fill="url(#paint11_linear)"/>
<path d="M107.221 343.212C107.221 343.212 105.906 345.526 104.591 351.675C104.357 352.793 105.125 353.859 106.258 353.989C108.263 354.21 111.35 354.483 113.824 354.496C114.97 354.496 115.868 353.521 115.738 352.39C115.491 350.141 114.67 346.436 112.053 343.524L107.221 343.212Z" fill="url(#paint12_linear)"/>
<path d="M106.154 336.127L107.599 344.46C107.599 344.46 109.097 345.591 112.092 344.811L111.454 335.854L106.154 336.127Z" fill="url(#paint13_linear)"/>
<path d="M102.976 236.807C96.4652 273.818 103.432 328.431 105.854 339.13C105.997 339.78 106.531 340.287 107.182 340.404C108.302 340.599 110.165 340.768 112.001 340.261C112.639 340.079 113.082 339.52 113.108 338.87C113.524 330.238 113.42 277.25 119.358 256.372C119.658 255.319 120.322 254.396 121.22 253.759L132.42 245.972L133.396 233.219L102.976 236.807Z" fill="url(#paint14_linear)"/>
<path d="M142.85 166.945C124.411 166.464 104.031 171.404 104.031 171.404C98.2232 203.358 102.416 240.33 102.416 240.33C116.65 244.204 132.81 238.341 132.81 238.341C135.31 224.99 146.744 187.433 146.744 187.433C155.768 186.406 163.204 183.884 169.351 180.504C164.741 175.07 162.605 168.18 161.694 164.111C155.143 166.074 148.528 167.101 142.85 166.945Z" fill="url(#paint15_linear)"/>
<path d="M197.57 140.36C195.786 138.163 193.481 139.164 193.481 139.164C190.655 150.578 176.344 159.717 161.681 164.111C162.592 168.18 164.728 175.057 169.338 180.504C193.715 167.127 197.57 140.36 197.57 140.36Z" fill="url(#paint16_linear)"/>
<path d="M197.114 140.906C197.296 141.504 195.095 142.401 193.819 139.931C193.78 138.748 193.116 133.691 193.832 132.742C197.635 127.659 204.992 121.315 204.992 121.315C206.216 122.537 205.188 123.72 205.188 123.72L201.62 127.36C202.349 128.699 203.234 129.83 203.638 131.455C203.951 132.677 203.742 133.977 203.104 135.095C202.479 136.2 201.607 137.643 200.799 138.774C199.276 140.906 197.114 140.906 197.114 140.906Z" fill="url(#paint17_linear)"/>
<path d="M200.057 129.739L196.815 132.43L195.773 135.134L198.612 138.345C198.612 138.345 199.628 132.963 200.357 131.806C201.086 130.649 200.721 130.09 200.057 129.739Z" fill="url(#paint18_linear)"/>
<path d="M110.92 189.292L104.018 171.404C104.018 171.404 86.6854 182.922 83.7163 197.703C86.9719 197.976 92.884 198.873 98.6528 201.85C99.9941 194.882 110.92 189.292 110.92 189.292Z" fill="url(#paint19_linear)"/>
<path d="M125.817 206.205C125.817 206.205 106.375 216.93 99.9423 207.557C98.601 205.607 98.3015 203.683 98.6531 201.85C92.8842 198.873 86.9721 197.976 83.7166 197.703C82.818 202.162 83.2217 206.907 85.8131 211.743C97.0383 232.725 128.331 210.989 128.331 210.989L125.817 206.205Z" fill="url(#paint20_linear)"/>
<path d="M124.32 151.826L118.29 168.7C118.186 168.986 118.303 169.285 118.564 169.441C120.152 170.338 125.895 172.951 132.875 168.622C133.604 168.167 134.099 167.426 134.216 166.581L136.261 151.943L124.32 151.826Z" fill="url(#paint21_linear)"/>
<path d="M137.226 136.265C137.226 136.265 143.555 148.433 142.682 153.308C141.81 158.196 133.827 157.767 126.899 153.724L122.146 140.62L137.226 136.265Z" fill="url(#paint22_linear)"/>
<path d="M127.263 147.315C127.55 147.198 127.654 146.847 127.485 146.587C126.977 145.794 126.026 144.182 125.727 142.765C125.727 142.765 124.581 142.011 128.696 141.075C132.811 140.139 138.944 138.67 140.273 135.199C141.562 131.806 138.345 123.226 133.019 129.986C132.811 130.246 132.42 130.246 132.225 129.986C131.378 128.855 129.126 126.515 125.974 127.893C123.018 129.18 122.667 131.338 122.693 132.417C122.706 132.742 122.419 132.976 122.094 132.924C120.609 132.625 117.041 132.352 115.335 135.992C113.929 138.995 114.814 140.711 115.608 141.556C115.869 141.829 115.752 142.271 115.387 142.375C114.41 142.661 113.134 143.48 113.238 145.768C113.382 148.94 116.924 148.693 117.939 148.55C118.109 148.524 118.265 148.589 118.382 148.706C119.242 149.668 123.096 153.763 127.315 154.296C127.68 154.348 127.967 153.984 127.849 153.633L126.078 148.316C126 148.069 126.117 147.796 126.352 147.692L127.263 147.315Z" fill="url(#paint23_linear)"/>
<path d="M127.993 148.069C127.993 148.069 123.435 144.884 123.07 147.523C122.706 150.162 127.159 151.397 129.386 150.435L127.993 148.069Z" fill="url(#paint24_linear)"/>
<path d="M121.846 223.157L132.433 186.237C132.55 185.821 132.915 185.509 133.344 185.457C135.259 185.236 140.819 184.612 147.239 184.066C154.974 183.416 163.947 182.883 169.312 183.338C170.08 183.403 170.536 184.209 170.197 184.898C167.15 191.06 154.597 216.124 148.307 224.34C148.098 224.613 147.773 224.769 147.434 224.769L122.861 224.535C122.158 224.535 121.637 223.846 121.846 223.157Z" fill="url(#paint25_linear)"/>
<path d="M124.398 214.239C124.398 214.239 122.926 208.181 123.512 206.036C124.111 203.891 125.257 201.122 129.099 201.746C132.94 202.357 137.472 203.982 137.472 203.982C137.472 203.982 137.238 206.777 134.321 205.88L136.131 207.284C136.131 207.284 135.87 209.52 133.409 208.324L135.089 210.183C135.089 210.183 134.034 212.029 132.211 210.846C130.414 209.637 129.542 214.967 124.398 214.239Z" fill="url(#paint26_linear)"/>
<path d="M149.635 198.197C151.354 198.197 152.748 196.806 152.748 195.09C152.748 193.374 151.354 191.983 149.635 191.983C147.916 191.983 146.523 193.374 146.523 195.09C146.523 196.806 147.916 198.197 149.635 198.197Z" fill="#91B3FA"/>
<path d="M133.631 197.144L132.836 196.91L134.998 189.604C135.35 188.421 136.313 187.524 137.511 187.277C144.348 185.847 162.345 185.561 163.1 185.548L163.113 186.367C162.931 186.367 144.426 186.666 137.681 188.07C136.782 188.252 136.066 188.928 135.792 189.825L133.631 197.144Z" fill="#91B3FA"/>
<path d="M8.30514 300.455C7.18523 302.119 2.69256 339.871 1.98936 353.82C1.93727 354.769 2.69256 355.549 3.64318 355.549C4.46358 355.549 5.15376 354.951 5.28398 354.145L13.488 301.651L8.30514 300.455Z" fill="#7D97F4"/>
<path d="M44.3767 300.455C45.5096 302.119 49.9893 339.871 50.6925 353.82C50.7446 354.769 49.9893 355.549 49.0386 355.549C48.2182 355.549 47.5281 354.951 47.3978 354.145L39.1938 301.651L44.3767 300.455Z" fill="#7D97F4"/>
<path d="M1.52071 297.504V297.92C1.49466 300.884 4.04702 303.315 7.25048 303.367L45.1842 304.017C48.3356 304.069 50.9661 301.794 51.1224 298.882L51.1484 298.505C51.3047 295.463 48.7263 292.902 45.4316 292.837L7.48488 292.161C4.22933 292.096 1.54675 294.501 1.52071 297.504Z" fill="#7D97F4"/>
<path d="M81.4245 352.442C74.679 352.442 71.6969 351.87 70.3687 351.337C70.6291 352.442 71.6188 353.313 72.8559 353.313H96.7126C97.52 353.313 98.0278 352.546 97.8325 351.857C95.0978 352.078 89.329 352.442 81.4245 352.442Z" fill="#91B3FA"/>
<path d="M97.8196 351.857C97.7806 351.714 97.7285 351.584 97.6243 351.454C95.8012 349.14 92.155 345.5 87.1935 345.565C79.9141 345.669 77.3878 346.449 71.7361 345.604L70.4078 350.011C70.2776 350.466 70.2646 350.908 70.3688 351.324C71.697 351.857 74.6921 352.429 81.4246 352.429C89.3291 352.442 95.098 352.078 97.8196 351.857Z" fill="url(#paint27_linear)"/>
<path d="M73.3639 340.859L71.7231 346.41C71.7231 346.41 75.3433 348.061 78.5338 346.735L79.1588 341.925L73.3639 340.859Z" fill="url(#paint28_linear)"/>
<path d="M122.809 348.945C117.548 353.157 114.866 354.574 113.499 355.003C114.397 355.705 115.699 355.757 116.676 354.977L135.272 340.066C135.897 339.559 135.819 338.649 135.233 338.233C133.24 340.105 128.969 344.005 122.809 348.945Z" fill="#91B3FA"/>
<path d="M135.22 338.233C135.103 338.142 134.972 338.077 134.816 338.038C131.951 337.375 126.833 336.842 123.005 340.001C117.405 344.629 115.908 346.826 110.985 349.699L112.704 353.95C112.874 354.379 113.16 354.73 113.499 354.99C114.866 354.561 117.549 353.144 122.81 348.932C128.969 344.005 133.24 340.105 135.22 338.233Z" fill="url(#paint29_linear)"/>
<path d="M38.3604 277.549C38.3604 277.549 78.7293 280.838 87.0114 284.725C95.2935 288.612 80.2529 343.16 80.2529 343.16C80.2529 343.16 78 344.239 72.9865 342.692C72.9865 342.692 78.1303 302.444 74.3017 293.721L30.5991 286.584L38.3604 277.549Z" fill="url(#paint30_linear)"/>
<path d="M106.975 342.042C107.352 342.38 110.985 349.699 110.985 349.699C110.985 349.699 115.035 348.828 115.856 346.267L112.21 339.663L106.975 342.042Z" fill="url(#paint31_linear)"/>
<path d="M14.0479 277.211C14.0479 277.211 12.7326 280.37 12.7847 284.569C12.8628 290.38 17.5378 295.086 23.3457 295.372L71.0592 297.543C72.0619 297.595 72.9214 298.284 73.1688 299.259C74.2887 303.588 79.771 316.887 106.558 343.42C107.274 344.122 108.381 344.252 109.227 343.706L113.043 341.301C113.447 341.054 113.577 340.521 113.329 340.118L85.5399 292.759C84.0814 290.354 81.7374 288.612 79.0027 287.923L38.3343 277.549L14.0479 277.211Z" fill="url(#paint32_linear)"/>
<path d="M61.0712 203.215C61.0712 203.215 55.9535 212.237 50.7446 216.605L61.514 222.611C61.514 222.611 63.9361 213.056 69.4836 210.261L61.0712 203.215Z" fill="url(#paint33_linear)"/>
<path d="M13.1758 277.549C13.1758 277.549 26.0548 280.682 38.3608 277.549C38.3608 277.549 55.5631 254.461 62.2175 248.169C62.2175 248.169 72.8306 264.9 96.4659 267.266L97.7812 264.328C97.7812 264.328 78.9641 255.67 73.1692 242.371C67.3743 229.072 65.0563 223.391 59.7823 219.92C56.5007 217.762 54.5344 216.28 53.5186 215.474C52.9587 215.032 52.1904 214.98 51.5913 215.357C46.0048 218.75 19.6999 236.742 13.1758 277.549Z" fill="url(#paint34_linear)"/>
<path d="M61.5269 247.844C61.2794 247.844 61.032 247.727 60.8758 247.519C56.7737 242.176 54.4949 236.287 54.3907 236.04C54.2214 235.611 54.4428 235.143 54.8595 234.974C55.2892 234.805 55.758 235.026 55.9273 235.442C55.9533 235.507 58.2322 241.357 62.178 246.505C62.4514 246.869 62.3863 247.389 62.0217 247.662C61.8785 247.792 61.6962 247.844 61.5269 247.844Z" fill="url(#paint35_linear)"/>
<path d="M95.0459 262.794L97.7024 262.092L105.776 260.22C106.753 259.999 107.769 260.168 108.615 260.701L115.556 265.069L96.3742 265.043L95.0459 262.794Z" fill="url(#paint36_linear)"/>
<path d="M69.1837 189.695C69.1837 189.695 74.1451 197.937 75.0176 202.5C75.8771 207.063 77.2575 209.91 72.0746 211.535C66.8787 213.16 62.0475 211.106 59.0263 206.855C59.0263 206.855 54.2992 200.303 54.7681 197.313C55.2238 194.297 69.1837 189.695 69.1837 189.695Z" fill="url(#paint37_linear)"/>
<path d="M60.3938 203.306L61.071 203.215C61.071 203.215 57.555 197.911 59.8599 196.598C62.1649 195.285 71.5408 192.048 73.1686 188.369C74.7443 184.82 72.3873 180.803 69.5615 179.958C69.3792 179.906 69.1969 180.01 69.1317 180.192L68.9625 180.634C68.8453 180.946 68.4155 180.959 68.2853 180.647C68.1551 180.361 67.7514 180.348 67.6212 180.634C67.1133 181.739 65.6157 183.624 61.1101 185.08C54.7031 187.147 50.7183 190.371 51.2132 194.908C51.2392 195.194 50.9527 195.389 50.6923 195.272C50.1714 195.038 49.377 194.999 48.4525 196.013C46.8507 197.768 48.1009 201.59 52.4763 204.294C52.6847 204.424 52.7237 204.71 52.5414 204.879C51.8903 205.438 50.9657 206.686 53.9218 207.804C56.956 208.935 58.5968 208.558 59.2088 208.311C59.3781 208.246 59.4693 208.077 59.4302 207.908L58.6489 203.93C58.6098 203.722 58.753 203.527 58.9614 203.501L60.3938 203.306Z" fill="url(#paint38_linear)"/>
<path d="M60.6803 204.125C60.6803 204.125 58.4926 198.73 56.1876 200.628C53.8827 202.526 58.3103 206.712 60.3548 206.66L60.6803 204.125Z" fill="url(#paint39_linear)"/>
<path d="M87.6366 268.813C87.6626 268.813 87.7017 268.813 87.7277 268.813L128.696 268.774C129.711 268.774 130.532 267.955 130.532 266.941C130.532 265.927 129.711 265.095 128.696 265.121L87.7277 265.16C86.712 265.16 85.8916 265.979 85.8916 266.993C85.9046 267.968 86.6729 268.761 87.6366 268.813Z" fill="url(#paint40_linear)"/>
<path d="M144.57 228.76C144.557 228.786 144.544 228.812 144.531 228.838L127.289 265.94C126.86 266.863 127.263 267.942 128.175 268.371C129.086 268.8 130.193 268.397 130.61 267.474L147.852 230.372C148.281 229.449 147.878 228.37 146.966 227.941C146.081 227.538 145.026 227.902 144.57 228.76Z" fill="url(#paint41_linear)"/>
<path d="M251.86 306.097H247.537V352.78H251.86V306.097Z" fill="#7D97F4"/>
<path d="M268.633 353.69H230.764C230.764 352.143 232.027 350.882 233.577 350.882H265.82C267.37 350.882 268.633 352.13 268.633 353.69Z" fill="#7D97F4"/>
<path d="M274.259 304.485C274.259 307.033 272.162 309.126 269.61 309.126H231.285C228.733 309.126 226.636 307.033 226.636 304.485V300.286C226.636 297.738 228.733 295.645 231.285 295.645H269.61C272.162 295.645 274.259 297.738 274.259 300.286V304.485Z" fill="#7D97F4"/>
<path d="M217.781 274.975C217.781 274.975 211.361 275.963 204.134 280.786C203.001 281.54 202.376 282.866 202.545 284.218C203.404 291.056 206.973 313.195 218.693 334.827C219.305 335.971 219.487 337.297 219.213 338.558L217.182 348.022L213.406 351.558H223.133L229.618 334.047L226.845 333.176C224.696 332.5 223.224 330.524 223.185 328.275L222.86 309.49C223.133 301.118 217.716 295.346 217.716 295.346L233.264 294.592L217.781 274.975Z" fill="url(#paint42_linear)"/>
<path d="M209.59 353.274C208.705 354.431 219.135 355.965 224.396 353.43C224.396 353.43 231.702 340.742 231.702 334.216C231.702 334.216 231.116 332.89 226.832 333.189C226.832 333.189 224.383 348.204 221.792 349.894C219.201 351.571 214.552 350.063 214.552 350.063C214.552 350.063 210.905 351.571 209.59 353.274Z" fill="url(#paint43_linear)"/>
<path d="M231.285 295.645C231.207 295.502 214.551 293.643 214.551 293.643C214.551 293.643 215.098 298.7 213.392 305.655C211.686 312.61 187.244 342.757 187.244 342.757L189.809 350.869C181.879 353.625 174.078 354.067 166.408 352.273L182.295 342.757C182.295 342.757 197.167 292.174 206.269 283.139L222.964 277.38L231.285 295.645Z" fill="url(#paint44_linear)"/>
<path d="M268.633 266.2C268.633 266.2 278.23 280.448 279.012 286.948C279.793 293.448 276.381 296.087 266.315 296.529C256.249 296.958 229.371 296.958 229.371 296.958L206.439 277.38C206.439 277.38 223.16 271.426 227.496 269.736C231.845 268.059 268.633 266.2 268.633 266.2Z" fill="url(#paint45_linear)"/>
<path d="M188.833 348.139C188.833 348.139 191.593 350.804 189.731 353.781C189.731 353.781 167.867 357.655 161.929 355.9C161.929 355.9 163.166 353.092 169.846 349.894L169.351 350.271C168.726 350.752 169.091 351.74 169.885 351.701C174.287 351.441 183.402 350.648 188.833 348.139Z" fill="url(#paint46_linear)"/>
<path d="M227.079 175.85C246.69 172.522 255.923 188.486 255.246 191.84C255.155 192.282 255.572 192.659 256.014 192.542C258.267 191.931 263.242 191.177 266.328 195.025C269.05 198.431 267.018 201.642 265.351 203.41C264.948 203.839 265.286 204.528 265.872 204.45C270.013 203.93 279.012 203.8 280.483 212.211C281.85 220.05 276.381 222.273 273.139 222.897C272.592 223.001 272.461 223.729 272.93 224.028C274.545 225.055 276.42 227.174 275.665 231.347C274.48 237.899 261.614 237.366 260.103 237.275C260.012 237.275 259.921 237.236 259.83 237.197L239.229 225.458C239.072 225.367 238.955 225.211 238.929 225.029L234.775 201.044C234.736 200.849 234.801 200.654 234.944 200.511L221.505 181.583C216.622 180.881 226.844 175.889 227.079 175.85Z" fill="url(#paint47_linear)"/>
<path d="M242.693 264.315C242.693 264.315 231.52 253.694 226.024 246.661C223.055 242.852 222.117 237.847 223.498 233.232C226.011 224.782 230.478 216.033 230.881 214.681C231.506 212.588 244.034 212.679 244.034 212.679C244.034 212.679 268.685 228.656 278.373 255.709L267.5 259.089C267.5 259.089 261.067 248.312 254.699 241.448C254.699 241.448 265.703 255.956 266.093 261.897L242.693 264.315Z" fill="url(#paint48_linear)"/>
<path d="M229.345 203.02C229.475 203.449 232.744 214.278 233.004 214.499C233.265 214.72 240.18 215.097 243.435 212.874L235.361 197.105L229.345 203.02Z" fill="url(#paint49_linear)"/>
<path d="M216.245 189.11C216.245 189.11 214.669 195.311 219.032 203.644C223.407 211.977 228.356 211.977 231.064 209.299C233.773 206.634 237.107 202.097 236.312 194.037C235.518 185.99 218.524 181.219 216.245 189.11Z" fill="url(#paint50_linear)"/>
<path d="M230.257 194.492C230.257 194.492 223.003 183.416 216.206 192.139L216.088 195.311C216.088 195.311 208.119 194.362 209.512 187.069C210.906 179.776 217.794 175.213 226.662 178.372C235.531 181.531 240.609 184.768 241.182 191.112C241.755 197.456 236.703 196.065 236.703 196.065C236.703 196.065 235.049 191.593 232.705 191.138C230.361 190.67 230.973 194.154 230.973 194.154L230.257 194.492Z" fill="url(#paint51_linear)"/>
<path d="M232.119 194.336C232.119 194.336 228.356 188.668 232.21 187.823C236.065 186.978 235.466 193.348 235.049 195.701L232.119 194.336Z" fill="url(#paint52_linear)"/>
<path d="M219.93 265.108L228.134 257.204L239.49 261.988C239.49 261.988 250.793 263.73 257.265 261.988C263.737 260.246 263.737 260.246 263.737 260.246L278.361 255.696L280.653 262.17C281.239 263.821 280.653 265.641 279.22 266.655C277.957 267.552 276.473 268.54 275.522 268.956C273.595 269.801 228.056 268.371 228.056 268.371L219.93 265.108Z" fill="url(#paint53_linear)"/>
<path d="M250.987 268.826C250.948 268.826 250.909 268.826 250.883 268.826L203.261 268.774C202.089 268.774 201.125 267.825 201.125 266.642C201.125 265.472 202.089 264.497 203.261 264.51L250.883 264.562C252.055 264.562 253.019 265.511 253.019 266.694C253.019 267.851 252.12 268.774 250.987 268.826Z" fill="url(#paint54_linear)"/>
<path d="M160.457 225.666H200.11C203.04 225.666 205.696 227.356 206.947 229.995L225.282 268.8H175.993C174.104 268.8 172.412 267.656 171.721 265.901L157.501 229.982C156.681 227.915 158.217 225.666 160.457 225.666Z" fill="url(#paint55_linear)"/>
<path d="M186.978 251.338C188.621 250.81 189.256 248.221 188.397 245.556C187.537 242.89 185.509 241.158 183.866 241.686C182.223 242.214 181.587 244.802 182.447 247.468C183.306 250.133 185.335 251.866 186.978 251.338Z" fill="#7D97F4"/>
<path d="M305.277 347.801C305.277 347.801 305.772 350.57 305.98 353.859C306.058 355.263 305.03 356.472 303.623 356.615C298.753 357.083 287.658 357.954 280.574 356.94C279.584 356.797 279.194 355.575 279.923 354.899C282.84 352.182 289.898 346.891 301.514 345.747L305.277 347.801Z" fill="url(#paint56_linear)"/>
<path d="M307.712 341.561L305.251 347.593C304.912 348.425 304.079 348.932 303.18 348.841C302.581 348.776 301.865 348.659 301.162 348.451C299.769 348.035 298.987 346.553 299.404 345.162L301.266 338.948L307.712 341.561Z" fill="url(#paint57_linear)"/>
<path d="M349.839 352.611C349.839 352.611 344.904 356.732 342.977 362.023C342.443 363.479 343.563 365.013 345.112 365.013H355.27C356.754 365.013 357.9 363.674 357.64 362.218C357.002 358.552 355.127 352.624 349.839 352.611Z" fill="url(#paint58_linear)"/>
<path d="M355.947 347.242C355.947 347.242 354.944 351.649 354.189 354.561C354.045 355.094 353.486 355.38 352.965 355.198C351.428 354.652 350.178 354.405 349.266 354.535C348.85 354.587 348.485 354.236 348.472 353.82L348.381 346.501L355.947 347.242Z" fill="url(#paint59_linear)"/>
<path d="M329.707 248.13L299.69 339.546C299.69 339.546 305.446 343.316 308.194 343.147L343.849 269.684C343.849 269.684 350.086 314.95 347.065 347.45L357.275 348.23C357.275 348.23 373.878 265.173 361.299 236.729L329.707 248.13Z" fill="url(#paint60_linear)"/>
<path d="M343.654 268.891C343.667 268.891 343.68 268.891 343.693 268.891C343.849 268.865 343.966 268.722 343.94 268.566L342.781 259.336C342.755 259.18 342.612 259.063 342.456 259.089C342.299 259.115 342.182 259.258 342.208 259.414L343.367 268.644C343.38 268.787 343.51 268.891 343.654 268.891Z" fill="url(#paint61_linear)"/>
<path d="M324.081 167.686C324.081 167.686 348.407 169.844 344.956 187.134C344.956 187.134 358.395 212.393 364.685 242.137C364.893 243.099 364.242 244.048 363.265 244.217L322.766 251.133C321.646 251.328 320.565 250.626 320.292 249.534L310.616 212.198L306.84 229.553L294.859 226.433L304.952 175.421C304.939 175.447 306.345 168.011 324.081 167.686Z" fill="url(#paint62_linear)"/>
<path d="M310.408 210.547C310.434 210.547 310.447 210.547 310.473 210.534C310.63 210.495 310.734 210.339 310.708 210.17L307.335 194.7C307.296 194.544 307.14 194.44 306.97 194.466C306.814 194.505 306.71 194.661 306.736 194.83L310.109 210.3C310.135 210.456 310.265 210.547 310.408 210.547Z" fill="#91B3FA"/>
<path d="M312.843 256.593C314.119 255.891 315.617 255.696 317.023 256.047L319.836 256.749C320.435 256.892 321.034 256.489 321.099 255.878L324.016 229.969C327.662 231.698 332.923 231.49 334.655 231.36L327.949 261.91H304.47L312.843 256.593Z" fill="url(#paint63_linear)"/>
<path d="M250.454 200.394L251.17 198.041C251.574 196.689 252.576 195.584 253.891 195.064L266.731 189.916C266.731 189.916 266.927 188.278 264.023 187.16C261.119 186.042 261.796 182.792 261.796 182.792C261.796 182.792 265.768 184.599 271.576 187.472C274.896 189.11 276.771 192.009 277.748 194.193L306.84 229.592L303.428 231.932C298.935 235.013 292.763 233.505 290.21 228.695L274.454 198.522C266.523 200.875 258.527 201.33 250.454 200.394Z" fill="url(#paint64_linear)"/>
<path d="M316.203 151.176L323.678 172.08C323.678 172.08 317.049 177.254 312.218 175.499L308.455 163.513C308.455 163.513 311.332 148.875 316.203 151.176Z" fill="url(#paint65_linear)"/>
<path d="M293.883 143.662C293.883 143.987 301.084 164.02 301.084 164.02L312.452 159.665L308.455 139.658C308.455 139.671 293.883 138.28 293.883 143.662Z" fill="url(#paint66_linear)"/>
<path d="M306.462 144.546L309.392 154.907C309.431 155.037 309.444 155.18 309.444 155.31C309.444 156.155 309.236 159.067 306.267 158.664C303.571 158.3 301.11 158.014 299.547 158.755C298.844 159.08 298.506 159.899 298.766 160.627C299.417 162.447 300.98 166.529 302.868 169.857C303.246 170.533 304.092 170.793 304.795 170.481C306.931 169.506 311.385 167.335 314.549 164.748C314.979 164.397 315.187 163.851 315.083 163.305C314.588 160.653 313.104 152.593 313.038 150.279C312.973 148.108 315.421 146.457 316.489 145.833C316.841 145.625 317.088 145.287 317.193 144.897C317.531 143.506 317.818 140.334 313.781 139.645C312.934 139.502 312.387 138.696 312.557 137.851C312.895 136.187 312.791 133.717 309.614 132.82C306.384 131.897 304.353 133.834 303.324 135.329C302.907 135.927 302.126 136.122 301.449 135.823C301.071 135.654 300.602 135.641 300.107 136.057C299.443 136.616 298.427 136.447 297.933 135.732C296.995 134.354 295.276 132.963 292.385 133.899C287.241 135.563 287.489 141.478 289.377 144.689C291.265 147.9 296.735 145.794 299.313 143.662C301.279 142.037 304.274 143.012 305.603 143.571C306.019 143.753 306.332 144.104 306.462 144.546Z" fill="url(#paint67_linear)"/>
<path d="M314.067 154.075C314.067 154.075 311.019 148.329 313.038 146.522C315.043 144.715 318.455 145.014 318.364 149.499C318.247 155.089 314.067 154.075 314.067 154.075Z" fill="url(#paint68_linear)"/>
<path d="M332.311 231.75C333.965 231.75 335.15 231.62 335.28 231.607L335.501 231.581L344.357 190.371C344.396 190.202 344.291 190.046 344.122 190.02C343.953 189.981 343.797 190.085 343.771 190.254L335.007 231.048C333.691 231.165 326.646 231.633 322.935 229.007L330.605 193.192L329.003 190.176C328.925 190.033 328.743 189.968 328.6 190.046C328.456 190.124 328.391 190.306 328.469 190.449L329.967 193.27L322.258 229.241L322.414 229.358C325.097 231.373 329.42 231.75 332.311 231.75Z" fill="#91B3FA"/>
<path d="M66.8273 357.408C66.6189 357.408 66.4236 357.369 66.2152 357.265C65.4339 356.901 65.0693 355.913 65.4078 355.055L97.768 273.09C98.1066 272.232 99.0052 271.842 99.7995 272.206C100.581 272.57 100.945 273.558 100.607 274.416L68.2467 356.381C67.9993 357.031 67.4263 357.408 66.8273 357.408Z" fill="url(#paint69_linear)"/>
<path d="M103.29 357.408C102.691 357.408 102.118 357.031 101.87 356.394L69.5099 274.429C69.1713 273.571 69.5359 272.583 70.3173 272.219C71.0986 271.855 72.0102 272.245 72.3487 273.103L104.709 355.068C105.048 355.926 104.683 356.914 103.902 357.278C103.693 357.369 103.485 357.408 103.29 357.408Z" fill="url(#paint70_linear)"/>
<path d="M286.447 357.408C286.239 357.408 286.043 357.369 285.835 357.265C285.054 356.901 284.689 355.913 285.027 355.055L317.388 273.09C317.726 272.232 318.625 271.842 319.419 272.206C320.201 272.57 320.565 273.558 320.227 274.416L287.866 356.381C287.606 357.031 287.046 357.408 286.447 357.408Z" fill="url(#paint71_linear)"/>
<path d="M322.897 357.408C322.298 357.408 321.725 357.031 321.477 356.394L289.117 274.429C288.778 273.571 289.143 272.583 289.924 272.219C290.706 271.855 291.617 272.245 291.956 273.103L324.316 355.068C324.655 355.926 324.29 356.914 323.509 357.278C323.313 357.369 323.105 357.408 322.897 357.408Z" fill="url(#paint72_linear)"/>
<path d="M281.746 267.318H328.613V262.495H281.746C282.749 262.482 282.749 267.318 281.746 267.318Z" fill="#91B3FA"/>
<path d="M328.17 267.318C328.418 267.318 328.613 267.123 328.613 266.876V262.924C328.613 262.677 328.418 262.482 328.17 262.482H280.757C280.509 262.482 280.314 262.287 280.314 262.04V261.832C280.314 261.585 280.509 261.39 280.757 261.39H331.296C332.416 261.39 333.314 262.3 333.314 263.405V266.486C333.314 267.539 332.455 268.397 331.4 268.397H280.744C280.496 268.397 280.301 268.202 280.301 267.955V267.747C280.301 267.5 280.496 267.305 280.744 267.305H328.17V267.318Z" fill="url(#paint73_linear)"/>
<path d="M335.41 270.568C335.567 270.035 335.358 269.476 334.824 269.047C334.29 268.618 333.509 268.384 332.676 268.384H51.8643C50.7705 268.384 49.7547 268.748 49.1687 269.359C48.5827 269.97 48.5046 270.737 48.9604 271.387L52.0076 275.742C52.7108 276.743 54.2083 277.38 55.8752 277.38H330.761C332.311 277.38 333.639 276.652 333.926 275.651L335.41 270.568Z" fill="url(#paint74_linear)"/>
<defs>
<linearGradient id="paint0_linear" x1="409.97" y1="471.119" x2="87.0998" y2="69.4486" gradientUnits="userSpaceOnUse">
<stop stop-color="#DAE3FE"/>
<stop offset="1" stop-color="#E9EFFD"/>
</linearGradient>
<linearGradient id="paint1_linear" x1="220.321" y1="131.79" x2="215.876" y2="161.172" gradientUnits="userSpaceOnUse">
<stop stop-color="#09005D"/>
<stop offset="1" stop-color="#1A0F91"/>
</linearGradient>
<linearGradient id="paint2_linear" x1="221.306" y1="119.609" x2="213.631" y2="204.392" gradientUnits="userSpaceOnUse">
<stop stop-color="#53D8FF"/>
<stop offset="1" stop-color="#3840F7"/>
</linearGradient>
<linearGradient id="paint3_linear" x1="221.53" y1="119.63" x2="213.856" y2="204.411" gradientUnits="userSpaceOnUse">
<stop stop-color="#53D8FF"/>
<stop offset="1" stop-color="#3840F7"/>
</linearGradient>
<linearGradient id="paint4_linear" x1="221.105" y1="119.591" x2="213.43" y2="204.374" gradientUnits="userSpaceOnUse">
<stop stop-color="#53D8FF"/>
<stop offset="1" stop-color="#3840F7"/>
</linearGradient>
<linearGradient id="paint5_linear" x1="221.334" y1="119.612" x2="213.66" y2="204.393" gradientUnits="userSpaceOnUse">
<stop stop-color="#53D8FF"/>
<stop offset="1" stop-color="#3840F7"/>
</linearGradient>
<linearGradient id="paint6_linear" x1="223.672" y1="59.3213" x2="211.832" y2="139.711" gradientUnits="userSpaceOnUse">
<stop stop-color="#FF928E"/>
<stop offset="1" stop-color="#FE7062"/>
</linearGradient>
<linearGradient id="paint7_linear" x1="333.171" y1="-37.3175" x2="279.831" y2="37.2228" gradientUnits="userSpaceOnUse">
<stop stop-color="#E1473D"/>
<stop offset="1" stop-color="#E9605A"/>
</linearGradient>
<linearGradient id="paint8_linear" x1="325.748" y1="-42.629" x2="272.408" y2="31.9107" gradientUnits="userSpaceOnUse">
<stop stop-color="#E1473D"/>
<stop offset="1" stop-color="#E9605A"/>
</linearGradient>
<linearGradient id="paint9_linear" x1="156.828" y1="334.934" x2="77.5878" y2="419.643" gradientUnits="userSpaceOnUse">
<stop stop-color="#09005D"/>
<stop offset="1" stop-color="#1A0F91"/>
</linearGradient>
<linearGradient id="paint10_linear" x1="131.264" y1="341.028" x2="138.243" y2="341.095" gradientUnits="userSpaceOnUse">
<stop stop-color="#FEBBBA"/>
<stop offset="1" stop-color="#FF928E"/>
</linearGradient>
<linearGradient id="paint11_linear" x1="163.937" y1="238.5" x2="96.3615" y2="328.445" gradientUnits="userSpaceOnUse">
<stop stop-color="#09005D"/>
<stop offset="1" stop-color="#1A0F91"/>
</linearGradient>
<linearGradient id="paint12_linear" x1="139.355" y1="318.587" x2="60.1117" y2="403.3" gradientUnits="userSpaceOnUse">
<stop stop-color="#09005D"/>
<stop offset="1" stop-color="#1A0F91"/>
</linearGradient>
<linearGradient id="paint13_linear" x1="106.114" y1="340.432" x2="112.139" y2="340.489" gradientUnits="userSpaceOnUse">
<stop stop-color="#FEBBBA"/>
<stop offset="1" stop-color="#FF928E"/>
</linearGradient>
<linearGradient id="paint14_linear" x1="152.104" y1="229.61" x2="84.5291" y2="319.554" gradientUnits="userSpaceOnUse">
<stop stop-color="#09005D"/>
<stop offset="1" stop-color="#1A0F91"/>
</linearGradient>
<linearGradient id="paint15_linear" x1="-140.443" y1="-269.274" x2="-78.997" y2="-162.585" gradientUnits="userSpaceOnUse">
<stop stop-color="#FF928E"/>
<stop offset="1" stop-color="#FE7062"/>
</linearGradient>
<linearGradient id="paint16_linear" x1="161.722" y1="159.527" x2="197.379" y2="159.867" gradientUnits="userSpaceOnUse">
<stop stop-color="#FEBBBA"/>
<stop offset="1" stop-color="#FF928E"/>
</linearGradient>
<linearGradient id="paint17_linear" x1="189.493" y1="153.824" x2="165.118" y2="207.975" gradientUnits="userSpaceOnUse">
<stop stop-color="#FEBBBA"/>
<stop offset="1" stop-color="#FF928E"/>
</linearGradient>
<linearGradient id="paint18_linear" x1="197.438" y1="135.799" x2="207.543" y2="120.554" gradientUnits="userSpaceOnUse">
<stop stop-color="#FEBBBA"/>
<stop offset="1" stop-color="#FF928E"/>
</linearGradient>
<linearGradient id="paint19_linear" x1="-161.423" y1="-257.193" x2="-99.9765" y2="-150.504" gradientUnits="userSpaceOnUse">
<stop stop-color="#FF928E"/>
<stop offset="1" stop-color="#FE7062"/>
</linearGradient>
<linearGradient id="paint20_linear" x1="83.2155" y1="209.205" x2="128.339" y2="209.634" gradientUnits="userSpaceOnUse">
<stop stop-color="#FEBBBA"/>
<stop offset="1" stop-color="#FF928E"/>
</linearGradient>
<linearGradient id="paint21_linear" x1="118.324" y1="161.377" x2="136.165" y2="161.546" gradientUnits="userSpaceOnUse">
<stop stop-color="#FEBBBA"/>
<stop offset="1" stop-color="#FF928E"/>
</linearGradient>
<linearGradient id="paint22_linear" x1="140.518" y1="150.256" x2="121.034" y2="138.096" gradientUnits="userSpaceOnUse">
<stop stop-color="#FEBBBA"/>
<stop offset="1" stop-color="#FF928E"/>
</linearGradient>
<linearGradient id="paint23_linear" x1="110.752" y1="125.437" x2="135.869" y2="145.7" gradientUnits="userSpaceOnUse">
<stop stop-color="#09005D"/>
<stop offset="1" stop-color="#1A0F91"/>
</linearGradient>
<linearGradient id="paint24_linear" x1="135.323" y1="154.661" x2="117.793" y2="143.721" gradientUnits="userSpaceOnUse">
<stop stop-color="#FEBBBA"/>
<stop offset="1" stop-color="#FF928E"/>
</linearGradient>
<linearGradient id="paint25_linear" x1="140.439" y1="180.582" x2="165.258" y2="284.171" gradientUnits="userSpaceOnUse">
<stop stop-color="#09005D"/>
<stop offset="1" stop-color="#1A0F91"/>
</linearGradient>
<linearGradient id="paint26_linear" x1="123.377" y1="207.982" x2="137.485" y2="207.982" gradientUnits="userSpaceOnUse">
<stop stop-color="#FEBBBA"/>
<stop offset="1" stop-color="#FF928E"/>
</linearGradient>
<linearGradient id="paint27_linear" x1="80.9986" y1="276.554" x2="83.9221" y2="348.303" gradientUnits="userSpaceOnUse">
<stop stop-color="#4F52FF"/>
<stop offset="1" stop-color="#4042E2"/>
</linearGradient>
<linearGradient id="paint28_linear" x1="71.7331" y1="344.056" x2="79.1744" y2="344.056" gradientUnits="userSpaceOnUse">
<stop stop-color="#FEBBBA"/>
<stop offset="1" stop-color="#FF928E"/>
</linearGradient>
<linearGradient id="paint29_linear" x1="120.285" y1="274.953" x2="123.209" y2="346.702" gradientUnits="userSpaceOnUse">
<stop stop-color="#4F52FF"/>
<stop offset="1" stop-color="#4042E2"/>
</linearGradient>
<linearGradient id="paint30_linear" x1="30.5867" y1="310.536" x2="89.4928" y2="310.536" gradientUnits="userSpaceOnUse">
<stop stop-color="#09005D"/>
<stop offset="1" stop-color="#1A0F91"/>
</linearGradient>
<linearGradient id="paint31_linear" x1="106.979" y1="344.682" x2="115.863" y2="344.682" gradientUnits="userSpaceOnUse">
<stop stop-color="#FEBBBA"/>
<stop offset="1" stop-color="#FF928E"/>
</linearGradient>
<linearGradient id="paint32_linear" x1="84.0941" y1="286.036" x2="19.5492" y2="359.342" gradientUnits="userSpaceOnUse">
<stop stop-color="#09005D"/>
<stop offset="1" stop-color="#1A0F91"/>
</linearGradient>
<linearGradient id="paint33_linear" x1="57.6322" y1="219.708" x2="61.9991" y2="208.677" gradientUnits="userSpaceOnUse">
<stop stop-color="#FEBBBA"/>
<stop offset="1" stop-color="#FF928E"/>
</linearGradient>
<linearGradient id="paint34_linear" x1="175.938" y1="80.1015" x2="41.8829" y2="284.726" gradientUnits="userSpaceOnUse">
<stop stop-color="#4F52FF"/>
<stop offset="1" stop-color="#4042E2"/>
</linearGradient>
<linearGradient id="paint35_linear" x1="60.4732" y1="237.835" x2="145.4" y2="96.0477" gradientUnits="userSpaceOnUse">
<stop stop-color="#09005D"/>
<stop offset="1" stop-color="#1A0F91"/>
</linearGradient>
<linearGradient id="paint36_linear" x1="95.0505" y1="262.588" x2="115.571" y2="262.588" gradientUnits="userSpaceOnUse">
<stop stop-color="#FEBBBA"/>
<stop offset="1" stop-color="#FF928E"/>
</linearGradient>
<linearGradient id="paint37_linear" x1="71.0041" y1="197.284" x2="51.4334" y2="216.838" gradientUnits="userSpaceOnUse">
<stop stop-color="#FEBBBA"/>
<stop offset="1" stop-color="#FF928E"/>
</linearGradient>
<linearGradient id="paint38_linear" x1="53.9529" y1="186.152" x2="77.0043" y2="208.97" gradientUnits="userSpaceOnUse">
<stop stop-color="#09005D"/>
<stop offset="1" stop-color="#1A0F91"/>
</linearGradient>
<linearGradient id="paint39_linear" x1="67.8344" y1="194.112" x2="48.2638" y2="213.665" gradientUnits="userSpaceOnUse">
<stop stop-color="#FEBBBA"/>
<stop offset="1" stop-color="#FF928E"/>
</linearGradient>
<linearGradient id="paint40_linear" x1="-4302.45" y1="-4423.78" x2="-4230.18" y2="-4346.38" gradientUnits="userSpaceOnUse">
<stop stop-color="#09005D"/>
<stop offset="1" stop-color="#1A0F91"/>
</linearGradient>
<linearGradient id="paint41_linear" x1="6256.34" y1="-1766.18" x2="6155.65" y2="-1733.13" gradientUnits="userSpaceOnUse">
<stop stop-color="#09005D"/>
<stop offset="1" stop-color="#1A0F91"/>
</linearGradient>
<linearGradient id="paint42_linear" x1="170.234" y1="491.685" x2="224.906" y2="272.625" gradientUnits="userSpaceOnUse">
<stop stop-color="#FEBBBA"/>
<stop offset="1" stop-color="#FF928E"/>
</linearGradient>
<linearGradient id="paint43_linear" x1="294.34" y1="223.368" x2="242.331" y2="311.077" gradientUnits="userSpaceOnUse">
<stop stop-color="#09005D"/>
<stop offset="1" stop-color="#1A0F91"/>
</linearGradient>
<linearGradient id="paint44_linear" x1="196.885" y1="353.163" x2="207.818" y2="189.811" gradientUnits="userSpaceOnUse">
<stop stop-color="#FEBBBA"/>
<stop offset="1" stop-color="#FF928E"/>
</linearGradient>
<linearGradient id="paint45_linear" x1="206.44" y1="281.581" x2="279.128" y2="281.581" gradientUnits="userSpaceOnUse">
<stop stop-color="#09005D"/>
<stop offset="1" stop-color="#1A0F91"/>
</linearGradient>
<linearGradient id="paint46_linear" x1="264.557" y1="205.708" x2="212.556" y2="293.406" gradientUnits="userSpaceOnUse">
<stop stop-color="#09005D"/>
<stop offset="1" stop-color="#1A0F91"/>
</linearGradient>
<linearGradient id="paint47_linear" x1="257.641" y1="160.383" x2="246.973" y2="216.523" gradientUnits="userSpaceOnUse">
<stop stop-color="#09005D"/>
<stop offset="1" stop-color="#1A0F91"/>
</linearGradient>
<linearGradient id="paint48_linear" x1="206.83" y1="342.12" x2="247.634" y2="250.483" gradientUnits="userSpaceOnUse">
<stop stop-color="#4F52FF"/>
<stop offset="1" stop-color="#4042E2"/>
</linearGradient>
<linearGradient id="paint49_linear" x1="239.929" y1="230.612" x2="235.564" y2="202.555" gradientUnits="userSpaceOnUse">
<stop stop-color="#FEBBBA"/>
<stop offset="1" stop-color="#FF928E"/>
</linearGradient>
<linearGradient id="paint50_linear" x1="216.117" y1="200.873" x2="248.942" y2="189.78" gradientUnits="userSpaceOnUse">
<stop stop-color="#FEBBBA"/>
<stop offset="1" stop-color="#FF928E"/>
</linearGradient>
<linearGradient id="paint51_linear" x1="209.112" y1="171.613" x2="247.377" y2="214.108" gradientUnits="userSpaceOnUse">
<stop stop-color="#09005D"/>
<stop offset="1" stop-color="#1A0F91"/>
</linearGradient>
<linearGradient id="paint52_linear" x1="215.139" y1="197.98" x2="247.964" y2="186.887" gradientUnits="userSpaceOnUse">
<stop stop-color="#FEBBBA"/>
<stop offset="1" stop-color="#FF928E"/>
</linearGradient>
<linearGradient id="paint53_linear" x1="257.914" y1="262.467" x2="318.863" y2="262.467" gradientUnits="userSpaceOnUse">
<stop stop-color="#FEBBBA"/>
<stop offset="1" stop-color="#FF928E"/>
</linearGradient>
<linearGradient id="paint54_linear" x1="259.071" y1="256.201" x2="221.28" y2="268.617" gradientUnits="userSpaceOnUse">
<stop stop-color="#09005D"/>
<stop offset="1" stop-color="#1A0F91"/>
</linearGradient>
<linearGradient id="paint55_linear" x1="207.142" y1="231.457" x2="179.967" y2="260.229" gradientUnits="userSpaceOnUse">
<stop stop-color="#09005D"/>
<stop offset="1" stop-color="#1A0F91"/>
</linearGradient>
<linearGradient id="paint56_linear" x1="292.354" y1="397.971" x2="291.954" y2="440.51" gradientUnits="userSpaceOnUse">
<stop stop-color="#09005D"/>
<stop offset="1" stop-color="#1A0F91"/>
</linearGradient>
<linearGradient id="paint57_linear" x1="302.626" y1="350.466" x2="304.829" y2="333.209" gradientUnits="userSpaceOnUse">
<stop stop-color="#FEBBBA"/>
<stop offset="1" stop-color="#FF928E"/>
</linearGradient>
<linearGradient id="paint58_linear" x1="349.925" y1="398.513" x2="349.525" y2="441.052" gradientUnits="userSpaceOnUse">
<stop stop-color="#09005D"/>
<stop offset="1" stop-color="#1A0F91"/>
</linearGradient>
<linearGradient id="paint59_linear" x1="350.95" y1="356.38" x2="353.097" y2="339.564" gradientUnits="userSpaceOnUse">
<stop stop-color="#FEBBBA"/>
<stop offset="1" stop-color="#FF928E"/>
</linearGradient>
<linearGradient id="paint60_linear" x1="317.043" y1="220.62" x2="336.925" y2="317.567" gradientUnits="userSpaceOnUse">
<stop stop-color="#09005D"/>
<stop offset="1" stop-color="#1A0F91"/>
</linearGradient>
<linearGradient id="paint61_linear" x1="352.251" y1="282.327" x2="349.846" y2="277.508" gradientUnits="userSpaceOnUse">
<stop stop-color="#4F52FF"/>
<stop offset="1" stop-color="#4042E2"/>
</linearGradient>
<linearGradient id="paint62_linear" x1="312.56" y1="181.172" x2="353.838" y2="304.015" gradientUnits="userSpaceOnUse">
<stop stop-color="#4F52FF"/>
<stop offset="1" stop-color="#4042E2"/>
</linearGradient>
<linearGradient id="paint63_linear" x1="334.665" y1="245.937" x2="304.469" y2="245.937" gradientUnits="userSpaceOnUse">
<stop stop-color="#FEBBBA"/>
<stop offset="1" stop-color="#FF928E"/>
</linearGradient>
<linearGradient id="paint64_linear" x1="306.838" y1="208.148" x2="250.447" y2="208.148" gradientUnits="userSpaceOnUse">
<stop stop-color="#FEBBBA"/>
<stop offset="1" stop-color="#FF928E"/>
</linearGradient>
<linearGradient id="paint65_linear" x1="327.14" y1="176.574" x2="307.549" y2="156.44" gradientUnits="userSpaceOnUse">
<stop stop-color="#FEBBBA"/>
<stop offset="1" stop-color="#FF928E"/>
</linearGradient>
<linearGradient id="paint66_linear" x1="298.679" y1="143.809" x2="323.093" y2="176.163" gradientUnits="userSpaceOnUse">
<stop stop-color="#FEBBBA"/>
<stop offset="1" stop-color="#FF928E"/>
</linearGradient>
<linearGradient id="paint67_linear" x1="335.977" y1="51.9081" x2="310.241" y2="126.612" gradientUnits="userSpaceOnUse">
<stop stop-color="#E1473D"/>
<stop offset="1" stop-color="#E9605A"/>
</linearGradient>
<linearGradient id="paint68_linear" x1="334.514" y1="169.399" x2="314.924" y2="149.264" gradientUnits="userSpaceOnUse">
<stop stop-color="#FEBBBA"/>
<stop offset="1" stop-color="#FF928E"/>
</linearGradient>
<linearGradient id="paint69_linear" x1="19.6213" y1="540.423" x2="92.0717" y2="281.62" gradientUnits="userSpaceOnUse">
<stop stop-color="#4F52FF"/>
<stop offset="1" stop-color="#4042E2"/>
</linearGradient>
<linearGradient id="paint70_linear" x1="23.4162" y1="541.485" x2="95.8667" y2="282.682" gradientUnits="userSpaceOnUse">
<stop stop-color="#4F52FF"/>
<stop offset="1" stop-color="#4042E2"/>
</linearGradient>
<linearGradient id="paint71_linear" x1="223.22" y1="597.42" x2="295.67" y2="338.617" gradientUnits="userSpaceOnUse">
<stop stop-color="#4F52FF"/>
<stop offset="1" stop-color="#4042E2"/>
</linearGradient>
<linearGradient id="paint72_linear" x1="227.015" y1="598.482" x2="299.466" y2="339.679" gradientUnits="userSpaceOnUse">
<stop stop-color="#4F52FF"/>
<stop offset="1" stop-color="#4042E2"/>
</linearGradient>
<linearGradient id="paint73_linear" x1="325.756" y1="184.864" x2="314.116" y2="233.835" gradientUnits="userSpaceOnUse">
<stop stop-color="#09005D"/>
<stop offset="1" stop-color="#1A0F91"/>
</linearGradient>
<linearGradient id="paint74_linear" x1="109.155" y1="565.484" x2="181.604" y2="306.684" gradientUnits="userSpaceOnUse">
<stop stop-color="#4F52FF"/>
<stop offset="1" stop-color="#4042E2"/>
</linearGradient>
</defs>
</svg>
