<svg width="72" height="72" viewBox="0 0 72 72" fill="none" xmlns="http://www.w3.org/2000/svg">
<path d="M41.0993 9.34514L41.0993 9.34513C40.702 8.63898 39.8074 8.38838 39.1011 8.7857L39.1011 8.78572L39.0338 8.82357C39.0338 8.82358 39.0338 8.82358 39.0338 8.82359C38.3277 9.2209 38.0771 10.1154 38.4744 10.8217C38.7437 11.3006 39.2417 11.5698 39.7545 11.5698C39.9982 11.5698 40.2453 11.5089 40.4725 11.3812L40.4726 11.3812L40.5399 11.3433C41.246 10.946 41.4966 10.0514 41.0993 9.34514Z" fill="#FF4A35" stroke="#FF4A35" stroke-width="0.2"/>
<path d="M45.0302 9.49501L45.0302 9.49499C46.7995 9.00483 48.6373 8.75624 50.4923 8.75624H57.6017C58.412 8.75624 59.0689 8.09937 59.0689 7.28905V5.90925L67.558 14.3984L59.0689 22.8876V21.5078C59.0689 20.6975 58.412 20.0406 57.6017 20.0406H50.4923C45.4614 20.0406 41.3688 24.1333 41.3688 29.1641V46.5555C38.8517 42.0353 34.8776 38.4331 30.0844 36.39V29.1641C30.0844 23.5262 32.3326 18.2791 36.4155 14.3883C37.0021 13.8292 37.0244 12.9005 36.4654 12.3139L36.393 12.3829L36.4654 12.3139C35.9062 11.7274 34.9775 11.7049 34.391 12.2641C29.7219 16.7138 27.15 22.7161 27.15 29.1641V35.3664C25.1782 34.8235 23.1028 34.5329 20.961 34.5329H15.8656V31.0782C15.8656 30.4848 15.5081 29.9498 14.9599 29.7226C14.4118 29.4955 13.7805 29.6212 13.361 30.0406L13.361 30.0406L1.32971 42.0719C0.75676 42.6448 0.756773 43.5738 1.3297 44.1469L1.32971 44.1469L13.361 56.1782L13.4317 56.1075L13.361 56.1782C13.7806 56.5976 14.4116 56.7234 14.96 56.4961C15.5082 56.269 15.8656 55.7341 15.8656 55.1406V51.6859H20.961C24.3735 51.6859 27.15 54.4625 27.15 57.875V69.6328C27.15 70.4431 27.8069 71.1 28.6172 71.1H42.836C43.6463 71.1 44.3032 70.4431 44.3032 69.6328V29.1641C44.3032 25.7516 47.0798 22.975 50.4923 22.975H56.1345V26.4297C56.1345 27.0231 56.492 27.5581 57.0402 27.7852C57.5883 28.0124 58.2195 27.8869 58.6391 27.4673L70.6704 15.436C71.2433 14.8629 71.2433 13.9339 70.6704 13.361L58.6391 1.32971C58.2195 0.910085 57.5883 0.784642 57.0402 1.01177V1.01177C56.492 1.23875 56.1345 1.77383 56.1345 2.36716V5.82186H50.4923C48.3727 5.82186 46.2713 6.1062 44.2468 6.66713L44.2735 6.7635L44.2468 6.66713C43.4659 6.88354 43.0083 7.69196 43.2246 8.47279C43.441 9.25368 44.2491 9.71095 45.0302 9.49501ZM41.3688 68.1658H37.7407V59.1162C37.7407 58.3059 37.0838 57.6491 36.2735 57.6491C35.4632 57.6491 34.8063 58.3059 34.8063 59.1162V68.1658H30.0844V57.8751C30.0844 52.8443 25.9918 48.7516 20.961 48.7516H14.3984C13.5881 48.7516 12.9312 49.4085 12.9312 50.2188V51.5986L4.44206 43.1094L12.9312 34.6203V36.0001C12.9312 36.8104 13.5881 37.4672 14.3984 37.4672H20.961C32.2138 37.4672 41.3688 46.6223 41.3688 57.8751V68.1658Z" fill="#585CE9" stroke="#585CE9" stroke-width="0.2"/>
<path d="M37.3108 52.8005C37.0376 52.5259 36.6593 52.3706 36.2734 52.3706C35.8876 52.3706 35.5093 52.5259 35.236 52.8005C34.9631 53.0735 34.8062 53.4503 34.8062 53.8378C34.8062 54.2239 34.9631 54.6021 35.2361 54.8751C35.5092 55.1481 35.8873 55.305 36.2734 55.305C36.6596 55.305 37.0377 55.1481 37.3108 54.8751C37.5838 54.6021 37.7406 54.2239 37.7406 53.8378C37.7406 53.4503 37.5838 53.0735 37.3108 52.8005Z" fill="#FF4A35" stroke="#FF4A35" stroke-width="0.2"/>
</svg>
