<svg width="70" height="70" viewBox="0 0 70 70" fill="none" xmlns="http://www.w3.org/2000/svg">
<path d="M0.33972 32.3474C0.343412 32.3516 0.346693 32.3564 0.350521 32.3605C0.351068 32.3611 0.351478 32.3617 0.352025 32.3624L33.9848 69.5499C34.2354 69.8271 34.6152 70 34.9989 70C35.3813 70 35.7604 69.829 36.0129 69.5499L69.6457 32.3624C69.6463 32.3619 69.6467 32.3612 69.6472 32.3605C69.6511 32.3563 69.6542 32.3516 69.658 32.3474C70.0962 31.8489 70.1077 31.1168 69.71 30.6067C69.7062 30.6018 69.7033 30.5962 69.6993 30.5912L58.7618 16.9194C58.5025 16.5951 58.1095 16.4062 57.6942 16.4062C52.1206 16.4062 16.8387 16.4062 12.3036 16.4062C11.8882 16.4062 11.4954 16.5951 11.2359 16.9194L0.298431 30.5912C0.294466 30.5962 0.291732 30.6016 0.287767 30.6067C-0.114049 31.1221 -0.0935415 31.8545 0.33972 32.3474ZM27.5697 19.1406H42.4279L48.9904 30.0781H21.0072L27.5697 19.1406ZM20.69 32.8125H49.3075L34.9987 65.2457L20.69 32.8125ZM52.2963 32.8125H65.5518L39.6719 61.4275L52.2963 32.8125ZM17.7014 32.8125L30.3256 61.4275L4.44579 32.8125H17.7014ZM65.787 30.0781H52.1791L45.6166 19.1406H57.037L65.787 30.0781ZM12.9605 19.1406H24.3809L17.8184 30.0781H4.2105L12.9605 19.1406Z" fill="#585CE9"/>
<path d="M43.2021 35.5469C42.4475 35.5469 41.835 36.1594 41.835 36.9141C41.835 37.6688 42.4475 38.2812 43.2021 38.2812C43.9568 38.2812 44.5693 37.6688 44.5693 36.9141C44.5693 36.1594 43.9568 35.5469 43.2021 35.5469Z" fill="#FF4A35"/>
<path d="M37.7332 35.5469H27.5859C26.8308 35.5469 26.2188 36.159 26.2188 36.9141C26.2188 37.6692 26.8308 38.2812 27.5859 38.2812H37.7332C38.4883 38.2812 39.1004 37.6692 39.1004 36.9141C39.1004 36.159 38.4883 35.5469 37.7332 35.5469Z" fill="#FF4A35"/>
<path d="M34.999 10.9375C35.7541 10.9375 36.3662 10.3254 36.3662 9.57031V1.36719C36.3662 0.61209 35.7541 0 34.999 0C34.2439 0 33.6318 0.61209 33.6318 1.36719V9.57031C33.6318 10.3254 34.2439 10.9375 34.999 10.9375Z" fill="#FF4A35"/>
<path d="M44.169 10.5371L49.6377 5.06833C50.1716 4.53445 50.1716 3.66874 49.6377 3.13472C49.1039 2.6007 48.2381 2.60083 47.7041 3.13472L42.2354 8.60347C41.7015 9.13736 41.7015 10.0031 42.2354 10.5371C42.7693 11.071 43.635 11.0711 44.169 10.5371Z" fill="#FF4A35"/>
<path d="M25.8292 10.537C26.3631 11.0709 27.2288 11.0709 27.7628 10.537C28.2967 10.0031 28.2967 9.13744 27.7628 8.60342L22.294 3.13467C21.7602 2.60078 20.8945 2.60078 20.3604 3.13467C19.8264 3.66855 19.8265 4.53426 20.3604 5.06828L25.8292 10.537Z" fill="#FF4A35"/>
</svg>
