<svg width="72" height="72" viewBox="0 0 72 72" fill="none" xmlns="http://www.w3.org/2000/svg">
<path d="M41.8138 26.2512V26.2513C41.8143 26.9243 42.3604 27.4695 43.0334 27.4691H43.0335C43.164 27.4689 43.2938 27.4479 43.4177 27.4066L44.8234 26.938C44.8235 26.938 44.8236 26.938 44.8237 26.938C46.2979 26.4555 47.8839 27.2595 48.3664 28.7337C48.8489 30.208 48.045 31.7942 46.5707 32.2767C46.003 32.4625 45.3909 32.4625 44.8233 32.2767L43.4175 31.8081L43.4175 31.8081C42.7789 31.5954 42.0888 31.9406 41.8761 32.5793C41.8348 32.7032 41.8138 32.8329 41.8137 32.9634V32.9635V41.8133H32.9639H32.9638C32.2908 41.8138 31.7455 42.3599 31.746 43.033V43.033C31.7462 43.1635 31.7672 43.2933 31.8085 43.4172L32.277 44.8229C32.2771 44.8229 32.2771 44.823 32.2771 44.823C32.7596 46.2973 31.9556 47.8834 30.4814 48.3659C29.0071 48.8485 27.4209 48.0445 26.9384 46.5702L26.8434 46.6013L26.9384 46.5702C26.7526 46.0027 26.7526 45.3907 26.9383 44.8231C26.9383 44.823 26.9384 44.8229 26.9384 44.8228L27.407 43.417L27.407 43.417C27.6196 42.7784 27.2744 42.0883 26.6358 41.8756C26.5119 41.8343 26.3821 41.8133 26.2517 41.8132H26.2515H16.1832C15.5101 41.8132 14.9645 42.3589 14.9645 43.0319V69.8813C14.9645 70.5543 15.5101 71.1 16.1832 71.1H69.8819C70.5549 71.1 71.1006 70.5543 71.1006 69.8813V16.1827C71.1006 15.5096 70.5549 14.964 69.8819 14.964H43.0325C42.3595 14.964 41.8138 15.5096 41.8138 16.1827V26.2512ZM41.8138 59.8128V59.8129V68.6627H17.4019V44.2508H24.5654C23.7816 46.9758 25.3101 49.8441 28.03 50.7017C30.7932 51.5732 33.7398 50.0396 34.6111 47.2764C34.9213 46.2926 34.9344 45.2402 34.6502 44.2506H41.8138V53.1004V53.1005C41.8143 53.7735 42.3604 54.3188 43.0334 54.3183C43.164 54.3182 43.2938 54.2971 43.4177 54.2558L44.8234 53.7873C44.8235 53.7872 44.8236 53.7872 44.8237 53.7872C46.2979 53.3049 47.8839 54.1087 48.3664 55.5829C48.8489 57.0572 48.045 58.6434 46.5707 59.1259C46.003 59.3117 45.3909 59.3117 44.8233 59.1259L43.4175 58.6573L43.4175 58.6573C42.779 58.4448 42.0889 58.79 41.8763 59.4286C41.835 59.5525 41.814 59.6823 41.8138 59.8128ZM68.663 68.6627H44.2513V61.4992C46.9763 62.283 49.8446 60.7544 50.7022 58.0346C51.5737 55.2714 50.04 52.3248 47.2768 51.4535C46.2931 51.1433 45.2407 51.1302 44.2511 51.4143V44.2508H53.1009H53.101C53.774 44.2503 54.3193 43.7042 54.3188 43.0311C54.3186 42.9006 54.2976 42.7708 54.2563 42.6469L53.7878 41.2412C53.7877 41.2411 53.7877 41.241 53.7876 41.2409C53.3054 39.7667 54.1092 38.1806 55.5834 37.6982C57.0577 37.2157 58.6439 38.0196 59.1264 39.4939C59.3122 40.0615 59.3122 40.6737 59.1264 41.2413L58.6578 42.647L58.6578 42.6471C58.4452 43.2857 58.7904 43.9758 59.429 44.1885C59.5529 44.2297 59.6826 44.2508 59.8131 44.2509H59.8132H68.663V68.6627ZM68.6632 41.8133H61.4996C62.2835 39.0883 60.7549 36.22 58.035 35.3624C55.2719 34.4909 52.3253 36.0245 51.454 38.7877C51.1437 39.7715 51.1307 40.8239 51.4148 41.8135H44.2513V34.651C45.7995 35.1081 47.4757 34.82 48.7842 33.8659C51.1426 32.1834 51.6907 28.9075 50.0084 26.5489C48.7063 24.7235 46.392 23.9313 44.2513 24.564V17.4014H68.6632V41.8133Z" fill="#585CE9" stroke="#585CE9" stroke-width="0.2"/>
<path d="M27.7494 18.8996V27.7494H18.8996H18.8995C18.2264 27.7498 17.6812 28.296 17.6817 28.969V28.969C17.6818 29.0995 17.7029 29.2293 17.7442 29.3532L18.2127 30.759C18.2127 30.759 18.2128 30.759 18.2128 30.7591C18.6953 32.2333 17.8913 33.8195 16.4171 34.3019C14.9428 34.7844 13.3565 33.9806 12.8741 32.5063L12.779 32.5374L12.8741 32.5063C12.6883 31.9387 12.6883 31.3267 12.874 30.7591C12.874 30.759 12.874 30.7589 12.8741 30.7588L13.3427 29.3531L13.3427 29.3531C13.5553 28.7145 13.2101 28.0244 12.5715 27.8117C12.4476 27.7704 12.3178 27.7494 12.1874 27.7492H12.1872H3.33745V3.33745H27.7494V12.1872V12.1873C27.7498 12.8604 28.296 13.4056 28.969 13.4051H28.969C29.0995 13.405 29.2293 13.384 29.3532 13.3427L30.7589 12.8741C30.759 12.8741 30.7591 12.874 30.7591 12.874C32.2334 12.3917 33.8195 13.1955 34.3019 14.6697L34.397 14.6386L34.3019 14.6698C34.7845 16.1439 33.9806 17.7303 32.5064 18.2127C31.9387 18.3985 31.3266 18.3985 30.7589 18.2127L29.3532 17.7442L29.3532 17.7441C28.7146 17.5315 28.0245 17.8767 27.8118 18.5153C27.7705 18.6392 27.7495 18.769 27.7494 18.8995V18.8996ZM33.2125 10.5402C32.2288 10.2299 31.1763 10.2169 30.1868 10.501V2.11872C30.1868 1.44568 29.6411 0.9 28.9681 0.9H2.11872C1.44568 0.9 0.9 1.44568 0.9 2.11872V28.9681C0.9 29.6411 1.44568 30.1868 2.11872 30.1868H10.501C9.71712 32.9118 11.2457 35.7801 13.9656 36.6378C16.7288 37.5091 19.6753 35.9756 20.5466 33.2124C20.8569 32.2286 20.8699 31.1762 20.5858 30.1867H28.9681C29.6411 30.1867 30.1868 29.641 30.1868 28.9679V20.5857C32.9118 21.3695 35.7801 19.841 36.6378 17.1211C37.5092 14.358 35.9757 11.4117 33.2125 10.5402Z" fill="#FF4A35" stroke="#FF4A35" stroke-width="0.2"/>
</svg>
