<svg width="446" height="449" viewBox="0 0 446 449" fill="none" xmlns="http://www.w3.org/2000/svg">
<path d="M394.231 385.224C385.084 394.854 376.449 401.055 369.608 405.958C289.298 463.607 194.265 446.8 174.063 442.698C144.233 436.641 86.5759 424.929 44.9069 375.899C-18.1494 301.73 -8.32889 184.877 40.5814 107.743C49.5207 93.6275 96.7969 15.3246 192.855 2.76276C250.993 -4.83199 318.759 10.4857 367.83 51.616C470.841 137.93 463.504 312.305 394.231 385.224Z" fill="url(#paint0_linear)"/>
<path d="M97.7257 27.7103C96.5402 25.9639 98.751 23.6566 100.914 24.3616C122.91 31.4917 178.869 56.6953 196.235 131.729C218.023 225.878 252.098 250.153 286.558 259.702C286.558 259.702 246.139 264.541 210.253 240.395C122.125 181.143 118.857 58.7142 97.7257 27.7103Z" fill="#BDD0FB"/>
<path d="M121.212 50.6891C127.139 59.8221 132.842 69.0671 138.145 78.5365C143.496 87.9578 148.526 97.5554 153.188 107.313C157.802 117.087 162.208 126.957 166.117 137.019C170.074 147.065 173.534 157.288 176.962 167.574C180.455 177.829 183.915 188.18 188.593 198.146C193.255 208.096 199.375 217.581 207.369 225.608C209.372 227.611 211.406 229.582 213.585 231.409C215.716 233.283 217.943 235.062 220.218 236.792C224.783 240.253 229.638 243.41 234.764 246.214C245.049 251.789 256.44 255.875 268.247 258.487C269.496 258.759 270.842 258.054 271.275 256.901C271.691 255.779 271.066 254.641 269.865 254.337H269.849C266.997 253.632 264.177 252.879 261.406 252.03C260.012 251.629 258.65 251.165 257.273 250.716C255.927 250.235 254.533 249.787 253.204 249.258C247.837 247.239 242.678 244.868 237.76 242.144C227.923 236.76 219.08 229.935 211.438 222.276C207.658 218.398 204.245 214.264 201.217 209.858C198.189 205.452 195.562 200.805 193.255 195.999C188.625 186.369 185.101 176.146 181.528 165.924C177.94 155.702 174.239 145.463 170.058 135.417C167.991 130.386 165.812 125.403 163.537 120.468C162.416 117.984 161.23 115.533 160.061 113.081C158.859 110.646 157.642 108.21 156.408 105.775C151.426 96.0973 146.107 86.5799 140.436 77.2707C134.717 67.9776 128.709 58.8607 122.301 50.0002C122.125 49.7438 121.724 49.6957 121.42 49.888C121.147 50.0803 121.051 50.4328 121.212 50.6891Z" fill="white"/>
<path d="M223.454 224.693C222.236 227.673 218.375 228.426 216.084 226.183C203.46 213.75 170.939 175.343 176.77 114.425C181.689 62.9926 179.478 34.6165 177.571 21.8144C177.171 19.1066 180.455 17.4563 182.393 19.395C203.701 40.8173 267.51 116.957 223.454 224.693Z" fill="#91B3FA"/>
<path d="M219.097 224.549C219.032 224.597 218.952 224.629 218.872 224.661C218.215 224.901 217.494 224.565 217.27 223.924C216.998 223.187 190.228 149.403 193.832 77.5572C193.864 76.8682 194.457 76.3395 195.146 76.3715C195.835 76.4035 196.364 76.9964 196.332 77.6854C192.743 149.002 219.337 222.322 219.609 223.059C219.833 223.62 219.609 224.245 219.097 224.549Z" fill="white"/>
<path d="M228.133 427.078H390.275C391.188 427.078 391.925 426.341 391.925 425.427V21.7036C391.925 20.7903 391.188 20.0532 390.275 20.0532H228.133C227.219 20.0532 226.482 20.7903 226.482 21.7036V425.443C226.482 426.341 227.219 427.078 228.133 427.078Z" fill="url(#paint1_linear)"/>
<path d="M282.713 427.076H442.933C444.375 427.076 445.544 425.907 445.544 424.465V22.6635C445.544 21.2214 444.375 20.0518 442.933 20.0518H282.713C281.271 20.0518 280.102 21.2214 280.102 22.6635V424.481C280.102 425.923 281.271 427.076 282.713 427.076Z" fill="url(#paint2_linear)"/>
<path opacity="0.65" d="M424.829 80.3622H298.38C294.855 80.3622 291.972 76.5489 291.972 71.8702V48.0125C291.972 43.3339 294.839 39.5205 298.38 39.5205H424.845C428.369 39.5205 431.253 43.3339 431.253 48.0125V71.8542C431.237 76.5489 428.369 80.3622 424.829 80.3622ZM298.38 41.6515C295.736 41.6515 293.574 44.5036 293.574 48.0285V71.8702C293.574 75.3792 295.72 78.2473 298.38 78.2473H424.845C427.488 78.2473 429.651 75.3952 429.651 71.8702V48.0125C429.651 44.5036 427.504 41.6355 424.845 41.6355H298.38V41.6515Z" fill="#BDD0FB"/>
<path opacity="0.65" d="M424.829 145.687H298.38C294.855 145.687 291.972 141.873 291.972 137.195V113.353C291.972 108.674 294.839 104.861 298.38 104.861H424.845C428.369 104.861 431.253 108.674 431.253 113.353V137.195C431.237 141.873 428.369 145.687 424.829 145.687ZM298.38 106.976C295.736 106.976 293.574 109.828 293.574 113.353V137.195C293.574 140.704 295.72 143.572 298.38 143.572H424.845C427.488 143.572 429.651 140.72 429.651 137.195V113.353C429.651 109.844 427.504 106.976 424.845 106.976H298.38Z" fill="#BDD0FB"/>
<path opacity="0.65" d="M424.829 215.031H298.38C294.855 215.031 291.972 211.218 291.972 206.539V182.698C291.972 178.019 294.839 174.206 298.38 174.206H424.845C428.369 174.206 431.253 178.019 431.253 182.698V206.539C431.237 211.218 428.369 215.031 424.829 215.031ZM298.38 176.321C295.736 176.321 293.574 179.173 293.574 182.698V206.539C293.574 210.048 295.72 212.916 298.38 212.916H424.845C427.488 212.916 429.651 210.064 429.651 206.539V182.698C429.651 179.189 427.504 176.321 424.845 176.321H298.38Z" fill="#BDD0FB"/>
<path opacity="0.65" d="M424.829 280.373H298.38C294.855 280.373 291.972 276.56 291.972 271.881V248.039C291.972 243.361 294.839 239.547 298.38 239.547H424.845C428.369 239.547 431.253 243.361 431.253 248.039V271.881C431.237 276.56 428.369 280.373 424.829 280.373ZM298.38 241.662C295.736 241.662 293.574 244.514 293.574 248.039V271.881C293.574 275.39 295.72 278.258 298.38 278.258H424.845C427.488 278.258 429.651 275.406 429.651 271.881V248.039C429.651 244.53 427.504 241.662 424.845 241.662H298.38Z" fill="#BDD0FB"/>
<path opacity="0.65" d="M424.028 347.38H297.579C294.055 347.38 291.171 343.567 291.171 338.888V315.047C291.171 310.368 294.039 306.555 297.579 306.555H424.044C427.568 306.555 430.452 310.368 430.452 315.047V338.888C430.436 343.567 427.568 347.38 424.028 347.38ZM297.579 308.67C294.936 308.67 292.773 311.522 292.773 315.047V338.888C292.773 342.397 294.92 345.265 297.579 345.265H424.044C426.687 345.265 428.85 342.413 428.85 338.888V315.047C428.85 311.538 426.703 308.67 424.044 308.67H297.579Z" fill="#BDD0FB"/>
<path opacity="0.65" d="M424.829 414.291H298.38C294.855 414.291 291.972 410.477 291.972 405.799V381.957C291.972 377.278 294.839 373.465 298.38 373.465H424.845C428.369 373.465 431.253 377.278 431.253 381.957V405.799C431.237 410.477 428.369 414.291 424.829 414.291ZM298.38 375.58C295.736 375.58 293.574 378.432 293.574 381.957V405.799C293.574 409.308 295.72 412.176 298.38 412.176H424.845C427.488 412.176 429.651 409.324 429.651 405.799V381.957C429.651 378.448 427.504 375.58 424.845 375.58H298.38Z" fill="#BDD0FB"/>
<path d="M302.241 62.0322C303.94 62.0322 305.317 60.7266 305.317 59.1162C305.317 57.5057 303.94 56.2002 302.241 56.2002C300.542 56.2002 299.165 57.5057 299.165 59.1162C299.165 60.7266 300.542 62.0322 302.241 62.0322Z" fill="#BDD0FB"/>
<path d="M302.241 128.19C303.94 128.19 305.317 126.885 305.317 125.274C305.317 123.664 303.94 122.358 302.241 122.358C300.542 122.358 299.165 123.664 299.165 125.274C299.165 126.885 300.542 128.19 302.241 128.19Z" fill="#BDD0FB"/>
<path d="M302.241 196.318C303.94 196.318 305.317 195.012 305.317 193.402C305.317 191.791 303.94 190.486 302.241 190.486C300.542 190.486 299.165 191.791 299.165 193.402C299.165 195.012 300.542 196.318 302.241 196.318Z" fill="#BDD0FB"/>
<path d="M302.241 262.862C303.94 262.862 305.317 261.556 305.317 259.946C305.317 258.335 303.94 257.03 302.241 257.03C300.542 257.03 299.165 258.335 299.165 259.946C299.165 261.556 300.542 262.862 302.241 262.862Z" fill="#BDD0FB"/>
<path d="M302.241 329.886C303.94 329.886 305.317 328.58 305.317 326.97C305.317 325.359 303.94 324.054 302.241 324.054C300.542 324.054 299.165 325.359 299.165 326.97C299.165 328.58 300.542 329.886 302.241 329.886Z" fill="#BDD0FB"/>
<path d="M300.912 396.796C302.611 396.796 303.988 395.49 303.988 393.88C303.988 392.269 302.611 390.964 300.912 390.964C299.213 390.964 297.836 392.269 297.836 393.88C297.836 395.49 299.213 396.796 300.912 396.796Z" fill="#BDD0FB"/>
<path d="M321.259 393.205H316.212V411.309H321.259V393.205Z" fill="#BDD0FB"/>
<path d="M329.687 399.421H324.64V411.31H329.687V399.421Z" fill="#BDD0FB"/>
<path d="M338.113 384.041H333.066V411.312H338.113V384.041Z" fill="#BDD0FB"/>
<path d="M346.54 404.756H341.493V411.309H346.54V404.756Z" fill="#BDD0FB"/>
<path d="M354.967 387.692H349.92V411.31H354.967V387.692Z" fill="#BDD0FB"/>
<path d="M363.377 391.779H358.331V411.31H363.377V391.779Z" fill="#BDD0FB"/>
<path d="M371.805 396.231H366.758V411.324H371.805V396.231Z" fill="#BDD0FB"/>
<path d="M380.23 378.528H375.184V411.311H380.23V378.528Z" fill="#BDD0FB"/>
<path d="M388.659 382.005H383.612V411.31H388.659V382.005Z" fill="#BDD0FB"/>
<path d="M397.084 387.245H392.037V411.311H397.084V387.245Z" fill="#BDD0FB"/>
<path d="M405.495 405.365H400.448V411.309H405.495V405.365Z" fill="#BDD0FB"/>
<path d="M413.921 393.831H408.874V411.311H413.921V393.831Z" fill="#BDD0FB"/>
<path d="M321.404 325.239H316.357V343.344H321.404V325.239Z" fill="#BDD0FB"/>
<path d="M329.832 331.47H324.785V343.358H329.832V331.47Z" fill="#BDD0FB"/>
<path d="M338.258 316.089H333.211V343.359H338.258V316.089Z" fill="#BDD0FB"/>
<path d="M346.668 336.805H341.622V343.358H346.668V336.805Z" fill="#BDD0FB"/>
<path d="M355.094 319.727H350.047V343.344H355.094V319.727Z" fill="#BDD0FB"/>
<path d="M363.522 323.828H358.475V343.359H363.522V323.828Z" fill="#BDD0FB"/>
<path d="M371.949 328.268H366.902V343.36H371.949V328.268Z" fill="#BDD0FB"/>
<path d="M380.375 310.577H375.328V343.359H380.375V310.577Z" fill="#BDD0FB"/>
<path d="M388.787 314.037H383.74V343.343H388.787V314.037Z" fill="#BDD0FB"/>
<path d="M397.214 319.294H392.167V343.36H397.214V319.294Z" fill="#BDD0FB"/>
<path d="M405.639 337.414H400.592V343.358H405.639V337.414Z" fill="#BDD0FB"/>
<path d="M414.065 325.862H409.019V343.342H414.065V325.862Z" fill="#BDD0FB"/>
<path d="M319.639 258.503H314.592V276.608H319.639V258.503Z" fill="#BDD0FB"/>
<path d="M328.065 264.72H323.019V276.608H328.065V264.72Z" fill="#BDD0FB"/>
<path d="M336.493 249.339H331.446V276.609H336.493V249.339Z" fill="#BDD0FB"/>
<path d="M344.918 270.055H339.872V276.608H344.918V270.055Z" fill="#BDD0FB"/>
<path d="M353.329 252.991H348.282V276.609H353.329V252.991Z" fill="#BDD0FB"/>
<path d="M361.757 257.078H356.71V276.609H361.757V257.078Z" fill="#BDD0FB"/>
<path d="M370.184 261.53H365.137V276.623H370.184V261.53Z" fill="#BDD0FB"/>
<path d="M378.61 243.827H373.563V276.61H378.61V243.827Z" fill="#BDD0FB"/>
<path d="M387.036 247.304H381.989V276.609H387.036V247.304Z" fill="#BDD0FB"/>
<path d="M395.449 252.544H390.402V276.61H395.449V252.544Z" fill="#BDD0FB"/>
<path d="M403.874 270.664H398.827V276.608H403.874V270.664Z" fill="#BDD0FB"/>
<path d="M412.3 259.129H407.253V276.609H412.3V259.129Z" fill="#BDD0FB"/>
<path d="M319.785 192.967H314.738V211.072H319.785V192.967Z" fill="#BDD0FB"/>
<path d="M328.195 199.2H323.148V211.088H328.195V199.2Z" fill="#BDD0FB"/>
<path d="M336.621 183.819H331.574V211.09H336.621V183.819Z" fill="#BDD0FB"/>
<path d="M345.048 204.535H340.001V211.088H345.048V204.535Z" fill="#BDD0FB"/>
<path d="M353.474 187.457H348.427V211.074H353.474V187.457Z" fill="#BDD0FB"/>
<path d="M361.902 191.558H356.855V211.088H361.902V191.558Z" fill="#BDD0FB"/>
<path d="M370.312 195.997H365.265V211.09H370.312V195.997Z" fill="#BDD0FB"/>
<path d="M378.739 178.308H373.692V211.09H378.739V178.308Z" fill="#BDD0FB"/>
<path d="M387.167 181.768H382.12V211.073H387.167V181.768Z" fill="#BDD0FB"/>
<path d="M395.594 187.024H390.547V211.09H395.594V187.024Z" fill="#BDD0FB"/>
<path d="M404.02 205.145H398.973V211.089H404.02V205.145Z" fill="#BDD0FB"/>
<path d="M412.43 193.593H407.383V211.073H412.43V193.593Z" fill="#BDD0FB"/>
<path d="M319.639 123.961H314.592V142.066H319.639V123.961Z" fill="#BDD0FB"/>
<path d="M328.065 130.193H323.019V142.082H328.065V130.193Z" fill="#BDD0FB"/>
<path d="M336.493 114.812H331.446V142.083H336.493V114.812Z" fill="#BDD0FB"/>
<path d="M344.918 135.529H339.872V142.082H344.918V135.529Z" fill="#BDD0FB"/>
<path d="M353.329 118.45H348.282V142.068H353.329V118.45Z" fill="#BDD0FB"/>
<path d="M361.757 122.534H356.71V142.065H361.757V122.534Z" fill="#BDD0FB"/>
<path d="M370.184 126.99H365.137V142.083H370.184V126.99Z" fill="#BDD0FB"/>
<path d="M378.61 109.3H373.563V142.082H378.61V109.3Z" fill="#BDD0FB"/>
<path d="M387.036 112.76H381.989V142.065H387.036V112.76Z" fill="#BDD0FB"/>
<path d="M395.449 117.999H390.402V142.065H395.449V117.999Z" fill="#BDD0FB"/>
<path d="M403.874 136.122H398.827V142.066H403.874V136.122Z" fill="#BDD0FB"/>
<path d="M412.3 124.586H407.253V142.066H412.3V124.586Z" fill="#BDD0FB"/>
<path d="M319.785 58.4419H314.738V76.5467H319.785V58.4419Z" fill="#BDD0FB"/>
<path d="M328.195 64.6592H323.148V76.5474H328.195V64.6592Z" fill="#BDD0FB"/>
<path d="M336.621 49.2783H331.574V76.5489H336.621V49.2783Z" fill="#BDD0FB"/>
<path d="M345.048 69.9951H340.001V76.5481H345.048V69.9951Z" fill="#BDD0FB"/>
<path d="M353.474 52.9297H348.427V76.5471H353.474V52.9297Z" fill="#BDD0FB"/>
<path d="M361.902 57.0166H356.855V76.5473H361.902V57.0166Z" fill="#BDD0FB"/>
<path d="M370.312 61.4561H365.265V76.5487H370.312V61.4561Z" fill="#BDD0FB"/>
<path d="M378.739 43.7656H373.692V76.548H378.739V43.7656Z" fill="#BDD0FB"/>
<path d="M387.167 47.2422H382.12V76.5476H387.167V47.2422Z" fill="#BDD0FB"/>
<path d="M395.594 52.4824H390.547V76.5484H395.594V52.4824Z" fill="#BDD0FB"/>
<path d="M404.02 70.6035H398.973V76.5476H404.02V70.6035Z" fill="#BDD0FB"/>
<path d="M412.43 59.0684H407.383V76.5483H412.43V59.0684Z" fill="#BDD0FB"/>
<path d="M159.084 370.856L151.009 426.583H244.681L232.473 370.856H159.084Z" fill="url(#paint3_linear)"/>
<path d="M1.7627 192.458V358.292C1.7627 371.928 12.6405 383.095 26.2739 383.448C86.831 385.002 298.669 388.799 356.326 387.95C366.243 387.806 374.269 379.875 374.541 369.973C375.647 331.438 377.457 238.795 370.776 195.791C369.367 186.738 361.725 179.96 352.561 179.672C301.809 178.054 77.2668 172.894 19.6415 174.192C9.69279 174.384 1.7627 182.508 1.7627 192.458Z" fill="url(#paint4_linear)"/>
<path d="M12.1621 191.643V349.21C12.1621 357.173 18.5542 363.662 26.5164 363.79L348.014 367.764C355.912 367.876 362.384 361.531 362.416 353.632L362.961 197.475C362.977 191.835 358.491 187.205 352.836 187.06L23.6808 180.411C17.3687 180.251 12.1621 185.33 12.1621 191.643Z" fill="url(#paint5_linear)"/>
<path d="M364.834 374.253C364.834 374.253 364.818 374.253 364.834 374.253L12.1611 368.245C11.8888 368.245 11.6645 368.021 11.6805 367.749C11.6805 367.476 11.9208 367.252 12.1771 367.268L364.85 373.276C365.122 373.276 365.347 373.5 365.331 373.773C365.315 374.045 365.106 374.253 364.834 374.253Z" fill="#91B3FA"/>
<path d="M191.972 381.592C189.681 381.592 187.807 379.717 187.807 377.426C187.807 375.135 189.681 373.26 191.972 373.26C194.263 373.26 196.138 375.135 196.138 377.426C196.138 379.717 194.263 381.592 191.972 381.592ZM191.972 374.254C190.226 374.254 188.8 375.68 188.8 377.426C188.8 379.172 190.226 380.598 191.972 380.598C193.719 380.598 195.145 379.172 195.145 377.426C195.145 375.68 193.719 374.254 191.972 374.254Z" fill="#91B3FA"/>
<path d="M264.851 441.386H127.781C124.064 441.386 121.26 438.743 121.981 435.891L123.743 428.937C124.272 426.838 126.579 425.316 129.303 425.22L261.455 421.102C264.306 421.006 266.838 422.528 267.462 424.707L270.634 435.795C271.451 438.662 268.632 441.386 264.851 441.386Z" fill="url(#paint6_linear)"/>
<path d="M201.57 427.16C201.298 427.16 201.074 426.952 201.074 426.68C201.074 426.407 201.282 426.183 201.554 426.183L207.21 426.103C207.483 426.103 207.707 426.311 207.707 426.584C207.707 426.856 207.499 427.08 207.226 427.08L201.57 427.16Z" fill="#91B3FA"/>
<path d="M127.042 437.607C127.01 437.607 126.994 437.607 126.962 437.607C126.69 437.559 126.514 437.318 126.546 437.046L127.347 431.983C127.779 429.243 130.118 427.225 132.89 427.176L192.95 426.295C193.223 426.279 193.447 426.504 193.447 426.776C193.447 427.048 193.239 427.273 192.966 427.273L132.906 428.154C130.615 428.186 128.676 429.852 128.324 432.127L127.523 437.19C127.491 437.43 127.283 437.607 127.042 437.607Z" fill="#91B3FA"/>
<g opacity="0.53">
<path opacity="0.53" d="M228.436 291.335H216.004V355.65H228.436V291.335Z" fill="white"/>
<path opacity="0.53" d="M249.214 291.333H236.782V355.648H249.214V291.333Z" fill="white"/>
<path opacity="0.53" d="M269.991 291.333H257.56V355.648H269.991V291.333Z" fill="white"/>
<path opacity="0.53" d="M290.786 291.333H278.354V355.648H290.786V291.333Z" fill="white"/>
<path opacity="0.53" d="M311.564 291.333H299.132V355.648H311.564V291.333Z" fill="white"/>
<path opacity="0.53" d="M332.343 291.333H319.911V355.648H332.343V291.333Z" fill="white"/>
<path opacity="0.53" d="M353.138 291.333H340.706V355.648H353.138V291.333Z" fill="white"/>
</g>
<path d="M228.435 321.984H216.003V355.631H228.435V321.984Z" fill="#91B3FA"/>
<path d="M249.213 333.553H236.781V355.648H249.213V333.553Z" fill="#91B3FA"/>
<path d="M269.991 304.967H257.56V355.646H269.991V304.967Z" fill="#91B3FA"/>
<path d="M290.785 343.472H278.354V355.648H290.785V343.472Z" fill="#91B3FA"/>
<path d="M311.565 311.746H299.133V355.648H311.565V311.746Z" fill="#91B3FA"/>
<path d="M332.344 319.341H319.912V355.632H332.344V319.341Z" fill="#91B3FA"/>
<path d="M353.138 327.609H340.706V355.649H353.138V327.609Z" fill="#91B3FA"/>
<path opacity="0.57" d="M52.5155 304.343C38.3214 304.343 26.8027 315.847 26.8027 330.059C26.8027 344.255 38.3054 355.775 52.5155 355.775C66.7095 355.775 78.2282 344.271 78.2282 330.059C78.2282 315.863 66.7095 304.343 52.5155 304.343ZM52.5155 344.704C44.4252 344.704 37.8728 338.151 37.8728 330.059C37.8728 321.968 44.4252 315.414 52.5155 315.414C60.6058 315.414 67.1581 321.968 67.1581 330.059C67.1581 338.151 60.6058 344.704 52.5155 344.704Z" fill="white"/>
<path d="M92.966 324.402H16.6128V356.72H92.966V324.402Z" fill="#91B3FA"/>
<path opacity="0.57" d="M115.187 304.344C100.993 304.344 89.4741 315.848 89.4741 330.06C89.4741 344.256 100.977 355.776 115.187 355.776C129.381 355.776 140.9 344.272 140.9 330.06C140.884 315.864 129.381 304.344 115.187 304.344ZM115.187 344.705C107.097 344.705 100.544 338.152 100.544 330.06C100.544 321.969 107.097 315.415 115.187 315.415C123.277 315.415 129.829 321.969 129.829 330.06C129.829 338.152 123.277 344.705 115.187 344.705Z" fill="white"/>
<path d="M155.637 311.907H79.2842V356.723H155.637V311.907Z" fill="#91B3FA"/>
<path opacity="0.57" d="M177.843 304.344C163.649 304.344 152.13 315.848 152.13 330.06C152.13 344.256 163.633 355.776 177.843 355.776C192.037 355.776 203.556 344.272 203.556 330.06C203.556 315.864 192.037 304.344 177.843 304.344ZM177.843 344.705C169.753 344.705 163.2 338.152 163.2 330.06C163.2 321.969 169.753 315.415 177.843 315.415C185.933 315.415 192.486 321.969 192.486 330.06C192.486 338.152 185.933 344.705 177.843 344.705Z" fill="white"/>
<path d="M218.294 340.57H141.94V356.736H218.294V340.57Z" fill="#91B3FA"/>
<g opacity="0.48">
<path opacity="0.48" d="M223.39 202.553H178.004C176.098 202.553 174.56 203.963 174.56 205.709C174.56 207.455 176.098 208.865 178.004 208.865H223.39C225.296 208.865 226.834 207.455 226.834 205.709C226.834 203.963 225.296 202.553 223.39 202.553Z" fill="white"/>
<path opacity="0.48" d="M223.388 216.509H178.002C176.096 216.509 174.558 217.919 174.558 219.665C174.558 221.412 176.096 222.821 178.002 222.821H223.388C225.294 222.821 226.832 221.412 226.832 219.665C226.832 217.919 225.294 216.509 223.388 216.509Z" fill="white"/>
<path opacity="0.48" d="M223.388 272.362H178.002C176.096 272.362 174.558 273.772 174.558 275.519C174.558 277.265 176.096 278.675 178.002 278.675H223.388C225.294 278.675 226.832 277.265 226.832 275.519C226.832 273.772 225.294 272.362 223.388 272.362Z" fill="white"/>
<path opacity="0.48" d="M223.388 258.407H178.002C176.096 258.407 174.558 259.817 174.558 261.563C174.558 263.309 176.096 264.719 178.002 264.719H223.388C225.294 264.719 226.832 263.309 226.832 261.563C226.832 259.817 225.294 258.407 223.388 258.407Z" fill="white"/>
<path opacity="0.48" d="M223.388 244.436H178.002C176.096 244.436 174.558 245.845 174.558 247.592C174.558 249.338 176.096 250.748 178.002 250.748H223.388C225.294 250.748 226.832 249.338 226.832 247.592C226.832 245.845 225.294 244.436 223.388 244.436Z" fill="white"/>
</g>
<g opacity="0.48">
<path opacity="0.48" d="M286.477 202.553H241.091C239.184 202.553 237.646 203.963 237.646 205.709C237.646 207.455 239.184 208.865 241.091 208.865H286.477C288.383 208.865 289.921 207.455 289.921 205.709C289.921 203.963 288.383 202.553 286.477 202.553Z" fill="white"/>
<path opacity="0.48" d="M286.476 216.509H241.09C239.183 216.509 237.646 217.919 237.646 219.665C237.646 221.412 239.183 222.821 241.09 222.821H286.476C288.382 222.821 289.92 221.412 289.92 219.665C289.92 217.919 288.382 216.509 286.476 216.509Z" fill="white"/>
<path opacity="0.48" d="M286.476 272.362H241.09C239.183 272.362 237.646 273.772 237.646 275.519C237.646 277.265 239.183 278.675 241.09 278.675H286.476C288.382 278.675 289.92 277.265 289.92 275.519C289.92 273.772 288.382 272.362 286.476 272.362Z" fill="white"/>
<path opacity="0.48" d="M286.476 258.409H241.09C239.183 258.409 237.646 259.819 237.646 261.565C237.646 263.311 239.183 264.721 241.09 264.721H286.476C288.382 264.721 289.92 263.311 289.92 261.565C289.92 259.819 288.382 258.409 286.476 258.409Z" fill="white"/>
<path opacity="0.48" d="M286.476 244.437H241.09C239.183 244.437 237.646 245.846 237.646 247.593C237.646 249.339 239.183 250.749 241.09 250.749H286.476C288.382 250.749 289.92 249.339 289.92 247.593C289.92 245.846 288.382 244.437 286.476 244.437Z" fill="white"/>
</g>
<g opacity="0.48">
<path opacity="0.48" d="M349.565 202.552H304.179C302.272 202.552 300.734 203.962 300.734 205.708C300.734 207.454 302.272 208.864 304.179 208.864H349.565C351.471 208.864 353.009 207.454 353.009 205.708C353.009 203.962 351.471 202.552 349.565 202.552Z" fill="white"/>
<path opacity="0.48" d="M349.564 216.508H304.178C302.271 216.508 300.733 217.918 300.733 219.664C300.733 221.411 302.271 222.82 304.178 222.82H349.564C351.47 222.82 353.008 221.411 353.008 219.664C353.008 217.918 351.47 216.508 349.564 216.508Z" fill="white"/>
<path opacity="0.48" d="M349.564 272.361H304.178C302.271 272.361 300.733 273.771 300.733 275.518C300.733 277.264 302.271 278.674 304.178 278.674H349.564C351.47 278.674 353.008 277.264 353.008 275.518C353.008 273.771 351.47 272.361 349.564 272.361Z" fill="white"/>
<path opacity="0.48" d="M349.564 258.407H304.178C302.271 258.407 300.733 259.817 300.733 261.563C300.733 263.309 302.271 264.719 304.178 264.719H349.564C351.47 264.719 353.008 263.309 353.008 261.563C353.008 259.817 351.47 258.407 349.564 258.407Z" fill="white"/>
<path opacity="0.48" d="M349.564 244.435H304.178C302.271 244.435 300.733 245.844 300.733 247.591C300.733 249.337 302.271 250.747 304.178 250.747H349.564C351.47 250.747 353.008 249.337 353.008 247.591C353.008 245.844 351.47 244.435 349.564 244.435Z" fill="white"/>
</g>
<path d="M42.5353 282.745H149.888C153.316 282.745 156.088 279.973 156.088 276.544V115.741C156.088 112.328 153.316 109.556 149.904 109.54L41.6862 109.252C38.2418 109.236 35.4543 112.039 35.4703 115.484L36.3354 276.592C36.3514 279.989 39.1229 282.745 42.5353 282.745Z" fill="#91B3FA"/>
<path opacity="0.6" d="M47.7901 117.182L143.784 117.775C147.261 117.791 150.048 120.627 150.032 124.088L149.359 268.42C149.343 271.833 146.604 274.621 143.191 274.685L49.9208 276.383C46.4444 276.447 43.5607 273.659 43.5126 270.182L41.462 123.559C41.414 120.034 44.2656 117.166 47.7901 117.182Z" fill="white"/>
<path opacity="0.6" d="M51.6997 125.274V125.931C51.6997 126.972 52.5488 127.805 53.5741 127.805H127.54C128.582 127.805 129.415 126.956 129.415 125.931V125.274C129.415 124.232 128.566 123.399 127.54 123.399H53.5741C52.5328 123.383 51.6997 124.232 51.6997 125.274Z" fill="white"/>
<path opacity="0.6" d="M59.9486 133.592C59.9967 134.569 60.8137 135.354 61.7909 135.37L126.465 136.556C127.523 136.572 128.388 135.722 128.388 134.681V134.521C128.388 133.495 127.571 132.662 126.529 132.646L61.855 131.621C60.7656 131.605 59.8845 132.502 59.9486 133.592Z" fill="white"/>
<path opacity="0.61" d="M53.3491 271.546C50.3853 271.546 47.9502 269.159 47.9021 266.194L45.8034 148.14C45.7554 145.143 48.1424 142.644 51.1543 142.596L138.481 140.897C139.939 140.881 141.317 141.41 142.374 142.419C143.432 143.429 144.024 144.791 144.04 146.249L146.299 264.945C146.331 266.403 145.787 267.797 144.761 268.838C143.736 269.896 142.374 270.473 140.916 270.489L53.4292 271.546C53.3811 271.546 53.3651 271.546 53.3491 271.546ZM138.578 142.868C138.561 142.868 138.529 142.868 138.513 142.868L51.1863 144.567C49.2639 144.599 47.7259 146.201 47.774 148.108L49.8726 266.162C49.9047 268.053 51.4586 269.591 53.3651 269.591C53.3811 269.591 53.3971 269.591 53.4131 269.591L140.9 268.534C141.83 268.518 142.711 268.149 143.368 267.476C144.024 266.803 144.361 265.922 144.345 264.977L142.086 146.281C142.07 145.352 141.685 144.486 141.013 143.829C140.34 143.205 139.491 142.868 138.578 142.868Z" fill="white"/>
<path opacity="0.61" d="M143.192 154.74H47.903C47.3583 154.74 46.9258 154.308 46.9258 153.763C46.9258 153.218 47.3583 152.786 47.903 152.786H143.176C143.721 152.786 144.154 153.218 144.154 153.763C144.17 154.308 143.737 154.74 143.192 154.74Z" fill="white"/>
<path opacity="0.73" d="M98.2209 248.697C77.5706 248.697 60.7812 231.905 60.7812 211.252C60.7812 190.599 77.5706 173.807 98.2209 173.807C118.871 173.807 135.661 190.599 135.661 211.252C135.661 231.905 118.871 248.697 98.2209 248.697ZM98.2209 185.552C84.0429 185.552 72.5242 197.088 72.5242 211.252C72.5242 225.432 84.0589 236.952 98.2209 236.952C112.399 236.952 123.918 225.416 123.918 211.252C123.918 197.088 112.399 185.552 98.2209 185.552Z" fill="white"/>
<path d="M135.568 208.448L123.857 209.329C123.905 209.97 123.921 210.611 123.921 211.252C123.921 214.312 123.376 217.26 122.399 219.984L133.437 223.973C134.879 220 135.664 215.722 135.664 211.252C135.664 210.306 135.632 209.377 135.568 208.448Z" fill="url(#paint7_linear)"/>
<path d="M98.2215 236.952C84.0434 236.952 72.5248 225.416 72.5248 211.252C72.5248 197.072 84.0595 185.552 98.2215 185.552C100.384 185.552 102.483 185.824 104.485 186.321L107.353 174.929C104.437 174.192 101.378 173.807 98.2375 173.807C77.5872 173.807 60.7979 190.599 60.7979 211.252C60.7979 231.905 77.5872 248.697 98.2375 248.697C114.418 248.697 128.244 238.378 133.45 223.958L122.412 219.968C118.824 229.87 109.34 236.952 98.2215 236.952Z" fill="url(#paint8_linear)"/>
<path d="M123.855 209.329L135.566 208.447C135.213 203.609 133.916 199.011 131.881 194.861L121.324 200.004C122.718 202.856 123.599 206.012 123.855 209.329Z" fill="url(#paint9_linear)"/>
<path d="M387.31 432.894C387.31 432.894 388.175 437.572 388.624 442.187C388.8 443.997 387.422 445.583 385.612 445.68C379.444 446 366.259 446.625 361.517 446.449C360.812 446.417 360.332 445.696 360.588 445.039C360.796 444.478 361.229 444.029 361.757 443.773L383.449 433.551L387.31 432.894Z" fill="url(#paint10_linear)"/>
<path d="M387.968 430.137L387.359 435.744C387.359 435.744 383.562 437.555 380.934 435.584L382.456 429.335L387.968 430.137Z" fill="url(#paint11_linear)"/>
<path d="M386.462 324.915C386.766 326.373 388.705 397.834 381.367 429.944C381.255 430.472 381.512 431.001 382.024 431.209C383.194 431.674 385.501 432.347 388.256 432.411C389.105 432.427 389.874 431.866 390.098 431.049C392.213 423.599 402.322 386.266 403.347 350.68C404.501 310.927 403.331 349.334 403.331 349.334L402.21 324.771L386.462 324.915Z" fill="url(#paint12_linear)"/>
<path d="M412.399 435.105C412.399 435.105 413.745 437.46 415.075 443.725C415.315 444.862 414.53 445.952 413.377 446.08C411.342 446.304 408.202 446.593 405.703 446.593C404.549 446.593 403.636 445.599 403.764 444.446C404.021 442.155 404.854 438.389 407.497 435.425L412.399 435.105Z" fill="url(#paint13_linear)"/>
<path d="M413.489 427.894L412.015 436.37C412.015 436.37 410.493 437.524 407.449 436.722L408.106 427.606L413.489 427.894Z" fill="url(#paint14_linear)"/>
<path d="M416.708 326.822C423.308 364.476 416.243 420.042 413.776 430.922C413.632 431.595 413.087 432.107 412.415 432.219C411.277 432.428 409.387 432.588 407.528 432.075C406.888 431.899 406.439 431.322 406.407 430.649C405.974 421.869 406.087 367.953 400.063 346.707C399.758 345.633 399.086 344.688 398.172 344.047L386.798 336.116L385.805 323.137L416.708 326.822Z" fill="url(#paint15_linear)"/>
<path d="M376.224 255.744C394.952 255.264 415.65 260.279 415.65 260.279C421.546 292.789 417.3 330.41 417.3 330.41C402.834 334.351 386.429 328.375 386.429 328.375C383.898 314.788 372.283 276.574 372.283 276.574C363.119 275.532 355.558 272.953 349.326 269.524C354.004 263.996 356.166 256.994 357.096 252.844C363.744 254.863 370.457 255.905 376.224 255.744Z" fill="url(#paint16_linear)"/>
<path d="M320.649 228.7C322.459 226.457 324.798 227.482 324.798 227.482C327.666 239.099 342.196 248.392 357.095 252.862C356.166 256.996 354.003 263.998 349.325 269.542C324.558 255.939 320.649 228.7 320.649 228.7Z" fill="url(#paint17_linear)"/>
<path d="M321.114 229.261C320.921 229.87 323.164 230.783 324.446 228.267C324.478 227.066 325.167 221.923 324.43 220.945C320.569 215.77 313.103 209.33 313.103 209.33C311.87 210.579 312.911 211.781 312.911 211.781L316.532 215.482C315.795 216.844 314.882 217.997 314.481 219.648C314.161 220.897 314.385 222.227 315.026 223.349C315.667 224.47 316.548 225.944 317.365 227.098C318.919 229.261 321.114 229.261 321.114 229.261Z" fill="url(#paint18_linear)"/>
<path d="M318.133 217.901L321.434 220.641L322.491 223.396L319.607 226.665C319.607 226.665 318.582 221.201 317.829 220.016C317.076 218.83 317.46 218.253 318.133 217.901Z" fill="url(#paint19_linear)"/>
<path d="M408.648 278.498L415.649 260.296C415.649 260.296 433.256 272.009 436.268 287.054C432.967 287.327 426.96 288.24 421.096 291.268C419.751 284.17 408.648 278.498 408.648 278.498Z" fill="url(#paint20_linear)"/>
<path d="M393.525 295.706C393.525 295.706 413.262 306.617 419.799 297.084C421.16 295.097 421.465 293.142 421.112 291.284C426.976 288.256 432.967 287.342 436.284 287.07C437.197 291.604 436.78 296.443 434.153 301.346C422.746 322.688 390.978 300.577 390.978 300.577L393.525 295.706Z" fill="url(#paint21_linear)"/>
<path d="M395.048 240.365L401.168 257.54C401.264 257.829 401.152 258.149 400.896 258.293C399.278 259.207 393.462 261.85 386.365 257.46C385.628 256.996 385.116 256.242 385.004 255.377L382.937 240.477L395.048 240.365Z" fill="url(#paint22_linear)"/>
<path d="M381.927 224.534C381.927 224.534 375.503 236.919 376.384 241.885C377.265 246.852 385.371 246.42 392.42 242.302L397.242 228.956L381.927 224.534Z" fill="url(#paint23_linear)"/>
<path d="M392.051 235.782C391.763 235.653 391.651 235.301 391.827 235.045C392.34 234.243 393.317 232.593 393.605 231.167C393.605 231.167 394.775 230.398 390.594 229.437C386.412 228.475 380.18 226.985 378.835 223.444C377.521 219.999 380.789 211.267 386.204 218.141C386.412 218.397 386.813 218.397 387.005 218.141C387.87 216.987 390.145 214.6 393.365 216.01C396.361 217.324 396.729 219.519 396.697 220.624C396.681 220.945 396.986 221.201 397.306 221.137C398.812 220.832 402.449 220.544 404.179 224.261C405.605 227.322 404.707 229.052 403.89 229.917C403.618 230.19 403.746 230.654 404.115 230.751C405.108 231.039 406.406 231.872 406.294 234.211C406.149 237.432 402.545 237.176 401.519 237.047C401.359 237.031 401.183 237.079 401.071 237.208C400.206 238.185 396.281 242.351 392.003 242.896C391.635 242.944 391.346 242.575 391.459 242.223L393.269 236.807C393.349 236.551 393.237 236.278 392.981 236.182L392.051 235.782Z" fill="url(#paint24_linear)"/>
<path d="M391.316 236.55C391.316 236.55 395.947 233.314 396.315 236.005C396.684 238.697 392.165 239.947 389.906 238.969L391.316 236.55Z" fill="url(#paint25_linear)"/>
<path d="M397.563 312.946L386.814 275.389C386.686 274.957 386.333 274.652 385.884 274.604C383.93 274.38 378.291 273.739 371.771 273.194C363.921 272.537 354.805 271.993 349.358 272.457C348.589 272.521 348.108 273.338 348.461 274.043C351.553 280.308 364.305 305.816 370.681 314.164C370.889 314.437 371.226 314.597 371.562 314.597L396.506 314.372C397.243 314.34 397.756 313.651 397.563 312.946Z" fill="url(#paint26_linear)"/>
<path d="M394.951 303.875C394.951 303.875 396.457 297.722 395.848 295.527C395.24 293.348 394.07 290.528 390.177 291.153C386.268 291.778 381.67 293.428 381.67 293.428C381.67 293.428 381.911 296.28 384.874 295.351L383.032 296.777C383.032 296.777 383.288 299.052 385.804 297.834L384.09 299.725C384.09 299.725 385.163 301.6 387.005 300.398C388.848 299.196 389.729 304.612 394.951 303.875Z" fill="url(#paint27_linear)"/>
<path d="M369.318 287.548C371.062 287.548 372.475 286.135 372.475 284.392C372.475 282.649 371.062 281.236 369.318 281.236C367.575 281.236 366.162 282.649 366.162 284.392C366.162 286.135 367.575 287.548 369.318 287.548Z" fill="#91B3FA"/>
<path d="M385.581 286.476L383.387 279.042C383.114 278.128 382.377 277.439 381.48 277.247C374.623 275.821 355.831 275.517 355.639 275.517L355.655 274.684C356.424 274.7 374.703 274.988 381.64 276.446C382.858 276.702 383.835 277.616 384.188 278.817L386.382 286.251L385.581 286.476Z" fill="#91B3FA"/>
<defs>
<linearGradient id="paint0_linear" x1="503.707" y1="580.149" x2="105.722" y2="85.9474" gradientUnits="userSpaceOnUse">
<stop stop-color="#DAE3FE"/>
<stop offset="1" stop-color="#E9EFFD"/>
</linearGradient>
<linearGradient id="paint1_linear" x1="535.284" y1="15.9566" x2="445.698" y2="98.2015" gradientUnits="userSpaceOnUse">
<stop stop-color="#4F52FF"/>
<stop offset="1" stop-color="#4042E2"/>
</linearGradient>
<linearGradient id="paint2_linear" x1="457.395" y1="-60.6029" x2="198.301" y2="717.721" gradientUnits="userSpaceOnUse">
<stop stop-color="#4F52FF"/>
<stop offset="1" stop-color="#4042E2"/>
</linearGradient>
<linearGradient id="paint3_linear" x1="198.711" y1="335.339" x2="197.095" y2="505.792" gradientUnits="userSpaceOnUse">
<stop stop-color="#09005D"/>
<stop offset="0.821" stop-color="#170C88"/>
<stop offset="1" stop-color="#1A0F91"/>
</linearGradient>
<linearGradient id="paint4_linear" x1="190.328" y1="169.607" x2="186.289" y2="382.067" gradientUnits="userSpaceOnUse">
<stop stop-color="#09005D"/>
<stop offset="1" stop-color="#1A0F91"/>
</linearGradient>
<linearGradient id="paint5_linear" x1="19.1578" y1="373.127" x2="237.202" y2="242.319" gradientUnits="userSpaceOnUse">
<stop stop-color="#FF928E"/>
<stop offset="1" stop-color="#FE7062"/>
</linearGradient>
<linearGradient id="paint6_linear" x1="192.275" y1="345.926" x2="197.122" y2="454.978" gradientUnits="userSpaceOnUse">
<stop stop-color="#09005D"/>
<stop offset="1" stop-color="#1A0F91"/>
</linearGradient>
<linearGradient id="paint7_linear" x1="150.187" y1="195.906" x2="62.5824" y2="280.271" gradientUnits="userSpaceOnUse">
<stop stop-color="#FF928E"/>
<stop offset="1" stop-color="#FE7062"/>
</linearGradient>
<linearGradient id="paint8_linear" x1="130.43" y1="122.578" x2="101.343" y2="202.644" gradientUnits="userSpaceOnUse">
<stop stop-color="#FF928E"/>
<stop offset="1" stop-color="#FE7062"/>
</linearGradient>
<linearGradient id="paint9_linear" x1="147.247" y1="173.976" x2="113.288" y2="228.601" gradientUnits="userSpaceOnUse">
<stop stop-color="#FEBBBA"/>
<stop offset="1" stop-color="#FF928E"/>
</linearGradient>
<linearGradient id="paint10_linear" x1="362.026" y1="426.671" x2="442.653" y2="512.708" gradientUnits="userSpaceOnUse">
<stop stop-color="#09005D"/>
<stop offset="1" stop-color="#1A0F91"/>
</linearGradient>
<linearGradient id="paint11_linear" x1="387.988" y1="432.869" x2="380.9" y2="432.937" gradientUnits="userSpaceOnUse">
<stop stop-color="#A22B25"/>
<stop offset="1" stop-color="#C0423C"/>
</linearGradient>
<linearGradient id="paint12_linear" x1="354.807" y1="328.553" x2="423.596" y2="419.944" gradientUnits="userSpaceOnUse">
<stop stop-color="#09005D"/>
<stop offset="1" stop-color="#1A0F91"/>
</linearGradient>
<linearGradient id="paint13_linear" x1="379.772" y1="410.04" x2="460.402" y2="496.08" gradientUnits="userSpaceOnUse">
<stop stop-color="#09005D"/>
<stop offset="1" stop-color="#1A0F91"/>
</linearGradient>
<linearGradient id="paint14_linear" x1="413.531" y1="432.263" x2="407.411" y2="432.321" gradientUnits="userSpaceOnUse">
<stop stop-color="#A22B25"/>
<stop offset="1" stop-color="#C0423C"/>
</linearGradient>
<linearGradient id="paint15_linear" x1="366.824" y1="319.509" x2="435.612" y2="410.899" gradientUnits="userSpaceOnUse">
<stop stop-color="#09005D"/>
<stop offset="1" stop-color="#1A0F91"/>
</linearGradient>
<linearGradient id="paint16_linear" x1="349.324" y1="292.319" x2="418.777" y2="292.319" gradientUnits="userSpaceOnUse">
<stop stop-color="#DAE3FE"/>
<stop offset="1" stop-color="#E9EFFD"/>
</linearGradient>
<linearGradient id="paint17_linear" x1="353.123" y1="255.972" x2="315.99" y2="236.019" gradientUnits="userSpaceOnUse">
<stop stop-color="#FEBBBA"/>
<stop offset="1" stop-color="#FF928E"/>
</linearGradient>
<linearGradient id="paint18_linear" x1="323.432" y1="223.324" x2="309.275" y2="218.069" gradientUnits="userSpaceOnUse">
<stop stop-color="#FEBBBA"/>
<stop offset="1" stop-color="#FF928E"/>
</linearGradient>
<linearGradient id="paint19_linear" x1="321.938" y1="223.853" x2="316.043" y2="221.725" gradientUnits="userSpaceOnUse">
<stop stop-color="#FEBBBA"/>
<stop offset="1" stop-color="#FF928E"/>
</linearGradient>
<linearGradient id="paint20_linear" x1="408.642" y1="275.784" x2="436.272" y2="275.784" gradientUnits="userSpaceOnUse">
<stop stop-color="#DAE3FE"/>
<stop offset="1" stop-color="#E9EFFD"/>
</linearGradient>
<linearGradient id="paint21_linear" x1="431.738" y1="303.075" x2="407.371" y2="273.582" gradientUnits="userSpaceOnUse">
<stop stop-color="#FEBBBA"/>
<stop offset="1" stop-color="#FF928E"/>
</linearGradient>
<linearGradient id="paint22_linear" x1="399.212" y1="253.645" x2="381.304" y2="243.215" gradientUnits="userSpaceOnUse">
<stop stop-color="#FEBBBA"/>
<stop offset="1" stop-color="#FF928E"/>
</linearGradient>
<linearGradient id="paint23_linear" x1="394.96" y1="238.773" x2="375.148" y2="226.434" gradientUnits="userSpaceOnUse">
<stop stop-color="#FEBBBA"/>
<stop offset="1" stop-color="#FF928E"/>
</linearGradient>
<linearGradient id="paint24_linear" x1="408.818" y1="213.521" x2="383.273" y2="234.091" gradientUnits="userSpaceOnUse">
<stop stop-color="#09005D"/>
<stop offset="1" stop-color="#1A0F91"/>
</linearGradient>
<linearGradient id="paint25_linear" x1="395.635" y1="237.9" x2="391.057" y2="233.693" gradientUnits="userSpaceOnUse">
<stop stop-color="#FEBBBA"/>
<stop offset="1" stop-color="#FF928E"/>
</linearGradient>
<linearGradient id="paint26_linear" x1="378.67" y1="269.626" x2="353.377" y2="375" gradientUnits="userSpaceOnUse">
<stop stop-color="#09005D"/>
<stop offset="1" stop-color="#1A0F91"/>
</linearGradient>
<linearGradient id="paint27_linear" x1="394.432" y1="299.812" x2="381.733" y2="291.005" gradientUnits="userSpaceOnUse">
<stop stop-color="#FEBBBA"/>
<stop offset="1" stop-color="#FF928E"/>
</linearGradient>
</defs>
</svg>
