<svg width="29" height="29" viewBox="0 0 29 29" fill="none" xmlns="http://www.w3.org/2000/svg">
<path d="M14.5654 0.00585938C6.80117 0.00585938 0.506836 6.3002 0.506836 14.0645C0.506836 21.0281 5.57524 26.7952 12.2208 27.9119V16.9975H8.82941V13.0698H12.2208V10.1737C12.2208 6.81338 14.2731 4.98219 17.2712 4.98219C18.7071 4.98219 19.9411 5.08919 20.2993 5.13632V8.64875L18.2199 8.64975C16.5898 8.64975 16.2755 9.42422 16.2755 10.5611V13.0678H20.1651L19.6578 16.9955H16.2755V28.0059C23.2313 27.1593 28.6239 21.2453 28.6239 14.0604C28.6239 6.3002 22.3296 0.00585938 14.5654 0.00585938Z" fill="#4F4F4F"/>
</svg>
