<svg width="523" height="522" viewBox="0 0 523 522" fill="none" xmlns="http://www.w3.org/2000/svg">
<path opacity="0.1" d="M454.547 440.022C444.088 451.036 434.205 458.137 426.389 463.765C334.562 529.758 225.892 510.525 202.796 505.81C168.7 498.877 102.761 485.459 55.117 429.343C-16.9821 344.415 -5.75969 210.639 50.1665 122.338C60.4026 106.18 114.43 16.5365 224.273 2.14888C290.751 -6.55453 368.229 11.0014 424.341 58.0781C542.131 156.891 533.756 356.529 454.547 440.022Z" fill="#FF4A35"/>
<path d="M487.694 257.287C482.427 377.383 373.217 470.139 243.759 464.436C114.3 458.752 13.6147 356.79 18.8816 236.675C24.1486 116.579 133.358 23.842 262.817 29.5263C392.275 35.2105 492.961 137.191 487.694 257.287Z" fill="url(#paint0_linear)"/>
<g opacity="0.68">
<path opacity="0.68" d="M313.625 248.043C313.606 267.258 312.899 286.472 311.41 305.631C309.884 324.79 307.521 343.892 304.115 362.809C300.634 381.707 296.224 400.511 289.524 418.608C286.136 427.628 282.191 436.518 276.85 444.643C274.151 448.688 271.099 452.545 267.321 455.751C265.441 457.335 263.357 458.751 261.067 459.776C258.778 460.801 256.284 461.454 253.753 461.491C251.222 461.566 248.672 461.081 246.346 460.131C244.001 459.199 241.879 457.857 239.944 456.329C236.073 453.235 232.946 449.414 230.21 445.407C224.776 437.338 220.793 428.467 217.35 419.465C213.944 410.445 211.171 401.201 208.77 391.901C206.37 382.583 204.36 373.171 202.629 363.722C199.167 344.806 196.785 325.703 195.184 306.563C193.584 287.404 192.784 268.19 192.653 248.975C192.597 239.358 192.895 229.76 193.249 220.162C193.621 210.564 194.161 200.966 194.887 191.387C196.338 172.228 198.479 153.126 201.661 134.153C203.262 124.686 205.123 115.237 207.356 105.881C209.589 96.5254 212.195 87.2629 215.415 78.1868C218.671 69.1479 222.468 60.2022 227.735 52.0765C230.396 48.051 233.449 44.1931 237.245 41.0994C239.144 39.5712 241.247 38.2293 243.536 37.3348C245.825 36.4216 248.319 35.9556 250.776 36.0488C253.251 36.1234 255.689 36.7384 257.941 37.7261C260.193 38.7139 262.259 40.0744 264.157 41.6026C267.954 44.6777 271.08 48.4423 273.872 52.3747C279.399 60.314 283.568 69.0733 287.179 78.0004C294.307 95.8918 299.146 114.585 302.961 133.426C306.702 152.287 309.326 171.352 311.057 190.492C312.75 209.595 313.569 228.829 313.625 248.043ZM309.977 248.043C310.033 228.922 309.307 209.8 307.725 190.753C306.181 171.707 303.836 152.697 300.337 133.911C296.819 115.144 292.26 96.4882 285.448 78.6713C281.986 69.8002 277.985 61.0781 272.662 53.1947C269.982 49.281 266.967 45.5723 263.357 42.5531C259.783 39.5526 255.428 37.2602 250.757 37.1111C248.431 37.0366 246.123 37.5025 243.982 38.3971C241.824 39.273 239.851 40.5589 238.046 42.0685C234.435 45.0877 231.513 48.871 228.963 52.8593C223.901 60.8918 220.272 69.7815 217.183 78.8018C214.112 87.8407 211.674 97.0845 209.571 106.403C207.486 115.721 205.774 125.133 204.304 134.582C198.534 172.396 196.692 210.732 196.841 248.956C196.766 268.078 197.38 287.199 198.776 306.265C200.191 325.33 202.35 344.34 205.607 363.182C207.244 372.593 209.143 381.949 211.432 391.23C213.721 400.493 216.382 409.662 219.658 418.608C222.952 427.535 226.805 436.294 232.016 444.196C234.64 448.11 237.618 451.819 241.209 454.745C244.764 457.671 249.138 459.739 253.679 459.571C258.22 459.441 262.482 457.186 265.962 454.167C269.48 451.129 272.402 447.383 274.97 443.432C280.088 435.474 283.885 426.677 287.142 417.75C293.562 399.803 297.768 381.092 301.025 362.287C304.264 343.464 306.404 324.436 307.837 305.37C309.326 286.286 309.996 267.165 309.977 248.043Z" fill="white"/>
<path opacity="0.68" d="M410.401 248.043C410.252 272.812 407.07 297.58 400.444 321.454C393.688 345.272 383.489 368.176 369.68 388.733C355.889 409.252 338.339 427.442 317.346 440.655C306.868 447.234 295.534 452.49 283.678 456.049C271.842 459.627 259.465 461.491 247.089 461.491C234.713 461.491 222.336 459.646 210.481 456.086C198.626 452.527 187.292 447.29 176.795 440.73C155.783 427.553 138.177 409.364 124.349 388.845C110.521 368.27 100.304 345.365 93.5107 321.528C90.1607 309.582 87.6855 297.412 86.0291 285.131C84.3913 272.849 83.5724 260.455 83.5166 248.043C83.591 235.65 84.4099 223.256 86.0663 210.974C87.7227 198.693 90.2166 186.523 93.5666 174.577C100.378 150.759 110.633 127.854 124.48 107.316C138.308 86.8157 155.914 68.6634 176.907 55.5244C187.403 48.9829 198.738 43.7832 210.574 40.2422C222.392 36.6825 234.75 34.8188 247.108 34.8188C259.465 34.8375 271.804 36.7012 283.622 40.2981C295.441 43.8577 306.775 49.076 317.253 55.6176C338.227 68.7752 355.778 86.9461 369.568 107.447C383.396 127.985 393.595 150.871 400.37 174.67C407.032 198.506 410.233 223.275 410.401 248.043ZM406.213 248.043C406.195 223.648 403.18 199.215 396.759 175.658C390.32 152.138 380.623 129.401 367.261 108.956C360.579 98.7433 352.986 89.1267 344.481 80.3673C335.975 71.6266 326.558 63.706 316.266 57.1458C305.956 50.6043 294.826 45.3487 283.157 41.789C271.488 38.2294 259.298 36.3657 247.108 36.3098C234.899 36.3657 222.727 38.248 211.058 41.8263C199.389 45.4046 188.278 50.6788 177.986 57.2204C167.713 63.7992 158.333 71.7198 149.828 80.4605C141.341 89.2198 133.766 98.8551 127.104 109.068C113.76 129.513 104.1 152.212 97.6982 175.732C94.4971 187.492 92.208 199.494 90.6446 211.589C89.0813 223.685 88.2996 235.873 88.281 248.062C88.3183 260.25 89.0999 272.439 90.6819 284.534C92.2638 296.611 94.5716 308.613 97.7727 320.373C104.193 343.874 113.871 366.574 127.234 386.981C133.897 397.175 141.471 406.792 149.958 415.533C158.445 424.255 167.825 432.175 178.098 438.736C188.39 445.258 199.501 450.477 211.133 454.055C222.764 457.633 234.917 459.534 247.108 459.59C259.298 459.534 271.451 457.652 283.101 454.092C294.752 450.533 305.881 445.314 316.173 438.81C326.465 432.269 335.864 424.366 344.369 415.644C352.874 406.904 360.467 397.287 367.149 387.093C380.53 366.685 390.245 343.967 396.703 320.466C403.143 296.872 406.176 272.439 406.213 248.043Z" fill="white"/>
<path opacity="0.68" d="M57.0892 163.599C73.3925 163.357 89.6958 163.264 105.999 163.096L154.909 162.816C171.212 162.686 187.515 162.705 203.819 162.667L252.728 162.574L350.529 162.835L399.439 163.152C415.743 163.338 432.046 163.45 448.349 163.692C448.442 163.692 448.535 163.786 448.535 163.879C448.535 163.972 448.461 164.065 448.349 164.065C432.046 164.326 415.743 164.419 399.439 164.606L350.529 164.923L252.728 165.183L203.819 165.09C187.515 165.053 171.212 165.072 154.909 164.941L105.999 164.662C89.6958 164.494 73.3925 164.382 57.0892 164.158C56.9403 164.158 56.8101 164.028 56.8101 163.879C56.8101 163.711 56.9403 163.599 57.0892 163.599Z" fill="white"/>
<path opacity="0.68" d="M113.817 81.5787C125.393 81.3365 136.969 81.2433 148.526 81.0755L183.236 80.796C194.812 80.6655 206.388 80.6842 217.945 80.6469L252.655 80.5537L287.365 80.6469C298.941 80.7028 310.517 80.6655 322.074 80.8146L356.784 81.1314C368.36 81.3178 379.936 81.4296 391.493 81.6719C391.586 81.6719 391.679 81.7651 391.679 81.8583C391.679 81.9515 391.605 82.0447 391.493 82.0447C379.917 82.3056 368.341 82.3988 356.784 82.5851L322.074 82.902C310.498 83.0324 298.922 82.9951 287.365 83.0697L252.655 83.1629L217.945 83.0697C206.369 83.0324 194.793 83.051 183.236 82.9206L148.526 82.641C136.95 82.4733 125.374 82.3615 113.817 82.1378C113.668 82.1378 113.537 82.0074 113.556 81.8583C113.556 81.7092 113.668 81.5787 113.817 81.5787Z" fill="white"/>
<path opacity="0.68" d="M40.0981 245.62L93.2512 245.117L146.404 244.837C164.122 244.707 181.84 244.726 199.557 244.688L252.711 244.595L359.017 244.856L412.17 245.173C429.888 245.359 447.605 245.471 465.323 245.713C465.416 245.713 465.509 245.807 465.509 245.9C465.509 245.993 465.435 246.086 465.323 246.086C447.605 246.347 429.888 246.44 412.17 246.627L358.998 246.943L252.692 247.204L199.539 247.111C181.821 247.074 164.103 247.093 146.386 246.962L93.2326 246.683L40.0795 246.179C39.9306 246.179 39.8003 246.049 39.8003 245.9C39.8189 245.732 39.9492 245.62 40.0981 245.62Z" fill="white"/>
<path opacity="0.68" d="M57.0893 327.641C73.3926 327.399 89.6959 327.306 105.999 327.138L154.909 326.858C171.212 326.728 187.515 326.747 203.819 326.709L252.729 326.616L350.53 326.877L399.439 327.194C415.743 327.38 432.046 327.492 448.349 327.734C448.442 327.734 448.535 327.828 448.535 327.921C448.535 328.014 448.461 328.107 448.349 328.107C432.046 328.368 415.743 328.461 399.439 328.648L350.53 328.964L252.729 329.225L203.782 329.132C187.478 329.095 171.175 329.114 154.872 328.983L105.962 328.704C89.6587 328.536 73.3554 328.424 57.0521 328.2C56.9032 328.2 56.7729 328.07 56.7729 327.921C56.8102 327.753 56.9404 327.641 57.0893 327.641Z" fill="white"/>
<path opacity="0.68" d="M398.566 410.892H120.814C120.275 410.892 119.847 410.463 119.847 409.923C119.847 409.382 120.275 408.954 120.814 408.954H398.566C399.105 408.954 399.533 409.382 399.533 409.923C399.533 410.463 399.105 410.892 398.566 410.892Z" fill="white"/>
</g>
<path d="M265.05 264.146C222.301 223.555 149.997 188.443 86.5517 188.35L81.0986 254.902C82.7922 254.846 84.5045 254.828 86.2167 254.828C139.035 254.828 190.308 284.647 221.538 322.442C230.192 304.234 248.114 292.251 256.545 273.725L265.05 264.146Z" fill="#7D97F4"/>
<path d="M111.211 163.376L8.51514 213.342L23.1062 224.282H115.845L120.237 166.135L111.211 163.376Z" fill="#7D97F4"/>
<path d="M111.211 163.376L101.366 293.425L0.457024 218.691C-0.231584 218.188 -0.119918 217.144 0.643135 216.771L111.211 163.376Z" fill="url(#paint1_linear)"/>
<path d="M215.359 356.1C224.906 334.389 242.643 290.592 257.904 272.831C214.465 226.612 145.344 192.432 76.9858 192.338L71.5327 258.891C73.2263 258.835 74.9385 258.816 76.6508 258.816C132.372 258.816 205.644 298.718 215.359 356.1Z" fill="url(#paint2_linear)"/>
<path d="M244.504 277.229C244.336 277.229 244.169 277.155 244.057 277.024C232.034 262.432 213.87 248.007 191.518 235.296C191.239 235.129 191.146 234.774 191.295 234.495C191.462 234.215 191.816 234.122 192.095 234.271C214.558 247.037 232.853 261.556 244.969 276.26C245.174 276.502 245.136 276.875 244.894 277.08C244.764 277.192 244.634 277.229 244.504 277.229Z" fill="#91B3FA"/>
<path d="M184.465 231.364C184.372 231.364 184.279 231.345 184.186 231.289C170.488 224.021 156.195 217.852 141.716 212.913C141.418 212.802 141.251 212.466 141.344 212.168C141.455 211.87 141.79 211.702 142.088 211.795C156.623 216.753 170.954 222.959 184.726 230.246C185.005 230.395 185.117 230.749 184.968 231.047C184.875 231.252 184.689 231.364 184.465 231.364Z" fill="#91B3FA"/>
<path d="M133.339 210.174C133.283 210.174 133.228 210.174 133.172 210.155C124.443 207.509 115.957 205.44 107.954 204.005C107.637 203.949 107.414 203.651 107.489 203.315C107.544 202.999 107.842 202.775 108.177 202.831C116.217 204.266 124.76 206.335 133.525 209C133.842 209.093 134.009 209.428 133.916 209.726C133.823 210.006 133.581 210.174 133.339 210.174Z" fill="#91B3FA"/>
<path d="M269.796 1.85056L257.866 0.63916L260.695 6.49113L205.644 101.67H304.301L325.927 108.025L335.344 102.769L269.796 1.85056Z" fill="#7D97F4"/>
<path d="M237.673 93.0405V215.466C248.449 224.281 249.771 258.834 259.579 269.588C270.466 258.965 291.18 236.544 304.822 228.4V93.0405H237.673Z" fill="#7D97F4"/>
<path d="M197.808 108.137H325.926L258.443 0.639173C258.312 0.415531 257.978 0.434167 257.866 0.65781L196.747 106.31C196.263 107.112 196.859 108.137 197.808 108.137Z" fill="url(#paint3_linear)"/>
<path d="M225.464 99.5078V244.093C237.673 252.908 246.941 265.525 256.749 276.26C267.637 265.637 280.404 243.869 293.692 235.482V99.5078H225.464Z" fill="url(#paint4_linear)"/>
<path d="M226.19 105.49H204.694C204.192 105.49 203.764 105.229 203.503 104.8C203.261 104.372 203.242 103.869 203.484 103.421L255.744 10.1252C255.912 9.84565 256.265 9.73383 256.544 9.90156C256.824 10.0693 256.935 10.4234 256.768 10.7029L204.508 103.999C204.452 104.092 204.489 104.167 204.508 104.204C204.527 104.241 204.582 104.297 204.676 104.297H226.171C226.488 104.297 226.748 104.558 226.748 104.875C226.767 105.229 226.506 105.49 226.19 105.49Z" fill="#91B3FA"/>
<path d="M456.316 190.455C357.845 190.586 273.556 245.862 237.097 333.232V333.251C237.059 333.325 237.022 333.418 237.004 333.493H237.041C217.909 375.575 229.373 446.805 230.88 519.843H296.447H299.239C302.235 519.843 304.636 517.308 304.469 514.308C301.491 458.938 298.922 403.251 306.758 356.752C309.233 342.029 315.635 328.219 325.294 316.72C356.524 279.521 403.758 255.815 456.651 255.815C458.363 255.815 460.075 255.796 461.769 255.852L456.316 190.455Z" fill="#7D97F4"/>
<path d="M442.377 185.833C442.302 184.995 441.595 184.342 440.758 184.342C342.938 185.05 259.3 240.905 223.027 329.803C222.99 329.878 222.953 329.952 222.934 330.027H222.971C204.137 372.221 214.968 443.208 216.736 516.377C216.792 518.296 218.337 519.824 220.273 519.824H289.543C290.473 519.824 291.199 519.042 291.143 518.129C287.998 457.633 284.388 404.406 292.632 354.124C295.126 338.861 301.64 324.51 311.504 312.601C342.733 274.899 389.856 250.876 442.6 250.876C443.717 250.876 444.833 250.876 445.95 250.876C446.899 250.895 447.644 250.074 447.569 249.124L442.377 185.833Z" fill="url(#paint5_linear)"/>
<path d="M522.739 223.61L522.999 223.424L520.561 209.968L520.338 209.856L520.301 209.614L520.059 209.726L420.788 161.792L427.636 252.199L425.906 252.982L417.884 285.466L428.102 293.666L430.633 291.803V291.84L522.664 223.685L522.739 223.61Z" fill="#7D97F4"/>
<path d="M408.039 155.399L417.884 285.466L520.301 209.614L408.039 155.399Z" fill="url(#paint6_linear)"/>
<g opacity="0.3">
<path opacity="0.3" d="M119.829 111.212C118.786 111.212 117.893 110.429 117.781 109.367C117.539 107.056 117.391 104.708 117.353 102.359C117.335 101.223 118.228 100.291 119.363 100.272C119.382 100.272 119.382 100.272 119.401 100.272C120.517 100.272 121.429 101.167 121.448 102.285C121.485 104.503 121.634 106.739 121.857 108.938C121.969 110.075 121.15 111.081 120.033 111.193C119.977 111.212 119.903 111.212 119.829 111.212ZM119.977 93.2832C119.903 93.2832 119.81 93.2832 119.736 93.2646C118.6 93.1341 117.8 92.1091 117.93 90.9722C118.209 88.6613 118.582 86.3317 119.047 84.058C119.27 82.9398 120.35 82.2316 121.466 82.4552C122.583 82.6788 123.29 83.7784 123.067 84.878C122.62 87.0399 122.267 89.2577 122.006 91.4568C121.876 92.5191 121.001 93.2832 119.977 93.2832ZM124.035 75.8391C123.811 75.8391 123.569 75.8018 123.346 75.7273C122.285 75.3545 121.727 74.1618 122.099 73.0995C122.881 70.9003 123.756 68.7198 124.723 66.5952C125.189 65.5702 126.417 65.1043 127.441 65.5702C128.464 66.0361 128.929 67.2662 128.464 68.2912C127.552 70.304 126.715 72.3727 125.97 74.46C125.672 75.3173 124.891 75.8391 124.035 75.8391ZM131.907 59.7369C131.535 59.7369 131.144 59.625 130.809 59.42C129.86 58.805 129.581 57.5377 130.176 56.5872C131.423 54.6304 132.782 52.6921 134.196 50.8471C134.885 49.9525 136.169 49.7661 137.081 50.4557C137.974 51.1453 138.16 52.4312 137.472 53.3444C136.132 55.0963 134.848 56.9413 133.657 58.805C133.247 59.4014 132.577 59.7369 131.907 59.7369ZM143.148 45.7965C142.627 45.7965 142.087 45.5915 141.678 45.1815C140.878 44.3801 140.896 43.0755 141.697 42.2741C143.353 40.6341 145.102 39.0499 146.889 37.559C147.764 36.8322 149.048 36.944 149.774 37.8199C150.5 38.6958 150.388 39.9818 149.513 40.7086C147.82 42.125 146.145 43.6346 144.581 45.1815C144.209 45.5915 143.669 45.7965 143.148 45.7965ZM157.2 34.7076C156.511 34.7076 155.841 34.3721 155.45 33.7384C154.855 32.7693 155.152 31.502 156.102 30.9056C158.074 29.6756 160.121 28.5201 162.206 27.4578C163.211 26.936 164.458 27.346 164.96 28.3524C165.481 29.3588 165.072 30.6074 164.067 31.1106C162.094 32.117 160.14 33.2166 158.279 34.3907C157.944 34.5957 157.572 34.7076 157.2 34.7076ZM232.481 29.8061C232.202 29.8061 231.904 29.7502 231.625 29.6197C229.615 28.7065 227.531 27.8678 225.446 27.1224C224.385 26.7496 223.808 25.5755 224.199 24.4946C224.572 23.4323 225.744 22.8545 226.824 23.2459C229.02 24.0286 231.216 24.9046 233.319 25.8737C234.361 26.3396 234.808 27.5696 234.342 28.5947C234.007 29.3588 233.263 29.8061 232.481 29.8061ZM173.354 26.9919C172.498 26.9919 171.698 26.4514 171.418 25.6128C171.046 24.5318 171.623 23.3763 172.684 23.0036C174.88 22.2395 177.132 21.5686 179.403 21.0095C180.501 20.7299 181.617 21.4008 181.896 22.5004C182.176 23.6 181.506 24.7182 180.408 24.9978C178.267 25.5382 176.127 26.1719 174.043 26.8987C173.801 26.9546 173.577 26.9919 173.354 26.9919ZM215.471 24.2709C215.34 24.2709 215.192 24.2523 215.061 24.2336C212.902 23.7864 210.688 23.4323 208.492 23.19C207.356 23.0595 206.556 22.0345 206.686 20.9163C206.817 19.7794 207.84 18.978 208.957 19.1085C211.265 19.3694 213.591 19.7422 215.88 20.2081C216.997 20.4317 217.704 21.5127 217.481 22.6309C217.276 23.6 216.42 24.2709 215.471 24.2709ZM190.811 23.0968C189.769 23.0968 188.876 22.314 188.764 21.2517C188.652 20.1149 189.453 19.1085 190.588 18.978C192.896 18.7358 195.241 18.5867 197.586 18.5308C197.604 18.5308 197.623 18.5308 197.623 18.5308C198.739 18.5308 199.651 19.4253 199.67 20.5435C199.689 21.6804 198.795 22.6122 197.66 22.6495C195.445 22.6868 193.212 22.8359 191.016 23.0782C190.96 23.0968 190.886 23.0968 190.811 23.0968Z" fill="#91B3FA"/>
<path opacity="0.3" d="M245.024 36.9438C244.614 36.9438 244.205 36.832 243.851 36.5711C242.977 35.956 242.083 35.3597 241.19 34.8006C240.241 34.1855 239.943 32.9182 240.557 31.9678C241.171 31.0173 242.437 30.7191 243.386 31.3341C244.335 31.9305 245.266 32.5641 246.196 33.1978C247.127 33.8501 247.35 35.136 246.718 36.0679C246.308 36.627 245.675 36.9438 245.024 36.9438Z" fill="#91B3FA"/>
</g>
<g opacity="0.3">
<path opacity="0.3" d="M278.396 90.0219C277.409 90.0219 276.535 89.2951 276.367 88.2887C276.2 87.245 276.014 86.1827 275.79 85.139C275.567 84.0208 276.274 82.9399 277.391 82.7162C278.507 82.4926 279.587 83.2194 279.81 84.319C280.033 85.4186 280.238 86.5368 280.406 87.6364C280.592 88.7546 279.829 89.8169 278.693 89.9846C278.619 90.0033 278.507 90.0219 278.396 90.0219Z" fill="#91B3FA"/>
<path opacity="0.3" d="M199.484 182.871C198.535 182.871 197.586 182.852 196.637 182.815C195.502 182.778 194.608 181.827 194.646 180.69C194.683 179.553 195.632 178.659 196.767 178.696C198.963 178.771 201.159 178.752 203.318 178.64C204.454 178.584 205.421 179.46 205.477 180.597C205.533 181.734 204.658 182.703 203.523 182.759C202.202 182.852 200.843 182.871 199.484 182.871ZM185.861 181.715C185.75 181.715 185.638 181.697 185.508 181.678C183.256 181.287 180.985 180.802 178.77 180.224C177.672 179.945 177.021 178.827 177.3 177.727C177.579 176.627 178.715 175.956 179.813 176.255C181.916 176.795 184.075 177.261 186.215 177.634C187.331 177.82 188.076 178.882 187.89 180.001C187.704 181.007 186.829 181.715 185.861 181.715ZM214.262 181.492C213.294 181.492 212.438 180.802 212.252 179.814C212.047 178.696 212.773 177.615 213.889 177.41C216.03 177 218.17 176.516 220.273 175.919C221.371 175.621 222.506 176.255 222.804 177.354C223.102 178.454 222.469 179.591 221.371 179.889C219.156 180.504 216.904 181.026 214.652 181.454C214.522 181.492 214.392 181.492 214.262 181.492ZM168.925 176.851C168.665 176.851 168.404 176.795 168.143 176.702C166.022 175.826 163.919 174.857 161.89 173.813C160.885 173.291 160.476 172.061 160.997 171.036C161.518 170.03 162.746 169.62 163.77 170.142C165.705 171.13 167.697 172.061 169.707 172.9C170.749 173.329 171.252 174.54 170.823 175.584C170.488 176.366 169.725 176.851 168.925 176.851ZM231.105 176.348C230.304 176.348 229.56 175.882 229.225 175.099C228.778 174.055 229.262 172.844 230.304 172.397C232.296 171.54 234.287 170.57 236.204 169.545C237.209 169.005 238.456 169.378 238.977 170.384C239.517 171.39 239.145 172.639 238.14 173.161C236.111 174.242 234.027 175.248 231.942 176.161C231.644 176.292 231.365 176.348 231.105 176.348ZM246.384 167.607C245.752 167.607 245.119 167.309 244.728 166.768C244.058 165.855 244.263 164.569 245.175 163.898C246.943 162.612 248.655 161.252 250.311 159.836C251.167 159.09 252.47 159.183 253.215 160.041C253.959 160.898 253.866 162.202 253.01 162.948C251.279 164.439 249.455 165.893 247.613 167.234C247.24 167.477 246.812 167.607 246.384 167.607ZM259.412 155.735C258.928 155.735 258.444 155.568 258.053 155.214C257.197 154.468 257.123 153.164 257.867 152.306C259.3 150.666 260.696 148.952 261.999 147.218C262.669 146.305 263.953 146.119 264.865 146.79C265.777 147.461 265.963 148.765 265.293 149.66C263.934 151.505 262.464 153.294 260.957 155.027C260.547 155.512 259.989 155.735 259.412 155.735ZM269.555 141.311C269.22 141.311 268.885 141.236 268.569 141.05C267.582 140.509 267.21 139.26 267.75 138.254C268.792 136.353 269.778 134.359 270.653 132.383C271.118 131.34 272.328 130.874 273.37 131.34C274.412 131.806 274.878 133.017 274.412 134.061C273.482 136.148 272.458 138.235 271.342 140.248C270.988 140.938 270.281 141.311 269.555 141.311ZM276.274 125.003C276.087 125.003 275.901 124.985 275.697 124.929C274.599 124.612 273.984 123.475 274.282 122.375C274.878 120.288 275.399 118.145 275.827 116.002C276.05 114.883 277.13 114.157 278.246 114.38C279.363 114.604 280.089 115.685 279.866 116.803C279.419 119.058 278.879 121.313 278.246 123.512C277.986 124.426 277.167 125.003 276.274 125.003ZM279.27 107.634C279.233 107.634 279.177 107.634 279.14 107.634C278.004 107.559 277.148 106.59 277.223 105.453C277.316 103.85 277.372 102.229 277.372 100.626C277.372 100.049 277.372 99.4708 277.353 98.893C277.334 97.7562 278.228 96.8243 279.363 96.7871C280.517 96.7311 281.429 97.663 281.466 98.7998C281.485 99.4149 281.485 100.011 281.485 100.626C281.485 102.304 281.429 104.018 281.336 105.695C281.243 106.795 280.331 107.634 279.27 107.634Z" fill="#91B3FA"/>
<path opacity="0.3" d="M153.441 168.334C153.031 168.334 152.622 168.204 152.268 167.961C151.356 167.328 150.444 166.657 149.551 165.967C148.658 165.278 148.472 163.992 149.179 163.079C149.867 162.184 151.152 161.998 152.064 162.706C152.92 163.358 153.776 163.992 154.65 164.607C155.581 165.259 155.804 166.545 155.153 167.477C154.725 168.036 154.073 168.334 153.441 168.334Z" fill="#91B3FA"/>
</g>
<path d="M156.213 144.479C156.474 144.796 156.902 144.907 157.292 144.777L168.254 140.733C172.572 144.069 177.467 146.734 182.771 148.56L185.451 159.947C185.544 160.339 185.879 160.637 186.288 160.693L200.228 162.109C200.637 162.146 201.028 161.923 201.196 161.55L206.091 150.927C211.655 150.2 216.978 148.579 221.891 146.175L231.83 152.343C232.183 152.567 232.63 152.53 232.946 152.269L243.815 143.398C244.131 143.137 244.243 142.708 244.113 142.317L240.074 131.34C243.406 127.016 246.067 122.114 247.891 116.803L259.262 114.119C259.653 114.026 259.951 113.691 260.007 113.281L261.421 99.3216C261.458 98.9116 261.235 98.5202 260.863 98.3525L250.255 93.451C249.529 87.8785 247.91 82.5484 245.509 77.6283L251.669 67.6762C251.892 67.3221 251.855 66.8748 251.595 66.558L242.736 55.6741C242.475 55.3572 242.047 55.2454 241.656 55.3759L230.694 59.4201C226.377 56.0841 221.482 53.419 216.178 51.5926L213.498 40.2055C213.405 39.8141 213.07 39.5159 212.66 39.46L198.721 38.0436C198.311 38.0063 197.92 38.23 197.753 38.6027L192.858 49.2257C187.293 49.9525 181.971 51.5739 177.057 53.9781L167.119 47.8093C166.765 47.5857 166.319 47.6229 166.002 47.8838L155.134 56.755C154.817 57.0159 154.705 57.4446 154.836 57.8359L158.874 68.813C155.543 73.1368 152.882 78.0383 151.058 83.3498L139.686 86.0335C139.296 86.1267 138.998 86.4621 138.942 86.8722L137.527 100.831C137.49 101.241 137.714 101.633 138.086 101.8L148.694 106.702C149.42 112.274 151.039 117.604 153.44 122.524L147.28 132.477C147.056 132.831 147.094 133.278 147.354 133.595L156.213 144.479Z" fill="#BDD0FB"/>
<path d="M199.447 114.194C192.579 114.194 186.549 109.143 185.507 102.136C184.372 94.4385 189.713 87.2447 197.4 86.1265C201.122 85.5674 204.844 86.5179 207.859 88.7543C210.874 91.0093 212.847 94.2894 213.386 98.0168C214.522 105.714 209.18 112.908 201.494 114.026C200.824 114.138 200.135 114.194 199.447 114.194ZM199.484 89.2575C198.944 89.2575 198.423 89.2948 197.883 89.3693C191.984 90.2452 187.908 95.7431 188.764 101.651C189.639 107.559 195.129 111.64 201.029 110.783C206.928 109.907 211.004 104.409 210.148 98.5014C209.72 95.6499 208.213 93.1153 205.905 91.4007C204.025 89.9843 201.792 89.2575 199.484 89.2575Z" fill="url(#paint7_linear)"/>
<path d="M199.745 134.564C198.573 134.564 197.382 134.508 196.19 134.377C195.818 134.34 195.446 134.303 195.074 134.247C193.231 134.005 191.426 133.613 189.658 133.073C189.639 133.073 189.602 133.054 189.584 133.054C189.509 133.036 189.453 133.017 189.379 132.998C189.249 132.961 189.118 132.924 188.988 132.868C188.634 132.756 188.411 132.439 188.411 132.085C188.411 131.992 188.43 131.917 188.448 131.824C188.597 131.396 189.044 131.153 189.491 131.302C191.705 132.029 194.032 132.514 196.377 132.737C208.008 133.911 218.859 128.861 225.633 120.288C229.393 115.517 231.886 109.665 232.538 103.179C232.649 102.042 232.705 100.906 232.705 99.7874C232.705 92.2022 230.118 84.9152 225.261 78.9514C219.696 72.1116 211.787 67.8624 203.021 66.9678C184.912 65.1414 168.702 78.3923 166.86 96.5259C166.748 97.6441 166.692 98.7623 166.692 99.8806C166.692 104.726 167.753 109.497 169.8 113.877C169.856 113.989 169.875 114.1 169.875 114.231C169.875 114.548 169.707 114.827 169.409 114.976C169 115.163 168.516 114.995 168.311 114.585C166.152 109.982 165.036 104.968 165.036 99.8806C165.036 98.7064 165.091 97.5323 165.222 96.3582C167.139 77.3299 184.186 63.4082 203.188 65.3278C212.401 66.2596 220.683 70.7325 226.545 77.9077C231.645 84.151 234.343 91.8108 234.362 99.7687C234.362 100.943 234.306 102.136 234.176 103.328C233.245 112.554 228.778 120.847 221.613 126.718C215.341 131.843 207.692 134.564 199.745 134.564Z" fill="url(#paint8_linear)"/>
<g opacity="0.3">
<path opacity="0.3" d="M49.7197 165.427C49.18 165.427 48.6589 165.073 48.51 164.514C48.2122 163.47 47.9331 162.426 47.6911 161.364C47.5422 160.674 47.9517 160.003 48.6403 159.836C49.3289 159.668 49.9989 160.115 50.1664 160.786C50.3897 161.793 50.6503 162.799 50.948 163.787C51.1528 164.458 50.7619 165.166 50.0919 165.371C49.9617 165.408 49.85 165.427 49.7197 165.427Z" fill="#91B3FA"/>
<path opacity="0.3" d="M47.8597 155.829C47.2083 155.829 46.6686 155.344 46.5941 154.692C46.408 152.847 46.3149 150.964 46.3149 149.101C46.3149 148.709 46.3149 148.318 46.3336 147.927C46.3522 147.218 46.9663 146.697 47.6363 146.678C48.3435 146.697 48.9019 147.274 48.8833 147.983C48.8833 148.355 48.8647 148.728 48.8647 149.101C48.8647 150.871 48.9577 152.66 49.1438 154.431C49.2183 155.121 48.7158 155.754 48.0085 155.829C47.9341 155.829 47.8969 155.829 47.8597 155.829ZM48.1388 142.634C48.083 142.634 48.0085 142.634 47.9527 142.615C47.2641 142.522 46.7802 141.87 46.8733 141.18C47.1897 138.944 47.6549 136.726 48.2505 134.564C48.4366 133.893 49.1438 133.483 49.8138 133.669C50.4838 133.856 50.8933 134.545 50.7071 135.235C50.1488 137.304 49.7022 139.428 49.4044 141.553C49.2927 142.187 48.753 142.634 48.1388 142.634ZM51.6005 129.905C51.433 129.905 51.2841 129.868 51.1166 129.812C50.4652 129.551 50.1674 128.805 50.428 128.153C51.2841 126.066 52.2705 124.034 53.3871 122.059C53.7407 121.444 54.5038 121.239 55.118 121.574C55.7321 121.928 55.9368 122.692 55.6019 123.307C54.541 125.171 53.5919 127.128 52.7916 129.103C52.5683 129.607 52.103 129.905 51.6005 129.905ZM58.0771 118.425C57.8166 118.425 57.556 118.35 57.3141 118.182C56.7557 117.772 56.6255 116.971 57.0535 116.412C58.3935 114.604 59.8638 112.871 61.4085 111.231C61.8924 110.727 62.6927 110.709 63.1952 111.193C63.6977 111.678 63.7163 112.479 63.2324 112.983C61.7621 114.529 60.3663 116.188 59.0821 117.921C58.8588 118.257 58.468 118.425 58.0771 118.425ZM67.1593 108.882C66.7871 108.882 66.4335 108.715 66.1729 108.417C65.7263 107.876 65.8007 107.075 66.3404 106.627C68.0713 105.192 69.9137 103.869 71.8121 102.676C72.4076 102.304 73.1893 102.471 73.5615 103.068C73.9337 103.664 73.7662 104.447 73.1707 104.82C71.3654 105.975 69.5974 107.242 67.941 108.603C67.7363 108.771 67.4571 108.882 67.1593 108.882ZM78.2887 101.819C77.8048 101.819 77.3582 101.558 77.1348 101.092C76.8371 100.459 77.1162 99.6944 77.749 99.3962C79.7776 98.4271 81.8993 97.5885 84.0209 96.8989C84.6909 96.6753 85.3981 97.048 85.6215 97.7189C85.8448 98.3899 85.4726 99.0981 84.8026 99.3217C82.774 99.9926 80.764 100.794 78.8284 101.707C78.6609 101.782 78.4748 101.819 78.2887 101.819ZM90.7953 97.7003C90.1998 97.7003 89.6787 97.2716 89.5484 96.6753C89.4181 95.9857 89.8648 95.3148 90.5534 95.1843C92.7495 94.7557 95.0014 94.4575 97.2534 94.2897C97.9606 94.2525 98.5561 94.7743 98.612 95.4639C98.6678 96.1721 98.1281 96.7685 97.4395 96.8244C95.2992 96.9735 93.1403 97.253 91.0559 97.663C90.9628 97.7003 90.8884 97.7003 90.7953 97.7003ZM110.504 97.5512C110.43 97.5512 110.356 97.5512 110.281 97.5326C108.457 97.2157 106.596 96.9735 104.716 96.843C104.437 96.8244 104.158 96.8057 103.879 96.7871C103.172 96.7498 102.632 96.1534 102.669 95.4452C102.706 94.737 103.302 94.1779 104.009 94.2338C104.307 94.2525 104.605 94.2711 104.903 94.2897C106.857 94.4202 108.811 94.6625 110.728 94.998C111.416 95.1284 111.882 95.7807 111.751 96.4703C111.64 97.1039 111.1 97.5512 110.504 97.5512Z" fill="#91B3FA"/>
</g>
<g opacity="0.3">
<path opacity="0.3" d="M101.851 203.93C101.162 203.93 100.585 203.371 100.585 202.682C100.585 201.974 101.143 201.396 101.832 201.396C103.935 201.377 106.075 201.209 108.141 200.93C108.83 200.837 109.481 201.321 109.574 202.011C109.667 202.7 109.183 203.353 108.495 203.446C106.317 203.744 104.084 203.893 101.851 203.93C101.869 203.93 101.869 203.93 101.851 203.93ZM95.374 203.632C95.3368 203.632 95.2809 203.632 95.2437 203.632C93.0476 203.39 90.8515 203.017 88.6926 202.533C88.004 202.365 87.576 201.694 87.7435 201.004C87.8924 200.315 88.581 199.905 89.2696 200.054C91.3168 200.52 93.4198 200.893 95.5229 201.116C96.2115 201.191 96.7326 201.824 96.6395 202.514C96.5651 203.148 96.0068 203.632 95.374 203.632ZM114.692 202.197C114.134 202.197 113.613 201.824 113.464 201.247C113.278 200.576 113.687 199.868 114.376 199.7C116.423 199.159 118.452 198.488 120.406 197.724C121.057 197.463 121.802 197.78 122.062 198.433C122.323 199.085 122.006 199.83 121.355 200.091C119.308 200.911 117.186 201.601 115.046 202.16C114.916 202.179 114.804 202.197 114.692 202.197ZM82.7371 200.688C82.5882 200.688 82.4393 200.669 82.309 200.613C80.2246 199.849 78.1774 198.954 76.2232 197.948C75.5905 197.631 75.3485 196.867 75.6649 196.233C75.9813 195.618 76.7443 195.357 77.3771 195.674C79.2568 196.625 81.211 197.482 83.1838 198.209C83.8352 198.451 84.1888 199.178 83.9468 199.83C83.7421 200.371 83.2582 200.688 82.7371 200.688ZM126.734 197.408C126.287 197.408 125.84 197.165 125.617 196.755C125.282 196.14 125.505 195.376 126.119 195.022C127.962 194.016 129.767 192.879 131.479 191.649C132.056 191.239 132.838 191.369 133.247 191.947C133.657 192.525 133.527 193.307 132.95 193.717C131.144 195.003 129.265 196.196 127.329 197.258C127.143 197.352 126.938 197.408 126.734 197.408ZM137.267 189.86C136.932 189.86 136.579 189.729 136.337 189.45C135.872 188.928 135.89 188.126 136.411 187.66C137.975 186.225 139.445 184.697 140.822 183.094C141.287 182.554 142.088 182.498 142.609 182.964C143.149 183.43 143.204 184.231 142.739 184.753C141.306 186.43 139.743 188.033 138.124 189.543C137.882 189.748 137.584 189.86 137.267 189.86ZM145.698 180.001C145.456 180.001 145.214 179.926 144.991 179.796C144.414 179.404 144.247 178.622 144.637 178.025C145.81 176.273 146.871 174.428 147.82 172.546C148.136 171.912 148.899 171.67 149.532 171.987C150.165 172.304 150.407 173.068 150.09 173.701C149.104 175.677 147.969 177.615 146.759 179.46C146.517 179.796 146.108 180.001 145.698 180.001Z" fill="#91B3FA"/>
<path opacity="0.3" d="M71.1427 194.761C70.9007 194.761 70.6588 194.687 70.4354 194.538C69.5421 193.923 68.6488 193.289 67.8113 192.637C67.2529 192.208 67.1413 191.407 67.5693 190.847C67.9974 190.288 68.7977 190.195 69.356 190.605C70.1563 191.22 71.0124 191.835 71.8685 192.413C72.4454 192.804 72.5943 193.606 72.2035 194.184C71.9616 194.556 71.5521 194.761 71.1427 194.761Z" fill="#91B3FA"/>
</g>
<path d="M72.2031 178.342C72.3706 178.547 72.6684 178.64 72.929 178.547L80.2617 175.845C83.1464 178.081 86.422 179.87 89.9767 181.082L91.7633 188.704C91.8192 188.965 92.0425 189.17 92.3217 189.189L101.646 190.139C101.925 190.158 102.186 190.027 102.297 189.767L105.573 182.666C109.295 182.181 112.868 181.082 116.144 179.479L122.788 183.598C123.03 183.747 123.328 183.728 123.532 183.542L130.791 177.597C130.995 177.429 131.088 177.131 130.995 176.87L128.297 169.527C130.53 166.638 132.317 163.358 133.527 159.798L141.138 158.009C141.399 157.953 141.604 157.73 141.622 157.45L142.571 148.113C142.59 147.834 142.46 147.573 142.199 147.461L135.108 144.181C134.625 140.453 133.527 136.875 131.926 133.595L136.039 126.942C136.188 126.699 136.169 126.401 135.983 126.196L130.083 118.909C129.916 118.704 129.618 118.611 129.358 118.704L122.025 121.407C119.14 119.17 115.865 117.381 112.31 116.17L110.523 108.547C110.467 108.286 110.244 108.081 109.965 108.063L100.641 107.112C100.362 107.093 100.101 107.224 99.9894 107.485L96.7139 114.585C92.9917 115.07 89.4184 116.17 86.1428 117.772L79.4987 113.654C79.2567 113.505 78.959 113.523 78.7542 113.71L71.4959 119.655C71.2912 119.822 71.1981 120.121 71.2912 120.382L73.9898 127.724C71.7565 130.613 69.9698 133.893 68.7601 137.453L61.1482 139.242C60.8876 139.298 60.6829 139.522 60.6643 139.801L59.7151 149.138C59.6965 149.418 59.8268 149.679 60.0873 149.79L67.1782 153.071C67.662 156.798 68.7601 160.376 70.3606 163.656L66.2476 170.31C66.0987 170.552 66.1173 170.85 66.3034 171.055L72.2031 178.342Z" fill="#BDD0FB"/>
<path d="M101.125 158.252C99.078 158.252 97.0866 157.599 95.4116 156.351C93.3458 154.823 92.0244 152.586 91.6336 150.033C90.8705 144.796 94.4997 139.894 99.7294 139.13C104.978 138.366 109.854 142 110.617 147.237C110.989 149.772 110.356 152.307 108.83 154.375C107.304 156.444 105.071 157.786 102.521 158.159C102.074 158.214 101.59 158.252 101.125 158.252ZM101.144 141.553C100.809 141.553 100.455 141.572 100.102 141.628C96.2491 142.205 93.5877 145.802 94.146 149.66C94.4252 151.524 95.4116 153.182 96.9191 154.301C98.4266 155.419 100.288 155.885 102.167 155.624C104.029 155.344 105.685 154.357 106.802 152.847C107.918 151.337 108.402 149.474 108.123 147.591C107.62 144.088 104.587 141.553 101.144 141.553Z" fill="url(#paint9_linear)"/>
<path d="M101.31 172.434C100.51 172.434 99.6912 172.397 98.8909 172.304C97.2717 172.136 95.6712 171.819 94.1265 171.316C94.052 171.297 93.9962 171.279 93.9217 171.241C93.382 171.074 93.047 170.57 93.047 170.03C93.047 169.9 93.0656 169.769 93.1028 169.639C93.3262 168.968 94.0334 168.614 94.7034 168.819C96.1365 169.285 97.6439 169.601 99.1514 169.75C99.2259 169.75 99.3189 169.769 99.3934 169.769C102.985 170.105 106.503 169.527 109.723 168.129C111.472 167.384 113.128 166.377 114.654 165.166C114.673 165.147 114.673 165.147 114.692 165.129C114.729 165.091 114.766 165.073 114.803 165.035C119.233 161.42 121.969 156.295 122.546 150.61C122.62 149.884 122.657 149.138 122.657 148.411C122.657 143.51 120.982 138.776 117.837 134.918C114.226 130.483 109.108 127.743 103.432 127.165C97.7556 126.587 92.1909 128.265 87.7615 131.88C83.3321 135.496 80.5962 140.621 80.0193 146.305C79.9448 147.032 79.9076 147.759 79.9076 148.467C79.9076 151.598 80.5962 154.692 81.9176 157.525C81.9921 157.692 82.0293 157.879 82.0293 158.065C82.0293 158.55 81.7687 158.997 81.3034 159.221C80.6707 159.519 79.9076 159.239 79.6098 158.606C78.121 155.437 77.3579 151.971 77.3579 148.467C77.3579 147.666 77.3951 146.846 77.4882 146.044C78.1396 139.689 81.2104 133.949 86.1609 129.905C91.1115 125.861 97.3276 123.978 103.674 124.631C110.02 125.283 115.752 128.358 119.791 133.315C123.309 137.621 125.17 142.913 125.17 148.393C125.17 149.213 125.132 150.033 125.039 150.853C123.83 163.228 113.408 172.434 101.31 172.434Z" fill="url(#paint10_linear)"/>
<path d="M171.586 508.307C165.872 508.81 155.934 509.612 148.117 509.947C143.409 510.152 140.71 509.686 139.147 509.071C139.147 509.239 139.147 509.407 139.166 509.574C139.203 510.394 139.873 511.065 140.71 511.103C155.506 511.923 167.25 511.382 171.437 511.14C172.312 511.084 172.814 510.152 172.368 509.407C172.163 509.034 171.884 508.661 171.586 508.307Z" fill="url(#paint11_linear)"/>
<path d="M148.116 509.947C155.933 509.593 165.871 508.792 171.585 508.307C165.964 501.393 148.116 496.734 148.116 496.734H143.073C139.611 501.747 139.109 506.5 139.146 509.071C140.709 509.705 143.426 510.171 148.116 509.947Z" fill="url(#paint12_linear)"/>
<path d="M142.236 488.496L142.702 497.852C142.757 498.858 143.502 499.715 144.525 499.865C145.53 500.014 146.889 500.032 148.304 499.548C149.178 499.25 149.83 498.504 149.997 497.61L151.635 488.515H142.236V488.496Z" fill="url(#paint13_linear)"/>
<path d="M83.7233 519.098C81.2481 518.65 80.1128 516.992 79.6475 515.203C79.6475 515.221 79.6475 515.24 79.6475 515.259C79.2753 517.141 80.1314 519.079 81.825 520.011C83.8722 521.129 86.1056 521.315 87.8364 521.222C89.6975 521.129 91.4097 520.123 92.3403 518.539L92.3589 518.52C90.4792 519.694 87.855 519.843 83.7233 519.098Z" fill="url(#paint14_linear)"/>
<path d="M95.4291 491.385H91.2788C84.9511 491.217 80.9683 508.494 79.6655 515.203C80.1308 516.992 81.2661 518.651 83.7413 519.098C87.873 519.843 90.4972 519.713 92.3769 518.502C95.8013 512.668 97.4949 504.151 98.3138 499.157C99.2071 493.491 95.4291 491.385 95.4291 491.385Z" fill="url(#paint15_linear)"/>
<path d="M91.7997 482.7L89.492 491.888C89.2128 493.006 89.7525 494.18 90.7947 494.721C92.0789 495.392 93.9028 496.081 95.5778 495.876C96.3595 495.783 97.0108 495.224 97.2714 494.479L100.659 484.806L91.7997 482.7Z" fill="url(#paint16_linear)"/>
<path d="M172.999 361.616C172.999 361.616 152.378 490.751 152.713 491.459C152.713 491.459 147.018 494.05 140.802 491.795C140.802 491.795 142.663 422.764 147.037 396.3C147.037 396.3 111.824 458.006 100.658 488.738C100.658 488.738 94.8325 488.049 89.9937 484.862C89.9937 484.862 127.904 373.805 138.01 359.026L172.999 361.616Z" fill="url(#paint17_linear)"/>
<path d="M147.856 395.61C147.744 395.61 147.633 395.573 147.54 395.517C147.261 395.331 147.168 394.958 147.354 394.679L155.059 382.341C155.152 382.192 155.282 382.099 155.449 382.061L161.126 380.925C161.461 380.85 161.777 381.074 161.852 381.409C161.926 381.745 161.703 382.061 161.368 382.136L155.952 383.236L148.377 395.349C148.266 395.517 148.061 395.61 147.856 395.61Z" fill="url(#paint18_linear)"/>
<path d="M267.674 235.166C267.674 235.166 253.753 238.241 245.285 242.154C243.61 242.937 242.27 244.298 241.507 245.975C238.976 251.529 231.401 265.45 216.699 272.104C218.82 274.918 222.226 280.77 223.696 290.592C232.518 284.013 240.13 273.036 243.796 255.014C243.796 255.014 246.588 256.523 250.05 254.846C251.892 253.951 254.014 252.684 255.596 251.696C257.178 250.709 258.369 249.162 258.816 247.354C259.43 244.968 259.057 242.881 259.057 240.645L266.204 238.427C266.241 238.427 268.382 237.607 267.674 235.166Z" fill="url(#paint19_linear)"/>
<path d="M223.697 290.592C222.208 280.751 218.802 274.918 216.699 272.104C207.58 276.241 195.706 277.546 180.575 272.309C179.18 271.824 177.728 271.545 176.258 271.452C168.218 270.986 141.678 270.11 119.736 277.378C115.12 278.906 111.379 282.317 109.444 286.752C103.507 300.395 93.9037 331.462 120.573 347.155C122.621 342.067 124.984 337.967 127.013 334.947C122.714 327.698 121.448 317.783 129.06 304.868C134.625 319.907 137.23 341.843 137.77 351.553C137.956 354.758 137.398 357.945 136.132 360.89L136.002 361.207C135.741 361.84 136.095 362.567 136.784 362.716C151.803 366.09 167.436 365.176 172.089 364.785C172.926 364.71 173.615 364.114 173.801 363.313C181.096 332.487 181.115 311.465 179.328 298.177C186.196 299.724 207.096 302.985 223.697 290.592Z" fill="#BDD0FB"/>
<path d="M179.385 299.015C179.087 299.015 178.826 298.792 178.789 298.494C177.077 285.522 173.578 279.857 173.541 279.801C173.355 279.521 173.448 279.149 173.727 278.962C174.006 278.776 174.378 278.869 174.564 279.149C174.713 279.391 178.231 285.056 179.98 298.345C180.017 298.68 179.794 298.978 179.459 299.034C179.44 299.015 179.422 299.015 179.385 299.015Z" fill="#91B3FA"/>
<path d="M142.329 253.504C142.329 253.504 140.803 269.588 139.463 274.359C139.258 275.085 139.575 275.85 140.226 276.222C142.497 277.527 147.95 279.633 155.394 275.98C156.604 275.384 157.33 274.135 157.274 272.793L156.622 257.25L142.329 253.504Z" fill="url(#paint20_linear)"/>
<path d="M156.938 232.911C156.938 232.911 161.796 244.093 162.131 249.963C162.466 255.834 163.713 259.636 156.938 260.829C150.164 262.003 144.45 258.63 141.361 252.778C141.361 252.778 136.522 243.776 137.601 240.086C138.699 236.396 156.938 232.911 156.938 232.911Z" fill="url(#paint21_linear)"/>
<path d="M143.688 248.584L144.079 248.416C144.563 248.193 144.786 247.615 144.525 247.13C143.576 245.285 141.715 241.036 144.116 240.048C147.224 238.781 159.507 236.265 162.15 231.904C164.7 227.711 162.448 222.288 159.042 220.759C158.819 220.647 158.539 220.741 158.428 220.964L158.149 221.505C157.963 221.878 157.423 221.822 157.293 221.412C157.181 221.02 156.678 220.964 156.455 221.3C155.636 222.604 153.44 224.729 147.559 225.81C139.203 227.357 133.675 230.749 133.526 236.526C133.526 236.899 133.135 237.104 132.819 236.899C132.205 236.526 131.218 236.34 129.897 237.458C127.608 239.396 128.538 244.409 133.582 248.528C133.824 248.733 133.824 249.106 133.563 249.274C132.652 249.87 131.293 251.286 134.81 253.169C138.458 255.126 141.175 254.958 142.218 254.79C142.478 254.753 142.646 254.492 142.59 254.231L141.473 249.143C141.417 248.864 141.622 248.584 141.92 248.584H143.688Z" fill="url(#paint22_linear)"/>
<path d="M143.892 249.646C143.892 249.646 142.03 242.508 138.848 244.503C135.647 246.497 140.504 252.498 143.073 252.777L143.892 249.646Z" fill="url(#paint23_linear)"/>
<path d="M247.519 253.355C247.389 253.355 247.24 253.318 247.128 253.225C246.868 253.02 246.83 252.628 247.035 252.368C247.556 251.715 252.228 245.994 254.033 244.987C254.684 244.615 255.075 244.242 255.168 243.888C255.205 243.72 255.187 243.534 255.094 243.31L249.603 244.41L246.495 247.075C246.235 247.298 245.863 247.261 245.639 247C245.416 246.739 245.453 246.366 245.714 246.143L248.952 243.366C249.027 243.291 249.12 243.254 249.231 243.235L255.298 242.024C255.54 241.968 255.782 242.08 255.931 242.285C256.378 242.937 256.527 243.571 256.378 244.167C256.21 244.876 255.652 245.491 254.666 246.05C253.307 246.814 249.399 251.436 248.022 253.15C247.873 253.281 247.687 253.355 247.519 253.355Z" fill="url(#paint24_linear)"/>
<path d="M143.65 354.889L165.127 355.15L157.608 348.068C155.747 346.297 152.881 346.018 150.722 347.415C149.457 348.235 148.098 349.354 146.907 350.826C146.907 350.826 133.507 345.924 127.012 334.947C124.983 337.966 122.619 342.048 120.572 347.154C126.416 350.584 133.954 353.267 143.65 354.889Z" fill="url(#paint25_linear)"/>
<path d="M145.976 357.665C146.014 357.665 146.051 357.665 146.107 357.665L200.637 357.61C201.977 357.61 203.075 356.529 203.075 355.187C203.075 353.845 201.977 352.745 200.637 352.764L146.107 352.82C144.767 352.82 143.669 353.901 143.669 355.243C143.65 356.547 144.674 357.591 145.976 357.665Z" fill="url(#paint26_linear)"/>
<path d="M249.658 308.613H204.247C200.897 308.613 197.845 310.533 196.412 313.533L175.418 357.647H231.866C234.025 357.647 235.96 356.342 236.76 354.348L253.045 313.533C253.957 311.167 252.208 308.613 249.658 308.613Z" fill="url(#paint27_linear)"/>
<path d="M217.666 331.219C216.679 334.257 217.405 337.183 219.285 337.798C221.165 338.413 223.491 336.438 224.477 333.4C225.464 330.362 224.738 327.436 222.858 326.821C220.96 326.225 218.633 328.2 217.666 331.219Z" fill="url(#paint28_linear)"/>
<path d="M282.695 445.371L284.537 502.94C284.854 512.985 293.08 520.962 303.167 521.018L440.814 521.838C447.551 521.875 453.283 516.974 454.27 510.339C456.429 495.802 459.165 469.785 456.075 445.371H282.695Z" fill="url(#paint29_linear)"/>
<path d="M437.966 518.539C437.743 518.539 437.557 518.371 437.557 518.147C437.557 517.924 437.724 517.737 437.947 517.719C438.748 517.681 439.529 517.588 440.311 517.402C440.534 517.346 440.758 517.495 440.795 517.719C440.851 517.942 440.702 518.166 440.497 518.222C439.678 518.39 438.822 518.52 437.966 518.539ZM432.215 518.52L429.74 518.502C429.517 518.502 429.33 518.315 429.33 518.091C429.33 517.868 429.517 517.681 429.74 517.681L432.197 517.7C432.42 517.7 432.606 517.886 432.606 518.11C432.625 518.334 432.438 518.52 432.215 518.52ZM423.989 518.483L421.514 518.464C421.29 518.464 421.104 518.278 421.104 518.054C421.104 517.831 421.29 517.644 421.514 517.644L423.97 517.663C424.194 517.663 424.38 517.849 424.38 518.073C424.399 518.297 424.231 518.483 423.989 518.483ZM415.782 518.427L413.306 518.408C413.083 518.408 412.897 518.222 412.897 517.998C412.897 517.775 413.083 517.588 413.306 517.588L415.763 517.607C415.986 517.607 416.172 517.793 416.172 518.017C416.191 518.241 416.005 518.427 415.782 518.427ZM407.574 518.371L405.099 518.352C404.876 518.352 404.689 518.166 404.689 517.942C404.689 517.719 404.913 517.532 405.099 517.532L407.555 517.551C407.779 517.551 407.965 517.737 407.965 517.961C407.984 518.203 407.797 518.371 407.574 518.371ZM399.348 518.334L396.873 518.315C396.649 518.315 396.463 518.129 396.463 517.905C396.463 517.681 396.649 517.495 396.873 517.495L399.329 517.514C399.553 517.514 399.739 517.7 399.739 517.924C399.757 518.147 399.571 518.334 399.348 518.334ZM391.141 518.278L388.665 518.259C388.442 518.259 388.256 518.073 388.256 517.849C388.256 517.626 388.442 517.439 388.665 517.439L391.122 517.458C391.345 517.458 391.531 517.644 391.531 517.868C391.55 518.091 391.364 518.278 391.141 518.278ZM382.914 518.241L380.439 518.222C380.216 518.222 380.03 518.036 380.03 517.812C380.03 517.588 380.216 517.402 380.439 517.402L382.896 517.421C383.119 517.421 383.305 517.607 383.305 517.831C383.324 518.054 383.156 518.241 382.914 518.241ZM374.707 518.185L372.232 518.166C372.008 518.166 371.822 517.98 371.822 517.756C371.822 517.532 372.008 517.346 372.232 517.346L374.688 517.365C374.912 517.365 375.098 517.551 375.098 517.775C375.116 517.998 374.93 518.185 374.707 518.185ZM366.5 518.129C366.5 518.129 366.481 518.129 366.5 518.129L364.024 518.11C363.801 518.11 363.615 517.924 363.615 517.7C363.615 517.476 363.801 517.29 364.024 517.29L366.481 517.309C366.704 517.309 366.89 517.495 366.89 517.719C366.909 517.961 366.723 518.129 366.5 518.129ZM358.273 518.091L355.798 518.073C355.575 518.073 355.389 517.886 355.389 517.663C355.389 517.439 355.575 517.253 355.798 517.253L358.255 517.271C358.478 517.271 358.664 517.458 358.664 517.681C358.683 517.905 358.497 518.091 358.273 518.091ZM350.066 518.036L347.591 518.017C347.367 518.017 347.181 517.831 347.181 517.607C347.181 517.383 347.367 517.197 347.591 517.197L350.047 517.216C350.271 517.216 350.457 517.402 350.457 517.626C350.475 517.849 350.289 518.036 350.066 518.036ZM341.84 517.998L339.365 517.98C339.141 517.98 338.955 517.793 338.955 517.57C338.955 517.346 339.141 517.16 339.365 517.16L341.821 517.178C342.045 517.178 342.231 517.365 342.231 517.588C342.249 517.812 342.063 517.998 341.84 517.998ZM333.632 517.942L331.157 517.924C330.934 517.924 330.748 517.737 330.748 517.514C330.748 517.29 330.934 517.104 331.157 517.104L333.614 517.122C333.837 517.122 334.023 517.309 334.023 517.532C334.042 517.756 333.856 517.942 333.632 517.942ZM325.406 517.886L322.931 517.868C322.708 517.868 322.522 517.681 322.522 517.458C322.522 517.234 322.745 517.085 322.931 517.048L325.388 517.066C325.611 517.066 325.797 517.253 325.797 517.476C325.816 517.719 325.648 517.886 325.406 517.886ZM317.199 517.849L314.724 517.831C314.5 517.831 314.314 517.644 314.314 517.421C314.314 517.197 314.5 517.011 314.724 517.011L317.18 517.029C317.404 517.029 317.59 517.216 317.59 517.439C317.608 517.663 317.422 517.849 317.199 517.849ZM308.991 517.793L306.516 517.775C306.293 517.775 306.107 517.588 306.107 517.365C306.107 517.141 306.293 516.955 306.516 516.955L308.973 516.973C309.196 516.973 309.382 517.16 309.382 517.383C309.401 517.607 309.215 517.793 308.991 517.793ZM300.858 516.88C300.821 516.88 300.765 516.88 300.728 516.861C299.928 516.601 299.146 516.284 298.402 515.911C298.197 515.818 298.123 515.557 298.216 515.352C298.309 515.147 298.569 515.072 298.774 515.165C299.5 515.52 300.244 515.836 301.007 516.079C301.231 516.153 301.342 516.377 301.268 516.601C301.193 516.768 301.044 516.88 300.858 516.88ZM445.541 515.725C445.429 515.725 445.299 515.669 445.224 515.575C445.075 515.389 445.113 515.147 445.28 514.998C445.894 514.495 446.471 513.935 446.992 513.339C447.141 513.171 447.402 513.153 447.569 513.283C447.737 513.432 447.755 513.693 447.625 513.861C447.085 514.513 446.471 515.11 445.801 515.631C445.708 515.687 445.615 515.725 445.541 515.725ZM293.935 512.612C293.823 512.612 293.73 512.575 293.637 512.5C293.042 511.904 292.483 511.27 291.981 510.599C291.851 510.413 291.869 510.152 292.055 510.022C292.241 509.891 292.502 509.91 292.632 510.096C293.116 510.73 293.656 511.345 294.214 511.904C294.382 512.072 294.382 512.333 294.214 512.482C294.14 512.575 294.028 512.612 293.935 512.612ZM449.933 508.941C449.896 508.941 449.858 508.941 449.821 508.922C449.598 508.866 449.468 508.643 449.523 508.419C449.635 507.99 449.728 507.562 449.784 507.133L449.951 506.033C449.989 505.81 450.193 505.642 450.417 505.679C450.64 505.717 450.789 505.922 450.77 506.145L450.603 507.245C450.528 507.711 450.435 508.177 450.324 508.624C450.268 508.829 450.119 508.941 449.933 508.941ZM289.599 505.717C289.431 505.717 289.264 505.605 289.208 505.437C288.929 504.654 288.724 503.816 288.556 502.996C288.519 502.772 288.668 502.548 288.892 502.511C289.115 502.474 289.338 502.623 289.375 502.847C289.524 503.629 289.729 504.412 289.99 505.176C290.064 505.4 289.952 505.623 289.729 505.698C289.692 505.698 289.636 505.717 289.599 505.717ZM451.124 500.815C451.105 500.815 451.087 500.815 451.068 500.815C450.845 500.778 450.677 500.573 450.715 500.349C450.808 499.548 450.919 498.746 451.012 497.908C451.031 497.684 451.236 497.516 451.459 497.554C451.682 497.572 451.85 497.777 451.813 498.001C451.72 498.84 451.626 499.66 451.515 500.461C451.496 500.647 451.329 500.815 451.124 500.815ZM288.575 497.591C288.352 497.591 288.166 497.423 288.166 497.2L288.091 494.74C288.091 494.516 288.259 494.33 288.482 494.311C288.687 494.292 288.891 494.479 288.91 494.702L288.985 497.162C288.985 497.386 288.817 497.591 288.575 497.591C288.594 497.591 288.575 497.591 288.575 497.591ZM452.017 492.634C451.999 492.634 451.999 492.634 451.98 492.634C451.757 492.615 451.589 492.41 451.608 492.186C451.682 491.385 451.757 490.565 451.831 489.726C451.85 489.503 452.055 489.353 452.278 489.353C452.501 489.372 452.669 489.577 452.65 489.801C452.576 490.639 452.501 491.459 452.427 492.261C452.408 492.466 452.222 492.634 452.017 492.634ZM288.315 489.372C288.091 489.372 287.905 489.204 287.905 488.981L287.831 486.521C287.831 486.297 287.998 486.111 288.221 486.092C288.445 486.092 288.631 486.26 288.65 486.483L288.724 488.943C288.724 489.167 288.556 489.353 288.315 489.372ZM452.687 484.433H452.669C452.445 484.415 452.278 484.228 452.278 484.005C452.334 483.185 452.39 482.365 452.427 481.545C452.445 481.321 452.631 481.135 452.855 481.153C453.078 481.172 453.246 481.358 453.246 481.582C453.19 482.421 453.153 483.241 453.097 484.042C453.078 484.266 452.892 484.433 452.687 484.433ZM288.035 481.153C287.812 481.153 287.626 480.986 287.626 480.762L287.551 478.302C287.551 478.078 287.719 477.892 287.942 477.873C288.166 477.855 288.352 478.041 288.37 478.265L288.445 480.725C288.463 480.948 288.277 481.135 288.035 481.153C288.054 481.153 288.054 481.153 288.035 481.153ZM453.097 476.214C453.097 476.214 453.078 476.214 453.097 476.214C452.855 476.214 452.669 476.009 452.687 475.786C452.706 474.966 452.743 474.146 452.762 473.326C452.762 473.102 452.985 472.934 453.19 472.916C453.413 472.916 453.599 473.102 453.599 473.344C453.581 474.164 453.562 475.003 453.525 475.823C453.506 476.028 453.32 476.214 453.097 476.214ZM287.775 472.916C287.552 472.916 287.365 472.748 287.365 472.524L287.291 470.064C287.291 469.841 287.458 469.654 287.682 469.636C287.905 469.654 288.091 469.803 288.11 470.027L288.184 472.487C288.203 472.729 288.017 472.916 287.775 472.916C287.793 472.916 287.775 472.916 287.775 472.916ZM453.227 467.977C453.004 467.977 452.818 467.791 452.818 467.567C452.818 466.747 452.818 465.927 452.799 465.107C452.799 464.883 452.985 464.697 453.208 464.697C453.413 464.697 453.618 464.883 453.618 465.107C453.636 465.927 453.636 466.766 453.636 467.586C453.636 467.791 453.469 467.977 453.227 467.977ZM287.514 464.697C287.291 464.697 287.105 464.529 287.105 464.306L287.03 461.845C287.03 461.622 287.198 461.435 287.421 461.417C287.607 461.417 287.831 461.585 287.849 461.808L287.924 464.268C287.942 464.511 287.756 464.697 287.514 464.697C287.533 464.697 287.514 464.697 287.514 464.697ZM453.06 459.758C452.836 459.758 452.65 459.59 452.65 459.367C452.613 458.547 452.576 457.727 452.538 456.907C452.52 456.683 452.706 456.478 452.929 456.478C453.153 456.459 453.357 456.646 453.357 456.869C453.395 457.689 453.45 458.509 453.469 459.348C453.488 459.553 453.301 459.758 453.06 459.758C453.078 459.758 453.06 459.758 453.06 459.758ZM287.254 456.478C287.03 456.478 286.844 456.31 286.844 456.087L286.77 453.627C286.77 453.403 286.937 453.217 287.161 453.198C287.347 453.179 287.57 453.366 287.589 453.589L287.663 456.049C287.663 456.273 287.496 456.478 287.254 456.478ZM452.538 451.558C452.334 451.558 452.148 451.39 452.129 451.185C452.055 450.365 451.98 449.545 451.887 448.744C451.868 448.52 452.036 448.315 452.259 448.296C452.483 448.278 452.687 448.446 452.706 448.669C452.799 449.489 452.873 450.309 452.948 451.129C452.966 451.353 452.799 451.558 452.576 451.577C452.557 451.558 452.538 451.558 452.538 451.558ZM286.993 448.259C286.77 448.259 286.584 448.091 286.584 447.868L286.509 445.408C286.509 445.184 286.677 444.998 286.9 444.979C287.086 444.979 287.31 445.147 287.328 445.37L287.403 447.831C287.403 448.054 287.235 448.241 286.993 448.259ZM449.486 445.78H447.03C446.806 445.78 446.62 445.594 446.62 445.37C446.62 445.147 446.806 444.96 447.03 444.96H449.486C449.71 444.96 449.896 445.147 449.896 445.37C449.896 445.613 449.71 445.78 449.486 445.78ZM441.279 445.78H438.822C438.599 445.78 438.413 445.594 438.413 445.37C438.413 445.147 438.599 444.96 438.822 444.96H441.279C441.502 444.96 441.688 445.147 441.688 445.37C441.688 445.613 441.502 445.78 441.279 445.78ZM433.053 445.78H430.596C430.373 445.78 430.187 445.594 430.187 445.37C430.187 445.147 430.373 444.96 430.596 444.96H433.053C433.276 444.96 433.462 445.147 433.462 445.37C433.462 445.613 433.276 445.78 433.053 445.78ZM424.845 445.78H422.389C422.165 445.78 421.979 445.594 421.979 445.37C421.979 445.147 422.165 444.96 422.389 444.96H424.845C425.069 444.96 425.255 445.147 425.255 445.37C425.255 445.613 425.069 445.78 424.845 445.78ZM416.619 445.78H414.162C413.939 445.78 413.753 445.594 413.753 445.37C413.753 445.147 413.939 444.96 414.162 444.96H416.619C416.842 444.96 417.029 445.147 417.029 445.37C417.029 445.613 416.861 445.78 416.619 445.78ZM408.412 445.78H405.955C405.732 445.78 405.546 445.594 405.546 445.37C405.546 445.147 405.732 444.96 405.955 444.96H408.412C408.635 444.96 408.821 445.147 408.821 445.37C408.821 445.613 408.635 445.78 408.412 445.78ZM400.204 445.78H397.747C397.524 445.78 397.338 445.594 397.338 445.37C397.338 445.147 397.524 444.96 397.747 444.96H400.204C400.427 444.96 400.614 445.147 400.614 445.37C400.614 445.613 400.427 445.78 400.204 445.78ZM391.978 445.78H389.521C389.298 445.78 389.112 445.594 389.112 445.37C389.112 445.147 389.298 444.96 389.521 444.96H391.978C392.201 444.96 392.387 445.147 392.387 445.37C392.387 445.613 392.201 445.78 391.978 445.78ZM383.771 445.78H381.314C381.091 445.78 380.904 445.594 380.904 445.37C380.904 445.147 381.091 444.96 381.314 444.96H383.771C383.994 444.96 384.18 445.147 384.18 445.37C384.18 445.613 383.994 445.78 383.771 445.78ZM375.545 445.78H373.088C372.865 445.78 372.678 445.594 372.678 445.37C372.678 445.147 372.865 444.96 373.088 444.96H375.545C375.768 444.96 375.954 445.147 375.954 445.37C375.954 445.613 375.768 445.78 375.545 445.78ZM367.337 445.78H364.88C364.657 445.78 364.471 445.594 364.471 445.37C364.471 445.147 364.657 444.96 364.88 444.96H367.337C367.56 444.96 367.746 445.147 367.746 445.37C367.746 445.613 367.56 445.78 367.337 445.78ZM359.111 445.78H356.654C356.431 445.78 356.245 445.594 356.245 445.37C356.245 445.147 356.431 444.96 356.654 444.96H359.111C359.334 444.96 359.52 445.147 359.52 445.37C359.52 445.613 359.353 445.78 359.111 445.78ZM350.903 445.78H348.447C348.224 445.78 348.037 445.594 348.037 445.37C348.037 445.147 348.224 444.96 348.447 444.96H350.903C351.127 444.96 351.313 445.147 351.313 445.37C351.313 445.613 351.127 445.78 350.903 445.78ZM342.696 445.78H340.239C340.016 445.78 339.83 445.594 339.83 445.37C339.83 445.147 340.016 444.96 340.239 444.96H342.696C342.919 444.96 343.105 445.147 343.105 445.37C343.105 445.613 342.919 445.78 342.696 445.78ZM334.47 445.78H332.013C331.79 445.78 331.604 445.594 331.604 445.37C331.604 445.147 331.79 444.96 332.013 444.96H334.47C334.693 444.96 334.879 445.147 334.879 445.37C334.879 445.613 334.693 445.78 334.47 445.78ZM326.262 445.78H323.806C323.582 445.78 323.396 445.594 323.396 445.37C323.396 445.147 323.582 444.96 323.806 444.96H326.262C326.486 444.96 326.672 445.147 326.672 445.37C326.672 445.613 326.486 445.78 326.262 445.78ZM318.036 445.78H315.58C315.356 445.78 315.17 445.594 315.17 445.37C315.17 445.147 315.356 444.96 315.58 444.96H318.036C318.26 444.96 318.446 445.147 318.446 445.37C318.446 445.613 318.26 445.78 318.036 445.78ZM309.829 445.78H307.372C307.149 445.78 306.963 445.594 306.963 445.37C306.963 445.147 307.149 444.96 307.372 444.96H309.829C310.052 444.96 310.238 445.147 310.238 445.37C310.238 445.613 310.052 445.78 309.829 445.78ZM301.603 445.78H299.146C298.923 445.78 298.737 445.594 298.737 445.37C298.737 445.147 298.923 444.96 299.146 444.96H301.603C301.826 444.96 302.012 445.147 302.012 445.37C302.012 445.613 301.845 445.78 301.603 445.78ZM293.395 445.78H290.939C290.715 445.78 290.529 445.594 290.529 445.37C290.529 445.147 290.715 444.96 290.939 444.96H293.395C293.619 444.96 293.805 445.147 293.805 445.37C293.805 445.613 293.619 445.78 293.395 445.78Z" fill="white"/>
<path d="M323.024 403.587L323.434 399.151C323.899 398.089 324.867 397.343 326.021 397.157C330.301 396.467 340.947 395.275 346.065 399.095L346.828 404.258L323.024 403.587Z" fill="url(#paint30_linear)"/>
<path d="M336.424 399.319C335.438 399.561 334.451 399.561 333.465 399.319C332.274 399.021 331.417 397.958 331.417 396.71V382.807H338.49V396.691C338.471 397.94 337.634 399.021 336.424 399.319Z" fill="url(#paint31_linear)"/>
<path d="M391.457 403.587L391.866 399.151C392.331 398.089 393.299 397.343 394.453 397.157C398.733 396.467 409.379 395.275 414.497 399.095L415.26 404.258L391.457 403.587Z" fill="url(#paint32_linear)"/>
<path d="M404.856 399.319C403.87 399.561 402.884 399.561 401.897 399.319C400.706 399.021 399.85 397.958 399.85 396.71V381.353H406.922V396.71C406.904 397.94 406.048 399.021 404.856 399.319Z" fill="url(#paint33_linear)"/>
<path d="M330.691 386.217L406.661 383.701C408.392 383.645 409.862 382.397 410.16 380.682C410.569 378.297 410.942 374.737 410.402 371.047C409.788 366.835 406.177 363.723 401.915 363.611C387.734 363.275 351.666 363.275 331.77 371.159C329.667 371.997 328.104 373.787 327.583 375.986C327.08 378.073 326.745 380.869 327.397 383.72C327.75 385.23 329.146 386.273 330.691 386.217Z" fill="url(#paint34_linear)"/>
<path d="M329.37 382.751C328.961 382.751 328.589 382.434 328.551 382.005C328.533 381.875 328.254 378.93 329.017 376.097C329.631 373.842 331.399 372.034 333.669 371.364C337.931 370.115 346.064 367.99 352.727 367.804C353.192 367.785 353.565 368.158 353.565 368.605C353.583 369.053 353.211 369.444 352.764 369.444C346.288 369.63 338.304 371.718 334.135 372.948C332.422 373.451 331.064 374.83 330.617 376.526C329.929 379.079 330.189 381.819 330.189 381.838C330.226 382.285 329.91 382.695 329.463 382.732C329.426 382.751 329.407 382.751 329.37 382.751Z" fill="#91B3FA"/>
<path d="M287.775 401.853C312.323 401.536 418.499 400.418 449.337 404.146C451.998 404.462 454.157 406.419 454.734 409.01C456.558 417.266 460.225 436.425 459.796 455.434C459.741 458.025 457.842 460.205 455.293 460.69L384.887 474.034H359.874L284.853 459.106C282.21 458.584 280.256 456.329 280.125 453.645C279.642 444.084 278.879 421.664 281.465 407.221C282.024 404.146 284.648 401.89 287.775 401.853Z" fill="url(#paint35_linear)"/>
<path d="M360.487 468.368C360.468 468.368 360.431 468.368 360.412 468.368L357.993 467.884C357.77 467.847 357.621 467.623 357.677 467.399C357.714 467.176 357.937 467.027 358.161 467.082L360.561 467.567C360.58 467.567 360.599 467.567 360.617 467.567H363.074C363.297 467.567 363.483 467.753 363.483 467.977C363.483 468.201 363.297 468.387 363.074 468.387H360.617C360.599 468.387 360.58 468.387 360.561 468.387C360.524 468.368 360.506 468.368 360.487 468.368ZM379.489 468.368H377.032C376.809 468.368 376.623 468.182 376.623 467.958C376.623 467.735 376.809 467.548 377.032 467.548H379.489C379.712 467.548 379.898 467.735 379.898 467.958C379.898 468.182 379.712 468.368 379.489 468.368ZM371.281 468.368H368.825C368.601 468.368 368.415 468.182 368.415 467.958C368.415 467.735 368.601 467.548 368.825 467.548H371.281C371.505 467.548 371.691 467.735 371.691 467.958C371.691 468.182 371.505 468.368 371.281 468.368ZM385.221 468.201C385.035 468.201 384.849 468.07 384.812 467.865C384.774 467.642 384.923 467.418 385.147 467.381L387.566 466.915C387.789 466.877 388.013 467.027 388.05 467.25C388.087 467.474 387.938 467.697 387.715 467.735L385.295 468.201C385.277 468.201 385.24 468.201 385.221 468.201ZM352.428 466.766C352.41 466.766 352.373 466.766 352.354 466.766L349.934 466.281C349.711 466.244 349.562 466.02 349.618 465.797C349.655 465.573 349.879 465.424 350.102 465.48L352.521 465.964C352.745 466.002 352.894 466.225 352.838 466.449C352.782 466.617 352.614 466.766 352.428 466.766ZM393.298 466.672C393.112 466.672 392.926 466.542 392.889 466.337C392.852 466.113 393 465.89 393.224 465.852L395.643 465.387C395.866 465.349 396.09 465.498 396.127 465.722C396.164 465.946 396.015 466.169 395.792 466.207L393.373 466.672C393.354 466.654 393.317 466.672 393.298 466.672ZM344.37 465.163C344.351 465.163 344.314 465.163 344.295 465.163L341.876 464.678C341.653 464.641 341.504 464.417 341.56 464.194C341.597 463.97 341.82 463.821 342.043 463.877L344.463 464.362C344.686 464.399 344.835 464.622 344.779 464.846C344.723 465.014 344.556 465.163 344.37 465.163ZM401.375 465.144C401.189 465.144 401.003 465.014 400.966 464.809C400.929 464.585 401.078 464.361 401.301 464.324L403.72 463.858C403.944 463.821 404.167 463.97 404.204 464.194C404.241 464.417 404.093 464.641 403.869 464.678L401.45 465.144C401.413 465.126 401.394 465.144 401.375 465.144ZM409.434 463.597C409.248 463.597 409.062 463.467 409.025 463.262C408.987 463.038 409.136 462.815 409.36 462.777L411.779 462.311C412.002 462.274 412.226 462.423 412.263 462.647C412.3 462.871 412.151 463.094 411.928 463.131L409.508 463.597C409.49 463.597 409.471 463.597 409.434 463.597ZM336.311 463.56C336.293 463.56 336.255 463.56 336.237 463.56L333.817 463.076C333.594 463.038 333.445 462.815 333.501 462.591C333.538 462.367 333.761 462.218 333.985 462.274L336.404 462.759C336.628 462.796 336.776 463.02 336.721 463.243C336.665 463.411 336.497 463.56 336.311 463.56ZM417.511 462.069C417.325 462.069 417.139 461.939 417.102 461.734C417.064 461.51 417.213 461.286 417.437 461.249L419.856 460.783C420.079 460.746 420.303 460.895 420.34 461.119C420.377 461.342 420.228 461.566 420.005 461.603L417.586 462.069C417.567 462.069 417.53 462.069 417.511 462.069ZM328.253 461.957C328.234 461.957 328.197 461.957 328.178 461.957L325.759 461.473C325.535 461.436 325.387 461.212 325.442 460.988C325.48 460.765 325.703 460.615 325.926 460.671L328.346 461.156C328.569 461.193 328.718 461.417 328.662 461.641C328.606 461.808 328.439 461.957 328.253 461.957ZM425.588 460.541C425.402 460.541 425.216 460.41 425.179 460.205C425.142 459.982 425.291 459.758 425.514 459.721L427.933 459.255C428.157 459.218 428.38 459.367 428.417 459.59C428.454 459.814 428.306 460.038 428.082 460.075L425.663 460.541C425.626 460.541 425.607 460.541 425.588 460.541ZM320.194 460.355C320.175 460.355 320.138 460.355 320.12 460.355L317.7 459.87C317.477 459.833 317.328 459.609 317.384 459.385C317.421 459.162 317.644 459.013 317.868 459.069L320.287 459.553C320.51 459.59 320.659 459.814 320.603 460.038C320.548 460.205 320.38 460.355 320.194 460.355ZM433.647 459.013C433.461 459.013 433.275 458.882 433.237 458.677C433.2 458.454 433.349 458.23 433.572 458.193L435.992 457.727C436.215 457.689 436.439 457.839 436.476 458.062C436.513 458.286 436.364 458.51 436.141 458.547L433.721 459.013C433.703 459.013 433.684 459.013 433.647 459.013ZM312.135 458.733C312.117 458.733 312.08 458.733 312.061 458.733L309.642 458.249C309.418 458.211 309.269 457.988 309.325 457.764C309.362 457.54 309.586 457.391 309.809 457.447L312.229 457.932C312.452 457.969 312.601 458.193 312.545 458.416C312.489 458.603 312.322 458.733 312.135 458.733ZM441.724 457.484C441.538 457.484 441.352 457.354 441.315 457.149C441.277 456.925 441.426 456.702 441.65 456.664L444.069 456.199C444.292 456.161 444.516 456.31 444.553 456.534C444.59 456.758 444.441 456.981 444.218 457.019L441.799 457.484C441.78 457.484 441.761 457.484 441.724 457.484ZM304.077 457.13C304.058 457.13 304.021 457.13 304.002 457.13L301.583 456.646C301.36 456.609 301.211 456.385 301.267 456.161C301.304 455.938 301.527 455.789 301.751 455.844L304.17 456.329C304.393 456.366 304.542 456.59 304.486 456.814C304.43 457 304.263 457.13 304.077 457.13ZM449.801 455.956C449.615 455.956 449.429 455.826 449.392 455.621C449.355 455.397 449.504 455.174 449.727 455.136L452.146 454.67C452.37 454.633 452.593 454.782 452.63 455.006C452.667 455.229 452.519 455.453 452.295 455.49L449.876 455.956C449.857 455.956 449.82 455.956 449.801 455.956ZM296.018 455.528C296 455.528 295.962 455.528 295.944 455.528L293.524 455.043C293.301 455.006 293.152 454.782 293.208 454.559C293.245 454.335 293.469 454.186 293.692 454.242L296.111 454.726C296.335 454.763 296.484 454.987 296.428 455.211C296.372 455.397 296.204 455.528 296.018 455.528ZM287.96 453.925C287.941 453.925 287.904 453.925 287.885 453.925L285.801 453.515L285.745 452.546C285.726 452.322 285.913 452.117 286.136 452.117C286.359 452.08 286.564 452.285 286.564 452.508L286.583 452.844L288.034 453.142C288.257 453.179 288.406 453.403 288.351 453.627C288.332 453.794 288.146 453.925 287.96 453.925ZM453.747 450.999C453.524 450.999 453.337 450.812 453.337 450.589C453.319 449.769 453.319 448.949 453.282 448.129C453.282 447.905 453.449 447.719 453.672 447.7C453.896 447.7 454.082 447.868 454.1 448.092C454.119 448.912 454.138 449.732 454.156 450.57C454.175 450.813 453.989 450.999 453.747 450.999C453.765 450.999 453.765 450.999 453.747 450.999ZM285.913 447.16C285.689 447.16 285.503 446.992 285.503 446.768C285.484 445.967 285.447 445.147 285.429 444.29C285.429 444.066 285.596 443.88 285.819 443.861C286.043 443.88 286.229 444.029 286.247 444.252C286.266 445.11 286.303 445.93 286.322 446.712C286.341 446.973 286.154 447.16 285.913 447.16C285.931 447.16 285.913 447.16 285.913 447.16ZM453.43 442.78C453.207 442.78 453.04 442.612 453.021 442.389C452.965 441.569 452.909 440.749 452.854 439.929C452.835 439.705 453.002 439.5 453.226 439.481C453.449 439.463 453.654 439.63 453.672 439.854C453.728 440.674 453.803 441.494 453.84 442.314C453.859 442.538 453.691 442.743 453.449 442.743C453.449 442.78 453.449 442.78 453.43 442.78ZM285.726 438.941C285.503 438.941 285.317 438.754 285.317 438.531C285.317 437.711 285.298 436.891 285.298 436.052C285.298 435.828 285.484 435.642 285.708 435.642C285.931 435.642 286.117 435.828 286.117 436.052C286.117 436.891 286.136 437.711 286.136 438.512C286.136 438.754 285.968 438.941 285.726 438.941ZM452.723 434.58C452.519 434.58 452.332 434.431 452.314 434.207C452.221 433.387 452.128 432.567 452.035 431.766C452.016 431.542 452.165 431.337 452.388 431.3C452.612 431.262 452.816 431.43 452.854 431.654C452.947 432.455 453.04 433.275 453.133 434.114C453.151 434.337 453.002 434.542 452.76 434.561C452.742 434.58 452.742 434.58 452.723 434.58ZM285.745 430.703C285.745 430.703 285.726 430.703 285.745 430.703C285.503 430.703 285.336 430.517 285.336 430.293C285.354 429.473 285.373 428.653 285.391 427.815C285.391 427.591 285.578 427.423 285.819 427.405C286.043 427.405 286.229 427.591 286.229 427.833C286.21 428.653 286.192 429.473 286.173 430.293C286.154 430.536 285.968 430.703 285.745 430.703ZM451.681 426.417C451.476 426.417 451.309 426.268 451.272 426.063C451.141 425.224 451.03 424.423 450.899 423.621C450.862 423.398 451.011 423.193 451.234 423.155C451.458 423.118 451.662 423.267 451.7 423.491C451.83 424.292 451.942 425.094 452.072 425.932C452.109 426.156 451.942 426.361 451.718 426.398C451.718 426.417 451.7 426.417 451.681 426.417ZM286.006 422.484H285.987C285.764 422.466 285.578 422.279 285.596 422.056C285.633 421.236 285.689 420.397 285.745 419.577C285.764 419.353 285.95 419.167 286.173 419.186C286.396 419.204 286.564 419.391 286.564 419.614C286.508 420.434 286.452 421.254 286.415 422.074C286.396 422.317 286.229 422.484 286.006 422.484ZM450.341 418.31C450.155 418.31 449.969 418.179 449.932 417.974C449.783 417.117 449.615 416.316 449.466 415.552C449.429 415.328 449.559 415.104 449.783 415.067C450.006 415.03 450.229 415.179 450.267 415.384C450.415 416.148 450.564 416.968 450.732 417.807C450.769 418.03 450.62 418.235 450.397 418.291C450.397 418.291 450.36 418.31 450.341 418.31ZM286.657 414.284C286.638 414.284 286.62 414.284 286.62 414.284C286.396 414.266 286.229 414.061 286.247 413.837C286.341 412.998 286.434 412.178 286.545 411.377C286.582 411.153 286.787 410.985 287.011 411.023C287.234 411.06 287.401 411.265 287.364 411.489C287.252 412.29 287.159 413.091 287.066 413.93C287.029 414.135 286.862 414.284 286.657 414.284ZM448.368 410.557C448.35 410.557 448.331 410.557 448.312 410.557C447.549 410.464 446.73 410.37 445.874 410.296C445.651 410.277 445.484 410.072 445.502 409.849C445.521 409.625 445.725 409.476 445.949 409.476C446.824 409.569 447.642 409.644 448.405 409.737C448.629 409.755 448.796 409.96 448.759 410.184C448.74 410.408 448.573 410.557 448.368 410.557ZM440.179 409.83C440.161 409.83 440.161 409.83 440.142 409.83C439.361 409.774 438.542 409.718 437.686 409.662C437.462 409.644 437.295 409.457 437.295 409.234C437.313 409.01 437.499 408.842 437.723 408.842C438.579 408.898 439.398 408.954 440.179 409.01C440.403 409.029 440.57 409.215 440.552 409.457C440.57 409.662 440.384 409.83 440.179 409.83ZM431.972 409.327H431.953C431.153 409.29 430.334 409.252 429.497 409.215C429.273 409.196 429.087 409.01 429.106 408.786C429.124 408.563 429.311 408.376 429.534 408.395C430.371 408.432 431.19 408.469 431.991 408.507C432.214 408.525 432.4 408.712 432.381 408.935C432.381 409.159 432.195 409.327 431.972 409.327ZM423.764 408.973L421.289 408.879C421.066 408.879 420.88 408.675 420.898 408.451C420.898 408.227 421.103 408.059 421.326 408.059L423.783 408.153C424.006 408.153 424.193 408.358 424.174 408.581C424.174 408.805 423.988 408.973 423.764 408.973ZM415.557 408.693L413.082 408.619C412.858 408.619 412.672 408.432 412.691 408.19C412.691 407.966 412.858 407.799 413.119 407.799L415.576 407.873C415.799 407.873 415.985 408.078 415.966 408.302C415.966 408.525 415.78 408.693 415.557 408.693ZM407.35 408.488C407.35 408.488 407.331 408.488 407.35 408.488L404.874 408.432C404.651 408.432 404.465 408.246 404.465 408.004C404.465 407.78 404.651 407.594 404.874 407.594L407.331 407.649C407.554 407.649 407.74 407.836 407.74 408.078C407.759 408.302 407.573 408.488 407.35 408.488ZM399.123 408.32L396.648 408.283C396.425 408.283 396.239 408.097 396.239 407.873C396.239 407.649 396.425 407.463 396.648 407.463L399.105 407.5C399.328 407.5 399.514 407.687 399.514 407.929C399.533 408.134 399.347 408.32 399.123 408.32ZM289.839 408.32C289.616 408.32 289.43 408.134 289.43 407.91C289.43 407.687 289.616 407.5 289.839 407.5L292.315 407.463C292.538 407.463 292.724 407.649 292.724 407.873C292.724 408.097 292.538 408.283 292.315 408.283L289.839 408.32ZM298.066 408.227C297.842 408.227 297.656 408.041 297.656 407.817C297.656 407.594 297.842 407.407 298.066 407.407L300.522 407.389C300.746 407.389 300.932 407.575 300.932 407.799C300.932 408.022 300.746 408.209 300.522 408.209L298.066 408.227ZM390.916 408.19L388.441 408.153C388.217 408.153 388.031 407.966 388.031 407.743C388.031 407.519 388.217 407.333 388.441 407.333L390.897 407.37C391.121 407.37 391.307 407.556 391.307 407.78C391.325 408.004 391.139 408.19 390.916 408.19ZM306.292 408.153C306.068 408.153 305.882 407.966 305.882 407.743C305.882 407.519 306.068 407.333 306.292 407.333L308.748 407.314C308.972 407.314 309.158 407.5 309.158 407.724C309.158 407.948 308.972 408.134 308.748 408.134L306.292 408.153ZM382.708 408.097L380.233 408.078C380.01 408.078 379.824 407.892 379.824 407.668C379.824 407.444 380.01 407.258 380.233 407.258L382.708 407.277C382.932 407.277 383.118 407.463 383.118 407.687C383.118 407.91 382.932 408.097 382.708 408.097ZM314.499 408.078C314.276 408.078 314.09 407.892 314.09 407.668C314.09 407.444 314.276 407.258 314.499 407.258L316.956 407.239C317.179 407.239 317.365 407.426 317.365 407.649C317.365 407.873 317.179 408.059 316.956 408.059L314.499 408.078ZM374.482 408.022L372.007 408.004C371.784 408.004 371.598 407.817 371.598 407.594C371.598 407.37 371.784 407.184 372.007 407.184L374.464 407.202C374.687 407.202 374.873 407.389 374.873 407.612C374.892 407.836 374.706 408.022 374.482 408.022ZM322.725 408.022C322.502 408.022 322.316 407.836 322.316 407.612C322.316 407.389 322.502 407.202 322.725 407.202L325.182 407.184C325.405 407.184 325.591 407.37 325.591 407.594C325.591 407.817 325.405 408.004 325.182 408.004L322.725 408.022ZM330.933 407.985C330.709 407.985 330.523 407.799 330.523 407.575C330.523 407.351 330.709 407.165 330.933 407.165L333.389 407.146C333.613 407.146 333.799 407.333 333.799 407.556C333.799 407.78 333.613 407.966 333.389 407.966L330.933 407.985ZM366.275 407.985L363.8 407.966C363.576 407.966 363.39 407.78 363.39 407.556C363.39 407.333 363.576 407.146 363.8 407.146L366.256 407.165C366.48 407.165 366.666 407.351 366.666 407.575C366.684 407.799 366.498 407.985 366.275 407.985ZM339.159 407.948C338.935 407.948 338.749 407.761 338.749 407.538C338.749 407.314 338.935 407.128 339.159 407.128H341.615C341.82 407.109 342.025 407.314 342.025 407.538C342.025 407.761 341.839 407.948 341.615 407.948H339.159ZM358.049 407.948H355.592C355.369 407.948 355.183 407.761 355.183 407.538C355.183 407.314 355.369 407.128 355.592 407.128H358.049C358.272 407.128 358.458 407.314 358.458 407.538C358.458 407.761 358.272 407.948 358.049 407.948ZM347.366 407.948C347.143 407.948 346.957 407.761 346.957 407.538C346.957 407.314 347.143 407.128 347.366 407.128H349.823C350.046 407.128 350.232 407.314 350.232 407.538C350.232 407.761 350.046 407.948 349.823 407.948H347.366Z" fill="white"/>
<path d="M382.542 484.545H360.636C357.77 484.545 355.351 482.402 355.016 479.569L352.485 458.454C352.075 455.099 354.718 452.136 358.124 452.136H384.44C387.771 452.136 390.377 454.987 390.079 458.286L388.199 479.401C387.92 482.309 385.482 484.545 382.542 484.545Z" fill="url(#paint36_linear)"/>
<path d="M381.387 482.067H362.832C360.394 482.067 358.347 480.259 358.068 477.855L355.927 459.982C355.592 457.131 357.826 454.633 360.692 454.633H382.988C385.798 454.633 388.013 457.037 387.771 459.833L386.17 477.706C385.947 480.166 383.862 482.067 381.387 482.067Z" fill="url(#paint37_linear)"/>
<defs>
<linearGradient id="paint0_linear" x1="30.8945" y1="69.0379" x2="941.368" y2="804.29" gradientUnits="userSpaceOnUse">
<stop stop-color="#FF4A35" stop-opacity="0.65"/>
<stop offset="1" stop-color="#FF4A35"/>
</linearGradient>
<linearGradient id="paint1_linear" x1="24.1303" y1="204.155" x2="261.071" y2="273.913" gradientUnits="userSpaceOnUse">
<stop stop-color="#4F52FF"/>
<stop offset="1" stop-color="#4042E2"/>
</linearGradient>
<linearGradient id="paint2_linear" x1="16.178" y1="231.166" x2="253.119" y2="300.924" gradientUnits="userSpaceOnUse">
<stop stop-color="#4F52FF"/>
<stop offset="1" stop-color="#4042E2"/>
</linearGradient>
<linearGradient id="paint3_linear" x1="270.215" y1="-19.3577" x2="241.823" y2="381.355" gradientUnits="userSpaceOnUse">
<stop stop-color="#4F52FF"/>
<stop offset="1" stop-color="#4042E2"/>
</linearGradient>
<linearGradient id="paint4_linear" x1="272.769" y1="-19.1766" x2="244.378" y2="381.536" gradientUnits="userSpaceOnUse">
<stop stop-color="#4F52FF"/>
<stop offset="1" stop-color="#4042E2"/>
</linearGradient>
<linearGradient id="paint5_linear" x1="424.995" y1="152.307" x2="173.449" y2="553.657" gradientUnits="userSpaceOnUse">
<stop stop-color="#4F52FF"/>
<stop offset="1" stop-color="#4042E2"/>
</linearGradient>
<linearGradient id="paint6_linear" x1="466.705" y1="178.449" x2="215.158" y2="579.799" gradientUnits="userSpaceOnUse">
<stop stop-color="#4F52FF"/>
<stop offset="1" stop-color="#4042E2"/>
</linearGradient>
<linearGradient id="paint7_linear" x1="185.369" y1="100.074" x2="213.552" y2="100.074" gradientUnits="userSpaceOnUse">
<stop stop-color="#DAE3FE"/>
<stop offset="1" stop-color="#E9EFFD"/>
</linearGradient>
<linearGradient id="paint8_linear" x1="165.029" y1="99.8682" x2="234.326" y2="99.8682" gradientUnits="userSpaceOnUse">
<stop stop-color="#DAE3FE"/>
<stop offset="1" stop-color="#E9EFFD"/>
</linearGradient>
<linearGradient id="paint9_linear" x1="91.5493" y1="148.633" x2="110.748" y2="148.633" gradientUnits="userSpaceOnUse">
<stop stop-color="#DAE3FE"/>
<stop offset="1" stop-color="#E9EFFD"/>
</linearGradient>
<linearGradient id="paint10_linear" x1="77.3869" y1="148.492" x2="125.195" y2="148.492" gradientUnits="userSpaceOnUse">
<stop stop-color="#DAE3FE"/>
<stop offset="1" stop-color="#E9EFFD"/>
</linearGradient>
<linearGradient id="paint11_linear" x1="176.861" y1="383.703" x2="154.99" y2="514.331" gradientUnits="userSpaceOnUse">
<stop stop-color="#4F52FF"/>
<stop offset="1" stop-color="#4042E2"/>
</linearGradient>
<linearGradient id="paint12_linear" x1="139.148" y1="503.375" x2="171.593" y2="503.375" gradientUnits="userSpaceOnUse">
<stop stop-color="#09005D"/>
<stop offset="1" stop-color="#1A0F91"/>
</linearGradient>
<linearGradient id="paint13_linear" x1="142.233" y1="494.227" x2="151.637" y2="494.227" gradientUnits="userSpaceOnUse">
<stop stop-color="#FEBBBA"/>
<stop offset="1" stop-color="#FF928E"/>
</linearGradient>
<linearGradient id="paint14_linear" x1="110.101" y1="372.525" x2="88.2296" y2="503.153" gradientUnits="userSpaceOnUse">
<stop stop-color="#4F52FF"/>
<stop offset="1" stop-color="#4042E2"/>
</linearGradient>
<linearGradient id="paint15_linear" x1="79.6532" y1="505.468" x2="98.4326" y2="505.468" gradientUnits="userSpaceOnUse">
<stop stop-color="#09005D"/>
<stop offset="1" stop-color="#1A0F91"/>
</linearGradient>
<linearGradient id="paint16_linear" x1="89.4142" y1="489.316" x2="100.653" y2="489.316" gradientUnits="userSpaceOnUse">
<stop stop-color="#FEBBBA"/>
<stop offset="1" stop-color="#FF928E"/>
</linearGradient>
<linearGradient id="paint17_linear" x1="365.557" y1="165.612" x2="248.322" y2="303.456" gradientUnits="userSpaceOnUse">
<stop stop-color="#09005D"/>
<stop offset="1" stop-color="#1A0F91"/>
</linearGradient>
<linearGradient id="paint18_linear" x1="151.571" y1="379.997" x2="186.053" y2="475.321" gradientUnits="userSpaceOnUse">
<stop stop-color="#09005D"/>
<stop offset="1" stop-color="#1A0F91"/>
</linearGradient>
<linearGradient id="paint19_linear" x1="244.002" y1="252.25" x2="199.412" y2="310.18" gradientUnits="userSpaceOnUse">
<stop stop-color="#FEBBBA"/>
<stop offset="1" stop-color="#FF928E"/>
</linearGradient>
<linearGradient id="paint20_linear" x1="144.784" y1="289.73" x2="149.667" y2="264.13" gradientUnits="userSpaceOnUse">
<stop stop-color="#FEBBBA"/>
<stop offset="1" stop-color="#FF928E"/>
</linearGradient>
<linearGradient id="paint21_linear" x1="157.961" y1="242.759" x2="130.147" y2="264.011" gradientUnits="userSpaceOnUse">
<stop stop-color="#FEBBBA"/>
<stop offset="1" stop-color="#FF928E"/>
</linearGradient>
<linearGradient id="paint22_linear" x1="138.402" y1="225.902" x2="164.324" y2="259.231" gradientUnits="userSpaceOnUse">
<stop stop-color="#09005D"/>
<stop offset="1" stop-color="#1A0F91"/>
</linearGradient>
<linearGradient id="paint23_linear" x1="154.514" y1="238.248" x2="126.7" y2="259.5" gradientUnits="userSpaceOnUse">
<stop stop-color="#FEBBBA"/>
<stop offset="1" stop-color="#FF928E"/>
</linearGradient>
<linearGradient id="paint24_linear" x1="267.534" y1="121.037" x2="249.553" y2="255.232" gradientUnits="userSpaceOnUse">
<stop stop-color="#FEBBBA"/>
<stop offset="1" stop-color="#FF928E"/>
</linearGradient>
<linearGradient id="paint25_linear" x1="146.386" y1="342.613" x2="172.455" y2="279.63" gradientUnits="userSpaceOnUse">
<stop stop-color="#FEBBBA"/>
<stop offset="1" stop-color="#FF928E"/>
</linearGradient>
<linearGradient id="paint26_linear" x1="143.652" y1="355.218" x2="203.068" y2="355.218" gradientUnits="userSpaceOnUse">
<stop stop-color="#4F52FF"/>
<stop offset="1" stop-color="#4042E2"/>
</linearGradient>
<linearGradient id="paint27_linear" x1="152.411" y1="377.763" x2="229.663" y2="324.935" gradientUnits="userSpaceOnUse">
<stop stop-color="#09005D"/>
<stop offset="1" stop-color="#1A0F91"/>
</linearGradient>
<linearGradient id="paint28_linear" x1="217.218" y1="332.308" x2="224.907" y2="332.308" gradientUnits="userSpaceOnUse">
<stop stop-color="#4F52FF"/>
<stop offset="1" stop-color="#4042E2"/>
</linearGradient>
<linearGradient id="paint29_linear" x1="369.964" y1="448.195" x2="370.911" y2="520.655" gradientUnits="userSpaceOnUse">
<stop stop-color="#09005D"/>
<stop offset="1" stop-color="#1A0F91"/>
</linearGradient>
<linearGradient id="paint30_linear" x1="335.392" y1="415.101" x2="334.378" y2="390.548" gradientUnits="userSpaceOnUse">
<stop stop-color="#09005D"/>
<stop offset="1" stop-color="#1A0F91"/>
</linearGradient>
<linearGradient id="paint31_linear" x1="334.112" y1="378.237" x2="339.181" y2="448.604" gradientUnits="userSpaceOnUse">
<stop stop-color="#09005D"/>
<stop offset="1" stop-color="#1A0F91"/>
</linearGradient>
<linearGradient id="paint32_linear" x1="403.701" y1="412.28" x2="402.687" y2="387.727" gradientUnits="userSpaceOnUse">
<stop stop-color="#09005D"/>
<stop offset="1" stop-color="#1A0F91"/>
</linearGradient>
<linearGradient id="paint33_linear" x1="402.237" y1="373.33" x2="407.307" y2="443.696" gradientUnits="userSpaceOnUse">
<stop stop-color="#09005D"/>
<stop offset="1" stop-color="#1A0F91"/>
</linearGradient>
<linearGradient id="paint34_linear" x1="446.309" y1="211.487" x2="404.685" y2="300.916" gradientUnits="userSpaceOnUse">
<stop stop-color="#09005D"/>
<stop offset="1" stop-color="#1A0F91"/>
</linearGradient>
<linearGradient id="paint35_linear" x1="379.889" y1="351.655" x2="371.687" y2="421.593" gradientUnits="userSpaceOnUse">
<stop stop-color="#09005D"/>
<stop offset="1" stop-color="#1A0F91"/>
</linearGradient>
<linearGradient id="paint36_linear" x1="378.051" y1="406.959" x2="368.166" y2="485.17" gradientUnits="userSpaceOnUse">
<stop stop-color="#4F52FF"/>
<stop offset="1" stop-color="#4042E2"/>
</linearGradient>
<linearGradient id="paint37_linear" x1="377.584" y1="416.371" x2="369.213" y2="482.597" gradientUnits="userSpaceOnUse">
<stop stop-color="#09005D"/>
<stop offset="1" stop-color="#1A0F91"/>
</linearGradient>
</defs>
</svg>
