<svg width="28" height="29" viewBox="0 0 28 29" fill="none" xmlns="http://www.w3.org/2000/svg">
<path d="M16.3856 14.0059C16.3856 15.4858 15.207 16.6855 13.7531 16.6855C12.2992 16.6855 11.1206 15.4858 11.1206 14.0059C11.1206 12.5259 12.2992 11.3262 13.7531 11.3262C15.207 11.3262 16.3856 12.5259 16.3856 14.0059Z" fill="#4F4F4F"/>
<path d="M19.9099 9.26437C19.7834 8.91531 19.5815 8.59936 19.3192 8.34003C19.0644 8.073 18.7542 7.86749 18.4111 7.73868C18.1328 7.62866 17.7148 7.49771 16.9448 7.46204C16.1119 7.42337 15.8621 7.41504 13.7534 7.41504C11.6446 7.41504 11.3948 7.42316 10.5621 7.46182C9.79211 7.49771 9.37385 7.62866 9.09579 7.73868C8.75266 7.86749 8.44228 8.073 8.18772 8.34003C7.92539 8.59936 7.7235 8.9151 7.59675 9.26437C7.48867 9.54764 7.36002 9.97339 7.32498 10.7572C7.28699 11.6048 7.27881 11.859 7.27881 14.0057C7.27881 16.1522 7.28699 16.4064 7.32498 17.2543C7.36002 18.0381 7.48867 18.4636 7.59675 18.7469C7.7235 19.0962 7.92518 19.4119 8.18751 19.6712C8.44228 19.9383 8.75245 20.1438 9.09558 20.2726C9.37385 20.3828 9.79211 20.5138 10.5621 20.5494C11.3948 20.5881 11.6443 20.5962 13.7532 20.5962C15.8623 20.5962 16.1121 20.5881 16.9446 20.5494C17.7146 20.5138 18.1328 20.3828 18.4111 20.2726C19.0999 20.0021 19.6442 19.448 19.9099 18.7469C20.018 18.4636 20.1467 18.0381 20.1819 17.2543C20.2199 16.4064 20.2279 16.1522 20.2279 14.0057C20.2279 11.859 20.2199 11.6048 20.1819 10.7572C20.1469 9.97339 20.0182 9.54764 19.9099 9.26437ZM13.7534 18.1336C11.5136 18.1336 9.69788 16.2855 9.69788 14.0055C9.69788 11.7255 11.5136 9.87747 13.7534 9.87747C15.9931 9.87747 17.8088 11.7255 17.8088 14.0055C17.8088 16.2855 15.9931 18.1336 13.7534 18.1336ZM17.9691 10.679C17.4457 10.679 17.0214 10.247 17.0214 9.71426C17.0214 9.18149 17.4457 8.74954 17.9691 8.74954C18.4925 8.74954 18.9169 9.18149 18.9169 9.71426C18.9167 10.247 18.4925 10.679 17.9691 10.679Z" fill="#4F4F4F"/>
<path d="M13.7535 0.00585938C6.1588 0.00585938 0 6.27505 0 14.0059C0 21.7367 6.1588 28.0059 13.7535 28.0059C21.3481 28.0059 27.5069 21.7367 27.5069 14.0059C27.5069 6.27505 21.3481 0.00585938 13.7535 0.00585938ZM21.6033 17.3202C21.5651 18.176 21.4314 18.7603 21.2363 19.2717C20.826 20.3515 19.9874 21.2052 18.9265 21.6228C18.4243 21.8215 17.8502 21.9573 17.0097 21.9964C16.1675 22.0355 15.8985 22.0449 13.7537 22.0449C11.6087 22.0449 11.3398 22.0355 10.4975 21.9964C9.65697 21.9573 9.08279 21.8215 8.58059 21.6228C8.05342 21.4209 7.5762 21.1046 7.18166 20.6955C6.77999 20.2941 6.46918 19.8081 6.27086 19.2717C6.07569 18.7605 5.94201 18.176 5.90381 17.3204C5.86499 16.463 5.85597 16.1891 5.85597 14.0059C5.85597 11.8226 5.86499 11.5488 5.9036 10.6915C5.9418 9.83572 6.07527 9.25146 6.27044 8.74005C6.46876 8.20364 6.77978 7.71765 7.18166 7.31625C7.57599 6.90717 8.05342 6.59079 8.58038 6.38892C9.08279 6.19025 9.65676 6.05438 10.4975 6.01529C11.3396 5.9762 11.6087 5.9668 13.7535 5.9668C15.8982 5.9668 16.1673 5.9762 17.0095 6.0155C17.8502 6.05438 18.4241 6.19025 18.9265 6.3887C19.4535 6.59058 19.9309 6.90717 20.3255 7.31625C20.7271 7.71786 21.0382 8.20364 21.2363 8.74005C21.4317 9.25146 21.5651 9.83572 21.6035 10.6915C21.6419 11.5488 21.651 11.8226 21.651 14.0059C21.651 16.1891 21.6419 16.463 21.6033 17.3202Z" fill="#4F4F4F"/>
</svg>
