<svg width="232" height="71" viewBox="0 0 232 71" fill="none" xmlns="http://www.w3.org/2000/svg">
<rect x="14.4453" width="28.8903" height="28.8903" rx="3" transform="rotate(30 14.4453 0)" fill="#FF4A35"/>
<rect x="34.9805" y="31.1016" width="28.8903" height="28.8903" rx="3" transform="rotate(30 34.9805 31.1016)" fill="#585CE9"/>
<rect x="43.3145" y="16.6675" width="12.2228" height="12.2228" rx="2" transform="rotate(30 43.3145 16.6675)" fill="#19AFA7"/>
<rect x="12.2119" y="37.2021" width="12.2228" height="12.2228" rx="2" transform="rotate(30 12.2119 37.2021)" fill="#FFC100"/>
<path d="M76.48 32.12C75.4 32.12 74.4333 31.8867 73.58 31.42C72.74 30.9533 72.08 30.3133 71.6 29.5C71.12 28.6733 70.88 27.74 70.88 26.7C70.88 25.66 71.12 24.7333 71.6 23.92C72.08 23.0933 72.74 22.4533 73.58 22C74.4333 21.5333 75.4 21.3 76.48 21.3C77.44 21.3 78.2933 21.4933 79.04 21.88C79.8 22.2667 80.3867 22.8267 80.8 23.56L79.34 24.5C79.0067 23.9933 78.5933 23.6133 78.1 23.36C77.6067 23.1067 77.06 22.98 76.46 22.98C75.7667 22.98 75.14 23.1333 74.58 23.44C74.0333 23.7467 73.6 24.1867 73.28 24.76C72.9733 25.32 72.82 25.9667 72.82 26.7C72.82 27.4467 72.9733 28.1067 73.28 28.68C73.6 29.24 74.0333 29.6733 74.58 29.98C75.14 30.2867 75.7667 30.44 76.46 30.44C77.06 30.44 77.6067 30.3133 78.1 30.06C78.5933 29.8067 79.0067 29.4267 79.34 28.92L80.8 29.84C80.3867 30.5733 79.8 31.14 79.04 31.54C78.2933 31.9267 77.44 32.12 76.48 32.12ZM83.2858 21.4H85.2058V29.12L91.7058 21.4H93.4458V32H91.5258V24.28L85.0458 32H83.2858V21.4ZM101.793 32.12C100.713 32.12 99.7458 31.8867 98.8925 31.42C98.0525 30.9533 97.3925 30.3133 96.9125 29.5C96.4325 28.6733 96.1925 27.74 96.1925 26.7C96.1925 25.66 96.4325 24.7333 96.9125 23.92C97.3925 23.0933 98.0525 22.4533 98.8925 22C99.7458 21.5333 100.713 21.3 101.793 21.3C102.753 21.3 103.606 21.4933 104.353 21.88C105.113 22.2667 105.699 22.8267 106.113 23.56L104.653 24.5C104.319 23.9933 103.906 23.6133 103.413 23.36C102.919 23.1067 102.373 22.98 101.773 22.98C101.079 22.98 100.453 23.1333 99.8925 23.44C99.3458 23.7467 98.9125 24.1867 98.5925 24.76C98.2858 25.32 98.1325 25.9667 98.1325 26.7C98.1325 27.4467 98.2858 28.1067 98.5925 28.68C98.9125 29.24 99.3458 29.6733 99.8925 29.98C100.453 30.2867 101.079 30.44 101.773 30.44C102.373 30.44 102.919 30.3133 103.413 30.06C103.906 29.8067 104.319 29.4267 104.653 28.92L106.113 29.84C105.699 30.5733 105.113 31.14 104.353 31.54C103.606 31.9267 102.753 32.12 101.793 32.12ZM116.362 23.08H112.482V32H110.562V23.08H106.682V21.4H116.362V23.08ZM127.436 26.76C127.436 26.9067 127.423 27.1 127.396 27.34H118.796C118.916 28.2733 119.323 29.0267 120.016 29.6C120.723 30.16 121.596 30.44 122.636 30.44C123.903 30.44 124.923 30.0133 125.696 29.16L126.756 30.4C126.276 30.96 125.676 31.3867 124.956 31.68C124.249 31.9733 123.456 32.12 122.576 32.12C121.456 32.12 120.463 31.8933 119.596 31.44C118.729 30.9733 118.056 30.3267 117.576 29.5C117.109 28.6733 116.876 27.74 116.876 26.7C116.876 25.6733 117.103 24.7467 117.556 23.92C118.023 23.0933 118.656 22.4533 119.456 22C120.269 21.5333 121.183 21.3 122.196 21.3C123.209 21.3 124.109 21.5333 124.896 22C125.696 22.4533 126.316 23.0933 126.756 23.92C127.209 24.7467 127.436 25.6933 127.436 26.76ZM122.196 22.92C121.276 22.92 120.503 23.2 119.876 23.76C119.263 24.32 118.903 25.0533 118.796 25.96H125.596C125.489 25.0667 125.123 24.34 124.496 23.78C123.883 23.2067 123.116 22.92 122.196 22.92ZM142.635 21.4V32H140.895V24.26L136.935 30.8H136.095L132.175 24.24V32H130.415V21.4H132.395L136.555 28.56L140.835 21.4H142.635ZM151.152 25C152.485 25.0133 153.505 25.32 154.212 25.92C154.918 26.52 155.272 27.3667 155.272 28.46C155.272 29.6067 154.885 30.4933 154.112 31.12C153.352 31.7333 152.258 32.0333 150.832 32.02L146.372 32V21.4H148.292V24.98L151.152 25ZM156.852 21.4H158.772V32H156.852V21.4ZM150.692 30.56C151.558 30.5733 152.212 30.4 152.652 30.04C153.105 29.68 153.332 29.1467 153.332 28.44C153.332 27.7467 153.112 27.24 152.672 26.92C152.232 26.6 151.572 26.4333 150.692 26.42L148.292 26.38V30.54L150.692 30.56ZM75.64 43.3C77.1067 43.3 78.2267 43.66 79 44.38C79.7867 45.1 80.18 46.1733 80.18 47.6V54H78.36V52.6C78.04 53.0933 77.58 53.4733 76.98 53.74C76.3933 53.9933 75.6933 54.12 74.88 54.12C73.6933 54.12 72.74 53.8333 72.02 53.26C71.3133 52.6867 70.96 51.9333 70.96 51C70.96 50.0667 71.3 49.32 71.98 48.76C72.66 48.1867 73.74 47.9 75.22 47.9H78.26V47.52C78.26 46.6933 78.02 46.06 77.54 45.62C77.06 45.18 76.3533 44.96 75.42 44.96C74.7933 44.96 74.18 45.0667 73.58 45.28C72.98 45.48 72.4733 45.7533 72.06 46.1L71.26 44.66C71.8067 44.22 72.46 43.8867 73.22 43.66C73.98 43.42 74.7867 43.3 75.64 43.3ZM75.2 52.64C75.9333 52.64 76.5667 52.48 77.1 52.16C77.6333 51.8267 78.02 51.36 78.26 50.76V49.28H75.3C73.6733 49.28 72.86 49.8267 72.86 50.92C72.86 51.4533 73.0667 51.8733 73.48 52.18C73.8933 52.4867 74.4667 52.64 75.2 52.64ZM90.8573 48.5C92.2307 48.8467 92.9173 49.7067 92.9173 51.08C92.9173 52.0133 92.564 52.7333 91.8573 53.24C91.164 53.7467 90.124 54 88.7373 54H83.6373V43.4H88.5573C89.8107 43.4 90.7907 43.64 91.4973 44.12C92.204 44.5867 92.5573 45.2533 92.5573 46.12C92.5573 46.68 92.404 47.1667 92.0973 47.58C91.804 47.98 91.3907 48.2867 90.8573 48.5ZM85.5173 47.96H88.3973C89.1307 47.96 89.684 47.8267 90.0573 47.56C90.444 47.2933 90.6373 46.9067 90.6373 46.4C90.6373 45.3867 89.8907 44.88 88.3973 44.88H85.5173V47.96ZM88.5973 52.52C89.3973 52.52 89.9973 52.3933 90.3973 52.14C90.7973 51.8867 90.9973 51.4933 90.9973 50.96C90.9973 50.4133 90.8107 50.0067 90.4373 49.74C90.0773 49.4733 89.504 49.34 88.7173 49.34H85.5173V52.52H88.5973ZM103.823 45.08H99.9425V54H98.0225V45.08H94.1425V43.4H103.823V45.08ZM109.857 54.12C108.804 54.12 107.857 53.8867 107.017 53.42C106.177 52.9533 105.517 52.3133 105.037 51.5C104.57 50.6733 104.337 49.74 104.337 48.7C104.337 47.66 104.57 46.7333 105.037 45.92C105.517 45.0933 106.177 44.4533 107.017 44C107.857 43.5333 108.804 43.3 109.857 43.3C110.91 43.3 111.85 43.5333 112.677 44C113.517 44.4533 114.17 45.0933 114.637 45.92C115.117 46.7333 115.357 47.66 115.357 48.7C115.357 49.74 115.117 50.6733 114.637 51.5C114.17 52.3133 113.517 52.9533 112.677 53.42C111.85 53.8867 110.91 54.12 109.857 54.12ZM109.857 52.44C110.537 52.44 111.144 52.2867 111.677 51.98C112.224 51.66 112.65 51.22 112.957 50.66C113.264 50.0867 113.417 49.4333 113.417 48.7C113.417 47.9667 113.264 47.32 112.957 46.76C112.65 46.1867 112.224 45.7467 111.677 45.44C111.144 45.1333 110.537 44.98 109.857 44.98C109.177 44.98 108.564 45.1333 108.017 45.44C107.484 45.7467 107.057 46.1867 106.737 46.76C106.43 47.32 106.277 47.9667 106.277 48.7C106.277 49.4333 106.43 50.0867 106.737 50.66C107.057 51.22 107.484 51.66 108.017 51.98C108.564 52.2867 109.177 52.44 109.857 52.44ZM130.35 43.4V54H128.61V46.26L124.65 52.8H123.81L119.89 46.24V54H118.13V43.4H120.11L124.27 50.56L128.55 43.4H130.35ZM137.867 43.3C139.333 43.3 140.453 43.66 141.227 44.38C142.013 45.1 142.407 46.1733 142.407 47.6V54H140.587V52.6C140.267 53.0933 139.807 53.4733 139.207 53.74C138.62 53.9933 137.92 54.12 137.107 54.12C135.92 54.12 134.967 53.8333 134.247 53.26C133.54 52.6867 133.187 51.9333 133.187 51C133.187 50.0667 133.527 49.32 134.207 48.76C134.887 48.1867 135.967 47.9 137.447 47.9H140.487V47.52C140.487 46.6933 140.247 46.06 139.767 45.62C139.287 45.18 138.58 44.96 137.647 44.96C137.02 44.96 136.407 45.0667 135.807 45.28C135.207 45.48 134.7 45.7533 134.287 46.1L133.487 44.66C134.033 44.22 134.687 43.8867 135.447 43.66C136.207 43.42 137.013 43.3 137.867 43.3ZM137.427 52.64C138.16 52.64 138.793 52.48 139.327 52.16C139.86 51.8267 140.247 51.36 140.487 50.76V49.28H137.527C135.9 49.28 135.087 49.8267 135.087 50.92C135.087 51.4533 135.293 51.8733 135.707 52.18C136.12 52.4867 136.693 52.64 137.427 52.64ZM153.764 45.08H149.884V54H147.964V45.08H144.084V43.4H153.764V45.08ZM155.727 43.4H157.647V51.12L164.147 43.4H165.887V54H163.967V46.28L157.487 54H155.727V43.4ZM175.178 48.48C175.885 48.6667 176.431 48.9667 176.818 49.38C177.205 49.7933 177.398 50.3067 177.398 50.92C177.398 51.5467 177.185 52.1067 176.758 52.6C176.331 53.08 175.738 53.46 174.978 53.74C174.231 54.0067 173.391 54.14 172.458 54.14C171.671 54.14 170.898 54.04 170.138 53.84C169.391 53.6267 168.725 53.3267 168.138 52.94L168.718 51.48C169.225 51.8 169.805 52.0533 170.458 52.24C171.111 52.4133 171.771 52.5 172.438 52.5C173.345 52.5 174.065 52.3467 174.598 52.04C175.145 51.72 175.418 51.2933 175.418 50.76C175.418 50.2667 175.198 49.8867 174.758 49.62C174.331 49.3533 173.725 49.22 172.938 49.22H170.998V47.84H172.798C173.518 47.84 174.085 47.7133 174.498 47.46C174.911 47.2067 175.118 46.86 175.118 46.42C175.118 45.94 174.871 45.5667 174.378 45.3C173.898 45.0333 173.245 44.9 172.418 44.9C171.365 44.9 170.251 45.1733 169.078 45.72L168.558 44.24C169.851 43.5867 171.205 43.26 172.618 43.26C173.471 43.26 174.238 43.38 174.918 43.62C175.598 43.86 176.131 44.2 176.518 44.64C176.905 45.08 177.098 45.58 177.098 46.14C177.098 46.66 176.925 47.1267 176.578 47.54C176.231 47.9533 175.765 48.2667 175.178 48.48ZM184.097 43.3C185.564 43.3 186.684 43.66 187.457 44.38C188.244 45.1 188.637 46.1733 188.637 47.6V54H186.817V52.6C186.497 53.0933 186.037 53.4733 185.437 53.74C184.85 53.9933 184.15 54.12 183.337 54.12C182.15 54.12 181.197 53.8333 180.477 53.26C179.77 52.6867 179.417 51.9333 179.417 51C179.417 50.0667 179.757 49.32 180.437 48.76C181.117 48.1867 182.197 47.9 183.677 47.9H186.717V47.52C186.717 46.6933 186.477 46.06 185.997 45.62C185.517 45.18 184.81 44.96 183.877 44.96C183.25 44.96 182.637 45.0667 182.037 45.28C181.437 45.48 180.93 45.7533 180.517 46.1L179.717 44.66C180.264 44.22 180.917 43.8867 181.677 43.66C182.437 43.42 183.244 43.3 184.097 43.3ZM183.657 52.64C184.39 52.64 185.024 52.48 185.557 52.16C186.09 51.8267 186.477 51.36 186.717 50.76V49.28H183.757C182.13 49.28 181.317 49.8267 181.317 50.92C181.317 51.4533 181.524 51.8733 181.937 52.18C182.35 52.4867 182.924 52.64 183.657 52.64ZM203.414 52.32V56.54H201.594V54H192.094V43.4H194.014V52.32H199.814V43.4H201.734V52.32H203.414ZM205.903 43.4H207.823V51.12L214.323 43.4H216.063V54H214.143V46.28L207.663 54H205.903V43.4ZM219.79 43.4H221.71V51.12L228.21 43.4H229.95V54H228.03V46.28L221.55 54H219.79V43.4Z" fill="#333333"/>
</svg>
