<svg width="406" height="405" viewBox="0 0 406 405" fill="none" xmlns="http://www.w3.org/2000/svg">
<path opacity="0.1" d="M356.457 343.64C346.008 354.409 336.654 360.742 329.488 365.528C259.629 412.165 179.541 406.634 154.863 402.038C115.038 394.625 81.6625 381.492 52.7821 355.401C-12.8592 296.098 -9.66322 172.415 40.4798 95.7913C46.434 86.7003 96.504 12.4698 176.52 2.02182C178.475 1.75916 179.935 1.61324 181.219 1.48191C193.594 0.168609 270.297 -6.74809 332.845 45.6525C341.805 53.1529 357.727 65.7751 369.562 87.3132C411.927 164.418 418.581 279.609 356.457 343.64Z" fill="#585CE9"/>
<path d="M352.911 164.594C352.794 164.083 352.677 163.558 352.546 163.047C333.633 85.1974 254.492 37.5831 175.79 56.6989L210.406 199.206L352.911 164.594Z" fill="#91B3FA"/>
<path d="M209.998 198.666L348.723 246.295C357.347 221.27 359.288 193.603 352.94 165.907C352.736 165.031 352.532 164.17 352.313 163.295L209.998 198.666Z" fill="#91B3FA"/>
<path d="M210.407 199.206L238.601 343.115C239.506 342.939 240.411 342.75 241.316 342.56C293.385 331.339 332.977 293.764 349.147 246.835L210.407 199.206Z" fill="#7D97F4"/>
<path d="M192.384 187.328L163.11 45.4629C96.914 59.1212 50.4193 115.418 46.3623 179.769L191.582 188.262C192.092 188.291 192.486 187.839 192.384 187.328Z" fill="url(#paint0_linear)"/>
<path d="M210.509 198.593L64.1664 193.734C63.5389 206.546 64.6918 217.301 67.6105 230.434C81.2262 291.706 131.355 335.424 190.02 343.815L210.509 198.593Z" fill="url(#paint1_linear)"/>
<path d="M188.794 344.253C204.978 346.704 221.848 346.471 238.806 343.158L210.757 199.221L188.794 344.253Z" fill="url(#paint2_linear)"/>
<g opacity="0.61">
<path opacity="0.61" d="M158.133 330.799C158.016 330.799 157.885 330.77 157.768 330.726C137.498 322.364 119.198 309.231 104.808 292.771C89.9523 275.757 79.2553 255.08 73.8849 232.987C73.4033 231.003 72.9655 228.989 72.5715 227.019C72.4694 226.494 72.805 225.983 73.3304 225.881C73.8557 225.779 74.3665 226.114 74.4687 226.64C74.8627 228.595 75.3005 230.58 75.7675 232.535C81.0649 254.336 91.6014 274.721 106.268 291.502C120.453 307.743 138.505 320.686 158.483 328.931C158.979 329.135 159.213 329.704 159.008 330.2C158.877 330.565 158.512 330.799 158.133 330.799Z" fill="white"/>
</g>
<g opacity="0.61">
<path opacity="0.61" d="M263.993 331.426C263.599 331.426 263.234 331.193 263.088 330.813C262.884 330.317 263.132 329.748 263.628 329.544C299.849 315.17 328.657 285.942 342.637 249.345C342.827 248.849 343.396 248.586 343.892 248.776C344.388 248.966 344.651 249.535 344.461 250.031C330.277 287.124 301.075 316.761 264.343 331.339C264.241 331.397 264.124 331.426 263.993 331.426Z" fill="white"/>
</g>
<g opacity="0.61">
<path opacity="0.61" d="M324.395 115.549C324.104 115.549 323.812 115.418 323.622 115.155C306.124 91.9829 282.22 75.0268 254.493 66.1255C253.982 65.965 253.705 65.4105 253.865 64.8998C254.026 64.389 254.58 64.1118 255.091 64.2723C283.198 73.2903 307.438 90.4799 325.183 113.988C325.504 114.411 325.417 115.024 324.994 115.345C324.819 115.491 324.6 115.549 324.395 115.549Z" fill="white"/>
</g>
<g opacity="0.74">
<path opacity="0.74" d="M126.072 179.084C126.057 179.084 126.028 179.084 126.013 179.084L51.499 174.283L51.6596 173.232C53.6151 160.595 56.8402 148.367 61.8166 134.738C62.0063 134.227 62.5609 133.979 63.0716 134.154C63.5824 134.344 63.8305 134.898 63.6554 135.409C58.8687 148.542 55.7165 160.347 53.761 172.473L126.145 177.143C126.684 177.172 127.093 177.639 127.049 178.179C127.02 178.69 126.582 179.084 126.072 179.084Z" fill="white"/>
</g>
<g opacity="0.74">
<path opacity="0.74" d="M184.517 182.848C184.487 182.848 184.444 182.848 184.414 182.848L169.223 181.871C168.683 181.842 168.274 181.375 168.318 180.835C168.347 180.295 168.829 179.886 169.354 179.93L184.05 180.879L168.245 106.867C168.128 106.342 168.464 105.831 168.989 105.714C169.515 105.597 170.025 105.933 170.142 106.458L186.049 180.951C186.151 181.433 186.02 181.929 185.699 182.309C185.392 182.659 184.969 182.848 184.517 182.848Z" fill="white"/>
</g>
<path d="M211.385 168.125L210.685 166.841L258.026 140.969L302.039 160.318L339.822 123.254L339.895 123.21L384.259 97.0315L385.003 98.2864L340.712 124.421L302.361 162.054L258.099 142.603L211.385 168.125Z" fill="url(#paint3_linear)"/>
<path d="M211.035 172.575C213.848 172.575 216.128 170.295 216.128 167.483C216.128 164.67 213.848 162.39 211.035 162.39C208.222 162.39 205.942 164.67 205.942 167.483C205.942 170.295 208.222 172.575 211.035 172.575Z" fill="url(#paint4_linear)"/>
<path d="M258.07 146.879C260.883 146.879 263.163 144.598 263.163 141.786C263.163 138.973 260.883 136.693 258.07 136.693C255.257 136.693 252.977 138.973 252.977 141.786C252.977 144.598 255.257 146.879 258.07 146.879Z" fill="url(#paint5_linear)"/>
<path d="M302.2 165.309C305.013 165.309 307.293 163.029 307.293 160.216C307.293 157.403 305.013 155.123 302.2 155.123C299.387 155.123 297.107 157.403 297.107 160.216C297.107 163.029 299.387 165.309 302.2 165.309Z" fill="url(#paint6_linear)"/>
<path d="M339.049 128.93C341.862 128.93 344.142 126.65 344.142 123.838C344.142 121.025 341.862 118.745 339.049 118.745C336.236 118.745 333.956 121.025 333.956 123.838C333.956 126.65 336.236 128.93 339.049 128.93Z" fill="url(#paint7_linear)"/>
<path d="M384.638 102.752C387.451 102.752 389.731 100.472 389.731 97.6591C389.731 94.8465 387.451 92.5664 384.638 92.5664C381.825 92.5664 379.545 94.8465 379.545 97.6591C379.545 100.472 381.825 102.752 384.638 102.752Z" fill="url(#paint8_linear)"/>
<path d="M81.7955 401.936C77.0672 402.344 68.8657 403.001 62.4008 403.293C58.5189 403.468 56.2715 403.088 54.9873 402.563C54.9873 402.709 54.9873 402.84 55.0019 402.972C55.0311 403.657 55.5856 404.197 56.2715 404.241C68.4862 404.927 78.2055 404.475 81.6641 404.27C82.3792 404.226 82.8024 403.453 82.4376 402.84C82.2624 402.519 82.0435 402.227 81.7955 401.936Z" fill="url(#paint9_linear)"/>
<path d="M62.4148 403.292C68.8797 403.015 77.0812 402.344 81.8095 401.935C77.1687 396.23 62.4148 392.392 62.4148 392.392H58.241C55.3807 396.522 54.9575 400.447 54.9867 402.563C56.2855 403.074 58.5183 403.453 62.4148 403.292Z" fill="url(#paint10_linear)"/>
<path d="M57.54 385.592L57.9341 393.297C57.9778 394.129 58.6054 394.829 59.4372 394.96C60.269 395.077 61.3781 395.092 62.5602 394.698C63.2898 394.45 63.8298 393.837 63.9611 393.093L65.3037 385.592H57.54Z" fill="url(#paint11_linear)"/>
<path d="M3.45675 403.234C1.41367 402.942 0.479689 401.877 0.0856661 400.739C0.0856661 400.754 0.0856661 400.754 0.0710726 400.768C-0.23539 401.965 0.465095 403.22 1.86607 403.803C3.5589 404.518 5.39768 404.635 6.82783 404.577C8.36015 404.518 9.77571 403.876 10.5492 402.855L10.5638 402.84C9.03144 403.614 6.87161 403.701 3.45675 403.234Z" fill="url(#paint12_linear)"/>
<path d="M13.1174 385.549H9.68799C4.46354 385.446 1.16542 396.478 0.100098 400.754C0.494121 401.892 1.41351 402.957 3.47118 403.249C6.88605 403.73 9.06047 403.628 10.5928 402.869C13.4239 399.148 14.8249 393.706 15.4962 390.524C16.255 386.891 13.1174 385.549 13.1174 385.549Z" fill="url(#paint13_linear)"/>
<path d="M10.1249 378.384L8.21316 385.972C7.97967 386.906 8.41747 387.869 9.27848 388.306C10.3438 388.861 11.8469 389.43 13.2333 389.27C13.8754 389.197 14.4154 388.73 14.6343 388.117L17.4362 380.135L10.1249 378.384Z" fill="url(#paint14_linear)"/>
<path d="M7.84912 380.573C10.2279 382.674 17.9332 382.951 17.9332 382.951C45.7337 316.236 57.102 306.765 57.102 306.765C53.0888 331.952 56.4599 387.694 56.4599 387.694C61.0422 389.722 66.9671 387.694 66.9671 387.694C67.3466 346.471 73.6801 310.516 81.1665 282.178C62.3848 281.754 52.3883 275.319 49.1194 272.751C33.4606 297.995 7.84912 380.573 7.84912 380.573Z" fill="url(#paint15_linear)"/>
<path d="M53.8919 196.025C50.3311 213.769 51.6153 245.507 52.4471 259.997C52.6806 264.069 49.8349 269.716 47.5438 273.554C47.1789 274.152 47.4124 274.925 48.0253 275.246C51.8634 277.216 64.8953 283.345 79.9995 284.104C81.0065 284.147 81.9113 283.462 82.1594 282.499C93.3525 240.692 106.37 213.974 106.37 213.974C92.0099 191.035 53.8919 196.025 53.8919 196.025Z" fill="url(#paint16_linear)"/>
<path d="M58.9997 305.189C58.8392 305.189 58.6787 305.145 58.5327 305.058C58.1095 304.795 57.9782 304.255 58.2409 303.832C58.3868 303.584 61.9914 297.776 69.2589 294.26C69.6967 294.041 70.2367 294.231 70.441 294.668C70.6599 295.106 70.4702 295.646 70.0324 295.85C63.2464 299.119 59.7878 304.679 59.7586 304.737C59.5981 305.029 59.3062 305.189 58.9997 305.189Z" fill="url(#paint17_linear)"/>
<path d="M31.5781 246.923C32.7164 255.182 36.1021 264.2 42.8443 273.772L45.4127 271.686C45.4127 271.686 42.4502 259.662 44.1285 246.018C39.9693 245.215 35.0514 246.047 31.5781 246.923Z" fill="url(#paint18_linear)"/>
<path d="M57.8605 217.899L53.8911 196.01C53.8911 196.01 27.3456 216.294 31.5777 246.923C35.051 246.047 39.969 245.201 44.1281 246.018C45.354 236.197 48.9731 225.531 57.8605 217.899Z" fill="url(#paint19_linear)"/>
<path d="M106.37 213.974L96.1255 236.037C97.7891 249.36 104.94 255.109 112.66 257.327C113.141 251.257 114.674 246.354 116.104 242.954C106.239 232.768 106.37 213.974 106.37 213.974Z" fill="url(#paint20_linear)"/>
<path d="M116.088 242.954C114.658 246.339 113.126 251.257 112.644 257.327C133.235 265.309 138.679 249.827 138.679 249.827L134.87 249.155C126.289 250.045 120.291 247.273 116.088 242.954Z" fill="url(#paint21_linear)"/>
<path d="M96.9274 186.73L91.9802 204.912C91.4256 206.955 89.222 208.049 87.2519 207.261C85.1359 206.415 82.4361 205.262 80.1303 204.007C77.664 202.679 76.8906 199.498 78.4521 197.163L88.7405 181.827L96.9274 186.73Z" fill="url(#paint22_linear)"/>
<path d="M148.122 237.657L21.3929 283.783C16.0809 285.723 13.5417 291.765 15.8766 296.916L16.2561 297.762C18.3283 302.315 23.7133 304.314 28.2519 302.213L151.304 245.288L148.122 237.657Z" fill="url(#paint23_linear)"/>
<path opacity="0.23" d="M206.364 271.336C240.916 271.336 268.926 243.831 268.926 209.902C268.926 175.974 240.916 148.469 206.364 148.469C171.812 148.469 143.802 175.974 143.802 209.902C143.802 243.831 171.812 271.336 206.364 271.336Z" fill="url(#paint24_linear)"/>
<path d="M206.364 141.552C167.925 141.552 136.753 172.152 136.753 209.902C136.753 247.652 167.925 278.252 206.364 278.252C244.803 278.252 275.975 247.652 275.975 209.902C275.975 172.152 244.818 141.552 206.364 141.552ZM206.364 268.213C173.573 268.213 146.983 242.107 146.983 209.902C146.983 177.697 173.573 151.592 206.364 151.592C239.156 151.592 265.745 177.697 265.745 209.902C265.759 242.107 239.17 268.213 206.364 268.213Z" fill="url(#paint25_linear)"/>
<path d="M142.051 218.38C141.817 218.38 141.613 218.205 141.584 217.972C141.379 216.337 141.233 214.688 141.146 213.069C141.131 212.806 141.335 212.587 141.584 212.573C141.89 212.558 142.065 212.762 142.08 213.01C142.153 214.616 142.299 216.235 142.503 217.84C142.532 218.103 142.357 218.337 142.094 218.366C142.094 218.366 142.065 218.38 142.051 218.38ZM142.532 199.265C142.503 199.265 142.474 199.265 142.445 199.25C142.196 199.206 142.021 198.958 142.065 198.71C142.853 194.318 144.123 189.984 145.816 185.854C155.856 161.515 179.614 145.784 206.364 145.784C218.841 145.784 230.954 149.243 241.417 155.809C241.636 155.94 241.695 156.232 241.563 156.451C241.432 156.67 241.14 156.743 240.921 156.597C230.604 150.133 218.651 146.718 206.364 146.718C179.993 146.718 156.571 162.215 146.677 186.205C144.998 190.276 143.758 194.537 142.97 198.856C142.941 199.104 142.751 199.265 142.532 199.265Z" fill="#91B3FA"/>
<path d="M107.757 172.926C107.801 173.232 103.627 193.661 103.627 193.661L92.0107 191.035L93.0907 171.087C93.0907 171.087 106.998 167.687 107.757 172.926Z" fill="url(#paint26_linear)"/>
<path d="M95.7019 175.523L94.3156 185.986C94.301 186.117 94.301 186.248 94.3156 186.38C94.4323 187.197 95.0452 189.984 97.8618 189.196C100.416 188.466 102.765 187.854 104.385 188.35C105.115 188.569 105.553 189.313 105.392 190.057C105.013 191.91 104.079 196.084 102.721 199.571C102.444 200.286 101.671 200.651 100.941 200.447C98.7374 199.805 94.1258 198.316 90.6964 196.259C90.2294 195.981 89.9521 195.471 89.9813 194.931C90.098 192.29 90.4045 184.264 90.1418 182.017C89.8937 179.901 87.3107 178.646 86.1724 178.179C85.8076 178.033 85.5157 177.741 85.3698 177.376C84.8444 176.063 84.1293 173.042 87.9382 171.802C88.7409 171.539 89.1495 170.679 88.8722 169.891C88.3031 168.315 88.0696 165.921 91.0174 164.594C94.0091 163.251 96.2565 164.842 97.4677 166.14C97.9493 166.666 98.7374 166.739 99.3503 166.359C99.7005 166.14 100.138 166.067 100.678 166.403C101.408 166.855 102.357 166.549 102.736 165.776C103.451 164.302 104.91 162.726 107.844 163.222C113.054 164.112 113.637 169.876 112.266 173.261C110.894 176.647 105.304 175.348 102.502 173.655C100.372 172.357 97.5991 173.714 96.4024 174.443C96.0084 174.691 95.7603 175.085 95.7019 175.523Z" fill="url(#paint27_linear)"/>
<path d="M89.6602 185.825C89.6602 185.825 91.8054 179.828 89.6018 178.369C87.3982 176.895 84.1439 177.668 84.8589 182.002C85.7637 187.401 89.6602 185.825 89.6602 185.825Z" fill="url(#paint28_linear)"/>
<path d="M44.3623 271.321L56.3435 270.343L61.5388 275.13C61.5388 275.13 60.3129 276.822 56.4748 275.845C52.6368 274.867 47.3831 274.633 47.3831 274.633C47.3831 274.633 42.0857 277.026 42.0273 272.547L44.3623 271.321Z" fill="url(#paint29_linear)"/>
<path d="M137.161 252.643C138.197 253.445 141.743 251.767 143.918 250.6C144.983 250.031 145.494 248.79 145.129 247.652C144.604 246.003 143.728 243.873 142.663 243.61C140.868 243.158 132.885 249.316 137.161 252.643Z" fill="url(#paint30_linear)"/>
<path d="M23.888 300.432C23.8442 300.432 23.7858 300.418 23.7274 300.403C18.7803 298.696 17.6274 295.763 17.5252 293.618C17.3939 290.466 19.364 287.547 22.4432 286.351L37.6642 280.412C37.8977 280.324 38.1749 280.441 38.2625 280.675C38.3501 280.908 38.2333 281.185 37.9998 281.287L22.7789 287.226C20.0791 288.277 18.3425 290.831 18.4592 293.574C18.576 296.288 20.4439 298.287 24.0193 299.513C24.2674 299.601 24.3987 299.863 24.3112 300.111C24.2674 300.301 24.0777 300.432 23.888 300.432Z" fill="#91B3FA"/>
<path d="M42.5377 279.493C42.348 279.493 42.1728 279.376 42.0999 279.201C42.0123 278.953 42.1291 278.69 42.3626 278.588L44.3327 277.814C44.5662 277.727 44.8434 277.844 44.931 278.077C45.0186 278.325 44.9018 278.588 44.6683 278.69L42.6982 279.463C42.6398 279.478 42.5815 279.493 42.5377 279.493Z" fill="#91B3FA"/>
<path d="M352.575 389.109C352.575 389.109 353.45 394.041 353.873 398.915C354.034 400.827 352.575 402.476 350.663 402.549C344.169 402.826 330.276 403.351 325.299 403.118C324.555 403.088 324.059 402.315 324.336 401.615C324.57 401.031 325.022 400.564 325.591 400.301L348.532 389.751L352.575 389.109Z" fill="url(#paint31_linear)"/>
<path d="M353.29 386.22L352.59 392.115C352.59 392.115 348.577 393.983 345.833 391.882L347.497 385.315L353.29 386.22Z" fill="url(#paint32_linear)"/>
<path d="M352.765 275.465C353.071 276.997 354.384 352.235 346.343 385.943C346.212 386.497 346.489 387.066 347.015 387.271C348.255 387.781 350.663 388.511 353.567 388.598C354.472 388.628 355.275 388.044 355.523 387.183C357.828 379.362 368.832 340.167 370.277 302.738C371.882 260.902 370.277 301.308 370.277 301.308L369.328 275.45L352.765 275.465Z" fill="url(#paint33_linear)"/>
<path d="M378.96 391.677C378.96 391.677 380.346 394.158 381.689 400.768C381.937 401.965 381.09 403.103 379.879 403.22C377.734 403.424 374.436 403.701 371.794 403.687C370.568 403.672 369.62 402.621 369.766 401.41C370.058 399.003 370.977 395.048 373.794 391.954L378.96 391.677Z" fill="url(#paint34_linear)"/>
<path d="M380.186 384.104L378.552 393.02C378.552 393.02 376.932 394.216 373.736 393.355L374.509 383.768L380.186 384.104Z" fill="url(#paint35_linear)"/>
<path d="M384.593 277.771C391.174 317.462 383.163 375.874 380.463 387.3C380.302 388 379.733 388.54 379.018 388.657C377.807 388.861 375.822 389.022 373.867 388.453C373.195 388.263 372.714 387.65 372.685 386.95C372.32 377.713 372.976 320.964 366.847 298.535C366.541 297.397 365.84 296.405 364.877 295.719L352.983 287.27L352.079 273.597L384.593 277.771Z" fill="url(#paint36_linear)"/>
<path d="M342.68 202.562C362.396 202.241 384.14 207.743 384.14 207.743C390.021 242.02 385.162 281.565 385.162 281.565C369.897 285.563 352.691 279.113 352.691 279.113C350.152 264.783 338.317 224.465 338.317 224.465C328.685 223.269 320.746 220.496 314.223 216.819C319.214 211.04 321.549 203.686 322.571 199.352C329.546 201.512 336.595 202.664 342.68 202.562Z" fill="url(#paint37_linear)"/>
<path d="M284.453 173.539C286.394 171.204 288.845 172.313 288.845 172.313C291.749 184.57 306.956 194.493 322.585 199.352C321.564 203.701 319.214 211.04 314.238 216.819C288.291 202.241 284.453 173.539 284.453 173.539Z" fill="url(#paint38_linear)"/>
<path d="M284.919 174.137C284.715 174.779 287.065 175.757 288.451 173.13C288.495 171.86 289.268 166.461 288.509 165.425C284.496 159.953 276.703 153.08 276.703 153.08C275.39 154.379 276.47 155.649 276.47 155.649L280.25 159.588C279.461 161.018 278.498 162.23 278.046 163.952C277.71 165.265 277.915 166.651 278.571 167.848C279.228 169.044 280.133 170.591 280.994 171.817C282.614 174.108 284.919 174.137 284.919 174.137Z" fill="url(#paint39_linear)"/>
<path d="M281.9 162.142L285.344 165.061L286.424 167.964L283.359 171.364C283.359 171.364 282.323 165.6 281.564 164.346C280.791 163.12 281.185 162.507 281.9 162.142Z" fill="url(#paint40_linear)"/>
<path d="M376.581 226.829L384.14 207.743C384.14 207.743 402.557 220.248 405.578 236.11C402.105 236.373 395.771 237.277 389.569 240.4C388.212 232.914 376.581 226.829 376.581 226.829Z" fill="url(#paint41_linear)"/>
<path d="M360.485 244.792C360.485 244.792 381.149 256.481 388.125 246.5C389.57 244.427 389.92 242.37 389.57 240.415C395.772 237.292 402.091 236.387 405.579 236.125C406.498 240.911 406.002 245.989 403.2 251.125C390.985 273.466 357.756 249.885 357.756 249.885L360.485 244.792Z" fill="url(#paint42_linear)"/>
<path d="M362.98 259.56L351.699 220.161C351.568 219.708 351.189 219.387 350.722 219.329C348.678 219.096 342.754 218.424 335.909 217.841C327.679 217.14 318.105 216.586 312.385 217.053C311.567 217.126 311.086 217.986 311.436 218.716C314.69 225.297 328.058 252.045 334.756 260.8C334.975 261.092 335.325 261.267 335.69 261.252L361.871 261.004C362.644 261.033 363.184 260.304 362.98 259.56Z" fill="url(#paint43_linear)"/>
<path d="M334.742 214.441L326.57 213.083C326.132 213.01 325.782 213.434 325.913 213.842L326.716 216.294C326.789 216.513 326.979 216.659 327.197 216.688L335.063 217.738C335.472 217.797 335.808 217.417 335.705 217.023L335.209 214.878C335.165 214.659 334.976 214.484 334.742 214.441Z" fill="url(#paint44_linear)"/>
<path d="M340.871 221.372L340.199 217.855C340.126 217.505 339.834 217.242 339.484 217.199L322.964 215.52C322.41 215.462 321.957 215.973 322.089 216.513L323.14 220.89C323.227 221.241 323.534 221.489 323.884 221.518L340.024 222.335C340.564 222.35 340.973 221.883 340.871 221.372Z" fill="url(#paint45_linear)"/>
<path d="M360.251 250.046C360.251 250.046 361.827 243.581 361.185 241.29C360.557 238.999 359.317 236.052 355.231 236.708C351.13 237.365 346.314 239.087 346.314 239.087C346.314 239.087 346.562 242.078 349.67 241.115L347.744 242.603C347.744 242.603 348.021 244.997 350.648 243.712L348.853 245.697C348.853 245.697 349.977 247.667 351.918 246.397C353.844 245.143 354.764 250.819 360.251 250.046Z" fill="url(#paint46_linear)"/>
<path d="M362.644 186.569L368.919 204.707C369.022 205.014 368.905 205.335 368.628 205.495C366.92 206.444 360.762 209.173 353.334 204.474C352.56 203.978 352.035 203.19 351.918 202.271L349.89 186.569H362.644Z" fill="url(#paint47_linear)"/>
<path d="M348.999 169.774C348.999 169.774 342.111 182.732 343.001 187.97C343.877 193.209 352.414 192.829 359.871 188.583L365.081 174.589L348.999 169.774Z" fill="url(#paint48_linear)"/>
<path d="M359.535 181.71C359.229 181.579 359.127 181.199 359.302 180.922C359.856 180.076 360.893 178.354 361.214 176.851C361.214 176.851 362.454 176.063 358.061 175.012C353.669 173.962 347.131 172.327 345.745 168.592C344.402 164.944 347.934 155.794 353.552 163.09C353.771 163.368 354.18 163.368 354.398 163.09C355.318 161.894 357.74 159.399 361.111 160.916C364.264 162.332 364.614 164.637 364.57 165.805C364.556 166.14 364.862 166.417 365.198 166.345C366.788 166.038 370.612 165.775 372.392 169.701C373.866 172.926 372.903 174.75 372.042 175.654C371.765 175.946 371.881 176.428 372.275 176.544C373.326 176.865 374.669 177.756 374.537 180.207C374.348 183.592 370.568 183.301 369.488 183.14C369.313 183.111 369.138 183.169 369.007 183.301C368.087 184.322 363.913 188.671 359.404 189.196C359.01 189.24 358.704 188.86 358.835 188.481L360.79 182.804C360.878 182.542 360.761 182.25 360.499 182.133L359.535 181.71Z" fill="url(#paint49_linear)"/>
<path d="M358.747 182.513C358.747 182.513 363.65 179.142 364.015 181.987C364.38 184.818 359.593 186.088 357.229 185.037L358.747 182.513Z" fill="url(#paint50_linear)"/>
<path d="M122.276 98.7098L141.117 99.9939C142.007 100.067 142.503 98.9725 141.846 98.3596L123.779 84.9785L122.276 98.7098Z" fill="#91B3FA"/>
<path d="M14.6212 38.4002L120.759 37.7581C123.196 37.7436 125.166 39.5384 125.137 41.7564L124.685 95.193C124.67 97.4257 122.642 99.1913 120.205 99.1329L15.2195 96.2583C12.8845 96.1999 11.0312 94.4634 11.002 92.3476L10.3015 42.4422C10.2577 40.2242 12.1987 38.4148 14.6212 38.4002Z" fill="#91B3FA"/>
<path opacity="0.14" d="M17.9042 41.6688L117.286 41.0997C119.562 41.0851 121.416 42.6611 121.386 44.6018L120.963 91.2823C120.949 93.223 122.612 95.9664 120.321 95.908L18.4588 92.2162C16.2698 92.1578 14.5331 90.6548 14.504 88.787L13.8473 45.1855C13.8327 43.2594 15.6422 41.6834 17.9042 41.6688Z" fill="white"/>
<path opacity="0.77" d="M120.335 95.9081L15.321 93.0335C14.8832 93.0189 14.5329 92.6978 14.5184 92.2892L13.8179 42.3839C13.8179 42.1797 13.8908 41.99 14.0514 41.844C14.2119 41.6981 14.4162 41.6252 14.6351 41.6106L120.773 40.9685C121.007 40.9685 121.211 41.0415 121.357 41.1874C121.517 41.3333 121.605 41.523 121.605 41.7273L121.167 95.1639C121.153 95.5725 120.788 95.9081 120.335 95.9081ZM15.3648 92.2601L120.35 95.1347L120.759 41.7127L14.6497 42.3839L15.3648 92.2601Z" fill="white"/>
<path opacity="0.77" d="M20.7354 53.7512C20.7354 55.6482 21.8299 57.1804 23.2016 57.1804H113.477C114.834 57.1804 115.943 55.6482 115.943 53.7512C115.943 51.8542 114.848 50.322 113.477 50.322H23.2016C21.8445 50.322 20.7354 51.8542 20.7354 53.7512Z" fill="white"/>
<path opacity="0.77" d="M25.6833 63.0173H110.311C112.149 63.0173 113.638 63.9366 113.638 65.0748C113.638 66.213 112.149 67.1323 110.311 67.1323H25.6833C23.8445 67.1323 22.356 66.213 22.356 65.0748C22.356 63.9366 23.8445 63.0173 25.6833 63.0173Z" fill="white"/>
<path opacity="0.77" d="M22.356 74.4137C22.356 75.5519 23.8445 76.4566 25.6833 76.4566H110.325C112.164 76.4566 113.653 75.5373 113.653 74.4137V73.1442C113.653 71.9914 112.106 71.0721 110.238 71.1013L25.5957 72.3708C23.7861 72.3854 22.356 73.3047 22.356 74.4137Z" fill="white"/>
<path opacity="0.77" d="M26.0182 80.8782H110.646C112.484 80.8782 113.973 81.7975 113.973 82.9357C113.973 84.0739 112.484 84.9932 110.646 84.9932H26.0182C24.1794 84.9932 22.6909 84.0739 22.6909 82.9357C22.6909 81.7975 24.1794 80.8782 26.0182 80.8782Z" fill="white"/>
<defs>
<linearGradient id="paint0_linear" x1="139.444" y1="22.0625" x2="97.5815" y2="356.993" gradientUnits="userSpaceOnUse">
<stop stop-color="#FF928E"/>
<stop offset="1" stop-color="#FE7062"/>
</linearGradient>
<linearGradient id="paint1_linear" x1="434.189" y1="402.028" x2="162.533" y2="255.964" gradientUnits="userSpaceOnUse">
<stop stop-color="#4F52FF"/>
<stop offset="1" stop-color="#4042E2"/>
</linearGradient>
<linearGradient id="paint2_linear" x1="243.897" y1="251.061" x2="409.415" y2="76.7662" gradientUnits="userSpaceOnUse">
<stop stop-color="#4F52FF"/>
<stop offset="1" stop-color="#4042E2"/>
</linearGradient>
<linearGradient id="paint3_linear" x1="359.769" y1="71.9926" x2="235.894" y2="193.184" gradientUnits="userSpaceOnUse">
<stop stop-color="#2B3582"/>
<stop offset="1" stop-color="#150E42"/>
</linearGradient>
<linearGradient id="paint4_linear" x1="219.15" y1="159.541" x2="207.061" y2="171.369" gradientUnits="userSpaceOnUse">
<stop stop-color="#09005D"/>
<stop offset="1" stop-color="#1A0F91"/>
</linearGradient>
<linearGradient id="paint5_linear" x1="266.19" y1="133.841" x2="254.1" y2="145.669" gradientUnits="userSpaceOnUse">
<stop stop-color="#09005D"/>
<stop offset="1" stop-color="#1A0F91"/>
</linearGradient>
<linearGradient id="paint6_linear" x1="310.318" y1="152.268" x2="298.229" y2="164.096" gradientUnits="userSpaceOnUse">
<stop stop-color="#09005D"/>
<stop offset="1" stop-color="#1A0F91"/>
</linearGradient>
<linearGradient id="paint7_linear" x1="347.174" y1="115.9" x2="335.085" y2="127.728" gradientUnits="userSpaceOnUse">
<stop stop-color="#09005D"/>
<stop offset="1" stop-color="#1A0F91"/>
</linearGradient>
<linearGradient id="paint8_linear" x1="392.757" y1="89.716" x2="380.668" y2="101.544" gradientUnits="userSpaceOnUse">
<stop stop-color="#09005D"/>
<stop offset="1" stop-color="#1A0F91"/>
</linearGradient>
<linearGradient id="paint9_linear" x1="54.9997" y1="403.264" x2="82.5811" y2="403.264" gradientUnits="userSpaceOnUse">
<stop stop-color="#4F52FF"/>
<stop offset="1" stop-color="#4042E2"/>
</linearGradient>
<linearGradient id="paint10_linear" x1="54.9975" y1="397.858" x2="81.8017" y2="397.858" gradientUnits="userSpaceOnUse">
<stop stop-color="#09005D"/>
<stop offset="1" stop-color="#1A0F91"/>
</linearGradient>
<linearGradient id="paint11_linear" x1="57.545" y1="390.312" x2="65.3141" y2="390.312" gradientUnits="userSpaceOnUse">
<stop stop-color="#FEBBBA"/>
<stop offset="1" stop-color="#FF928E"/>
</linearGradient>
<linearGradient id="paint12_linear" x1="0.0126989" y1="402.669" x2="10.5824" y2="402.669" gradientUnits="userSpaceOnUse">
<stop stop-color="#4F52FF"/>
<stop offset="1" stop-color="#4042E2"/>
</linearGradient>
<linearGradient id="paint13_linear" x1="0.0894299" y1="394.531" x2="15.6036" y2="394.531" gradientUnits="userSpaceOnUse">
<stop stop-color="#09005D"/>
<stop offset="1" stop-color="#1A0F91"/>
</linearGradient>
<linearGradient id="paint14_linear" x1="8.15257" y1="383.836" x2="17.4375" y2="383.836" gradientUnits="userSpaceOnUse">
<stop stop-color="#FEBBBA"/>
<stop offset="1" stop-color="#FF928E"/>
</linearGradient>
<linearGradient id="paint15_linear" x1="-87.5523" y1="487.806" x2="101.331" y2="283.327" gradientUnits="userSpaceOnUse">
<stop stop-color="#4F52FF"/>
<stop offset="1" stop-color="#4042E2"/>
</linearGradient>
<linearGradient id="paint16_linear" x1="-339.116" y1="554.997" x2="-246.132" y2="482.941" gradientUnits="userSpaceOnUse">
<stop stop-color="#FF928E"/>
<stop offset="1" stop-color="#FE7062"/>
</linearGradient>
<linearGradient id="paint17_linear" x1="59.4719" y1="221.128" x2="62.3926" y2="268.349" gradientUnits="userSpaceOnUse">
<stop stop-color="#4F52FF"/>
<stop offset="1" stop-color="#4042E2"/>
</linearGradient>
<linearGradient id="paint18_linear" x1="50.6918" y1="248.508" x2="17.6415" y2="277.777" gradientUnits="userSpaceOnUse">
<stop stop-color="#FEBBBA"/>
<stop offset="1" stop-color="#FF928E"/>
</linearGradient>
<linearGradient id="paint19_linear" x1="-355.218" y1="534.22" x2="-262.234" y2="462.164" gradientUnits="userSpaceOnUse">
<stop stop-color="#FF928E"/>
<stop offset="1" stop-color="#FE7062"/>
</linearGradient>
<linearGradient id="paint20_linear" x1="-325.441" y1="572.645" x2="-232.457" y2="500.588" gradientUnits="userSpaceOnUse">
<stop stop-color="#FF928E"/>
<stop offset="1" stop-color="#FE7062"/>
</linearGradient>
<linearGradient id="paint21_linear" x1="112.652" y1="251.277" x2="138.682" y2="251.277" gradientUnits="userSpaceOnUse">
<stop stop-color="#FEBBBA"/>
<stop offset="1" stop-color="#FF928E"/>
</linearGradient>
<linearGradient id="paint22_linear" x1="87.3504" y1="181.72" x2="87.0662" y2="230.326" gradientUnits="userSpaceOnUse">
<stop stop-color="#FEBBBA"/>
<stop offset="1" stop-color="#FF928E"/>
</linearGradient>
<linearGradient id="paint23_linear" x1="158.442" y1="243.517" x2="13.8478" y2="297.074" gradientUnits="userSpaceOnUse">
<stop stop-color="#09005D"/>
<stop offset="1" stop-color="#1A0F91"/>
</linearGradient>
<linearGradient id="paint24_linear" x1="143.808" y1="209.907" x2="268.927" y2="209.907" gradientUnits="userSpaceOnUse">
<stop stop-color="#B37CFF"/>
<stop offset="1" stop-color="#F895E7"/>
</linearGradient>
<linearGradient id="paint25_linear" x1="136.756" y1="209.907" x2="275.98" y2="209.907" gradientUnits="userSpaceOnUse">
<stop stop-color="#09005D"/>
<stop offset="1" stop-color="#1A0F91"/>
</linearGradient>
<linearGradient id="paint26_linear" x1="103.125" y1="173.728" x2="83.9665" y2="208.472" gradientUnits="userSpaceOnUse">
<stop stop-color="#FEBBBA"/>
<stop offset="1" stop-color="#FF928E"/>
</linearGradient>
<linearGradient id="paint27_linear" x1="81.3089" y1="178.937" x2="164.328" y2="189.435" gradientUnits="userSpaceOnUse">
<stop stop-color="#09005D"/>
<stop offset="1" stop-color="#1A0F91"/>
</linearGradient>
<linearGradient id="paint28_linear" x1="72.0198" y1="203.54" x2="88.2007" y2="181.312" gradientUnits="userSpaceOnUse">
<stop stop-color="#FEBBBA"/>
<stop offset="1" stop-color="#FF928E"/>
</linearGradient>
<linearGradient id="paint29_linear" x1="63.7446" y1="263.247" x2="30.6944" y2="292.516" gradientUnits="userSpaceOnUse">
<stop stop-color="#FEBBBA"/>
<stop offset="1" stop-color="#FF928E"/>
</linearGradient>
<linearGradient id="paint30_linear" x1="135.917" y1="248.22" x2="145.239" y2="248.22" gradientUnits="userSpaceOnUse">
<stop stop-color="#FEBBBA"/>
<stop offset="1" stop-color="#FF928E"/>
</linearGradient>
<linearGradient id="paint31_linear" x1="326.017" y1="382.307" x2="410.019" y2="473.686" gradientUnits="userSpaceOnUse">
<stop stop-color="#4F52FF"/>
<stop offset="1" stop-color="#4042E2"/>
</linearGradient>
<linearGradient id="paint32_linear" x1="353.286" y1="389.093" x2="345.824" y2="389.093" gradientUnits="userSpaceOnUse">
<stop stop-color="#FEBBBA"/>
<stop offset="1" stop-color="#FF928E"/>
</linearGradient>
<linearGradient id="paint33_linear" x1="370.98" y1="332.04" x2="346.306" y2="332.04" gradientUnits="userSpaceOnUse">
<stop stop-color="#09005D"/>
<stop offset="1" stop-color="#1A0F91"/>
</linearGradient>
<linearGradient id="paint34_linear" x1="344.863" y1="364.982" x2="428.866" y2="456.361" gradientUnits="userSpaceOnUse">
<stop stop-color="#4F52FF"/>
<stop offset="1" stop-color="#4042E2"/>
</linearGradient>
<linearGradient id="paint35_linear" x1="380.18" y1="388.71" x2="373.737" y2="388.71" gradientUnits="userSpaceOnUse">
<stop stop-color="#FEBBBA"/>
<stop offset="1" stop-color="#FF928E"/>
</linearGradient>
<linearGradient id="paint36_linear" x1="387.124" y1="331.233" x2="352.095" y2="331.233" gradientUnits="userSpaceOnUse">
<stop stop-color="#09005D"/>
<stop offset="1" stop-color="#1A0F91"/>
</linearGradient>
<linearGradient id="paint37_linear" x1="306.113" y1="312.598" x2="374.749" y2="208.906" gradientUnits="userSpaceOnUse">
<stop stop-color="#FF928E"/>
<stop offset="1" stop-color="#FE7062"/>
</linearGradient>
<linearGradient id="paint38_linear" x1="322.579" y1="194.43" x2="284.456" y2="194.43" gradientUnits="userSpaceOnUse">
<stop stop-color="#FEBBBA"/>
<stop offset="1" stop-color="#FF928E"/>
</linearGradient>
<linearGradient id="paint39_linear" x1="292.948" y1="188.041" x2="318.526" y2="246.241" gradientUnits="userSpaceOnUse">
<stop stop-color="#FEBBBA"/>
<stop offset="1" stop-color="#FF928E"/>
</linearGradient>
<linearGradient id="paint40_linear" x1="284.64" y1="168.659" x2="273.967" y2="152.248" gradientUnits="userSpaceOnUse">
<stop stop-color="#FEBBBA"/>
<stop offset="1" stop-color="#FF928E"/>
</linearGradient>
<linearGradient id="paint41_linear" x1="326.083" y1="325.816" x2="394.719" y2="222.124" gradientUnits="userSpaceOnUse">
<stop stop-color="#FF928E"/>
<stop offset="1" stop-color="#FE7062"/>
</linearGradient>
<linearGradient id="paint42_linear" x1="406" y1="248.426" x2="357.755" y2="248.426" gradientUnits="userSpaceOnUse">
<stop stop-color="#FEBBBA"/>
<stop offset="1" stop-color="#FF928E"/>
</linearGradient>
<linearGradient id="paint43_linear" x1="343.159" y1="214.129" x2="316.635" y2="324.654" gradientUnits="userSpaceOnUse">
<stop stop-color="#09005D"/>
<stop offset="1" stop-color="#1A0F91"/>
</linearGradient>
<linearGradient id="paint44_linear" x1="326.55" y1="196.707" x2="332.199" y2="221.515" gradientUnits="userSpaceOnUse">
<stop stop-color="#4F52FF"/>
<stop offset="1" stop-color="#4042E2"/>
</linearGradient>
<linearGradient id="paint45_linear" x1="329.506" y1="207.113" x2="332.208" y2="223.324" gradientUnits="userSpaceOnUse">
<stop stop-color="#4F52FF"/>
<stop offset="1" stop-color="#4042E2"/>
</linearGradient>
<linearGradient id="paint46_linear" x1="361.336" y1="243.368" x2="346.306" y2="243.368" gradientUnits="userSpaceOnUse">
<stop stop-color="#FEBBBA"/>
<stop offset="1" stop-color="#FF928E"/>
</linearGradient>
<linearGradient id="paint47_linear" x1="366.546" y1="225.61" x2="354.376" y2="181.796" gradientUnits="userSpaceOnUse">
<stop stop-color="#FEBBBA"/>
<stop offset="1" stop-color="#FF928E"/>
</linearGradient>
<linearGradient id="paint48_linear" x1="345.343" y1="184.72" x2="366.314" y2="171.928" gradientUnits="userSpaceOnUse">
<stop stop-color="#FEBBBA"/>
<stop offset="1" stop-color="#FF928E"/>
</linearGradient>
<linearGradient id="paint49_linear" x1="377.417" y1="158.447" x2="350.325" y2="179.847" gradientUnits="userSpaceOnUse">
<stop stop-color="#09005D"/>
<stop offset="1" stop-color="#1A0F91"/>
</linearGradient>
<linearGradient id="paint50_linear" x1="350.851" y1="189.49" x2="369.719" y2="177.98" gradientUnits="userSpaceOnUse">
<stop stop-color="#FEBBBA"/>
<stop offset="1" stop-color="#FF928E"/>
</linearGradient>
</defs>
</svg>
