<svg width="29" height="29" viewBox="0 0 29 29" fill="none" xmlns="http://www.w3.org/2000/svg">
<path d="M14.5068 28.0059C22.2388 28.0059 28.5068 21.7378 28.5068 14.0059C28.5068 6.27387 22.2388 0.00585938 14.5068 0.00585938C6.77485 0.00585938 0.506836 6.27387 0.506836 14.0059C0.506836 21.7378 6.77485 28.0059 14.5068 28.0059Z" fill="#4F4F4F"/>
<path fill-rule="evenodd" clip-rule="evenodd" d="M13.9785 20.1455H15.0773C15.0773 20.1455 15.4092 20.1091 15.5787 19.9264C15.7347 19.7587 15.7297 19.4437 15.7297 19.4437C15.7297 19.4437 15.7082 17.9693 16.3925 17.7522C17.0671 17.5383 17.9333 19.1772 18.8515 19.8074C19.5458 20.2843 20.0733 20.1797 20.0733 20.1797L22.5283 20.1455C22.5283 20.1455 23.8125 20.0664 23.2036 19.0567C23.1537 18.9741 22.849 18.3097 21.3783 16.9446C19.839 15.5159 20.0451 15.747 21.8994 13.2755C23.0287 11.7704 23.4801 10.8515 23.3391 10.458C23.2046 10.0831 22.3741 10.1822 22.3741 10.1822L19.6099 10.1994C19.6099 10.1994 19.405 10.1715 19.253 10.2623C19.1045 10.3514 19.009 10.559 19.009 10.559C19.009 10.559 18.5715 11.7237 17.988 12.7143C16.7571 14.8044 16.265 14.9147 16.0639 14.7849C15.5959 14.4824 15.7127 13.5698 15.7127 12.9214C15.7127 10.8959 16.0199 10.0514 15.1145 9.83281C14.814 9.76018 14.5929 9.71227 13.8245 9.70453C12.8382 9.6943 12.0035 9.70753 11.5308 9.93912C11.2163 10.0931 10.9738 10.4363 11.1215 10.456C11.3042 10.4804 11.718 10.5675 11.9373 10.8662C12.2206 11.2516 12.2106 12.1171 12.2106 12.1171C12.2106 12.1171 12.3733 14.5014 11.8305 14.7976C11.4579 15.0008 10.9468 14.586 9.84948 12.6898C9.28721 11.7185 8.8627 10.6449 8.8627 10.6449C8.8627 10.6449 8.78085 10.4442 8.63485 10.3369C8.45766 10.2069 8.2101 10.1655 8.2101 10.1655L5.58344 10.1827C5.58344 10.1827 5.18913 10.1937 5.04439 10.3651C4.91561 10.5176 5.03415 10.8331 5.03415 10.8331C5.03415 10.8331 7.09056 15.6441 9.41898 18.0686C11.554 20.2915 13.9785 20.1455 13.9785 20.1455Z" fill="#F3E1DF"/>
</svg>
